<?xml version="1.0" encoding="UTF-8"?><svg xmlns="http://www.w3.org/2000/svg" xmlns:xlink="http://www.w3.org/1999/xlink" viewBox="0 0 1281.98 321.68"><defs><style>.uuid-550ef1bf-eb2c-443d-8ff8-9130457ef45e{fill:none;}.uuid-4d6ad4b6-333d-4979-93d9-81ff4c592729{clip-path:url(#uuid-af77c21e-42b9-4b76-8ec3-88454e52b09b);}.uuid-6f245de3-3b18-477d-9a36-1088ca6093d5{fill:url(#uuid-6ab8b2e3-682c-4993-b073-8c407926c409);}.uuid-6ea1c00d-ebde-4c55-972e-ca8614cf70fa{fill:url(#uuid-268d3003-76b0-4def-b1a5-8680ddc26a70);}.uuid-47805652-71bc-413c-88a3-fe6938a5cbe7{isolation:isolate;}.uuid-e9239385-713f-46be-b77d-3d35ff6e9a70{mix-blend-mode:overlay;}.uuid-2bfb687f-9c8a-432f-ada9-c69b588c9306{clip-path:url(#uuid-185d904a-7f41-4aea-b33b-ecb0ece7c156);}.uuid-eb2545fa-4580-46b4-8d34-8941b0fb4ca0{clip-path:url(#uuid-1709be03-d824-49dc-a0cd-e67d18ee367e);}.uuid-c5869a07-115a-461d-b463-ad5401904c34{fill:url(#uuid-06d19885-6c09-4889-9375-31b2c1e8bfda);}.uuid-4aa27e01-22f4-4ed8-959c-f1c2b73f7b79{clip-path:url(#uuid-916e379f-3a5c-4c6c-bb0e-640e16de12d3);}.uuid-ff0b2cbe-7622-4a14-a4bf-e0c3892aaf4a{clip-path:url(#uuid-5bc28b07-e230-42a5-bd92-73c0028167d2);}</style><clipPath id="uuid-916e379f-3a5c-4c6c-bb0e-640e16de12d3"><rect class="uuid-550ef1bf-eb2c-443d-8ff8-9130457ef45e" width="1281.98" height="321.68"/></clipPath><clipPath id="uuid-185d904a-7f41-4aea-b33b-ecb0ece7c156"><polygon class="uuid-550ef1bf-eb2c-443d-8ff8-9130457ef45e" points="1281.37 264.22 -16.39 238.44 -12.36 58.61 1285.39 84.4 1281.37 264.22"/></clipPath><linearGradient id="uuid-268d3003-76b0-4def-b1a5-8680ddc26a70" x1="-6033.33" y1="-1330.56" x2="-5697.66" y2="-1809.96" gradientTransform="translate(-6793.36 1977.91) rotate(-175.98) scale(1.24 -1.48)" gradientUnits="userSpaceOnUse"><stop offset="0" stop-color="#ffe608"/><stop offset=".3" stop-color="#fcd204"/><stop offset=".68" stop-color="#fabf01"/><stop offset=".95" stop-color="#fab900"/></linearGradient><linearGradient id="uuid-6ab8b2e3-682c-4993-b073-8c407926c409" x1="-5888.21" y1="-1457.72" x2="-5846.48" y2="-1636.43" gradientTransform="translate(-6793.36 1977.91) rotate(-175.98) scale(1.24 -1.48)" gradientUnits="userSpaceOnUse"><stop offset=".63" stop-color="#cdcdcd"/><stop offset=".67" stop-color="#b7b7b7"/><stop offset=".76" stop-color="#8d8d8d"/><stop offset=".83" stop-color="#6f6f6f"/><stop offset=".9" stop-color="#5d5d5c"/><stop offset=".95" stop-color="#575756"/></linearGradient><linearGradient id="uuid-06d19885-6c09-4889-9375-31b2c1e8bfda" x1="159.65" y1="-1296.1" x2="1205.11" y2="-1296.1" gradientTransform="translate(-156.66 2117.89) rotate(-1.6) scale(1.24 1.48)" gradientUnits="userSpaceOnUse"><stop offset="0" stop-color="#fff59f"/><stop offset=".05" stop-color="#feef8f"/><stop offset=".24" stop-color="#fcdb5c"/><stop offset=".41" stop-color="#fbcc34"/><stop offset=".57" stop-color="#fac117"/><stop offset=".71" stop-color="#fabb06"/><stop offset=".81" stop-color="#fab900"/></linearGradient><clipPath id="uuid-5bc28b07-e230-42a5-bd92-73c0028167d2"><polygon class="uuid-550ef1bf-eb2c-443d-8ff8-9130457ef45e" points="1281.37 264.22 -16.39 238.44 -12.36 58.61 1285.39 84.4 1281.37 264.22"/></clipPath><clipPath id="uuid-1709be03-d824-49dc-a0cd-e67d18ee367e"><polygon class="uuid-550ef1bf-eb2c-443d-8ff8-9130457ef45e" points="1281.37 264.22 -16.39 238.44 -12.36 58.61 1285.39 84.4 1281.37 264.22"/></clipPath><clipPath id="uuid-af77c21e-42b9-4b76-8ec3-88454e52b09b"><polygon class="uuid-550ef1bf-eb2c-443d-8ff8-9130457ef45e" points="1281.37 264.22 -16.39 238.44 -12.36 58.61 1285.39 84.4 1281.37 264.22"/></clipPath></defs><g class="uuid-47805652-71bc-413c-88a3-fe6938a5cbe7"><g id="uuid-9bf8c4cd-738b-43ab-84b6-0e849a65e705"><g id="uuid-da476b01-a0c1-43b3-9da6-3f4b4c18c026"><g class="uuid-4aa27e01-22f4-4ed8-959c-f1c2b73f7b79"><polygon points="1342.28 183.02 1048.3 197.54 859.57 186.65 580.1 212.06 344.19 212.06 81.06 166.69 -139.38 183.02 -139.38 -308.09 1342.28 -308.09 1342.28 183.02"/><g class="uuid-2bfb687f-9c8a-432f-ada9-c69b588c9306"><path class="uuid-6ea1c00d-ebde-4c55-972e-ca8614cf70fa" d="M-9.99,206.18l-3.98-75.61s235.53-33.09,767.49,44.62c193.14,28.21,530.88-46.29,530.88-46.29l-1.49,66.45C443.86,78.12-9.99,206.18-9.99,206.18Z"/><path class="uuid-6f245de3-3b18-477d-9a36-1088ca6093d5" d="M-26.32,143.38s89.62,18.44,268.1,30.68c110.32,7.57,166.38-41.01,401.36,4.4,131.55,25.43,552.43,43.27,641.9-32.04l-.69,30.78s-112.99,41.26-199.31,25.99c-142.74-25.26-400.56-53.26-530.39-31.85-166.1,27.39-257.96-18.1-325.68-26.46-152.73-18.86-253.71,29.32-253.71,29.32l-1.58-30.82Z"/><path class="uuid-c5869a07-115a-461d-b463-ad5401904c34" d="M-13.97,130.57c425.99,110.98,554.9,85.15,787.83,28.71,341.38-82.72,510.49,17.92,510.49,17.92l.69-30.78s-107.67-53.17-465.85,54.31C544.24,283.23-11.69,168.86-8.7,148.64l-5.27-18.07Z"/></g><g class="uuid-e9239385-713f-46be-b77d-3d35ff6e9a70"><g class="uuid-ff0b2cbe-7622-4a14-a4bf-e0c3892aaf4a"><path class="uuid-6ea1c00d-ebde-4c55-972e-ca8614cf70fa" d="M-9.99,206.18l-3.98-75.61s235.53-33.09,767.49,44.62c193.14,28.21,530.88-46.29,530.88-46.29l-1.49,66.45C443.86,78.12-9.99,206.18-9.99,206.18Z"/><path class="uuid-6f245de3-3b18-477d-9a36-1088ca6093d5" d="M-26.32,143.38s89.62,18.44,268.1,30.68c110.32,7.57,166.38-41.01,401.36,4.4,131.55,25.43,552.43,43.27,641.9-32.04l-.69,30.78s-112.99,41.26-199.31,25.99c-142.74-25.26-400.56-53.26-530.39-31.85-166.1,27.39-257.96-18.1-325.68-26.46-152.73-18.86-253.71,29.32-253.71,29.32l-1.58-30.82Z"/><path class="uuid-c5869a07-115a-461d-b463-ad5401904c34" d="M-13.97,130.57c425.99,110.98,554.9,85.15,787.83,28.71,341.38-82.72,510.49,17.92,510.49,17.92l.69-30.78s-107.67-53.17-465.85,54.31C544.24,283.23-11.69,168.86-8.7,148.64l-5.27-18.07Z"/></g></g><g class="uuid-e9239385-713f-46be-b77d-3d35ff6e9a70"><g class="uuid-eb2545fa-4580-46b4-8d34-8941b0fb4ca0"><path class="uuid-6ea1c00d-ebde-4c55-972e-ca8614cf70fa" d="M-9.99,206.18l-3.98-75.61s235.53-33.09,767.49,44.62c193.14,28.21,530.88-46.29,530.88-46.29l-1.49,66.45C443.86,78.12-9.99,206.18-9.99,206.18Z"/><path class="uuid-6f245de3-3b18-477d-9a36-1088ca6093d5" d="M-26.32,143.38s89.62,18.44,268.1,30.68c110.32,7.57,166.38-41.01,401.36,4.4,131.55,25.43,552.43,43.27,641.9-32.04l-.69,30.78s-112.99,41.26-199.31,25.99c-142.74-25.26-400.56-53.26-530.39-31.85-166.1,27.39-257.96-18.1-325.68-26.46-152.73-18.86-253.71,29.32-253.71,29.32l-1.58-30.82Z"/><path class="uuid-c5869a07-115a-461d-b463-ad5401904c34" d="M-13.97,130.57c425.99,110.98,554.9,85.15,787.83,28.71,341.38-82.72,510.49,17.92,510.49,17.92l.69-30.78s-107.67-53.17-465.85,54.31C544.24,283.23-11.69,168.86-8.7,148.64l-5.27-18.07Z"/></g></g><g class="uuid-e9239385-713f-46be-b77d-3d35ff6e9a70"><g class="uuid-4d6ad4b6-333d-4979-93d9-81ff4c592729"><path class="uuid-6ea1c00d-ebde-4c55-972e-ca8614cf70fa" d="M-9.99,206.18l-3.98-75.61s235.53-33.09,767.49,44.62c193.14,28.21,530.88-46.29,530.88-46.29l-1.49,66.45C443.86,78.12-9.99,206.18-9.99,206.18Z"/><path class="uuid-6f245de3-3b18-477d-9a36-1088ca6093d5" d="M-26.32,143.38s89.62,18.44,268.1,30.68c110.32,7.57,166.38-41.01,401.36,4.4,131.55,25.43,552.43,43.27,641.9-32.04l-.69,30.78s-112.99,41.26-199.31,25.99c-142.74-25.26-400.56-53.26-530.39-31.85-166.1,27.39-257.96-18.1-325.68-26.46-152.73-18.86-253.71,29.32-253.71,29.32l-1.58-30.82Z"/><path class="uuid-c5869a07-115a-461d-b463-ad5401904c34" d="M-13.97,130.57c425.99,110.98,554.9,85.15,787.83,28.71,341.38-82.72,510.49,17.92,510.49,17.92l.69-30.78s-107.67-53.17-465.85,54.31C544.24,283.23-11.69,168.86-8.7,148.64l-5.27-18.07Z"/></g></g></g></g></g></g></svg>