<?xml version="1.0" encoding="UTF-8"?><svg xmlns="http://www.w3.org/2000/svg" xmlns:xlink="http://www.w3.org/1999/xlink" viewBox="0 0 1276.74 272.8"><defs><style>.uuid-de06331e-0137-4b03-a54b-96dde0cee2ac{clip-path:url(#uuid-002664e3-fd8c-4f84-981b-21ffcbea8985);}.uuid-a3e96621-a72d-4b74-bf4e-fd899b808841{fill:none;}.uuid-5f1833ff-a8c8-4373-a3ed-3b59a7fdd5e4{clip-path:url(#uuid-8ecaeb1d-796b-4751-8d34-6531b456c41b);}.uuid-5d7e0d3d-16b0-4a6c-ada9-1a57319ddd22{fill:#ffe900;}.uuid-0febd106-06fa-4c4f-8805-ff3fbace5698{fill:#ffcb00;}.uuid-c3cda675-29a8-48d0-b11f-b71d960dac98{clip-path:url(#uuid-43503657-6a43-4475-b673-09f281dca00a);}.uuid-a372e7d1-0ef3-45af-985c-cc0d1cc1f3e9{fill:url(#uuid-8e02abfd-ecb2-4119-94a0-5edbe0b781cc);}.uuid-5e95c61b-e37d-46d4-88fa-45d4ccf5397c{fill:url(#uuid-d92e5672-5e67-4a89-8361-b337e7abb8b9);}.uuid-8ed3af4b-ec2f-4d0f-b18e-31a326d8b87d{fill:url(#uuid-f40cba89-689f-4112-9287-b344245480c8);}.uuid-bd797bb3-25e0-43f5-bd46-9e61602334c8{clip-path:url(#uuid-f5bc41f1-9611-473a-9be1-aadb196236ab);}.uuid-7dcc2a04-5b18-4077-98dc-2912163b5fe1{clip-path:url(#uuid-a20e747a-f627-4ec5-866e-d86db4adfe90);}.uuid-bfb8c31d-bdd6-4c73-bae7-e735e4204c7d{isolation:isolate;}.uuid-6c41e6b2-3053-4566-b082-144639964444{fill:url(#uuid-3a5ad3e0-36e0-4551-82e8-478e97c7f760);}.uuid-3a047d42-8d9b-4914-8e9d-cadf0f8a5f84{clip-path:url(#uuid-b3a22152-1a77-44bb-bd82-b1b4b9b56601);}.uuid-1da5dad5-7e19-4f97-a822-4d95843be542{fill:#fff;}.uuid-3a3d4b07-8dc6-4f35-9314-f9dd667eb375{mix-blend-mode:overlay;}.uuid-16a11873-6681-407d-88d0-94f2a4e084c5{clip-path:url(#uuid-abf4c0e1-eca8-45a4-8793-11f716bb4ff7);}</style><clipPath id="uuid-43503657-6a43-4475-b673-09f281dca00a"><rect class="uuid-a3e96621-a72d-4b74-bf4e-fd899b808841" width="1276.74" height="272.8"/></clipPath><clipPath id="uuid-8ecaeb1d-796b-4751-8d34-6531b456c41b"><rect class="uuid-a3e96621-a72d-4b74-bf4e-fd899b808841" x="-5.85" y="-130.86" width="1310.24" height="346.41" transform="translate(-.25 4) rotate(-.35)"/></clipPath><linearGradient id="uuid-d92e5672-5e67-4a89-8361-b337e7abb8b9" x1="-510.9" y1="803.92" x2="-1104.31" y2="-43.56" gradientTransform="translate(1494.03 -419.31) rotate(-17.02) scale(1.18 .68)" gradientUnits="userSpaceOnUse"><stop offset=".02" stop-color="#fff6aa"/><stop offset=".06" stop-color="#fff6ae"/><stop offset=".1" stop-color="#fff7ba"/><stop offset=".13" stop-color="#fff9ce"/><stop offset=".17" stop-color="#fffceb"/><stop offset=".19" stop-color="#fff"/><stop offset=".21" stop-color="#fffbe4"/><stop offset=".23" stop-color="#fff4b8"/><stop offset=".26" stop-color="#ffee90"/><stop offset=".28" stop-color="#ffe96f"/><stop offset=".31" stop-color="#ffe554"/><stop offset=".34" stop-color="#ffe23f"/><stop offset=".38" stop-color="#ffe031"/><stop offset=".42" stop-color="#ffdf28"/><stop offset=".48" stop-color="#ffdf26"/><stop offset=".86" stop-color="#fbc40b"/><stop offset="1" stop-color="#fab900"/></linearGradient><linearGradient id="uuid-f40cba89-689f-4112-9287-b344245480c8" x1="-830.96" y1="488.71" x2="-778.9" y2="265.81" gradientTransform="translate(1494.03 -419.31) rotate(-17.02) scale(1.18 .68)" gradientUnits="userSpaceOnUse"><stop offset="0" stop-color="#fff381"/><stop offset=".17" stop-color="#fff27d"/><stop offset=".31" stop-color="#ffee73"/><stop offset=".44" stop-color="#ffe961"/><stop offset=".57" stop-color="#ffe248"/><stop offset=".69" stop-color="#ffd828"/><stop offset=".81" stop-color="#ffcd01"/><stop offset=".82" stop-color="#ffcd00"/></linearGradient><linearGradient id="uuid-8e02abfd-ecb2-4119-94a0-5edbe0b781cc" x1="3353.32" y1="-3336.76" x2="2926.85" y2="-3945.82" gradientTransform="translate(-2195.44 4889.4) rotate(-11.94) scale(1.21 1.13)" gradientUnits="userSpaceOnUse"><stop offset=".12" stop-color="#6d6d6c"/><stop offset=".31" stop-color="#cdcdcd"/><stop offset=".45" stop-color="#dbdbdb"/><stop offset=".45" stop-color="#d7d7d7"/><stop offset=".51" stop-color="#a4a3a3"/><stop offset=".56" stop-color="#848484"/><stop offset=".58" stop-color="#797878"/><stop offset=".61" stop-color="#8e8d8d"/><stop offset=".66" stop-color="#a7a7a7"/><stop offset=".68" stop-color="#b1b1b1"/><stop offset=".71" stop-color="#bfbfbf"/><stop offset=".77" stop-color="#dadada"/><stop offset=".81" stop-color="#e5e5e5"/><stop offset=".84" stop-color="#b7b7b7"/><stop offset=".87" stop-color="#8e8e8d"/><stop offset=".9" stop-color="#6f6f6f"/><stop offset=".93" stop-color="#5d5d5c"/><stop offset=".95" stop-color="#575756"/></linearGradient><linearGradient id="uuid-3a5ad3e0-36e0-4551-82e8-478e97c7f760" x1="-1351.15" y1="349.01" x2="-244.66" y2="349.01" gradientTransform="translate(1494.03 -419.31) rotate(-17.02) scale(1.18 .68)" gradientUnits="userSpaceOnUse"><stop offset="0" stop-color="#fff59f"/><stop offset=".05" stop-color="#feef8f"/><stop offset=".24" stop-color="#fcdb5c"/><stop offset=".41" stop-color="#fbcc34"/><stop offset=".57" stop-color="#fac117"/><stop offset=".71" stop-color="#fabb06"/><stop offset=".81" stop-color="#fab900"/></linearGradient><clipPath id="uuid-abf4c0e1-eca8-45a4-8793-11f716bb4ff7"><rect class="uuid-a3e96621-a72d-4b74-bf4e-fd899b808841" x="-5.85" y="-130.86" width="1310.24" height="346.41" transform="translate(-.25 4) rotate(-.35)"/></clipPath><clipPath id="uuid-a20e747a-f627-4ec5-866e-d86db4adfe90"><rect class="uuid-a3e96621-a72d-4b74-bf4e-fd899b808841" x="-5.85" y="-130.86" width="1310.24" height="346.41" transform="translate(-.25 4) rotate(-.35)"/></clipPath><clipPath id="uuid-b3a22152-1a77-44bb-bd82-b1b4b9b56601"><rect class="uuid-a3e96621-a72d-4b74-bf4e-fd899b808841" x="-5.85" y="-130.86" width="1310.24" height="346.41" transform="translate(-.25 4) rotate(-.35)"/></clipPath><clipPath id="uuid-002664e3-fd8c-4f84-981b-21ffcbea8985"><rect class="uuid-a3e96621-a72d-4b74-bf4e-fd899b808841" x="-5.85" y="-130.86" width="1310.24" height="346.41" transform="translate(-.25 4) rotate(-.35)"/></clipPath><clipPath id="uuid-f5bc41f1-9611-473a-9be1-aadb196236ab"><rect class="uuid-a3e96621-a72d-4b74-bf4e-fd899b808841" x="-5.85" y="-130.86" width="1310.24" height="346.41" transform="translate(-.25 4) rotate(-.35)"/></clipPath></defs><g class="uuid-bfb8c31d-bdd6-4c73-bae7-e735e4204c7d"><g id="uuid-dc2173d3-a75b-4897-afdf-44be06cebd10"><g id="uuid-bfe4e7a5-a9ad-4943-a5e5-f78171d649b6"><g class="uuid-c3cda675-29a8-48d0-b11f-b71d960dac98"><polygon class="uuid-1da5dad5-7e19-4f97-a822-4d95843be542" points="1296.28 131.35 702.42 229.58 -90.14 213.96 -67.81 -65.11 1325.3 -76.28 1296.28 131.35"/><polygon class="uuid-0febd106-06fa-4c4f-8805-ff3fbace5698" points="-61.12 131.35 576.9 164.92 1325.3 48.75 1302.97 327.82 -90.14 338.98 -61.12 131.35"/><g class="uuid-5f1833ff-a8c8-4373-a3ed-3b59a7fdd5e4"><path class="uuid-5d7e0d3d-16b0-4a6c-ada9-1a57319ddd22" d="M1320.6,63.98l-4.83,48.66s-115.15,24.87-383.73,58.18C377.29,239.62-11.35,136.48-11.35,136.48l1.91-14.14s393.07,106.75,928.61,20.88c177.87-28.52,401.42-79.23,401.42-79.23Z"/><path class="uuid-5e95c61b-e37d-46d4-88fa-45d4ccf5397c" d="M1316.89,85.57l3.7-21.59s-348.38,61.8-634.29,93.08C210.65,209.11-2.52,152.94-2.52,152.94l-7.57-18.93c121.36,24.6,554,42.04,883.35,7.32,283.09-29.84,443.63-55.76,443.63-55.76Z"/><path class="uuid-8ed3af4b-ec2f-4d0f-b18e-31a326d8b87d" d="M1337.56-34.94s-17.5,49.85-380.62,118.23C582.12,153.87,187.65,147.12-6.62,104l-3.47,30.02s389.74,82.95,1035.13-21.38c192.97-31.19,295.55-48.65,295.55-48.65l16.97-98.93Z"/><path class="uuid-a372e7d1-0ef3-45af-985c-cc0d1cc1f3e9" d="M1328.56-.47l4.35-6.87s-316.77,177.28-756,172.27c-184.6-2.11-540.64-30.72-581.92-42.15l-4.83,6.4s67.78,31.75,493.59,50.9C964.96,201.71,1328.56-.47,1328.56-.47Z"/><path class="uuid-6c41e6b2-3053-4566-b082-144639964444" d="M-10.15,126.12s144.69,19.48,466.65,27.62c385.15,9.74,864.71-100.88,864.71-100.88l5.65-29.79C746.16,281.15-6.94,117.13-6.94,117.13l-3.21,8.99Z"/></g><g class="uuid-3a3d4b07-8dc6-4f35-9314-f9dd667eb375"><g class="uuid-16a11873-6681-407d-88d0-94f2a4e084c5"><path class="uuid-5d7e0d3d-16b0-4a6c-ada9-1a57319ddd22" d="M1320.6,63.98l-4.83,48.66s-115.15,24.87-383.73,58.18C377.29,239.62-11.35,136.48-11.35,136.48l1.91-14.14s393.07,106.75,928.61,20.88c177.87-28.52,401.42-79.23,401.42-79.23Z"/><path class="uuid-5e95c61b-e37d-46d4-88fa-45d4ccf5397c" d="M1316.89,85.57l3.7-21.59s-348.38,61.8-634.29,93.08C210.65,209.11-2.52,152.94-2.52,152.94l-7.57-18.93c121.36,24.6,554,42.04,883.35,7.32,283.09-29.84,443.63-55.76,443.63-55.76Z"/><path class="uuid-8ed3af4b-ec2f-4d0f-b18e-31a326d8b87d" d="M1337.56-34.94s-17.5,49.85-380.62,118.23C582.12,153.87,187.65,147.12-6.62,104l-3.47,30.02s389.74,82.95,1035.13-21.38c192.97-31.19,295.55-48.65,295.55-48.65l16.97-98.93Z"/><path class="uuid-a372e7d1-0ef3-45af-985c-cc0d1cc1f3e9" d="M1328.56-.47l4.35-6.87s-316.77,177.28-756,172.27c-184.6-2.11-540.64-30.72-581.92-42.15l-4.83,6.4s67.78,31.75,493.59,50.9C964.96,201.71,1328.56-.47,1328.56-.47Z"/><path class="uuid-6c41e6b2-3053-4566-b082-144639964444" d="M-10.15,126.12s144.69,19.48,466.65,27.62c385.15,9.74,864.71-100.88,864.71-100.88l5.65-29.79C746.16,281.15-6.94,117.13-6.94,117.13l-3.21,8.99Z"/></g></g><g class="uuid-3a3d4b07-8dc6-4f35-9314-f9dd667eb375"><g class="uuid-7dcc2a04-5b18-4077-98dc-2912163b5fe1"><path class="uuid-5d7e0d3d-16b0-4a6c-ada9-1a57319ddd22" d="M1320.6,63.98l-4.83,48.66s-115.15,24.87-383.73,58.18C377.29,239.62-11.35,136.48-11.35,136.48l1.91-14.14s393.07,106.75,928.61,20.88c177.87-28.52,401.42-79.23,401.42-79.23Z"/><path class="uuid-5e95c61b-e37d-46d4-88fa-45d4ccf5397c" d="M1316.89,85.57l3.7-21.59s-348.38,61.8-634.29,93.08C210.65,209.11-2.52,152.94-2.52,152.94l-7.57-18.93c121.36,24.6,554,42.04,883.35,7.32,283.09-29.84,443.63-55.76,443.63-55.76Z"/><path class="uuid-8ed3af4b-ec2f-4d0f-b18e-31a326d8b87d" d="M1337.56-34.94s-17.5,49.85-380.62,118.23C582.12,153.87,187.65,147.12-6.62,104l-3.47,30.02s389.74,82.95,1035.13-21.38c192.97-31.19,295.55-48.65,295.55-48.65l16.97-98.93Z"/><path class="uuid-a372e7d1-0ef3-45af-985c-cc0d1cc1f3e9" d="M1328.56-.47l4.35-6.87s-316.77,177.28-756,172.27c-184.6-2.11-540.64-30.72-581.92-42.15l-4.83,6.4s67.78,31.75,493.59,50.9C964.96,201.71,1328.56-.47,1328.56-.47Z"/><path class="uuid-6c41e6b2-3053-4566-b082-144639964444" d="M-10.15,126.12s144.69,19.48,466.65,27.62c385.15,9.74,864.71-100.88,864.71-100.88l5.65-29.79C746.16,281.15-6.94,117.13-6.94,117.13l-3.21,8.99Z"/></g></g><g class="uuid-3a3d4b07-8dc6-4f35-9314-f9dd667eb375"><g class="uuid-3a047d42-8d9b-4914-8e9d-cadf0f8a5f84"><path class="uuid-5d7e0d3d-16b0-4a6c-ada9-1a57319ddd22" d="M1320.6,63.98l-4.83,48.66s-115.15,24.87-383.73,58.18C377.29,239.62-11.35,136.48-11.35,136.48l1.91-14.14s393.07,106.75,928.61,20.88c177.87-28.52,401.42-79.23,401.42-79.23Z"/><path class="uuid-5e95c61b-e37d-46d4-88fa-45d4ccf5397c" d="M1316.89,85.57l3.7-21.59s-348.38,61.8-634.29,93.08C210.65,209.11-2.52,152.94-2.52,152.94l-7.57-18.93c121.36,24.6,554,42.04,883.35,7.32,283.09-29.84,443.63-55.76,443.63-55.76Z"/><path class="uuid-8ed3af4b-ec2f-4d0f-b18e-31a326d8b87d" d="M1337.56-34.94s-17.5,49.85-380.62,118.23C582.12,153.87,187.65,147.12-6.62,104l-3.47,30.02s389.74,82.95,1035.13-21.38c192.97-31.19,295.55-48.65,295.55-48.65l16.97-98.93Z"/><path class="uuid-a372e7d1-0ef3-45af-985c-cc0d1cc1f3e9" d="M1328.56-.47l4.35-6.87s-316.77,177.28-756,172.27c-184.6-2.11-540.64-30.72-581.92-42.15l-4.83,6.4s67.78,31.75,493.59,50.9C964.96,201.71,1328.56-.47,1328.56-.47Z"/><path class="uuid-6c41e6b2-3053-4566-b082-144639964444" d="M-10.15,126.12s144.69,19.48,466.65,27.62c385.15,9.74,864.71-100.88,864.71-100.88l5.65-29.79C746.16,281.15-6.94,117.13-6.94,117.13l-3.21,8.99Z"/></g></g><g class="uuid-3a3d4b07-8dc6-4f35-9314-f9dd667eb375"><g class="uuid-de06331e-0137-4b03-a54b-96dde0cee2ac"><path class="uuid-5d7e0d3d-16b0-4a6c-ada9-1a57319ddd22" d="M1320.6,63.98l-4.83,48.66s-115.15,24.87-383.73,58.18C377.29,239.62-11.35,136.48-11.35,136.48l1.91-14.14s393.07,106.75,928.61,20.88c177.87-28.52,401.42-79.23,401.42-79.23Z"/><path class="uuid-5e95c61b-e37d-46d4-88fa-45d4ccf5397c" d="M1316.89,85.57l3.7-21.59s-348.38,61.8-634.29,93.08C210.65,209.11-2.52,152.94-2.52,152.94l-7.57-18.93c121.36,24.6,554,42.04,883.35,7.32,283.09-29.84,443.63-55.76,443.63-55.76Z"/><path class="uuid-8ed3af4b-ec2f-4d0f-b18e-31a326d8b87d" d="M1337.56-34.94s-17.5,49.85-380.62,118.23C582.12,153.87,187.65,147.12-6.62,104l-3.47,30.02s389.74,82.95,1035.13-21.38c192.97-31.19,295.55-48.65,295.55-48.65l16.97-98.93Z"/><path class="uuid-a372e7d1-0ef3-45af-985c-cc0d1cc1f3e9" d="M1328.56-.47l4.35-6.87s-316.77,177.28-756,172.27c-184.6-2.11-540.64-30.72-581.92-42.15l-4.83,6.4s67.78,31.75,493.59,50.9C964.96,201.71,1328.56-.47,1328.56-.47Z"/><path class="uuid-6c41e6b2-3053-4566-b082-144639964444" d="M-10.15,126.12s144.69,19.48,466.65,27.62c385.15,9.74,864.71-100.88,864.71-100.88l5.65-29.79C746.16,281.15-6.94,117.13-6.94,117.13l-3.21,8.99Z"/></g></g><g class="uuid-3a3d4b07-8dc6-4f35-9314-f9dd667eb375"><g class="uuid-bd797bb3-25e0-43f5-bd46-9e61602334c8"><path class="uuid-5d7e0d3d-16b0-4a6c-ada9-1a57319ddd22" d="M1320.6,63.98l-4.83,48.66s-115.15,24.87-383.73,58.18C377.29,239.62-11.35,136.48-11.35,136.48l1.91-14.14s393.07,106.75,928.61,20.88c177.87-28.52,401.42-79.23,401.42-79.23Z"/><path class="uuid-5e95c61b-e37d-46d4-88fa-45d4ccf5397c" d="M1316.89,85.57l3.7-21.59s-348.38,61.8-634.29,93.08C210.65,209.11-2.52,152.94-2.52,152.94l-7.57-18.93c121.36,24.6,554,42.04,883.35,7.32,283.09-29.84,443.63-55.76,443.63-55.76Z"/><path class="uuid-8ed3af4b-ec2f-4d0f-b18e-31a326d8b87d" d="M1337.56-34.94s-17.5,49.85-380.62,118.23C582.12,153.87,187.65,147.12-6.62,104l-3.47,30.02s389.74,82.95,1035.13-21.38c192.97-31.19,295.55-48.65,295.55-48.65l16.97-98.93Z"/><path class="uuid-a372e7d1-0ef3-45af-985c-cc0d1cc1f3e9" d="M1328.56-.47l4.35-6.87s-316.77,177.28-756,172.27c-184.6-2.11-540.64-30.72-581.92-42.15l-4.83,6.4s67.78,31.75,493.59,50.9C964.96,201.71,1328.56-.47,1328.56-.47Z"/><path class="uuid-6c41e6b2-3053-4566-b082-144639964444" d="M-10.15,126.12s144.69,19.48,466.65,27.62c385.15,9.74,864.71-100.88,864.71-100.88l5.65-29.79C746.16,281.15-6.94,117.13-6.94,117.13l-3.21,8.99Z"/></g></g></g></g></g></g></svg>