<?xml version="1.0" encoding="UTF-8"?><svg id="uuid-b0c68f0c-a045-4b4a-b9ff-14e0fa1bec2d" xmlns="http://www.w3.org/2000/svg" xmlns:xlink="http://www.w3.org/1999/xlink" viewBox="0 0 1282.3 265.99"><defs><style>.uuid-1327dc44-c07e-460e-b7b2-ae82243e48b2{fill:none;}.uuid-fd4493f4-ee3d-4360-a7ce-37965c18b719{clip-path:url(#uuid-63529f74-714d-4dd4-b275-9bf6a1c08ba4);}.uuid-9534da39-b29b-45ca-bff3-4abc6dafcca8{fill:url(#uuid-458b8c27-7f6a-4cb7-bf62-f6ea67be8628);}.uuid-18126243-2b19-4eec-9e0f-0e3028e45e44{fill:url(#uuid-930b7c9a-3539-454e-9659-e3f90ffafbbc);}.uuid-5eea88b4-3284-4a02-84d1-26cf789f5102{fill:url(#uuid-98cd1194-e839-417f-9c7b-dacab9e2ec0d);}.uuid-fd3d605e-9ee5-4e10-9849-35d1bd83111e{clip-path:url(#uuid-e10c700d-f6da-4d33-b201-388a6931c791);}</style><clipPath id="uuid-e10c700d-f6da-4d33-b201-388a6931c791"><rect class="uuid-1327dc44-c07e-460e-b7b2-ae82243e48b2" y="0" width="1282.3" height="265.99"/></clipPath><clipPath id="uuid-63529f74-714d-4dd4-b275-9bf6a1c08ba4"><polygon class="uuid-1327dc44-c07e-460e-b7b2-ae82243e48b2" points=".41 187.9 1287.65 165.04 1289.45 58.24 -.89 73.32 .41 187.9"/></clipPath><linearGradient id="uuid-458b8c27-7f6a-4cb7-bf62-f6ea67be8628" x1="2108.51" y1="1955.64" x2="2432.38" y2="1493.11" gradientTransform="translate(-2392.63 -2169.03) rotate(-5.48) scale(1.24 1.48)" gradientUnits="userSpaceOnUse"><stop offset="0" stop-color="#ffe608"/><stop offset=".3" stop-color="#fcd204"/><stop offset=".68" stop-color="#fabf01"/><stop offset=".95" stop-color="#fab900"/></linearGradient><linearGradient id="uuid-98cd1194-e839-417f-9c7b-dacab9e2ec0d" x1="2182.12" y1="1815.92" x2="2220.97" y2="1649.55" gradientTransform="translate(-2392.63 -2169.03) rotate(-5.48) scale(1.24 1.48)" gradientUnits="userSpaceOnUse"><stop offset="0" stop-color="#fff381"/><stop offset=".17" stop-color="#fff27d"/><stop offset=".31" stop-color="#ffee73"/><stop offset=".44" stop-color="#ffe961"/><stop offset=".57" stop-color="#ffe248"/><stop offset=".69" stop-color="#ffd828"/><stop offset=".81" stop-color="#ffcd01"/><stop offset=".82" stop-color="#ffcd00"/></linearGradient><linearGradient id="uuid-930b7c9a-3539-454e-9659-e3f90ffafbbc" x1="1736.98" y1="1728.72" x2="2788.9" y2="1728.72" gradientTransform="translate(-2392.63 -2169.03) rotate(-5.48) scale(1.24 1.48)" gradientUnits="userSpaceOnUse"><stop offset=".63" stop-color="#cdcdcd"/><stop offset=".67" stop-color="#b7b7b7"/><stop offset=".76" stop-color="#8d8d8d"/><stop offset=".83" stop-color="#6f6f6f"/><stop offset=".9" stop-color="#5d5d5c"/><stop offset=".95" stop-color="#575756"/></linearGradient></defs><g id="uuid-20010e7f-d7d5-46ea-b09e-197d7718b6ff"><g class="uuid-fd3d605e-9ee5-4e10-9849-35d1bd83111e"><g class="uuid-fd4493f4-ee3d-4360-a7ce-37965c18b719"><path class="uuid-9534da39-b29b-45ca-bff3-4abc6dafcca8" d="M1312.55,148.79l-6.98-69.95S621.4,142.29,1.42,107.1c-36.68-2.08-1.89,27.15-1.89,27.15,493.76,52.88,1313.02,14.54,1313.02,14.54Z"/><path class="uuid-5eea88b4-3284-4a02-84d1-26cf789f5102" d="M1300.89,85.19s-150.08,11.84-529.62,30.66c-379.54,18.82-705.23,4.16-775.25-4.58l-150.53-1.45s214.06,52.05,976.15,38.35c234.13-4.21,482.8-15.59,482.8-15.59l-3.54-47.39Z"/><path class="uuid-18126243-2b19-4eec-9e0f-0e3028e45e44" d="M-6.87,115.82c215.75,15.41,429.55,16.58,744.58,9.4,170.6-3.89,564.96-27.17,564.96-27.17l2.86,21.31s-242.29,7.07-628.99,19.73C322.53,150.68,1.57,125.99,1.57,125.99l-8.45-10.17Z"/></g></g></g></svg>