<?xml version="1.0" encoding="UTF-8"?><svg xmlns="http://www.w3.org/2000/svg" xmlns:xlink="http://www.w3.org/1999/xlink" viewBox="0 0 1282.3 265.99"><defs><style>.uuid-0ed5bb12-a529-4b18-b738-3e45af729b52{fill:none;}.uuid-4a2f2f8f-db1f-4bb9-8228-bf4bbc03cc6f{fill:url(#uuid-b31b3d36-ada1-41b6-a15c-93ce6ea4fdb5);}.uuid-e25c547c-b33b-48b9-9a63-530815f0b24a{fill:url(#uuid-54ca1d3d-fb7c-4a2d-9cf8-da244d91a397);}.uuid-f7b7469f-9aae-47aa-b6fd-d7d948e4e8ff{isolation:isolate;}.uuid-a59e6d7f-3ee7-46dc-9b5a-b4179c0cdd3e{clip-path:url(#uuid-8143838e-10bd-4eb8-aacf-cda682fd1a78);}.uuid-9d470ec8-bc73-42f3-ab2e-40c949915258{clip-path:url(#uuid-8cbd1e86-8903-4345-9b96-41f63848b43a);}.uuid-290d47fe-603b-49ba-a4c5-901c7604a12d{mix-blend-mode:overlay;}.uuid-7c3764c1-6f57-40ec-ae76-1158436edcae{clip-path:url(#uuid-ae497132-02da-4e2d-8012-608ec94cceb6);}.uuid-12bd1cd8-f3fe-4da0-b95e-4a62fa23ca55{fill:url(#uuid-dc12087a-e3c5-40c1-9f9d-a14b52878334);}</style><clipPath id="uuid-8cbd1e86-8903-4345-9b96-41f63848b43a"><rect class="uuid-0ed5bb12-a529-4b18-b738-3e45af729b52" width="1282.3" height="265.99"/></clipPath><clipPath id="uuid-ae497132-02da-4e2d-8012-608ec94cceb6"><polygon class="uuid-0ed5bb12-a529-4b18-b738-3e45af729b52" points=".41 187.9 1287.65 165.04 1289.45 58.24 -.89 73.32 .41 187.9"/></clipPath><linearGradient id="uuid-b31b3d36-ada1-41b6-a15c-93ce6ea4fdb5" x1="1945.84" y1="2008.41" x2="2269.7" y2="1545.88" gradientTransform="translate(-2199.05 -2266.31) rotate(-5.48) scale(1.24 1.48)" gradientUnits="userSpaceOnUse"><stop offset="0" stop-color="#ffe608"/><stop offset=".3" stop-color="#fcd204"/><stop offset=".68" stop-color="#fabf01"/><stop offset=".95" stop-color="#fab900"/></linearGradient><linearGradient id="uuid-54ca1d3d-fb7c-4a2d-9cf8-da244d91a397" x1="2019.44" y1="1868.7" x2="2058.29" y2="1702.32" gradientTransform="translate(-2199.05 -2266.31) rotate(-5.48) scale(1.24 1.48)" gradientUnits="userSpaceOnUse"><stop offset="0" stop-color="#fff381"/><stop offset=".17" stop-color="#fff27d"/><stop offset=".31" stop-color="#ffee73"/><stop offset=".44" stop-color="#ffe961"/><stop offset=".57" stop-color="#ffe248"/><stop offset=".69" stop-color="#ffd828"/><stop offset=".81" stop-color="#ffcd01"/><stop offset=".82" stop-color="#ffcd00"/></linearGradient><linearGradient id="uuid-dc12087a-e3c5-40c1-9f9d-a14b52878334" x1="1574.3" y1="1781.5" x2="2626.22" y2="1781.5" gradientTransform="translate(-2199.05 -2266.31) rotate(-5.48) scale(1.24 1.48)" gradientUnits="userSpaceOnUse"><stop offset=".63" stop-color="#cdcdcd"/><stop offset=".67" stop-color="#b7b7b7"/><stop offset=".76" stop-color="#8d8d8d"/><stop offset=".83" stop-color="#6f6f6f"/><stop offset=".9" stop-color="#5d5d5c"/><stop offset=".95" stop-color="#575756"/></linearGradient><clipPath id="uuid-8143838e-10bd-4eb8-aacf-cda682fd1a78"><polygon class="uuid-0ed5bb12-a529-4b18-b738-3e45af729b52" points=".41 187.9 1287.65 165.04 1289.45 58.24 -.89 73.32 .41 187.9"/></clipPath></defs><g class="uuid-f7b7469f-9aae-47aa-b6fd-d7d948e4e8ff"><g id="uuid-829c3bae-13fe-4330-822d-08f613f2ae1e"><g id="uuid-bd2744c1-bb08-4add-b948-97a1d280a009"><g class="uuid-9d470ec8-bc73-42f3-ab2e-40c949915258"><g class="uuid-7c3764c1-6f57-40ec-ae76-1158436edcae"><path class="uuid-4a2f2f8f-db1f-4bb9-8228-bf4bbc03cc6f" d="M1312.55,148.79l-6.98-69.95S621.4,142.29,1.42,107.1c-36.68-2.08-1.89,27.15-1.89,27.15,493.76,52.88,1313.02,14.54,1313.02,14.54Z"/><path class="uuid-e25c547c-b33b-48b9-9a63-530815f0b24a" d="M1300.89,85.19s-150.08,11.84-529.62,30.66c-379.54,18.82-705.23,4.16-775.25-4.58l-150.53-1.45s214.06,52.05,976.15,38.35c234.13-4.21,482.8-15.59,482.8-15.59l-3.54-47.39Z"/><path class="uuid-12bd1cd8-f3fe-4da0-b95e-4a62fa23ca55" d="M-6.87,115.82c215.75,15.41,429.55,16.58,744.58,9.4,170.6-3.89,564.96-27.17,564.96-27.17l2.86,21.31s-242.29,7.07-628.99,19.73C322.53,150.68,1.57,125.99,1.57,125.99l-8.45-10.17Z"/></g><g class="uuid-290d47fe-603b-49ba-a4c5-901c7604a12d"><g class="uuid-a59e6d7f-3ee7-46dc-9b5a-b4179c0cdd3e"><path class="uuid-4a2f2f8f-db1f-4bb9-8228-bf4bbc03cc6f" d="M1312.55,148.79l-6.98-69.95S621.4,142.29,1.42,107.1c-36.68-2.08-1.89,27.15-1.89,27.15,493.76,52.88,1313.02,14.54,1313.02,14.54Z"/><path class="uuid-e25c547c-b33b-48b9-9a63-530815f0b24a" d="M1300.89,85.19s-150.08,11.84-529.62,30.66c-379.54,18.82-705.23,4.16-775.25-4.58l-150.53-1.45s214.06,52.05,976.15,38.35c234.13-4.21,482.8-15.59,482.8-15.59l-3.54-47.39Z"/><path class="uuid-12bd1cd8-f3fe-4da0-b95e-4a62fa23ca55" d="M-6.87,115.82c215.75,15.41,429.55,16.58,744.58,9.4,170.6-3.89,564.96-27.17,564.96-27.17l2.86,21.31s-242.29,7.07-628.99,19.73C322.53,150.68,1.57,125.99,1.57,125.99l-8.45-10.17Z"/></g></g></g></g></g></g></svg>