<?xml version="1.0" encoding="UTF-8"?><svg id="uuid-8cf279e1-7477-4a4b-a05d-fa2e97d522ca" xmlns="http://www.w3.org/2000/svg" xmlns:xlink="http://www.w3.org/1999/xlink" viewBox="0 0 1280.93 295.77"><defs><style>.uuid-8b85daab-bfdc-4204-a653-e52da23e3050{fill:none;}.uuid-f102fda3-d3d9-4fe6-a32c-cd81e6610cd9{clip-path:url(#uuid-9023c2c2-ee51-4d0b-8223-f425926958aa);}.uuid-29b7b431-dd6f-4a61-9b1b-3a5a1c62bf16{fill:url(#uuid-f449c46a-8f46-4f94-88c2-a1c58fff7379);}.uuid-9606c5d3-25a8-43b2-9e83-cbc7b8ef89c5{fill:#fff;}.uuid-db621697-c30b-4321-942e-6b92a391b175{fill:url(#uuid-62c6fa31-325b-436d-8834-4fe5a44364d6);}.uuid-8b1db1c6-864b-4ac4-8de7-452ece85d115{fill:url(#uuid-acd5ab4b-09d0-4b97-806c-bbc0185863c4);}</style><clipPath id="uuid-9023c2c2-ee51-4d0b-8223-f425926958aa"><rect class="uuid-8b85daab-bfdc-4204-a653-e52da23e3050" x="0" y="0" width="1280.93" height="295.77"/></clipPath><linearGradient id="uuid-62c6fa31-325b-436d-8834-4fe5a44364d6" x1="-6645.64" y1="-1949.18" x2="-5470.54" y2="-1900.93" gradientTransform="translate(-6903.83 2736.78) rotate(-177.97) scale(1.24 -1.48)" gradientUnits="userSpaceOnUse"><stop offset=".03" stop-color="#ffeb84"/><stop offset=".57" stop-color="#ffe608"/><stop offset=".64" stop-color="#fee107"/><stop offset=".72" stop-color="#fdd505"/><stop offset=".8" stop-color="#fac101"/><stop offset=".82" stop-color="#fab900"/></linearGradient><linearGradient id="uuid-acd5ab4b-09d0-4b97-806c-bbc0185863c4" x1="-6081.04" y1="-1815.2" x2="-6034.81" y2="-2013.18" gradientTransform="translate(-6903.83 2736.78) rotate(-177.97) scale(1.24 -1.48)" gradientUnits="userSpaceOnUse"><stop offset="0" stop-color="#fff381"/><stop offset=".12" stop-color="#fff27d"/><stop offset=".23" stop-color="#ffee73"/><stop offset=".33" stop-color="#ffe961"/><stop offset=".42" stop-color="#ffe248"/><stop offset=".51" stop-color="#ffd828"/><stop offset=".6" stop-color="#ffcd01"/><stop offset=".6" stop-color="#ffcd00"/></linearGradient><linearGradient id="uuid-f449c46a-8f46-4f94-88c2-a1c58fff7379" x1="-6645.26" y1="-1927.19" x2="-5464.75" y2="-1927.19" gradientTransform="translate(-6903.83 2736.78) rotate(-177.97) scale(1.24 -1.48)" gradientUnits="userSpaceOnUse"><stop offset=".63" stop-color="#cdcdcd"/><stop offset=".71" stop-color="#aeaeae"/><stop offset=".87" stop-color="#6f6f6e"/><stop offset=".95" stop-color="#575756"/></linearGradient></defs><g id="uuid-06b5db17-59cb-4564-8fbc-37f639c08ffd"><g class="uuid-f102fda3-d3d9-4fe6-a32c-cd81e6610cd9"><polygon class="uuid-9606c5d3-25a8-43b2-9e83-cbc7b8ef89c5" points="-122.77 147.7 721.14 174.49 1324.86 151.71 1337.32 341.93 -109.37 341.93 -122.77 147.7"/><path class="uuid-db621697-c30b-4321-942e-6b92a391b175" d="M-11.39,200.41l-4.42-94.48s774.58,72.44,1394.6,15.31c36.69-3.38,66.01-10.72,66.01-10.72,0,0-27.46,27.21-119.95,41.19C893.86,216.88-11.39,200.41-11.39,200.41Z"/><path class="uuid-8b1db1c6-864b-4ac4-8de7-452ece85d115" d="M-25.41,129.95s152.91,9.33,538.07,20.29c385.16,10.96,870.49-14.36,932.15-39.72l.15,7.34s-208.54,65.12-978.58,70.52c-236.57,1.66-488.79-4.43-488.79-4.43l-3.01-54.01Z"/><path class="uuid-29b7b431-dd6f-4a61-9b1b-3a5a1c62bf16" d="M1444.85,117c-152.06,33.48-575.77,43.41-894.3,43.92-172.49.28-573.22-15.35-573.22-15.35l.07,24.33s244.93,6.87,636.72,5.11c667.82-3,830.85-57.13,830.85-57.13l-.13-.88Z"/></g></g></svg>