<?xml version="1.0" encoding="UTF-8"?><svg xmlns="http://www.w3.org/2000/svg" xmlns:xlink="http://www.w3.org/1999/xlink" viewBox="0 0 1280.93 295.77"><defs><style>.uuid-90130554-a314-4b09-90ee-5cd41c3d2109{fill:none;}.uuid-6035d189-d8c6-46b7-90e3-9c6c832e4325{fill:url(#uuid-4de981da-ebdf-48a8-af4e-3c4126da86bb);}.uuid-9d609664-5dd2-4920-83b7-7f2b9bd1c55b{isolation:isolate;}.uuid-a33fcf75-971b-4420-8cd4-1e8bbc195821{fill:url(#uuid-37f77ede-74b1-4565-97c0-5885e340b59d);}.uuid-6b19e143-9e25-44af-b6c6-3680ff72b028{fill:#fff;}.uuid-249ea7a8-0b88-44d7-8240-fed3247a8838{mix-blend-mode:overlay;}.uuid-b9192afb-36ba-475a-b2ec-c3d3f14b8488{clip-path:url(#uuid-2a114ff7-f591-4a42-a08e-437672072390);}.uuid-9b5d9a9a-ce56-4c0d-a9ba-05e1941a3035{fill:url(#uuid-e9551e96-07e7-447a-8c6c-f2e7a0c72b2a);}</style><clipPath id="uuid-2a114ff7-f591-4a42-a08e-437672072390"><rect class="uuid-90130554-a314-4b09-90ee-5cd41c3d2109" x="0" y="0" width="1280.93" height="295.77"/></clipPath><linearGradient id="uuid-37f77ede-74b1-4565-97c0-5885e340b59d" x1="-6653.16" y1="-2035.3" x2="-5478.05" y2="-1987.05" gradientTransform="translate(-6917.67 2864.23) rotate(-177.97) scale(1.24 -1.48)" gradientUnits="userSpaceOnUse"><stop offset=".03" stop-color="#ffeb84"/><stop offset=".57" stop-color="#ffe608"/><stop offset=".64" stop-color="#fee107"/><stop offset=".72" stop-color="#fdd505"/><stop offset=".8" stop-color="#fac101"/><stop offset=".82" stop-color="#fab900"/></linearGradient><linearGradient id="uuid-4de981da-ebdf-48a8-af4e-3c4126da86bb" x1="-6088.56" y1="-1901.32" x2="-6042.32" y2="-2099.29" gradientTransform="translate(-6917.67 2864.23) rotate(-177.97) scale(1.24 -1.48)" gradientUnits="userSpaceOnUse"><stop offset="0" stop-color="#fff381"/><stop offset=".12" stop-color="#fff27d"/><stop offset=".23" stop-color="#ffee73"/><stop offset=".33" stop-color="#ffe961"/><stop offset=".42" stop-color="#ffe248"/><stop offset=".51" stop-color="#ffd828"/><stop offset=".6" stop-color="#ffcd01"/><stop offset=".6" stop-color="#ffcd00"/></linearGradient><linearGradient id="uuid-e9551e96-07e7-447a-8c6c-f2e7a0c72b2a" x1="-6652.77" y1="-2013.31" x2="-5472.26" y2="-2013.31" gradientTransform="translate(-6917.67 2864.23) rotate(-177.97) scale(1.24 -1.48)" gradientUnits="userSpaceOnUse"><stop offset=".63" stop-color="#cdcdcd"/><stop offset=".71" stop-color="#aeaeae"/><stop offset=".87" stop-color="#6f6f6e"/><stop offset=".95" stop-color="#575756"/></linearGradient></defs><g class="uuid-9d609664-5dd2-4920-83b7-7f2b9bd1c55b"><g id="uuid-7a0f86ca-7e81-41b7-b2f5-eec5600e79ae"><g id="uuid-fc1ee315-3527-4259-bdcf-65eeae6dc1b3"><g class="uuid-b9192afb-36ba-475a-b2ec-c3d3f14b8488"><polygon class="uuid-6b19e143-9e25-44af-b6c6-3680ff72b028" points="-122.77 147.7 721.14 174.49 1324.86 151.71 1337.32 341.93 -109.37 341.93 -122.77 147.7"/><path class="uuid-a33fcf75-971b-4420-8cd4-1e8bbc195821" d="M-11.39,200.41l-4.42-94.48s774.58,72.44,1394.6,15.31c36.69-3.38,66.01-10.72,66.01-10.72,0,0-27.46,27.21-119.95,41.19C893.86,216.88-11.39,200.41-11.39,200.41Z"/><path class="uuid-6035d189-d8c6-46b7-90e3-9c6c832e4325" d="M-25.41,129.95s152.91,9.33,538.07,20.29c385.16,10.96,870.49-14.36,932.15-39.72l.15,7.34s-208.54,65.12-978.58,70.52c-236.57,1.66-488.79-4.43-488.79-4.43l-3.01-54.01Z"/><path class="uuid-9b5d9a9a-ce56-4c0d-a9ba-05e1941a3035" d="M1444.85,117c-152.06,33.48-575.77,43.41-894.3,43.92-172.49.28-573.22-15.35-573.22-15.35l.07,24.33s244.93,6.87,636.72,5.11c667.82-3,830.85-57.13,830.85-57.13l-.13-.88Z"/><g class="uuid-249ea7a8-0b88-44d7-8240-fed3247a8838"><path class="uuid-a33fcf75-971b-4420-8cd4-1e8bbc195821" d="M-11.39,200.41l-4.42-94.48s774.58,72.44,1394.6,15.31c36.69-3.38,66.01-10.72,66.01-10.72,0,0-27.46,27.21-119.95,41.19C893.86,216.88-11.39,200.41-11.39,200.41Z"/><path class="uuid-6035d189-d8c6-46b7-90e3-9c6c832e4325" d="M-25.41,129.95s152.91,9.33,538.07,20.29c385.16,10.96,870.49-14.36,932.15-39.72l.15,7.34s-208.54,65.12-978.58,70.52c-236.57,1.66-488.79-4.43-488.79-4.43l-3.01-54.01Z"/><path class="uuid-9b5d9a9a-ce56-4c0d-a9ba-05e1941a3035" d="M1444.85,117c-152.06,33.48-575.77,43.41-894.3,43.92-172.49.28-573.22-15.35-573.22-15.35l.07,24.33s244.93,6.87,636.72,5.11c667.82-3,830.85-57.13,830.85-57.13l-.13-.88Z"/></g><g class="uuid-249ea7a8-0b88-44d7-8240-fed3247a8838"><path class="uuid-a33fcf75-971b-4420-8cd4-1e8bbc195821" d="M-11.39,200.41l-4.42-94.48s774.58,72.44,1394.6,15.31c36.69-3.38,66.01-10.72,66.01-10.72,0,0-27.46,27.21-119.95,41.19C893.86,216.88-11.39,200.41-11.39,200.41Z"/><path class="uuid-6035d189-d8c6-46b7-90e3-9c6c832e4325" d="M-25.41,129.95s152.91,9.33,538.07,20.29c385.16,10.96,870.49-14.36,932.15-39.72l.15,7.34s-208.54,65.12-978.58,70.52c-236.57,1.66-488.79-4.43-488.79-4.43l-3.01-54.01Z"/><path class="uuid-9b5d9a9a-ce56-4c0d-a9ba-05e1941a3035" d="M1444.85,117c-152.06,33.48-575.77,43.41-894.3,43.92-172.49.28-573.22-15.35-573.22-15.35l.07,24.33s244.93,6.87,636.72,5.11c667.82-3,830.85-57.13,830.85-57.13l-.13-.88Z"/></g><g class="uuid-249ea7a8-0b88-44d7-8240-fed3247a8838"><path class="uuid-a33fcf75-971b-4420-8cd4-1e8bbc195821" d="M-11.39,200.41l-4.42-94.48s774.58,72.44,1394.6,15.31c36.69-3.38,66.01-10.72,66.01-10.72,0,0-27.46,27.21-119.95,41.19C893.86,216.88-11.39,200.41-11.39,200.41Z"/><path class="uuid-6035d189-d8c6-46b7-90e3-9c6c832e4325" d="M-25.41,129.95s152.91,9.33,538.07,20.29c385.16,10.96,870.49-14.36,932.15-39.72l.15,7.34s-208.54,65.12-978.58,70.52c-236.57,1.66-488.79-4.43-488.79-4.43l-3.01-54.01Z"/><path class="uuid-9b5d9a9a-ce56-4c0d-a9ba-05e1941a3035" d="M1444.85,117c-152.06,33.48-575.77,43.41-894.3,43.92-172.49.28-573.22-15.35-573.22-15.35l.07,24.33s244.93,6.87,636.72,5.11c667.82-3,830.85-57.13,830.85-57.13l-.13-.88Z"/></g><g class="uuid-249ea7a8-0b88-44d7-8240-fed3247a8838"><path class="uuid-a33fcf75-971b-4420-8cd4-1e8bbc195821" d="M-11.39,200.41l-4.42-94.48s774.58,72.44,1394.6,15.31c36.69-3.38,66.01-10.72,66.01-10.72,0,0-27.46,27.21-119.95,41.19C893.86,216.88-11.39,200.41-11.39,200.41Z"/><path class="uuid-6035d189-d8c6-46b7-90e3-9c6c832e4325" d="M-25.41,129.95s152.91,9.33,538.07,20.29c385.16,10.96,870.49-14.36,932.15-39.72l.15,7.34s-208.54,65.12-978.58,70.52c-236.57,1.66-488.79-4.43-488.79-4.43l-3.01-54.01Z"/><path class="uuid-9b5d9a9a-ce56-4c0d-a9ba-05e1941a3035" d="M1444.85,117c-152.06,33.48-575.77,43.41-894.3,43.92-172.49.28-573.22-15.35-573.22-15.35l.07,24.33s244.93,6.87,636.72,5.11c667.82-3,830.85-57.13,830.85-57.13l-.13-.88Z"/></g><g class="uuid-249ea7a8-0b88-44d7-8240-fed3247a8838"><path class="uuid-a33fcf75-971b-4420-8cd4-1e8bbc195821" d="M-11.39,200.41l-4.42-94.48s774.58,72.44,1394.6,15.31c36.69-3.38,66.01-10.72,66.01-10.72,0,0-27.46,27.21-119.95,41.19C893.86,216.88-11.39,200.41-11.39,200.41Z"/><path class="uuid-6035d189-d8c6-46b7-90e3-9c6c832e4325" d="M-25.41,129.95s152.91,9.33,538.07,20.29c385.16,10.96,870.49-14.36,932.15-39.72l.15,7.34s-208.54,65.12-978.58,70.52c-236.57,1.66-488.79-4.43-488.79-4.43l-3.01-54.01Z"/><path class="uuid-9b5d9a9a-ce56-4c0d-a9ba-05e1941a3035" d="M1444.85,117c-152.06,33.48-575.77,43.41-894.3,43.92-172.49.28-573.22-15.35-573.22-15.35l.07,24.33s244.93,6.87,636.72,5.11c667.82-3,830.85-57.13,830.85-57.13l-.13-.88Z"/></g></g></g></g></g></svg>