<?xml version="1.0" encoding="UTF-8"?><svg id="uuid-98c4ffbf-40b3-4938-bfe3-23bf314f7c2e" xmlns="http://www.w3.org/2000/svg" xmlns:xlink="http://www.w3.org/1999/xlink" viewBox="0 0 1281.78 338.23"><defs><style>.uuid-3327a398-8eaa-49f5-93bb-0416c6af0eae{fill:none;}.uuid-d718e002-5a53-4960-9b9b-a36a7c3ca91a{fill:#ffe900;}.uuid-6b4daa88-66a1-49e9-b132-1fbbcf047d8b{fill:url(#uuid-7edc96f4-57d4-49e8-9b76-2634ad40d2b0);}.uuid-88a78fce-65cc-418b-90fb-2f2df16ddb3f{fill:url(#uuid-f59eb18e-bc64-41d4-ae83-31117dadebc6);}.uuid-cd7d779a-4ecc-42df-8597-ae915cd6ab7c{clip-path:url(#uuid-5e441488-a119-4cd6-9bbd-dd2a6f5a20ba);}.uuid-21130157-2011-45f3-8be0-82b35a54ae53{fill:#fff;}.uuid-f203009e-8358-407d-bd36-b6a480eac23f{fill:url(#uuid-40ecfde6-2079-4958-96ad-519784452145);}.uuid-dfbf41da-6a73-4eac-af28-8c4eb73f27f4{fill:url(#uuid-4bcdbcee-fca9-4365-af37-19512b8ec5ae);}</style><clipPath id="uuid-5e441488-a119-4cd6-9bbd-dd2a6f5a20ba"><rect class="uuid-3327a398-8eaa-49f5-93bb-0416c6af0eae" width="1281.78" height="338.23"/></clipPath><linearGradient id="uuid-f59eb18e-bc64-41d4-ae83-31117dadebc6" x1="8561.31" y1="-5408.4" x2="8010.17" y2="-6195.5" gradientTransform="translate(9495.45 -5636.16) rotate(163.34) scale(1.23 .52)" gradientUnits="userSpaceOnUse"><stop offset="0" stop-color="#ffe608"/><stop offset=".3" stop-color="#fcd204"/><stop offset=".68" stop-color="#fabf01"/><stop offset=".95" stop-color="#fab900"/></linearGradient><linearGradient id="uuid-7edc96f4-57d4-49e8-9b76-2634ad40d2b0" x1="8234.74" y1="-5672.9" x2="8278.61" y2="-5860.75" gradientTransform="translate(9495.45 -5636.16) rotate(163.34) scale(1.23 .52)" gradientUnits="userSpaceOnUse"><stop offset="0" stop-color="#fff381"/><stop offset=".17" stop-color="#fff27d"/><stop offset=".31" stop-color="#ffee73"/><stop offset=".44" stop-color="#ffe961"/><stop offset=".57" stop-color="#ffe248"/><stop offset=".69" stop-color="#ffd828"/><stop offset=".81" stop-color="#ffcd01"/><stop offset=".82" stop-color="#ffcd00"/></linearGradient><linearGradient id="uuid-4bcdbcee-fca9-4365-af37-19512b8ec5ae" x1="7736.31" y1="-5809.42" x2="8808.38" y2="-5809.42" gradientTransform="translate(9495.45 -5636.16) rotate(163.34) scale(1.23 .52)" gradientUnits="userSpaceOnUse"><stop offset="0" stop-color="#fff59f"/><stop offset=".05" stop-color="#feef8f"/><stop offset=".24" stop-color="#fcdb5c"/><stop offset=".41" stop-color="#fbcc34"/><stop offset=".57" stop-color="#fac117"/><stop offset=".71" stop-color="#fabb06"/><stop offset=".81" stop-color="#fab900"/></linearGradient><linearGradient id="uuid-40ecfde6-2079-4958-96ad-519784452145" x1="8492.71" y1="-4361.86" x2="8111.96" y2="-4905.63" gradientTransform="translate(14080.47 -7377.43) rotate(163.34) scale(1.81 .73)" gradientUnits="userSpaceOnUse"><stop offset=".17" stop-color="#cdcdcd"/><stop offset=".27" stop-color="#b7b7b7"/><stop offset=".48" stop-color="#8d8d8d"/><stop offset=".67" stop-color="#6f6f6f"/><stop offset=".83" stop-color="#5d5d5c"/><stop offset=".95" stop-color="#575756"/></linearGradient></defs><g id="uuid-d2d47e4a-43b5-4ba8-b9f6-c563da25aaff"><g class="uuid-cd7d779a-4ecc-42df-8597-ae915cd6ab7c"><polygon class="uuid-21130157-2011-45f3-8be0-82b35a54ae53" points="-57.89 -324.4 1358.66 -324.4 1358.66 112.62 1236.43 100.9 744.15 119.32 -42.82 288.44 -57.89 -324.4"/><path class="uuid-d718e002-5a53-4960-9b9b-a36a7c3ca91a" d="M-20.23,285.63l11.29-41.37s150.23-61.2,438.6-114.35c486.43-89.65,862.91-27.19,862.91-27.19l-3.67,14.05s-390.9-74.61-943.06,50.23C162.45,208.46-20.23,285.63-20.23,285.63Z"/><path class="uuid-88a78fce-65cc-418b-90fb-2f2df16ddb3f" d="M-11.35,253.06l-13.54,49.61s185.24-86.03,478.61-137.45c488.05-85.53,839.25-63.85,839.25-63.85,0,0-387.31-47.32-803.58,28.74C197.84,183.39-11.35,253.06-11.35,253.06Z"/><path class="uuid-6b4daa88-66a1-49e9-b132-1fbbcf047d8b" d="M-28.63,316.4s90.74-47.78,306.57-99.05c388.74-92.36,817.96-133.62,1010.72-102.21l4.32-13.76S901.39,60.04,234.51,203.06C20.38,248.99-26.8,309.7-26.8,309.7l-1.83,6.69Z"/><path class="uuid-dfbf41da-6a73-4eac-af28-8c4eb73f27f4" d="M1289.3,113.65s-187.32-32.29-512.58-2.88C312.72,152.71-20.43,275.99-20.43,275.99l-6.8,24.94C844.33,9.79,1290.64,109.16,1290.64,109.16l-1.35,4.49Z"/><path class="uuid-f203009e-8358-407d-bd36-b6a480eac23f" d="M-12.27,260.01l-4.42,16.81s244.88-93.25,436.71-124.18c436.7-70.43,871.41-44.81,871.41-44.81,0,0-475.87-41.21-951.23,54.43C162.24,198.06-12.27,260.01-12.27,260.01Z"/></g></g></svg>