<?xml version="1.0" encoding="UTF-8"?><svg id="uuid-842211b4-4bf3-4028-9a5f-e76b8d30d7ca" xmlns="http://www.w3.org/2000/svg" viewBox="0 0 301.46 301.46"><defs><style>.uuid-8f85e834-a07f-42a0-a9af-fcaa1fe95e5e{fill:#ffcb00;}.uuid-7a504cea-8d4f-4e62-adad-521939fdd507{fill:#fff;}</style></defs><g id="uuid-0bfa3e42-4164-4892-bedf-27a2ed6e34fe"><circle cx="150.73" cy="150.73" r="146.23"/><path class="uuid-7a504cea-8d4f-4e62-adad-521939fdd507" d="M151.12,301.46C68.01,301.68.21,234.23,0,151.12S67.23.21,150.35,0c83.11-.21,150.91,67.23,151.12,150.34s-67.23,150.91-150.34,151.12ZM150.37,9C72.22,9.2,8.8,72.95,9,151.1c.2,78.15,63.94,141.57,142.1,141.37,78.15-.2,141.57-63.94,141.37-142.1S228.52,8.8,150.37,9Z"/><path class="uuid-7a504cea-8d4f-4e62-adad-521939fdd507" d="M62.13,128.06l-.05-17.83-7.06.02v-5.15s20.57-.05,20.57-.05v5.15s-7.01.02-7.01.02l.05,17.83-6.5.02Z"/><path class="uuid-7a504cea-8d4f-4e62-adad-521939fdd507" d="M77.43,128.02l-.05-17.83,5.97-.02v5.22s-.91-1.48-.91-1.48c.54-1.34,1.4-2.35,2.57-3.03,1.17-.68,2.6-1.02,4.28-1.03v5.65c-.27-.04-.52-.07-.74-.08-.22-.01-.44-.02-.66-.01-1.27,0-2.3.35-3.08,1.04-.79.69-1.18,1.81-1.17,3.37l.02,8.17-6.24.02Z"/><path class="uuid-7a504cea-8d4f-4e62-adad-521939fdd507" d="M96.44,128.27c-1.4,0-2.6-.23-3.6-.71-1-.48-1.75-1.13-2.27-1.96-.52-.83-.78-1.75-.78-2.76,0-1.09.27-2.05.83-2.86.56-.81,1.42-1.43,2.59-1.86s2.66-.65,4.48-.65h4.2s0,3.27,0,3.27h-3.35c-1.01.01-1.71.17-2.12.47-.4.31-.61.75-.6,1.32,0,.53.21.96.63,1.3.42.34.99.51,1.71.5s1.33-.17,1.89-.51c.56-.34.95-.86,1.19-1.56l.86,2.3c-.32,1.23-.96,2.15-1.91,2.78-.95.63-2.2.94-3.76.95ZM101.69,127.96v-3.32s-.44-.82-.44-.82l-.02-6.11c0-.98-.31-1.74-.91-2.28-.6-.53-1.56-.8-2.88-.8-.85,0-1.72.15-2.61.43-.89.29-1.63.65-2.25,1.09l-2.08-4.2c1-.66,2.21-1.18,3.62-1.55,1.41-.38,2.82-.57,4.22-.57,2.89,0,5.13.65,6.72,1.99s2.39,3.41,2.4,6.23l.03,9.88h-5.81Z"/><path class="uuid-7a504cea-8d4f-4e62-adad-521939fdd507" d="M111.44,127.93l-.05-17.83,5.97-.02v5.09s-1.17-1.47-1.17-1.47c.68-1.27,1.6-2.24,2.78-2.91,1.18-.67,2.51-1.01,4-1.01,1.38,0,2.63.28,3.74.84,1.12.57,2,1.43,2.65,2.59s.98,2.66.98,4.49l.03,10.18-6.27.02-.02-9.16c0-1.27-.26-2.19-.78-2.77-.52-.58-1.21-.87-2.09-.86-.68,0-1.29.15-1.84.45-.55.3-.97.75-1.28,1.37-.31.61-.46,1.42-.45,2.43l.02,8.57-6.24.02Z"/><path class="uuid-7a504cea-8d4f-4e62-adad-521939fdd507" d="M140.75,128.15c-1.51,0-2.98-.17-4.42-.51-1.43-.35-2.59-.78-3.47-1.3l1.83-4.27c.85.5,1.84.9,2.96,1.21s2.21.45,3.28.45,1.78-.12,2.18-.35c.4-.23.61-.54.61-.94,0-.33-.19-.58-.56-.75-.37-.17-.88-.3-1.51-.37s-1.32-.16-2.05-.26-1.48-.25-2.25-.45c-.77-.21-1.46-.49-2.09-.86-.62-.37-1.12-.88-1.5-1.54-.37-.66-.56-1.49-.56-2.49,0-1.14.33-2.15.99-3.04.66-.89,1.64-1.6,2.92-2.12s2.86-.8,4.74-.8c1.25,0,2.51.13,3.79.38s2.36.64,3.24,1.14l-1.86,4.27c-.88-.52-1.75-.87-2.63-1.04-.88-.17-1.7-.26-2.46-.26-1.05,0-1.8.12-2.25.35-.45.23-.67.52-.67.87s.2.62.59.8c.39.19.9.33,1.51.42.61.1,1.3.19,2.05.29.76.1,1.51.24,2.25.44.74.2,1.42.48,2.04.86.61.38,1.11.89,1.5,1.54s.58,1.48.58,2.51-.32,2.05-.98,2.92c-.65.88-1.64,1.58-2.95,2.11-1.31.53-2.93.8-4.86.8Z"/><path class="uuid-7a504cea-8d4f-4e62-adad-521939fdd507" d="M152.26,134.19l-.06-24.19,5.97-.02v3.05s-.04,5.91-.04,5.91l.34,5.88.02,9.36-6.24.02ZM163.43,128.09c-1.51,0-2.8-.33-3.88-.99-1.07-.66-1.89-1.67-2.45-3.03-.56-1.36-.84-3.06-.85-5.12s.25-3.89.77-5.24,1.31-2.36,2.37-3.03c1.06-.67,2.39-1.01,3.99-1.01s3.09.38,4.42,1.14c1.33.76,2.38,1.83,3.16,3.19.78,1.37,1.17,3,1.18,4.91s-.38,3.48-1.15,4.86c-.77,1.38-1.82,2.45-3.14,3.19-1.32.75-2.79,1.12-4.41,1.13ZM162.11,123.14c.7,0,1.33-.17,1.89-.5.56-.33,1-.81,1.34-1.45.34-.63.51-1.39.5-2.27,0-.94-.17-1.72-.51-2.35-.34-.62-.79-1.1-1.35-1.42-.56-.33-1.19-.49-1.89-.49s-1.33.17-1.89.5c-.56.33-1,.81-1.34,1.43-.34.62-.51,1.41-.5,2.35,0,.87.17,1.63.51,2.26.34.63.79,1.11,1.35,1.44.56.33,1.19.49,1.89.49Z"/><path class="uuid-7a504cea-8d4f-4e62-adad-521939fdd507" d="M183.99,128.04c-1.95,0-3.68-.39-5.19-1.17-1.51-.78-2.7-1.87-3.57-3.26s-1.3-2.97-1.31-4.74.42-3.39,1.28-4.78c.86-1.39,2.05-2.48,3.55-3.28,1.51-.79,3.24-1.19,5.18-1.19s3.68.39,5.21,1.17c1.52.78,2.72,1.87,3.59,3.26.87,1.39,1.3,2.98,1.31,4.77s-.42,3.36-1.28,4.75c-.86,1.39-2.05,2.48-3.57,3.27-1.52.79-3.25,1.19-5.2,1.2ZM183.97,123.08c.7,0,1.33-.17,1.89-.5.56-.33,1-.82,1.34-1.46.34-.65.51-1.42.5-2.32s-.17-1.69-.51-2.3c-.34-.61-.79-1.08-1.35-1.41-.56-.33-1.19-.49-1.89-.49s-1.33.17-1.89.5-1,.8-1.34,1.42c-.34.61-.51,1.38-.5,2.3s.17,1.67.51,2.31c.34.64.79,1.13,1.35,1.46.56.33,1.19.49,1.89.49Z"/><path class="uuid-7a504cea-8d4f-4e62-adad-521939fdd507" d="M196.92,127.71l-.05-17.83,5.97-.02v5.22s-.91-1.48-.91-1.48c.54-1.34,1.4-2.35,2.57-3.03,1.17-.68,2.6-1.02,4.28-1.03v5.65c-.27-.04-.52-.07-.74-.08-.22-.01-.44-.02-.66-.01-1.27,0-2.3.35-3.08,1.04-.79.69-1.18,1.81-1.17,3.37l.02,8.17-6.24.02Z"/><path class="uuid-7a504cea-8d4f-4e62-adad-521939fdd507" d="M210.05,114.51v-4.66s12.89-.03,12.89-.03v4.66s-12.89.03-12.89.03ZM219.9,127.95c-2.28,0-4.05-.55-5.32-1.68-1.27-1.12-1.91-2.82-1.92-5.1l-.04-15.3,6.24-.02.04,15.2c0,.68.17,1.19.51,1.54.34.35.79.52,1.36.52.72,0,1.36-.19,1.9-.56l1.59,4.33c-.57.37-1.23.64-1.98.81-.76.17-1.55.25-2.38.25Z"/><path class="uuid-7a504cea-8d4f-4e62-adad-521939fdd507" d="M235.46,127.91c-2.12,0-3.97-.39-5.53-1.18-1.57-.79-2.79-1.89-3.65-3.27s-1.3-2.96-1.31-4.71.41-3.39,1.25-4.78c.84-1.39,2-2.48,3.47-3.28,1.48-.79,3.15-1.19,5.04-1.19,1.75,0,3.34.36,4.78,1.09,1.44.73,2.59,1.78,3.46,3.14.87,1.36,1.3,3.03,1.31,5,0,.22,0,.47-.03.75-.02.29-.04.55-.06.79l-14.08.04v-3.28s10.76-.03,10.76-.03l-2.36.93c.02-.79-.13-1.48-.45-2.08-.32-.6-.75-1.07-1.3-1.39-.55-.33-1.19-.49-1.94-.49s-1.43.17-2,.5c-.57.33-1,.8-1.29,1.4-.29.6-.44,1.31-.44,2.12v.95c0,.88.19,1.63.55,2.26.36.63.88,1.12,1.56,1.46.68.34,1.49.5,2.43.5s1.65-.13,2.26-.38c.61-.25,1.22-.64,1.84-1.17l3.26,3.44c-.83.92-1.87,1.63-3.11,2.13-1.25.5-2.71.75-4.4.75Z"/><path class="uuid-7a504cea-8d4f-4e62-adad-521939fdd507" d="M43.78,161.97c-1.6,0-3.07-.37-4.4-1.12s-2.4-1.81-3.18-3.18c-.78-1.37-1.17-2.99-1.18-4.87s.38-3.54,1.15-4.91c.77-1.37,1.83-2.43,3.16-3.19s2.8-1.14,4.4-1.14c1.51,0,2.8.33,3.88.99,1.07.66,1.89,1.67,2.44,3.03.55,1.36.83,3.08.83,5.18s-.25,3.83-.76,5.19c-.51,1.36-1.3,2.37-2.36,3.03s-2.39.99-3.99,1ZM45.08,157.01c.7,0,1.33-.17,1.89-.5.56-.33,1-.82,1.33-1.46s.49-1.41.49-2.28c0-.94-.17-1.72-.5-2.33-.33-.61-.77-1.08-1.33-1.41-.56-.33-1.19-.49-1.89-.49s-1.36.17-1.92.5c-.56.33-1,.8-1.33,1.42-.33.61-.49,1.39-.49,2.33,0,.88.17,1.64.5,2.28.33.64.77,1.13,1.33,1.46.56.33,1.2.49,1.92.49ZM49,161.66v-3.05s0-5.88,0-5.88l-.34-5.88-.02-9.55,6.24-.02.06,24.36-5.94.02Z"/><path class="uuid-7a504cea-8d4f-4e62-adad-521939fdd507" d="M68.31,161.91c-2.12,0-3.97-.39-5.53-1.18-1.57-.79-2.79-1.89-3.65-3.27s-1.3-2.96-1.31-4.71.41-3.39,1.25-4.78c.84-1.39,2-2.48,3.47-3.28,1.48-.79,3.15-1.19,5.04-1.19,1.75,0,3.34.36,4.78,1.09,1.44.73,2.59,1.78,3.46,3.14.87,1.36,1.3,3.03,1.31,5,0,.22,0,.47-.03.75-.02.29-.04.55-.06.79l-14.08.04v-3.28s10.76-.03,10.76-.03l-2.36.93c.02-.79-.13-1.48-.45-2.08-.32-.6-.75-1.07-1.3-1.39-.55-.33-1.19-.49-1.94-.49s-1.43.17-2,.5c-.57.33-1,.8-1.29,1.4-.29.6-.44,1.31-.44,2.12v.95c0,.88.19,1.63.55,2.26.36.63.88,1.12,1.56,1.46.68.34,1.49.5,2.43.5s1.65-.13,2.26-.38c.61-.25,1.22-.64,1.84-1.17l3.26,3.44c-.83.92-1.87,1.63-3.11,2.13-1.25.5-2.71.75-4.4.75Z"/><path class="uuid-7a504cea-8d4f-4e62-adad-521939fdd507" d="M89.59,167.93l-.06-24.19,5.97-.02v3.05s-.04,5.91-.04,5.91l.34,5.88.02,9.36-6.24.02ZM100.77,161.83c-1.51,0-2.8-.33-3.88-.99-1.07-.66-1.89-1.67-2.45-3.03-.56-1.36-.84-3.06-.85-5.12s.25-3.89.77-5.24,1.31-2.36,2.37-3.03c1.06-.67,2.39-1.01,3.99-1.01s3.09.38,4.42,1.14c1.33.76,2.38,1.83,3.16,3.19.78,1.37,1.17,3,1.18,4.91s-.38,3.48-1.15,4.86c-.77,1.38-1.82,2.45-3.14,3.19-1.32.75-2.79,1.12-4.41,1.13ZM99.45,156.87c.7,0,1.33-.17,1.89-.5.56-.33,1-.81,1.34-1.45.34-.63.51-1.39.5-2.27,0-.94-.17-1.72-.51-2.35-.34-.62-.79-1.1-1.35-1.42-.56-.33-1.19-.49-1.89-.49s-1.33.17-1.89.5c-.56.33-1,.81-1.34,1.43-.34.62-.51,1.41-.5,2.35,0,.87.17,1.63.51,2.26.34.63.79,1.11,1.35,1.44.56.33,1.19.49,1.89.49Z"/><path class="uuid-7a504cea-8d4f-4e62-adad-521939fdd507" d="M112.39,161.5l-.05-17.83,5.97-.02v5.22s-.91-1.48-.91-1.48c.54-1.34,1.4-2.35,2.57-3.03,1.17-.68,2.6-1.02,4.28-1.03v5.65c-.27-.04-.52-.07-.74-.08-.22-.01-.44-.02-.66-.01-1.27,0-2.3.35-3.08,1.04-.79.69-1.18,1.81-1.17,3.37l.02,8.17-6.24.02Z"/><path class="uuid-7a504cea-8d4f-4e62-adad-521939fdd507" d="M135.64,161.74c-1.95,0-3.68-.39-5.19-1.17-1.51-.78-2.7-1.87-3.57-3.26s-1.3-2.97-1.31-4.74.42-3.39,1.28-4.78c.86-1.39,2.05-2.48,3.55-3.28,1.51-.79,3.24-1.19,5.18-1.19s3.68.39,5.21,1.17c1.52.78,2.72,1.87,3.59,3.26.87,1.39,1.3,2.98,1.31,4.77s-.42,3.36-1.28,4.75c-.86,1.39-2.05,2.48-3.57,3.27-1.52.79-3.25,1.19-5.2,1.2ZM135.62,156.78c.7,0,1.33-.17,1.89-.5.56-.33,1-.82,1.34-1.46.34-.65.51-1.42.5-2.32s-.17-1.69-.51-2.3c-.34-.61-.79-1.08-1.35-1.41-.56-.33-1.19-.49-1.89-.49s-1.33.17-1.89.5-1,.8-1.34,1.42c-.34.61-.51,1.38-.5,2.3s.17,1.67.51,2.31c.34.64.79,1.13,1.35,1.46.56.33,1.19.49,1.89.49Z"/><path class="uuid-7a504cea-8d4f-4e62-adad-521939fdd507" d="M156.32,161.68c-1.6,0-3.07-.37-4.4-1.12s-2.4-1.81-3.18-3.18c-.78-1.37-1.17-2.99-1.18-4.87s.38-3.54,1.15-4.91c.77-1.37,1.83-2.43,3.16-3.19s2.8-1.14,4.4-1.14c1.51,0,2.8.33,3.88.99,1.07.66,1.89,1.67,2.44,3.03.55,1.36.83,3.08.83,5.18s-.25,3.83-.76,5.19c-.51,1.36-1.3,2.37-2.36,3.03s-2.39.99-3.99,1ZM157.62,156.72c.7,0,1.33-.17,1.89-.5.56-.33,1-.82,1.33-1.46s.49-1.41.49-2.28c0-.94-.17-1.72-.5-2.33-.33-.61-.77-1.08-1.33-1.41-.56-.33-1.19-.49-1.89-.49s-1.36.17-1.92.5c-.56.33-1,.8-1.33,1.42-.33.61-.49,1.39-.49,2.33,0,.88.17,1.64.5,2.28.33.64.77,1.13,1.33,1.46.56.33,1.2.49,1.92.49ZM161.53,161.38v-3.05s0-5.88,0-5.88l-.34-5.88-.02-9.55,6.24-.02.06,24.36-5.94.02Z"/><path class="uuid-7a504cea-8d4f-4e62-adad-521939fdd507" d="M178.97,161.63c-1.44,0-2.74-.28-3.89-.84-1.15-.57-2.05-1.46-2.7-2.67s-.98-2.76-.98-4.64l-.03-9.95,6.24-.02.02,8.93c0,1.38.26,2.37.78,2.97.52.6,1.24.9,2.19.9.61,0,1.18-.15,1.69-.43.51-.29.91-.74,1.19-1.37.28-.62.42-1.42.42-2.38l-.02-8.63,6.24-.02.05,17.83-5.91.02v-5.02s1.14,1.41,1.14,1.41c-.63,1.32-1.52,2.3-2.67,2.95-1.15.65-2.4.97-3.76.98Z"/><path class="uuid-7a504cea-8d4f-4e62-adad-521939fdd507" d="M203.29,161.56c-1.99,0-3.75-.38-5.29-1.17-1.53-.78-2.74-1.87-3.62-3.26s-1.32-2.97-1.32-4.74.43-3.38,1.3-4.76,2.07-2.47,3.6-3.28c1.53-.8,3.29-1.21,5.28-1.21s3.75.42,5.22,1.28c1.47.86,2.51,2.06,3.13,3.59l-4.82,2.51c-.42-.83-.93-1.44-1.55-1.82-.61-.38-1.28-.57-2-.57s-1.37.17-1.95.5-1.04.8-1.39,1.42c-.35.61-.52,1.39-.52,2.33s.18,1.66.53,2.3c.35.63.82,1.11,1.4,1.44.58.33,1.23.49,1.95.49s1.39-.19,2-.58c.61-.38,1.12-.99,1.54-1.83l4.83,2.45c-.61,1.53-1.65,2.73-3.11,3.6-1.46.87-3.2,1.31-5.22,1.31Z"/><path class="uuid-7a504cea-8d4f-4e62-adad-521939fdd507" d="M212.38,148.08v-4.66s12.89-.03,12.89-.03v4.66s-12.89.03-12.89.03ZM222.23,161.52c-2.28,0-4.05-.55-5.32-1.68-1.27-1.12-1.91-2.82-1.92-5.1l-.04-15.3,6.24-.02.04,15.2c0,.68.17,1.19.51,1.54.34.35.79.52,1.36.52.72,0,1.36-.19,1.9-.56l1.59,4.33c-.57.37-1.23.64-1.98.81-.76.17-1.55.25-2.38.25Z"/><path class="uuid-7a504cea-8d4f-4e62-adad-521939fdd507" d="M237.37,161.48c-1.95,0-3.68-.39-5.19-1.17-1.51-.78-2.7-1.87-3.57-3.26s-1.3-2.97-1.31-4.74.42-3.39,1.28-4.78c.86-1.39,2.05-2.48,3.55-3.28,1.51-.79,3.24-1.19,5.18-1.19s3.68.39,5.21,1.17c1.52.78,2.72,1.87,3.59,3.26.87,1.39,1.3,2.98,1.31,4.77s-.42,3.36-1.28,4.75c-.86,1.39-2.05,2.48-3.57,3.27-1.52.79-3.25,1.19-5.2,1.2ZM237.35,156.52c.7,0,1.33-.17,1.89-.5.56-.33,1-.82,1.34-1.46.34-.65.51-1.42.5-2.32s-.17-1.69-.51-2.3c-.34-.61-.79-1.08-1.35-1.41-.56-.33-1.19-.49-1.89-.49s-1.33.17-1.89.5-1,.8-1.34,1.42c-.34.61-.51,1.38-.5,2.3s.17,1.67.51,2.31c.34.64.79,1.13,1.35,1.46.56.33,1.19.49,1.89.49Z"/><path class="uuid-7a504cea-8d4f-4e62-adad-521939fdd507" d="M256.77,161.43c-1.51,0-2.98-.17-4.42-.51-1.43-.35-2.59-.78-3.47-1.3l1.83-4.27c.85.5,1.84.9,2.96,1.21s2.21.45,3.28.45,1.78-.12,2.18-.35c.4-.23.61-.54.61-.94,0-.33-.19-.58-.56-.75-.37-.17-.88-.3-1.51-.37s-1.32-.16-2.05-.26-1.48-.25-2.25-.45c-.77-.21-1.46-.49-2.09-.86-.62-.37-1.12-.88-1.5-1.54-.37-.66-.56-1.49-.56-2.49,0-1.14.33-2.15.99-3.04.66-.89,1.64-1.6,2.92-2.12s2.86-.8,4.74-.8c1.25,0,2.51.13,3.79.38s2.36.64,3.24,1.14l-1.86,4.27c-.88-.52-1.75-.87-2.63-1.04-.88-.17-1.7-.26-2.46-.26-1.05,0-1.8.12-2.25.35-.45.23-.67.52-.67.87s.2.62.59.8c.39.19.9.33,1.51.42.61.1,1.3.19,2.05.29.76.1,1.51.24,2.25.44.74.2,1.42.48,2.04.86.61.38,1.11.89,1.5,1.54s.58,1.48.58,2.51-.32,2.05-.98,2.92c-.65.88-1.64,1.58-2.95,2.11-1.31.53-2.93.8-4.86.8Z"/><path class="uuid-8f85e834-a07f-42a0-a9af-fcaa1fe95e5e" d="M43.21,201.62l-.06-24.19,5.97-.02v3.05s-.04,5.91-.04,5.91l.34,5.88.02,9.36-6.24.02ZM54.39,195.52c-1.51,0-2.8-.33-3.88-.99-1.07-.66-1.89-1.67-2.45-3.03-.56-1.36-.84-3.06-.85-5.12s.25-3.89.77-5.24,1.31-2.36,2.37-3.03c1.06-.67,2.39-1.01,3.99-1.01s3.09.38,4.42,1.14c1.33.76,2.38,1.83,3.16,3.19.78,1.37,1.17,3,1.18,4.91s-.38,3.48-1.15,4.86c-.77,1.38-1.82,2.45-3.14,3.19-1.32.75-2.79,1.12-4.41,1.13ZM53.07,190.57c.7,0,1.33-.17,1.89-.5.56-.33,1-.81,1.34-1.45.34-.63.51-1.39.5-2.27,0-.94-.17-1.72-.51-2.35-.34-.62-.79-1.1-1.35-1.42-.56-.33-1.19-.49-1.89-.49s-1.33.17-1.89.5c-.56.33-1,.81-1.34,1.43-.34.62-.51,1.41-.5,2.35,0,.87.17,1.63.51,2.26.34.63.79,1.11,1.35,1.44.56.33,1.19.49,1.89.49Z"/><path class="uuid-8f85e834-a07f-42a0-a9af-fcaa1fe95e5e" d="M75.37,195.47c-2.12,0-3.97-.39-5.53-1.18-1.57-.79-2.79-1.89-3.65-3.27s-1.3-2.96-1.31-4.71.41-3.39,1.25-4.78c.84-1.39,2-2.48,3.47-3.28,1.48-.79,3.15-1.19,5.04-1.19,1.75,0,3.34.36,4.78,1.09,1.44.73,2.59,1.78,3.46,3.14.87,1.36,1.3,3.03,1.31,5,0,.22,0,.47-.03.75-.02.29-.04.55-.06.79l-14.08.04v-3.28s10.76-.03,10.76-.03l-2.36.93c.02-.79-.13-1.48-.45-2.08-.32-.6-.75-1.07-1.3-1.39-.55-.33-1.19-.49-1.94-.49s-1.43.17-2,.5c-.57.33-1,.8-1.29,1.4-.29.6-.44,1.31-.44,2.12v.95c0,.88.19,1.63.55,2.26.36.63.88,1.12,1.56,1.46.68.34,1.49.5,2.43.5s1.65-.13,2.26-.38c.61-.25,1.22-.64,1.84-1.17l3.26,3.44c-.83.92-1.87,1.63-3.11,2.13-1.25.5-2.71.75-4.4.75Z"/><path class="uuid-8f85e834-a07f-42a0-a9af-fcaa1fe95e5e" d="M87.09,195.14l-.05-17.83,5.97-.02v5.22s-.91-1.48-.91-1.48c.54-1.34,1.4-2.35,2.57-3.03,1.17-.68,2.6-1.02,4.28-1.03v5.65c-.27-.04-.52-.07-.74-.08-.22-.01-.44-.02-.66-.01-1.27,0-2.3.35-3.08,1.04-.79.69-1.18,1.81-1.17,3.37l.02,8.17-6.24.02Z"/><path class="uuid-8f85e834-a07f-42a0-a9af-fcaa1fe95e5e" d="M110.76,195.38c-2.12,0-3.97-.39-5.53-1.18-1.57-.79-2.79-1.89-3.65-3.27s-1.3-2.96-1.31-4.71.41-3.39,1.25-4.78c.84-1.39,2-2.48,3.47-3.28,1.48-.79,3.15-1.19,5.04-1.19,1.75,0,3.34.36,4.78,1.09,1.44.73,2.59,1.78,3.46,3.14.87,1.36,1.3,3.03,1.31,5,0,.22,0,.47-.03.75-.02.29-.04.55-.06.79l-14.08.04v-3.28s10.76-.03,10.76-.03l-2.36.93c.02-.79-.13-1.48-.45-2.08-.32-.6-.75-1.07-1.3-1.39-.55-.33-1.19-.49-1.94-.49s-1.43.17-2,.5c-.57.33-1,.8-1.29,1.4-.29.6-.44,1.31-.44,2.12v.95c0,.88.19,1.63.55,2.26.36.63.88,1.12,1.56,1.46.68.34,1.49.5,2.43.5s1.65-.13,2.26-.38c.61-.25,1.22-.64,1.84-1.17l3.26,3.44c-.83.92-1.87,1.63-3.11,2.13-1.25.5-2.71.75-4.4.75Z"/><path class="uuid-8f85e834-a07f-42a0-a9af-fcaa1fe95e5e" d="M131.57,195.32c-1.99,0-3.75-.38-5.29-1.17-1.53-.78-2.74-1.87-3.62-3.26s-1.32-2.97-1.32-4.74.43-3.38,1.3-4.76,2.07-2.47,3.6-3.28c1.53-.8,3.29-1.21,5.28-1.21s3.75.42,5.22,1.28c1.47.86,2.51,2.06,3.13,3.59l-4.82,2.51c-.42-.83-.93-1.44-1.55-1.82-.61-.38-1.28-.57-2-.57s-1.37.17-1.95.5-1.04.8-1.39,1.42c-.35.61-.52,1.39-.52,2.33s.18,1.66.53,2.3c.35.63.82,1.11,1.4,1.44.58.33,1.23.49,1.95.49s1.39-.19,2-.58c.61-.38,1.12-.99,1.54-1.83l4.83,2.45c-.61,1.53-1.65,2.73-3.11,3.6-1.46.87-3.2,1.31-5.22,1.31Z"/><path class="uuid-8f85e834-a07f-42a0-a9af-fcaa1fe95e5e" d="M151.43,195.27c-2.12,0-3.97-.39-5.53-1.18-1.57-.79-2.79-1.89-3.65-3.27s-1.3-2.96-1.31-4.71.41-3.39,1.25-4.78c.84-1.39,2-2.48,3.47-3.28,1.48-.79,3.15-1.19,5.04-1.19,1.75,0,3.34.36,4.78,1.09,1.44.73,2.59,1.78,3.46,3.14.87,1.36,1.3,3.03,1.31,5,0,.22,0,.47-.03.75-.02.29-.04.55-.06.79l-14.08.04v-3.28s10.76-.03,10.76-.03l-2.36.93c.02-.79-.13-1.48-.45-2.08-.32-.6-.75-1.07-1.3-1.39-.55-.33-1.19-.49-1.94-.49s-1.43.17-2,.5c-.57.33-1,.8-1.29,1.4-.29.6-.44,1.31-.44,2.12v.95c0,.88.19,1.63.55,2.26.36.63.88,1.12,1.56,1.46.68.34,1.49.5,2.43.5s1.65-.13,2.26-.38c.61-.25,1.22-.64,1.84-1.17l3.26,3.44c-.83.92-1.87,1.63-3.11,2.13-1.25.5-2.71.75-4.4.75Z"/><path class="uuid-8f85e834-a07f-42a0-a9af-fcaa1fe95e5e" d="M170.9,195.22c-1.6,0-3.07-.37-4.4-1.12s-2.4-1.81-3.18-3.18c-.78-1.37-1.17-2.99-1.18-4.87s.38-3.54,1.15-4.91c.77-1.37,1.83-2.43,3.16-3.19s2.8-1.14,4.4-1.14c1.51,0,2.8.33,3.88.99,1.07.66,1.89,1.67,2.44,3.03.55,1.36.83,3.08.83,5.18s-.25,3.83-.76,5.19c-.51,1.36-1.3,2.37-2.36,3.03s-2.39.99-3.99,1ZM172.19,190.26c.7,0,1.33-.17,1.89-.5.56-.33,1-.82,1.33-1.46s.49-1.41.49-2.28c0-.94-.17-1.72-.5-2.33-.33-.61-.77-1.08-1.33-1.41-.56-.33-1.19-.49-1.89-.49s-1.36.17-1.92.5c-.56.33-1,.8-1.33,1.42-.33.61-.49,1.39-.49,2.33,0,.88.17,1.64.5,2.28.33.64.77,1.13,1.33,1.46.56.33,1.2.49,1.92.49ZM176.11,194.91v-3.05s0-5.88,0-5.88l-.34-5.88-.02-9.55,6.24-.02.06,24.36-5.94.02Z"/><path class="uuid-8f85e834-a07f-42a0-a9af-fcaa1fe95e5e" d="M195.42,195.16c-2.12,0-3.97-.39-5.53-1.18-1.57-.79-2.79-1.89-3.65-3.27s-1.3-2.96-1.31-4.71.41-3.39,1.25-4.78c.84-1.39,2-2.48,3.47-3.28,1.48-.79,3.15-1.19,5.04-1.19,1.75,0,3.34.36,4.78,1.09,1.44.73,2.59,1.78,3.46,3.14.87,1.36,1.3,3.03,1.31,5,0,.22,0,.47-.03.75-.02.29-.04.55-.06.79l-14.08.04v-3.28s10.76-.03,10.76-.03l-2.36.93c.02-.79-.13-1.48-.45-2.08-.32-.6-.75-1.07-1.3-1.39-.55-.33-1.19-.49-1.94-.49s-1.43.17-2,.5c-.57.33-1,.8-1.29,1.4-.29.6-.44,1.31-.44,2.12v.95c0,.88.19,1.63.55,2.26.36.63.88,1.12,1.56,1.46.68.34,1.49.5,2.43.5s1.65-.13,2.26-.38c.61-.25,1.22-.64,1.84-1.17l3.26,3.44c-.83.92-1.87,1.63-3.11,2.13-1.25.5-2.71.75-4.4.75Z"/><path class="uuid-8f85e834-a07f-42a0-a9af-fcaa1fe95e5e" d="M207.14,194.83l-.05-17.83,5.97-.02v5.22s-.91-1.48-.91-1.48c.54-1.34,1.4-2.35,2.57-3.03,1.17-.68,2.6-1.02,4.28-1.03v5.65c-.27-.04-.52-.07-.74-.08-.22-.01-.44-.02-.66-.01-1.27,0-2.3.35-3.08,1.04-.79.69-1.18,1.81-1.17,3.37l.02,8.17-6.24.02Z"/><path class="uuid-8f85e834-a07f-42a0-a9af-fcaa1fe95e5e" d="M230.38,195.07c-1.95,0-3.68-.39-5.19-1.17-1.51-.78-2.7-1.87-3.57-3.26s-1.3-2.97-1.31-4.74.42-3.39,1.28-4.78c.86-1.39,2.05-2.48,3.55-3.28,1.51-.79,3.24-1.19,5.18-1.19s3.68.39,5.21,1.17c1.52.78,2.72,1.87,3.59,3.26.87,1.39,1.3,2.98,1.31,4.77s-.42,3.36-1.28,4.75c-.86,1.39-2.05,2.48-3.57,3.27-1.52.79-3.25,1.19-5.2,1.2ZM230.37,190.11c.7,0,1.33-.17,1.89-.5.56-.33,1-.82,1.34-1.46.34-.65.51-1.42.5-2.32s-.17-1.69-.51-2.3c-.34-.61-.79-1.08-1.35-1.41-.56-.33-1.19-.49-1.89-.49s-1.33.17-1.89.5-1,.8-1.34,1.42c-.34.61-.51,1.38-.5,2.3s.17,1.67.51,2.31c.34.64.79,1.13,1.35,1.46.56.33,1.19.49,1.89.49Z"/><path class="uuid-8f85e834-a07f-42a0-a9af-fcaa1fe95e5e" d="M249.78,195.02c-1.51,0-2.98-.17-4.42-.51-1.43-.35-2.59-.78-3.47-1.3l1.83-4.27c.85.5,1.84.9,2.96,1.21s2.21.45,3.28.45,1.78-.12,2.18-.35c.4-.23.61-.54.61-.94,0-.33-.19-.58-.56-.75-.37-.17-.88-.3-1.51-.37s-1.32-.16-2.05-.26-1.48-.25-2.25-.45c-.77-.21-1.46-.49-2.09-.86-.62-.37-1.12-.88-1.5-1.54-.37-.66-.56-1.49-.56-2.49,0-1.14.33-2.15.99-3.04.66-.89,1.64-1.6,2.92-2.12s2.86-.8,4.74-.8c1.25,0,2.51.13,3.79.38s2.36.64,3.24,1.14l-1.86,4.27c-.88-.52-1.75-.87-2.63-1.04-.88-.17-1.7-.26-2.46-.26-1.05,0-1.8.12-2.25.35-.45.23-.67.52-.67.87s.2.62.59.8c.39.19.9.33,1.51.42.61.1,1.3.19,2.05.29.76.1,1.51.24,2.25.44.74.2,1.42.48,2.04.86.61.38,1.11.89,1.5,1.54s.58,1.48.58,2.51-.32,2.05-.98,2.92c-.65.88-1.64,1.58-2.95,2.11-1.31.53-2.93.8-4.86.8Z"/></g></svg>