<?xml version="1.0" encoding="UTF-8"?><svg xmlns="http://www.w3.org/2000/svg" xmlns:xlink="http://www.w3.org/1999/xlink" viewBox="0 0 1281.78 338.23"><defs><style>.uuid-6cdb3394-8a68-46ce-80d8-90ef6bdbd65a{fill:none;}.uuid-dc781e6f-fb4b-4be3-9402-681c8bec84c1{fill:url(#uuid-1994be61-1d00-4fc4-b7c0-be88f18a5e8d);}.uuid-579ad68d-c955-4ca9-a6e5-360b0ddc4ebe{fill:#ffe900;}.uuid-862bba91-befa-4750-8ada-43af4bda9e33{fill:url(#uuid-9a61041f-e8f8-4268-aa2d-7ab3dc07dbbb);}.uuid-45939fd8-afc3-43ff-8732-7ddcfd243198{isolation:isolate;}.uuid-39ad0737-ed7c-41e1-8714-edd57bf4a280{fill:#fff;}.uuid-722010b6-da4f-4d6c-b542-e9e136e62407{fill:url(#uuid-b4b6a84c-bada-4769-8dc9-e0c23a8bc4ca);}.uuid-fc031e36-27be-4379-9d61-674acdf8aa12{mix-blend-mode:overlay;}.uuid-d6a3b32b-e870-4c5c-ac48-47654dadd819{clip-path:url(#uuid-fd0ecd79-d0ce-4f21-8f82-85bd2631d824);}.uuid-14389596-ae0d-40d5-a2b0-be7dfe169afe{fill:url(#uuid-892e4db2-41ec-44cf-b3a9-a5b80a463c43);}</style><clipPath id="uuid-fd0ecd79-d0ce-4f21-8f82-85bd2631d824"><rect class="uuid-6cdb3394-8a68-46ce-80d8-90ef6bdbd65a" x="0" width="1281.78" height="338.23"/></clipPath><linearGradient id="uuid-1994be61-1d00-4fc4-b7c0-be88f18a5e8d" x1="11176.8" y1="-5118.9" x2="10625.66" y2="-5906.01" gradientTransform="translate(12618.33 -6412.39) rotate(163.34) scale(1.23 .52)" gradientUnits="userSpaceOnUse"><stop offset="0" stop-color="#ffe608"/><stop offset=".3" stop-color="#fcd204"/><stop offset=".68" stop-color="#fabf01"/><stop offset=".95" stop-color="#fab900"/></linearGradient><linearGradient id="uuid-9a61041f-e8f8-4268-aa2d-7ab3dc07dbbb" x1="10850.23" y1="-5383.41" x2="10894.1" y2="-5571.26" gradientTransform="translate(12618.33 -6412.39) rotate(163.34) scale(1.23 .52)" gradientUnits="userSpaceOnUse"><stop offset="0" stop-color="#fff381"/><stop offset=".17" stop-color="#fff27d"/><stop offset=".31" stop-color="#ffee73"/><stop offset=".44" stop-color="#ffe961"/><stop offset=".57" stop-color="#ffe248"/><stop offset=".69" stop-color="#ffd828"/><stop offset=".81" stop-color="#ffcd01"/><stop offset=".82" stop-color="#ffcd00"/></linearGradient><linearGradient id="uuid-b4b6a84c-bada-4769-8dc9-e0c23a8bc4ca" x1="10351.8" y1="-5519.93" x2="11423.87" y2="-5519.93" gradientTransform="translate(12618.33 -6412.39) rotate(163.34) scale(1.23 .52)" gradientUnits="userSpaceOnUse"><stop offset="0" stop-color="#fff59f"/><stop offset=".05" stop-color="#feef8f"/><stop offset=".24" stop-color="#fcdb5c"/><stop offset=".41" stop-color="#fbcc34"/><stop offset=".57" stop-color="#fac117"/><stop offset=".71" stop-color="#fabb06"/><stop offset=".81" stop-color="#fab900"/></linearGradient><linearGradient id="uuid-892e4db2-41ec-44cf-b3a9-a5b80a463c43" x1="10731.41" y1="-4205.18" x2="10350.65" y2="-4748.96" gradientTransform="translate(18002.77 -8431.49) rotate(163.34) scale(1.81 .73)" gradientUnits="userSpaceOnUse"><stop offset=".17" stop-color="#cdcdcd"/><stop offset=".27" stop-color="#b7b7b7"/><stop offset=".48" stop-color="#8d8d8d"/><stop offset=".67" stop-color="#6f6f6f"/><stop offset=".83" stop-color="#5d5d5c"/><stop offset=".95" stop-color="#575756"/></linearGradient></defs><g class="uuid-45939fd8-afc3-43ff-8732-7ddcfd243198"><g id="uuid-f0ffe303-e632-49a4-9535-35e70d0529c8"><g id="uuid-ce7492df-8dac-4688-adde-67004024a892"><g class="uuid-d6a3b32b-e870-4c5c-ac48-47654dadd819"><polygon class="uuid-39ad0737-ed7c-41e1-8714-edd57bf4a280" points="-57.89 -324.4 1358.66 -324.4 1358.66 112.62 1236.43 100.9 744.15 119.32 -42.82 288.44 -57.89 -324.4"/><path class="uuid-579ad68d-c955-4ca9-a6e5-360b0ddc4ebe" d="M-20.23,285.63l11.29-41.37s150.23-61.2,438.6-114.35c486.43-89.65,862.91-27.19,862.91-27.19l-3.67,14.05s-390.9-74.61-943.06,50.23C162.45,208.46-20.23,285.63-20.23,285.63Z"/><path class="uuid-dc781e6f-fb4b-4be3-9402-681c8bec84c1" d="M-11.35,253.06l-13.54,49.61s185.24-86.03,478.61-137.45c488.05-85.53,839.25-63.85,839.25-63.85,0,0-387.31-47.32-803.58,28.74C197.84,183.39-11.35,253.06-11.35,253.06Z"/><path class="uuid-862bba91-befa-4750-8ada-43af4bda9e33" d="M-28.63,316.4s90.74-47.78,306.57-99.05c388.74-92.36,817.96-133.62,1010.72-102.21l4.32-13.76S901.39,60.04,234.51,203.06C20.38,248.99-26.8,309.7-26.8,309.7l-1.83,6.69Z"/><path class="uuid-722010b6-da4f-4d6c-b542-e9e136e62407" d="M1289.3,113.65s-187.32-32.29-512.58-2.88C312.72,152.71-20.43,275.99-20.43,275.99l-6.8,24.94C844.33,9.79,1290.64,109.16,1290.64,109.16l-1.35,4.49Z"/><path class="uuid-14389596-ae0d-40d5-a2b0-be7dfe169afe" d="M-12.27,260.01l-4.42,16.81s244.88-93.25,436.71-124.18c436.7-70.43,871.41-44.81,871.41-44.81,0,0-475.87-41.21-951.23,54.43C162.24,198.06-12.27,260.01-12.27,260.01Z"/><g class="uuid-fc031e36-27be-4379-9d61-674acdf8aa12"><path class="uuid-579ad68d-c955-4ca9-a6e5-360b0ddc4ebe" d="M-20.23,285.63l11.29-41.37s150.23-61.2,438.6-114.35c486.43-89.65,862.91-27.19,862.91-27.19l-3.67,14.05s-390.9-74.61-943.06,50.23C162.45,208.46-20.23,285.63-20.23,285.63Z"/><path class="uuid-dc781e6f-fb4b-4be3-9402-681c8bec84c1" d="M-11.35,253.06l-13.54,49.61s185.24-86.03,478.61-137.45c488.05-85.53,839.25-63.85,839.25-63.85,0,0-387.31-47.32-803.58,28.74C197.84,183.39-11.35,253.06-11.35,253.06Z"/><path class="uuid-862bba91-befa-4750-8ada-43af4bda9e33" d="M-28.63,316.4s90.74-47.78,306.57-99.05c388.74-92.36,817.96-133.62,1010.72-102.21l4.32-13.76S901.39,60.04,234.51,203.06C20.38,248.99-26.8,309.7-26.8,309.7l-1.83,6.69Z"/><path class="uuid-722010b6-da4f-4d6c-b542-e9e136e62407" d="M1289.3,113.65s-187.32-32.29-512.58-2.88C312.72,152.71-20.43,275.99-20.43,275.99l-6.8,24.94C844.33,9.79,1290.64,109.16,1290.64,109.16l-1.35,4.49Z"/><path class="uuid-14389596-ae0d-40d5-a2b0-be7dfe169afe" d="M-12.27,260.01l-4.42,16.81s244.88-93.25,436.71-124.18c436.7-70.43,871.41-44.81,871.41-44.81,0,0-475.87-41.21-951.23,54.43C162.24,198.06-12.27,260.01-12.27,260.01Z"/></g><g class="uuid-fc031e36-27be-4379-9d61-674acdf8aa12"><path class="uuid-579ad68d-c955-4ca9-a6e5-360b0ddc4ebe" d="M-20.23,285.63l11.29-41.37s150.23-61.2,438.6-114.35c486.43-89.65,862.91-27.19,862.91-27.19l-3.67,14.05s-390.9-74.61-943.06,50.23C162.45,208.46-20.23,285.63-20.23,285.63Z"/><path class="uuid-dc781e6f-fb4b-4be3-9402-681c8bec84c1" d="M-11.35,253.06l-13.54,49.61s185.24-86.03,478.61-137.45c488.05-85.53,839.25-63.85,839.25-63.85,0,0-387.31-47.32-803.58,28.74C197.84,183.39-11.35,253.06-11.35,253.06Z"/><path class="uuid-862bba91-befa-4750-8ada-43af4bda9e33" d="M-28.63,316.4s90.74-47.78,306.57-99.05c388.74-92.36,817.96-133.62,1010.72-102.21l4.32-13.76S901.39,60.04,234.51,203.06C20.38,248.99-26.8,309.7-26.8,309.7l-1.83,6.69Z"/><path class="uuid-722010b6-da4f-4d6c-b542-e9e136e62407" d="M1289.3,113.65s-187.32-32.29-512.58-2.88C312.72,152.71-20.43,275.99-20.43,275.99l-6.8,24.94C844.33,9.79,1290.64,109.16,1290.64,109.16l-1.35,4.49Z"/><path class="uuid-14389596-ae0d-40d5-a2b0-be7dfe169afe" d="M-12.27,260.01l-4.42,16.81s244.88-93.25,436.71-124.18c436.7-70.43,871.41-44.81,871.41-44.81,0,0-475.87-41.21-951.23,54.43C162.24,198.06-12.27,260.01-12.27,260.01Z"/></g><g class="uuid-fc031e36-27be-4379-9d61-674acdf8aa12"><path class="uuid-579ad68d-c955-4ca9-a6e5-360b0ddc4ebe" d="M-20.23,285.63l11.29-41.37s150.23-61.2,438.6-114.35c486.43-89.65,862.91-27.19,862.91-27.19l-3.67,14.05s-390.9-74.61-943.06,50.23C162.45,208.46-20.23,285.63-20.23,285.63Z"/><path class="uuid-dc781e6f-fb4b-4be3-9402-681c8bec84c1" d="M-11.35,253.06l-13.54,49.61s185.24-86.03,478.61-137.45c488.05-85.53,839.25-63.85,839.25-63.85,0,0-387.31-47.32-803.58,28.74C197.84,183.39-11.35,253.06-11.35,253.06Z"/><path class="uuid-862bba91-befa-4750-8ada-43af4bda9e33" d="M-28.63,316.4s90.74-47.78,306.57-99.05c388.74-92.36,817.96-133.62,1010.72-102.21l4.32-13.76S901.39,60.04,234.51,203.06C20.38,248.99-26.8,309.7-26.8,309.7l-1.83,6.69Z"/><path class="uuid-722010b6-da4f-4d6c-b542-e9e136e62407" d="M1289.3,113.65s-187.32-32.29-512.58-2.88C312.72,152.71-20.43,275.99-20.43,275.99l-6.8,24.94C844.33,9.79,1290.64,109.16,1290.64,109.16l-1.35,4.49Z"/><path class="uuid-14389596-ae0d-40d5-a2b0-be7dfe169afe" d="M-12.27,260.01l-4.42,16.81s244.88-93.25,436.71-124.18c436.7-70.43,871.41-44.81,871.41-44.81,0,0-475.87-41.21-951.23,54.43C162.24,198.06-12.27,260.01-12.27,260.01Z"/></g><g class="uuid-fc031e36-27be-4379-9d61-674acdf8aa12"><path class="uuid-579ad68d-c955-4ca9-a6e5-360b0ddc4ebe" d="M-20.23,285.63l11.29-41.37s150.23-61.2,438.6-114.35c486.43-89.65,862.91-27.19,862.91-27.19l-3.67,14.05s-390.9-74.61-943.06,50.23C162.45,208.46-20.23,285.63-20.23,285.63Z"/><path class="uuid-dc781e6f-fb4b-4be3-9402-681c8bec84c1" d="M-11.35,253.06l-13.54,49.61s185.24-86.03,478.61-137.45c488.05-85.53,839.25-63.85,839.25-63.85,0,0-387.31-47.32-803.58,28.74C197.84,183.39-11.35,253.06-11.35,253.06Z"/><path class="uuid-862bba91-befa-4750-8ada-43af4bda9e33" d="M-28.63,316.4s90.74-47.78,306.57-99.05c388.74-92.36,817.96-133.62,1010.72-102.21l4.32-13.76S901.39,60.04,234.51,203.06C20.38,248.99-26.8,309.7-26.8,309.7l-1.83,6.69Z"/><path class="uuid-722010b6-da4f-4d6c-b542-e9e136e62407" d="M1289.3,113.65s-187.32-32.29-512.58-2.88C312.72,152.71-20.43,275.99-20.43,275.99l-6.8,24.94C844.33,9.79,1290.64,109.16,1290.64,109.16l-1.35,4.49Z"/><path class="uuid-14389596-ae0d-40d5-a2b0-be7dfe169afe" d="M-12.27,260.01l-4.42,16.81s244.88-93.25,436.71-124.18c436.7-70.43,871.41-44.81,871.41-44.81,0,0-475.87-41.21-951.23,54.43C162.24,198.06-12.27,260.01-12.27,260.01Z"/></g><g class="uuid-fc031e36-27be-4379-9d61-674acdf8aa12"><path class="uuid-579ad68d-c955-4ca9-a6e5-360b0ddc4ebe" d="M-20.23,285.63l11.29-41.37s150.23-61.2,438.6-114.35c486.43-89.65,862.91-27.19,862.91-27.19l-3.67,14.05s-390.9-74.61-943.06,50.23C162.45,208.46-20.23,285.63-20.23,285.63Z"/><path class="uuid-dc781e6f-fb4b-4be3-9402-681c8bec84c1" d="M-11.35,253.06l-13.54,49.61s185.24-86.03,478.61-137.45c488.05-85.53,839.25-63.85,839.25-63.85,0,0-387.31-47.32-803.58,28.74C197.84,183.39-11.35,253.06-11.35,253.06Z"/><path class="uuid-862bba91-befa-4750-8ada-43af4bda9e33" d="M-28.63,316.4s90.74-47.78,306.57-99.05c388.74-92.36,817.96-133.62,1010.72-102.21l4.32-13.76S901.39,60.04,234.51,203.06C20.38,248.99-26.8,309.7-26.8,309.7l-1.83,6.69Z"/><path class="uuid-722010b6-da4f-4d6c-b542-e9e136e62407" d="M1289.3,113.65s-187.32-32.29-512.58-2.88C312.72,152.71-20.43,275.99-20.43,275.99l-6.8,24.94C844.33,9.79,1290.64,109.16,1290.64,109.16l-1.35,4.49Z"/><path class="uuid-14389596-ae0d-40d5-a2b0-be7dfe169afe" d="M-12.27,260.01l-4.42,16.81s244.88-93.25,436.71-124.18c436.7-70.43,871.41-44.81,871.41-44.81,0,0-475.87-41.21-951.23,54.43C162.24,198.06-12.27,260.01-12.27,260.01Z"/></g></g></g></g></g></svg>