<?xml version="1.0" encoding="UTF-8"?><svg id="uuid-3e615f26-0666-48a3-af2e-fdff8633d09b" xmlns="http://www.w3.org/2000/svg" xmlns:xlink="http://www.w3.org/1999/xlink" viewBox="0 0 1285.95 237.68"><defs><style>.uuid-0b748ee2-389e-4734-b25b-7de65be4bee2{fill:none;}.uuid-13cf8237-a010-440f-9a73-8c8e274d9bcb{clip-path:url(#uuid-8d5186e6-1ffa-44ae-b063-be6f460a295b);}.uuid-47f449f6-22e7-4f31-a10a-ba0e3e324bd5{fill:url(#uuid-b3d29cb0-40cf-4fd8-9d69-7af91953980f);}.uuid-c6b49cb7-907e-402d-bcf2-e17206ca8cd4{fill:#fff;}.uuid-b8309c5b-e85d-43ec-87ec-b727dc2acd49{fill:url(#uuid-fea7fe9d-9b7d-4f80-a5ac-ef63fd6dcf31);}.uuid-0e324937-e568-41a0-9cb0-05bb898aab49{fill:url(#uuid-0e8918c8-7213-481a-b82e-fd7a7a18b4ab);}</style><clipPath id="uuid-8d5186e6-1ffa-44ae-b063-be6f460a295b"><rect class="uuid-0b748ee2-389e-4734-b25b-7de65be4bee2" width="1285.95" height="237.68"/></clipPath><linearGradient id="uuid-b3d29cb0-40cf-4fd8-9d69-7af91953980f" x1="-1778.62" y1="-255.58" x2="-1470.98" y2="-694.93" gradientTransform="translate(2647.96 223.23) rotate(-22.97) scale(1.06 1.81)" gradientUnits="userSpaceOnUse"><stop offset="0" stop-color="#ffe608"/><stop offset=".3" stop-color="#fcd204"/><stop offset=".68" stop-color="#fabf01"/><stop offset=".95" stop-color="#fab900"/></linearGradient><linearGradient id="uuid-0e8918c8-7213-481a-b82e-fd7a7a18b4ab" x1="-1646.94" y1="-443.54" x2="-1633.88" y2="-499.45" gradientTransform="translate(2647.96 223.23) rotate(-22.97) scale(1.06 1.81)" gradientUnits="userSpaceOnUse"><stop offset="0" stop-color="#fff381"/><stop offset=".17" stop-color="#fff27d"/><stop offset=".31" stop-color="#ffee73"/><stop offset=".44" stop-color="#ffe961"/><stop offset=".57" stop-color="#ffe248"/><stop offset=".69" stop-color="#ffd828"/><stop offset=".81" stop-color="#ffcd01"/><stop offset=".82" stop-color="#ffcd00"/></linearGradient><linearGradient id="uuid-fea7fe9d-9b7d-4f80-a5ac-ef63fd6dcf31" x1="-2318.76" y1="-479.78" x2="-970.41" y2="-479.78" gradientTransform="translate(2647.96 223.23) rotate(-22.97) scale(1.06 1.81)" gradientUnits="userSpaceOnUse"><stop offset=".63" stop-color="#cdcdcd"/><stop offset=".67" stop-color="#b7b7b7"/><stop offset=".76" stop-color="#8d8d8d"/><stop offset=".83" stop-color="#6f6f6f"/><stop offset=".9" stop-color="#5d5d5c"/><stop offset=".95" stop-color="#575756"/></linearGradient></defs><g id="uuid-4076681f-912b-43a8-a3cc-fe492de118b8"><g class="uuid-13cf8237-a010-440f-9a73-8c8e274d9bcb"><rect class="uuid-c6b49cb7-907e-402d-bcf2-e17206ca8cd4" x="-618.66" y="-267.27" width="2260.46" height="606.14"/><rect x="-618.66" y="-468.2" width="2260.46" height="606.14"/><path class="uuid-47f449f6-22e7-4f31-a10a-ba0e3e324bd5" d="M1523.29,119.53l-120.85-96.35S715.1,153.46,14.68,132.87c-41.44-1.22-81.75-7.78-81.75-7.78,0,0,68.16,22.15,181.02,31.72,598.17,50.73,1409.34-37.29,1409.34-37.29Z"/><path class="uuid-0e324937-e568-41a0-9cb0-05bb898aab49" d="M1414.21,34.07s-136.49,23.15-499.71,66.34c-363.22,43.19-881.45,50.45-981.57,24.69l11.22,8.86s306.64,62.25,1075.08,8.82c236.08-16.41,475.61-43.39,475.61-43.39l-80.63-65.32Z"/><path class="uuid-b8309c5b-e85d-43ec-87ec-b727dc2acd49" d="M-59.74,130.81c201.92,28.51,635.51,7.5,950.71-16.68,170.69-13.09,542.05-63.11,542.05-63.11l37.59,29.32s-231.13,27.35-620.57,55.72c-663.82,48.37-908.53-4.18-908.53-4.18l-1.24-1.08Z"/></g></g></svg>