<?xml version="1.0" encoding="UTF-8"?><svg xmlns="http://www.w3.org/2000/svg" xmlns:xlink="http://www.w3.org/1999/xlink" viewBox="0 0 1280 436.53"><defs><style>.uuid-d6a22308-6710-43eb-9214-29a5601dec8e{fill:none;}.uuid-cc3557cb-2ad7-4014-8e97-57592e4895c3{fill:url(#uuid-b6362819-4383-4852-bf68-f08f6097ebf9);}.uuid-be7d1f52-19c9-44ce-bb31-b89fa8b14974{fill:#ffe900;}.uuid-48f6623d-ba0c-46d5-abe6-ccdeb9e038ea{fill:url(#uuid-f4d4ae9a-2a75-4c21-b613-fe9609501e25);mix-blend-mode:multiply;}.uuid-77c4d702-e3d6-463c-a24f-db1aa72c24b7{fill:url(#uuid-e1f052f6-caa4-4a5d-a998-781976e6f386);}.uuid-c6e1678c-a56b-4ed4-8ab5-019ba1119efb{isolation:isolate;}.uuid-7deaa89c-d7c2-4f68-8046-df9e8b99b3ec{fill:url(#uuid-fd211d82-e2de-4212-b721-13a486248bfb);}.uuid-f094c0f8-2821-4b86-a6db-682eeb3731d2{fill:#fff;}.uuid-d82a0b16-0163-44eb-9b82-352c600e5b5c{mix-blend-mode:overlay;}.uuid-0c7f8692-87dd-492d-87dd-0df2d809a415{clip-path:url(#uuid-189865f5-694c-4153-836c-fa9efa8df9ee);}</style><clipPath id="uuid-189865f5-694c-4153-836c-fa9efa8df9ee"><rect class="uuid-d6a22308-6710-43eb-9214-29a5601dec8e" width="1280" height="436.53"/></clipPath><linearGradient id="uuid-f4d4ae9a-2a75-4c21-b613-fe9609501e25" x1="2860.34" y1="-6555.41" x2="3755.96" y2="-6605.1" gradientTransform="translate(7221.71 3811.89) rotate(-90)" gradientUnits="userSpaceOnUse"><stop offset="0" stop-color="#000" stop-opacity="0"/><stop offset=".28" stop-color="#000"/></linearGradient><linearGradient id="uuid-b6362819-4383-4852-bf68-f08f6097ebf9" x1="7268.56" y1="3408.73" x2="6671.33" y2="2555.79" gradientTransform="translate(8847.72 -2221.7) rotate(139.31) scale(1.12 1.18)" gradientUnits="userSpaceOnUse"><stop offset="0" stop-color="#ffe608"/><stop offset=".3" stop-color="#fcd204"/><stop offset=".68" stop-color="#fabf01"/><stop offset=".95" stop-color="#fab900"/></linearGradient><linearGradient id="uuid-e1f052f6-caa4-4a5d-a998-781976e6f386" x1="6934.81" y1="3164.18" x2="7001.98" y2="2876.58" gradientTransform="translate(8847.72 -2221.7) rotate(139.31) scale(1.12 1.18)" gradientUnits="userSpaceOnUse"><stop offset="0" stop-color="#fff381"/><stop offset=".17" stop-color="#fff27d"/><stop offset=".31" stop-color="#ffee73"/><stop offset=".44" stop-color="#ffe961"/><stop offset=".57" stop-color="#ffe248"/><stop offset=".69" stop-color="#ffd828"/><stop offset=".81" stop-color="#ffcd01"/><stop offset=".82" stop-color="#ffcd00"/></linearGradient><linearGradient id="uuid-fd211d82-e2de-4212-b721-13a486248bfb" x1="6455.91" y1="2978.31" x2="7498.1" y2="2978.31" gradientTransform="translate(8847.72 -2221.7) rotate(139.31) scale(1.12 1.18)" gradientUnits="userSpaceOnUse"><stop offset="0" stop-color="#fff59f"/><stop offset=".05" stop-color="#feef8f"/><stop offset=".24" stop-color="#fcdb5c"/><stop offset=".41" stop-color="#fbcc34"/><stop offset=".57" stop-color="#fac117"/><stop offset=".71" stop-color="#fabb06"/><stop offset=".81" stop-color="#fab900"/></linearGradient></defs><g class="uuid-c6e1678c-a56b-4ed4-8ab5-019ba1119efb"><g id="uuid-98ff196b-752d-40b0-9ba4-ba02ef015b3c"><g id="uuid-c8ea9e47-7e4e-46ad-9beb-5673b5611903"><g class="uuid-0c7f8692-87dd-492d-87dd-0df2d809a415"><rect class="uuid-f094c0f8-2821-4b86-a6db-682eeb3731d2" x="-21.77" y="-39.16" width="1357.29" height="427.9"/><polygon class="uuid-48f6623d-ba0c-46d5-abe6-ccdeb9e038ea" points="1285.42 952.99 1285.42 61.92 1101.56 55.99 712.33 58.96 197.85 217.36 -4.47 310.29 -4.47 910.25 399.83 946.84 1285.42 952.99"/><path class="uuid-be7d1f52-19c9-44ce-bb31-b89fa8b14974" d="M-4.47,319.5v-67.84s120.01-70.33,364.23-140.03C771.73-5.93,1285.42,54.39,1285.42,54.39v14.91S754.71-3.07,314.6,154.88C168.43,207.35-4.47,319.5-4.47,319.5Z"/><path class="uuid-cc3557cb-2ad7-4014-8e97-57592e4895c3" d="M-4.47,275.68v54.99s166.88-105.51,418.5-173.6c418.61-113.27,871.39-104.6,871.39-104.6,0,0-521.9-34.24-875.24,65.67C162.7,188.11-4.47,275.68-4.47,275.68Z"/><path class="uuid-77c4d702-e3d6-463c-a24f-db1aa72c24b7" d="M-4.47,381.19s64.83-72.22,306.71-169.72c298.41-120.29,740.06-156.25,983.18-131.74v-25.29S803.74-.11,262.94,182.43C89.3,241.04-4.47,297.38-4.47,297.38v83.81Z"/><path class="uuid-7deaa89c-d7c2-4f68-8046-df9e8b99b3ec" d="M1285.42,64.5s-261.73-31.68-573.65,14.49C266.8,144.85-4.47,309.89-4.47,309.89v43.32C593.39-3.04,1285.42,72.15,1285.42,72.15v-7.65Z"/><g class="uuid-d82a0b16-0163-44eb-9b82-352c600e5b5c"><rect class="uuid-f094c0f8-2821-4b86-a6db-682eeb3731d2" x="-21.77" y="-39.16" width="1357.29" height="427.9"/><polygon class="uuid-48f6623d-ba0c-46d5-abe6-ccdeb9e038ea" points="1285.42 952.99 1285.42 61.92 1101.56 55.99 712.33 58.96 197.85 217.36 -4.47 310.29 -4.47 910.25 399.83 946.84 1285.42 952.99"/><path class="uuid-be7d1f52-19c9-44ce-bb31-b89fa8b14974" d="M-4.47,319.5v-67.84s120.01-70.33,364.23-140.03C771.73-5.93,1285.42,54.39,1285.42,54.39v14.91S754.71-3.07,314.6,154.88C168.43,207.35-4.47,319.5-4.47,319.5Z"/><path class="uuid-cc3557cb-2ad7-4014-8e97-57592e4895c3" d="M-4.47,275.68v54.99s166.88-105.51,418.5-173.6c418.61-113.27,871.39-104.6,871.39-104.6,0,0-521.9-34.24-875.24,65.67C162.7,188.11-4.47,275.68-4.47,275.68Z"/><path class="uuid-77c4d702-e3d6-463c-a24f-db1aa72c24b7" d="M-4.47,381.19s64.83-72.22,306.71-169.72c298.41-120.29,740.06-156.25,983.18-131.74v-25.29S803.74-.11,262.94,182.43C89.3,241.04-4.47,297.38-4.47,297.38v83.81Z"/><path class="uuid-7deaa89c-d7c2-4f68-8046-df9e8b99b3ec" d="M1285.42,64.5s-261.73-31.68-573.65,14.49C266.8,144.85-4.47,309.89-4.47,309.89v43.32C593.39-3.04,1285.42,72.15,1285.42,72.15v-7.65Z"/></g><g class="uuid-d82a0b16-0163-44eb-9b82-352c600e5b5c"><rect class="uuid-f094c0f8-2821-4b86-a6db-682eeb3731d2" x="-21.77" y="-39.16" width="1357.29" height="427.9"/><polygon class="uuid-48f6623d-ba0c-46d5-abe6-ccdeb9e038ea" points="1285.42 952.99 1285.42 61.92 1101.56 55.99 712.33 58.96 197.85 217.36 -4.47 310.29 -4.47 910.25 399.83 946.84 1285.42 952.99"/><path class="uuid-be7d1f52-19c9-44ce-bb31-b89fa8b14974" d="M-4.47,319.5v-67.84s120.01-70.33,364.23-140.03C771.73-5.93,1285.42,54.39,1285.42,54.39v14.91S754.71-3.07,314.6,154.88C168.43,207.35-4.47,319.5-4.47,319.5Z"/><path class="uuid-cc3557cb-2ad7-4014-8e97-57592e4895c3" d="M-4.47,275.68v54.99s166.88-105.51,418.5-173.6c418.61-113.27,871.39-104.6,871.39-104.6,0,0-521.9-34.24-875.24,65.67C162.7,188.11-4.47,275.68-4.47,275.68Z"/><path class="uuid-77c4d702-e3d6-463c-a24f-db1aa72c24b7" d="M-4.47,381.19s64.83-72.22,306.71-169.72c298.41-120.29,740.06-156.25,983.18-131.74v-25.29S803.74-.11,262.94,182.43C89.3,241.04-4.47,297.38-4.47,297.38v83.81Z"/><path class="uuid-7deaa89c-d7c2-4f68-8046-df9e8b99b3ec" d="M1285.42,64.5s-261.73-31.68-573.65,14.49C266.8,144.85-4.47,309.89-4.47,309.89v43.32C593.39-3.04,1285.42,72.15,1285.42,72.15v-7.65Z"/></g><g class="uuid-d82a0b16-0163-44eb-9b82-352c600e5b5c"><rect class="uuid-f094c0f8-2821-4b86-a6db-682eeb3731d2" x="-21.77" y="-39.16" width="1357.29" height="427.9"/><polygon class="uuid-48f6623d-ba0c-46d5-abe6-ccdeb9e038ea" points="1285.42 952.99 1285.42 61.92 1101.56 55.99 712.33 58.96 197.85 217.36 -4.47 310.29 -4.47 910.25 399.83 946.84 1285.42 952.99"/><path class="uuid-be7d1f52-19c9-44ce-bb31-b89fa8b14974" d="M-4.47,319.5v-67.84s120.01-70.33,364.23-140.03C771.73-5.93,1285.42,54.39,1285.42,54.39v14.91S754.71-3.07,314.6,154.88C168.43,207.35-4.47,319.5-4.47,319.5Z"/><path class="uuid-cc3557cb-2ad7-4014-8e97-57592e4895c3" d="M-4.47,275.68v54.99s166.88-105.51,418.5-173.6c418.61-113.27,871.39-104.6,871.39-104.6,0,0-521.9-34.24-875.24,65.67C162.7,188.11-4.47,275.68-4.47,275.68Z"/><path class="uuid-77c4d702-e3d6-463c-a24f-db1aa72c24b7" d="M-4.47,381.19s64.83-72.22,306.71-169.72c298.41-120.29,740.06-156.25,983.18-131.74v-25.29S803.74-.11,262.94,182.43C89.3,241.04-4.47,297.38-4.47,297.38v83.81Z"/><path class="uuid-7deaa89c-d7c2-4f68-8046-df9e8b99b3ec" d="M1285.42,64.5s-261.73-31.68-573.65,14.49C266.8,144.85-4.47,309.89-4.47,309.89v43.32C593.39-3.04,1285.42,72.15,1285.42,72.15v-7.65Z"/></g></g></g></g></g></svg>