<?xml version="1.0" encoding="UTF-8"?>
<svg id="uuid-99974d67-e0b8-4e62-9dfb-6c1fcd23654b" xmlns="http://www.w3.org/2000/svg" version="1.1" viewBox="0 0 288.8 288.8">
  <!-- Generator: Adobe Illustrator 29.3.1, SVG Export Plug-In . SVG Version: 2.1.0 Build 151)  -->
  <defs>
    <style>
      .st0 {
        fill: #fff;
      }
    </style>
  </defs>
  <g id="uuid-6b6c63cc-f024-4d6f-95b0-61ca4e82e2f3">
    <circle cx="144.4" cy="144.4" r="139.9"/>
    <path class="st0" d="M144.4,288.8C64.8,288.8,0,224.1,0,144.4S64.8,0,144.4,0s144.4,64.8,144.4,144.4-64.8,144.4-144.4,144.4ZM144.4,9C69.8,9,9,69.8,9,144.4s60.8,135.4,135.4,135.4,135.4-60.8,135.4-135.4S219.1,9,144.4,9Z"/>
    <path class="st0" d="M49.9,140.2c0-9.4,7.2-16.1,17-16.1s10.3,2.1,13.3,5.8l-5.6,5c-1.9-2.3-4.3-3.6-7.3-3.6-5.1,0-8.6,3.5-8.6,8.8s3.5,8.8,8.6,8.8,5.4-1.3,7.3-3.6l5.6,5c-3,3.8-7.6,5.8-13.3,5.8-9.8,0-17-6.7-17-16.1h0Z"/>
    <path class="st0" d="M83.8,122.9h8.4v32.7h-8.4s0-32.7,0-32.7Z"/>
    <path class="st0" d="M96.7,124.6c0-2.5,2-4.4,5.1-4.4s5.1,1.8,5.1,4.3-2,4.6-5.1,4.6-5.1-1.9-5.1-4.4h0ZM97.7,131.7h8.4v23.9h-8.4v-23.9Z"/>
    <path class="st0" d="M135.9,145.8h-17.4c.7,2.4,2.8,3.8,5.9,3.8s3.9-.7,5.5-2.1l4.4,4.6c-2.3,2.6-5.7,3.9-10.2,3.9-8.6,0-14.1-5.2-14.1-12.4s5.6-12.3,13.2-12.3,12.8,4.5,12.8,12.4,0,1.4-.1,2.1h0ZM118.3,141.4h9.8c-.4-2.5-2.3-4.1-4.9-4.1s-4.4,1.6-4.9,4.1h0Z"/>
    <path class="st0" d="M165.5,141.9v13.7h-8.4v-12.3c0-3.4-1.5-4.9-3.9-4.9s-4.8,1.7-4.8,5.6v11.6h-8.4v-23.9h8v2.6c1.9-2,4.6-3,7.6-3,5.6,0,9.9,3.2,9.9,10.6h0Z"/>
    <path class="st0" d="M187.4,154.6c-1.5.9-3.6,1.4-5.9,1.4-6.2,0-9.7-3-9.7-9.1v-8h-3.5v-6.3h3.5v-6.2h8.4v6.2h5.5v6.3h-5.5v7.9c0,1.8,1,2.7,2.5,2.7s1.9-.3,2.6-.8l2.1,5.9h0Z"/>
    <path class="st0" d="M214.3,145.8h-17.4c.7,2.4,2.8,3.8,5.9,3.8s3.9-.7,5.5-2.1l4.4,4.6c-2.3,2.6-5.7,3.9-10.2,3.9-8.6,0-14.1-5.2-14.1-12.4s5.6-12.3,13.2-12.3,12.8,4.5,12.8,12.4,0,1.4-.1,2.1h0ZM196.7,141.4h9.8c-.4-2.5-2.3-4.1-4.9-4.1s-4.4,1.6-4.9,4.1h0Z"/>
    <path class="st0" d="M216.4,153.6l2.5-5.7c2.2,1.4,5.4,2.2,8.4,2.2s3.8-.6,3.8-1.6c0-3.2-14.2.4-14.2-9.1s4.2-7.9,11.7-7.9,7.1.7,9.5,2l-2.5,5.7c-2.4-1.3-4.8-1.8-6.9-1.8s-3.9.8-3.9,1.7c0,3.3,14.1-.3,14.1,9.2s-4.1,7.9-11.9,7.9-8.3-1-10.6-2.5h0Z"/>
  </g>
</svg>