<?xml version="1.0" encoding="UTF-8"?><svg xmlns="http://www.w3.org/2000/svg" xmlns:xlink="http://www.w3.org/1999/xlink" viewBox="0 0 1280 436.53"><defs><style>.uuid-0b7f4e38-c598-40e1-853c-647feb06c097{fill:none;}.uuid-133f25a8-7bee-479d-a473-bd30eb0202ae{fill:url(#uuid-ac196f12-612b-410e-b8e8-8739809a33b2);}.uuid-6001769a-4387-4763-9e59-b0a909f12602{fill:#ffe900;}.uuid-57f024d5-4cde-4c2a-a243-0c0ff2199d1f{fill:url(#uuid-c717613a-1ad3-4106-9d05-a196efc484b1);}.uuid-5665c980-e7a3-46d3-8e1f-0bee78b3690d{isolation:isolate;}.uuid-3f3d3c08-65bb-4c33-b40d-68c837bb591a{fill:#fff;}.uuid-43be76e0-7267-4233-9ad8-3fc4f5102efe{clip-path:url(#uuid-f8232140-f641-4c99-a17d-40a971bcb6a5);}.uuid-b7f1a29f-b547-400f-9e86-280b2fc1ea6a{fill:url(#uuid-de5b1813-e39e-4ca6-b229-50aa2332c9b3);mix-blend-mode:multiply;}.uuid-6a396aab-9b23-4a19-8b0c-8621c2059061{fill:url(#uuid-7f6ff0c1-bc1e-49d8-8366-066f1ef72d17);}</style><clipPath id="uuid-f8232140-f641-4c99-a17d-40a971bcb6a5"><rect class="uuid-0b7f4e38-c598-40e1-853c-647feb06c097" width="1280" height="436.53"/></clipPath><linearGradient id="uuid-de5b1813-e39e-4ca6-b229-50aa2332c9b3" x1="4213.26" y1="-7908.34" x2="5108.89" y2="-7958.03" gradientTransform="translate(8574.64 5164.82) rotate(-90)" gradientUnits="userSpaceOnUse"><stop offset="0" stop-color="#000" stop-opacity="0"/><stop offset=".28" stop-color="#000"/></linearGradient><linearGradient id="uuid-ac196f12-612b-410e-b8e8-8739809a33b2" x1="9538.16" y1="4154.68" x2="8940.93" y2="3301.75" gradientTransform="translate(11348.52 -3208.86) rotate(139.31) scale(1.12 1.18)" gradientUnits="userSpaceOnUse"><stop offset="0" stop-color="#ffe608"/><stop offset=".3" stop-color="#fcd204"/><stop offset=".68" stop-color="#fabf01"/><stop offset=".95" stop-color="#fab900"/></linearGradient><linearGradient id="uuid-c717613a-1ad3-4106-9d05-a196efc484b1" x1="9204.41" y1="3910.14" x2="9271.57" y2="3622.54" gradientTransform="translate(11348.52 -3208.86) rotate(139.31) scale(1.12 1.18)" gradientUnits="userSpaceOnUse"><stop offset="0" stop-color="#fff381"/><stop offset=".17" stop-color="#fff27d"/><stop offset=".31" stop-color="#ffee73"/><stop offset=".44" stop-color="#ffe961"/><stop offset=".57" stop-color="#ffe248"/><stop offset=".69" stop-color="#ffd828"/><stop offset=".81" stop-color="#ffcd01"/><stop offset=".82" stop-color="#ffcd00"/></linearGradient><linearGradient id="uuid-7f6ff0c1-bc1e-49d8-8366-066f1ef72d17" x1="8725.51" y1="3724.27" x2="9767.7" y2="3724.27" gradientTransform="translate(11348.52 -3208.86) rotate(139.31) scale(1.12 1.18)" gradientUnits="userSpaceOnUse"><stop offset="0" stop-color="#fff59f"/><stop offset=".05" stop-color="#feef8f"/><stop offset=".24" stop-color="#fcdb5c"/><stop offset=".41" stop-color="#fbcc34"/><stop offset=".57" stop-color="#fac117"/><stop offset=".71" stop-color="#fabb06"/><stop offset=".81" stop-color="#fab900"/></linearGradient></defs><g class="uuid-5665c980-e7a3-46d3-8e1f-0bee78b3690d"><g id="uuid-f77bc8ec-d6cd-4eb3-ac62-f1169e6ae1b3"><g id="uuid-d0ac83eb-d17d-4637-bd79-b8414744f527"><g class="uuid-43be76e0-7267-4233-9ad8-3fc4f5102efe"><rect class="uuid-3f3d3c08-65bb-4c33-b40d-68c837bb591a" x="-21.77" y="-39.16" width="1357.29" height="427.9"/><polygon class="uuid-b7f1a29f-b547-400f-9e86-280b2fc1ea6a" points="1285.42 952.99 1285.42 61.92 1101.56 55.99 712.33 58.96 197.85 217.36 -4.47 310.29 -4.47 910.25 399.83 946.84 1285.42 952.99"/><path class="uuid-6001769a-4387-4763-9e59-b0a909f12602" d="M-4.47,319.5v-67.84s120.01-70.33,364.23-140.03C771.73-5.93,1285.42,54.39,1285.42,54.39v14.91S754.71-3.07,314.6,154.88C168.43,207.35-4.47,319.5-4.47,319.5Z"/><path class="uuid-133f25a8-7bee-479d-a473-bd30eb0202ae" d="M-4.47,275.68v54.99s166.88-105.51,418.5-173.6c418.61-113.27,871.39-104.6,871.39-104.6,0,0-521.9-34.24-875.24,65.67C162.7,188.11-4.47,275.68-4.47,275.68Z"/><path class="uuid-57f024d5-4cde-4c2a-a243-0c0ff2199d1f" d="M-4.47,381.19s64.83-72.22,306.71-169.72c298.41-120.29,740.06-156.25,983.18-131.74v-25.29S803.74-.11,262.94,182.43C89.3,241.04-4.47,297.38-4.47,297.38v83.81Z"/><path class="uuid-6a396aab-9b23-4a19-8b0c-8621c2059061" d="M1285.42,64.5s-261.73-31.68-573.65,14.49C266.8,144.85-4.47,309.89-4.47,309.89v43.32C593.39-3.04,1285.42,72.15,1285.42,72.15v-7.65Z"/></g></g></g></g></svg>