<?xml version="1.0" encoding="UTF-8"?><svg id="uuid-7645fff1-d7d5-4313-91bc-011b87621673" xmlns="http://www.w3.org/2000/svg" viewBox="0 0 296.63 360.13"><defs><style>.uuid-4e8edabd-75cc-4e07-b7c3-6384066dc5b8{fill:#1d1d1b;}.uuid-7fd8d210-c136-402c-87a3-e72f7d64f33b{fill:#595958;}</style></defs><g id="uuid-b5b80f76-f60a-463f-886e-b32105351434"><path class="uuid-4e8edabd-75cc-4e07-b7c3-6384066dc5b8" d="M19.46.92h16.24v40.12h-8.61V8.55h-7.63V.92Z"/><path class="uuid-4e8edabd-75cc-4e07-b7c3-6384066dc5b8" d="M58.12,16.56c1.01-1.43,1.52-2.82,1.52-4.16s-.44-2.46-1.32-3.36c-.88-.9-2.01-1.35-3.39-1.35-2.53,0-4.92,1.8-7.18,5.4l-7.18-4.25c1.88-2.91,3.93-5.11,6.17-6.6,2.24-1.49,5.09-2.24,8.55-2.24s6.51,1.1,9.13,3.3c2.62,2.2,3.93,5.19,3.93,8.98,0,2.07-.53,4.05-1.58,5.94-1.05,1.89-2.99,4.31-5.83,7.26l-7.23,7.52h15.84v8.04h-28.3v-6.66l11.77-12.05c2.37-2.41,4.07-4.34,5.08-5.77Z"/><path class="uuid-4e8edabd-75cc-4e07-b7c3-6384066dc5b8" d="M74.11,8.55V.92h24.57v6.2l-8.21,9.36c3.22.54,5.7,1.88,7.46,4.05,1.76,2.16,2.64,4.66,2.64,7.49,0,4.21-1.43,7.51-4.28,9.9-2.85,2.39-6.5,3.59-10.94,3.59s-8.94-1.57-13.49-4.71l3.67-7.12c3.79,2.68,7.18,4.02,10.16,4.02,1.8,0,3.28-.44,4.45-1.32,1.17-.88,1.75-2.15,1.75-3.82s-.67-2.99-2.01-3.96c-1.34-.98-3.2-1.46-5.57-1.46-1.26,0-3.04.36-5.34,1.09v-6.6l7.69-9.07h-12.57Z"/><path class="uuid-4e8edabd-75cc-4e07-b7c3-6384066dc5b8" d="M121.18,7.69c-2.49,0-4.41.83-5.77,2.5-1.36,1.67-2.19,3.93-2.5,6.8,2.49-1.61,5.13-2.41,7.92-2.41,3.75,0,6.88,1.23,9.39,3.67,2.51,2.45,3.76,5.71,3.76,9.79s-1.35,7.34-4.05,9.79c-2.7,2.45-6.1,3.67-10.19,3.67-2.83,0-5.29-.55-7.38-1.64-2.09-1.09-3.7-2.61-4.85-4.56-2.3-3.79-3.44-8.53-3.44-14.24,0-3.67.45-6.9,1.35-9.67.9-2.77,2.13-4.97,3.7-6.57,3.06-3.21,6.85-4.82,11.37-4.82,1.87,0,3.66.28,5.37.83,1.7.56,3.01,1.12,3.93,1.69.92.57,1.93,1.3,3.04,2.18l-4.25,6.31c-.23-.23-.57-.53-1-.92-.44-.38-1.31-.88-2.61-1.49s-2.56-.92-3.79-.92ZM120.01,22.16c-1.78,0-3.27.53-4.48,1.58-1.21,1.05-1.81,2.42-1.81,4.1s.57,3.13,1.72,4.34c1.15,1.21,2.58,1.81,4.3,1.81s3.16-.53,4.31-1.61c1.15-1.07,1.72-2.46,1.72-4.16s-.52-3.14-1.55-4.3c-1.03-1.17-2.44-1.75-4.22-1.75Z"/><path class="uuid-7fd8d210-c136-402c-87a3-e72f7d64f33b" d="M158.26,15.86v12.44h-2.48v-12.44h-4.46v-2.27h11.41v2.27h-4.46Z"/><path class="uuid-7fd8d210-c136-402c-87a3-e72f7d64f33b" d="M169.9,19.31c-1.16,0-2.04.38-2.63,1.14-.59.76-.88,1.78-.88,3.05v4.8h-2.36v-11.2h2.36v2.25c.38-.7.89-1.28,1.55-1.73.65-.45,1.34-.68,2.07-.7l.02,2.38h-.13Z"/><path class="uuid-7fd8d210-c136-402c-87a3-e72f7d64f33b" d="M180.3,28.3h-2.15v-1.5c-.93,1.11-2.17,1.66-3.73,1.66-1.16,0-2.13-.33-2.89-.99-.76-.66-1.15-1.54-1.15-2.64s.41-1.93,1.22-2.47c.81-.55,1.92-.82,3.3-.82h3.05v-.42c0-1.49-.83-2.23-2.48-2.23-1.04,0-2.12.38-3.24,1.14l-1.05-1.47c1.36-1.08,2.9-1.62,4.63-1.62,1.32,0,2.4.33,3.23,1,.84.67,1.25,1.72,1.25,3.15v7.22ZM177.94,24.13v-.95h-2.65c-1.7,0-2.55.53-2.55,1.6,0,.55.21.96.63,1.25.42.29,1.01.43,1.76.43s1.41-.21,1.97-.63.84-.99.84-1.71Z"/><path class="uuid-7fd8d210-c136-402c-87a3-e72f7d64f33b" d="M187.49,28.47c-1.56,0-2.9-.53-4.02-1.59-1.12-1.06-1.68-2.44-1.68-4.16s.59-3.11,1.76-4.18c1.17-1.08,2.6-1.61,4.28-1.61s3.11.58,4.27,1.75l-1.39,1.71c-.97-.84-1.94-1.26-2.92-1.26s-1.84.32-2.56.98c-.72.65-1.08,1.49-1.08,2.52s.36,1.9,1.07,2.62c.72.72,1.6,1.07,2.64,1.07s2.03-.48,2.96-1.43l1.39,1.52c-1.36,1.38-2.93,2.06-4.71,2.06Z"/><path class="uuid-7fd8d210-c136-402c-87a3-e72f7d64f33b" d="M196.5,19v5.68c0,.53.14.96.42,1.27.28.32.67.48,1.18.48s.99-.25,1.45-.74l.97,1.66c-.83.74-1.74,1.12-2.75,1.12s-1.86-.35-2.57-1.04c-.71-.7-1.06-1.63-1.06-2.81v-5.62h-1.41v-1.89h1.41v-3.52h2.36v3.52h2.95v1.89h-2.95Z"/><path class="uuid-7fd8d210-c136-402c-87a3-e72f7d64f33b" d="M210.63,26.8c-1.12,1.12-2.53,1.67-4.21,1.67s-3.09-.56-4.21-1.67c-1.12-1.12-1.68-2.48-1.68-4.09s.56-2.98,1.68-4.09c1.12-1.12,2.53-1.67,4.21-1.67s3.09.56,4.21,1.67c1.12,1.12,1.68,2.48,1.68,4.09s-.56,2.98-1.68,4.09ZM203.88,25.34c.67.68,1.51,1.02,2.54,1.02s1.87-.34,2.54-1.02c.67-.68,1-1.56,1-2.64s-.33-1.96-1-2.64c-.67-.68-1.51-1.02-2.54-1.02s-1.87.34-2.54,1.02c-.67.68-1,1.56-1,2.64s.33,1.96,1,2.64Z"/><path class="uuid-7fd8d210-c136-402c-87a3-e72f7d64f33b" d="M219.8,19.31c-1.16,0-2.04.38-2.63,1.14-.59.76-.88,1.78-.88,3.05v4.8h-2.36v-11.2h2.36v2.25c.38-.7.89-1.28,1.55-1.73.65-.45,1.34-.68,2.07-.7l.02,2.38h-.13Z"/><path class="uuid-7fd8d210-c136-402c-87a3-e72f7d64f33b" d="M231.65,23.73h-8.78c.06.81.43,1.47,1.12,1.97.69.5,1.47.74,2.36.74,1.4,0,2.47-.44,3.2-1.33l1.35,1.47c-1.21,1.25-2.78,1.87-4.72,1.87-1.57,0-2.91-.52-4.01-1.57-1.1-1.04-1.65-2.45-1.65-4.21s.56-3.16,1.68-4.2c1.12-1.04,2.45-1.56,3.97-1.56s2.82.46,3.88,1.38c1.07.92,1.6,2.18,1.6,3.8v1.62ZM222.88,21.88h6.42c0-.94-.29-1.66-.88-2.17-.59-.51-1.31-.76-2.18-.76s-1.64.27-2.33.79-1.03,1.24-1.03,2.14Z"/><path class="uuid-7fd8d210-c136-402c-87a3-e72f7d64f33b" d="M241.17,24.95c0,1.07-.39,1.92-1.16,2.56-.77.64-1.76.96-2.97.96-.81,0-1.66-.15-2.54-.44-.88-.29-1.65-.71-2.33-1.24l1.14-1.83c1.31.98,2.57,1.47,3.79,1.47.53,0,.95-.12,1.26-.37.31-.24.46-.56.46-.94,0-.56-.74-1.07-2.23-1.51-.11-.04-.2-.07-.25-.08-2.33-.63-3.49-1.68-3.49-3.16,0-1.04.4-1.87,1.21-2.49s1.86-.94,3.15-.94,2.51.38,3.66,1.14l-.88,1.75c-.91-.61-1.9-.91-2.97-.91-.56,0-1.02.1-1.37.31-.35.2-.53.51-.53.91,0,.36.18.63.55.8.25.13.61.24,1.06.36.46.11.86.23,1.21.34.35.11.69.24,1.02.38.33.14.68.34,1.06.59.76.5,1.14,1.29,1.14,2.36Z"/><path class="uuid-4e8edabd-75cc-4e07-b7c3-6384066dc5b8" d="M47.76,62.26h16.24v40.13h-8.61v-32.49h-7.64v-7.64Z"/><path class="uuid-4e8edabd-75cc-4e07-b7c3-6384066dc5b8" d="M95.29,62.26v7.75h-15.84v6.72c1.19-.34,2.54-.52,4.08-.52,3.86,0,7.2,1.17,9.99,3.5,2.79,2.33,4.19,5.48,4.19,9.44s-1.44,7.23-4.33,9.82c-2.89,2.58-6.46,3.87-10.71,3.87-5.44,0-9.97-2.01-13.61-6.03l4.71-6.54c.35.34.8.77,1.38,1.26.57.5,1.63,1.16,3.16,1.98,1.53.82,3.06,1.23,4.59,1.23s2.89-.46,4.08-1.38c1.19-.92,1.78-2.28,1.78-4.08s-.64-3.19-1.92-4.16c-1.28-.98-2.94-1.46-4.97-1.46s-4.38.73-7.06,2.18l-3.73-4.02v-19.58h24.23Z"/><path class="uuid-4e8edabd-75cc-4e07-b7c3-6384066dc5b8" d="M117.39,102.84c-5.55,0-9.7-1.88-12.46-5.65-2.76-3.77-4.13-8.8-4.13-15.1s1.38-11.33,4.13-15.1c2.75-3.77,6.91-5.65,12.46-5.65s9.7,1.88,12.46,5.65c2.76,3.77,4.13,8.8,4.13,15.1s-1.38,11.33-4.13,15.1c-2.75,3.77-6.91,5.65-12.46,5.65ZM111.48,72.42c-1.26,2.45-1.89,5.68-1.89,9.7s.63,7.25,1.89,9.7c1.26,2.45,3.23,3.67,5.91,3.67s4.65-1.22,5.91-3.67c1.26-2.45,1.9-5.68,1.9-9.7s-.63-7.25-1.9-9.7c-1.26-2.45-3.23-3.67-5.91-3.67s-4.65,1.23-5.91,3.67Z"/><path class="uuid-7fd8d210-c136-402c-87a3-e72f7d64f33b" d="M158.26,77.55v12.44h-2.48v-12.44h-4.46v-2.27h11.41v2.27h-4.46Z"/><path class="uuid-7fd8d210-c136-402c-87a3-e72f7d64f33b" d="M166.28,83.93v6.06h-2.36v-15.6h2.36v6.44c.34-.69.85-1.23,1.52-1.62.68-.39,1.41-.59,2.2-.59,1.26,0,2.28.39,3.06,1.16.78.77,1.17,1.89,1.17,3.35v6.86h-2.36v-6.15c0-2.06-.86-3.09-2.57-3.09-.81,0-1.52.27-2.13.81-.6.54-.9,1.33-.9,2.37Z"/><path class="uuid-7fd8d210-c136-402c-87a3-e72f7d64f33b" d="M185.83,88.48c-1.12,1.12-2.53,1.67-4.21,1.67s-3.09-.56-4.21-1.67c-1.12-1.12-1.68-2.48-1.68-4.09s.56-2.98,1.68-4.09c1.12-1.12,2.53-1.67,4.21-1.67s3.09.56,4.21,1.67c1.12,1.12,1.68,2.48,1.68,4.09s-.56,2.98-1.68,4.09ZM179.08,87.03c.67.68,1.51,1.02,2.54,1.02s1.87-.34,2.54-1.02c.67-.68,1-1.56,1-2.64s-.33-1.96-1-2.64c-.67-.68-1.51-1.02-2.54-1.02s-1.87.34-2.54,1.02c-.67.68-1,1.56-1,2.64s.33,1.96,1,2.64Z"/><path class="uuid-7fd8d210-c136-402c-87a3-e72f7d64f33b" d="M195.01,81c-1.16,0-2.04.38-2.63,1.14-.59.76-.88,1.78-.88,3.05v4.8h-2.36v-11.2h2.36v2.25c.38-.7.89-1.28,1.55-1.73.65-.45,1.34-.68,2.07-.7l.02,2.38h-.13Z"/><path class="uuid-7fd8d210-c136-402c-87a3-e72f7d64f33b" d="M199.35,80.68v5.68c0,.53.14.96.42,1.27s.67.47,1.18.47.99-.25,1.45-.74l.97,1.66c-.83.74-1.74,1.12-2.75,1.12s-1.86-.35-2.57-1.04c-.71-.7-1.06-1.63-1.06-2.81v-5.62h-1.41v-1.89h1.41v-3.51h2.36v3.51h2.95v1.89h-2.95Z"/><path class="uuid-7fd8d210-c136-402c-87a3-e72f7d64f33b" d="M213.47,88.48c-1.12,1.12-2.53,1.67-4.21,1.67s-3.09-.56-4.21-1.67c-1.12-1.12-1.68-2.48-1.68-4.09s.56-2.98,1.68-4.09c1.12-1.12,2.53-1.67,4.21-1.67s3.09.56,4.21,1.67,1.68,2.48,1.68,4.09-.56,2.98-1.68,4.09ZM206.72,87.03c.67.68,1.51,1.02,2.54,1.02s1.87-.34,2.54-1.02c.67-.68,1-1.56,1-2.64s-.33-1.96-1-2.64c-.67-.68-1.51-1.02-2.54-1.02s-1.87.34-2.54,1.02c-.67.68-1,1.56-1,2.64s.33,1.96,1,2.64Z"/><path class="uuid-7fd8d210-c136-402c-87a3-e72f7d64f33b" d="M219.13,83.93v6.06h-2.36v-11.2h2.36v2.04c.38-.69.9-1.23,1.57-1.62.67-.39,1.39-.59,2.16-.59,1.26,0,2.28.39,3.06,1.16.78.77,1.17,1.89,1.17,3.35v6.86h-2.36v-6.15c0-2.06-.86-3.09-2.57-3.09-.81,0-1.52.27-2.13.81-.6.54-.9,1.33-.9,2.37Z"/><path class="uuid-7fd8d210-c136-402c-87a3-e72f7d64f33b" d="M237.29,86.64c0,1.07-.38,1.92-1.16,2.56-.77.64-1.76.96-2.97.96-.81,0-1.66-.15-2.54-.44-.88-.3-1.65-.71-2.33-1.24l1.14-1.83c1.31.98,2.57,1.47,3.79,1.47.53,0,.95-.12,1.26-.37.31-.25.46-.56.46-.94,0-.56-.74-1.07-2.23-1.52-.11-.04-.2-.07-.25-.08-2.33-.63-3.49-1.68-3.49-3.16,0-1.04.4-1.87,1.21-2.49.81-.62,1.86-.94,3.15-.94s2.51.38,3.66,1.14l-.88,1.75c-.91-.6-1.9-.91-2.97-.91-.56,0-1.02.1-1.37.31-.35.2-.53.51-.53.91,0,.36.18.63.55.8.25.13.61.25,1.06.36.46.11.86.23,1.21.34.35.11.69.24,1.02.38.33.14.68.34,1.06.59.76.51,1.14,1.29,1.14,2.36Z"/><path class="uuid-4e8edabd-75cc-4e07-b7c3-6384066dc5b8" d="M2.24,131.23v-7.64h24.57v6.2l-8.21,9.36c3.22.54,5.7,1.88,7.46,4.05,1.76,2.16,2.64,4.66,2.64,7.49,0,4.21-1.43,7.51-4.28,9.9-2.85,2.39-6.5,3.59-10.94,3.59s-8.94-1.57-13.49-4.71l3.67-7.12c3.79,2.68,7.18,4.02,10.16,4.02,1.8,0,3.28-.44,4.45-1.32,1.17-.88,1.75-2.15,1.75-3.82s-.67-2.99-2.01-3.96c-1.34-.97-3.2-1.46-5.57-1.46-1.26,0-3.04.36-5.34,1.09v-6.6l7.69-9.07H2.24Z"/><path class="uuid-4e8edabd-75cc-4e07-b7c3-6384066dc5b8" d="M49.17,139.24c1.01-1.44,1.52-2.82,1.52-4.16s-.44-2.46-1.32-3.36c-.88-.9-2.01-1.35-3.39-1.35-2.52,0-4.92,1.8-7.18,5.4l-7.18-4.25c1.87-2.91,3.93-5.11,6.17-6.6,2.24-1.49,5.09-2.24,8.55-2.24s6.5,1.1,9.13,3.3c2.62,2.2,3.93,5.19,3.93,8.98,0,2.07-.53,4.05-1.58,5.94-1.05,1.89-2.99,4.32-5.82,7.26l-7.23,7.52h15.84v8.04h-28.3v-6.66l11.77-12.05c2.37-2.41,4.07-4.34,5.08-5.77Z"/><path class="uuid-4e8edabd-75cc-4e07-b7c3-6384066dc5b8" d="M80.65,164.18c-5.55,0-9.7-1.88-12.46-5.65-2.76-3.77-4.13-8.8-4.13-15.1s1.38-11.33,4.13-15.1c2.75-3.77,6.91-5.65,12.46-5.65s9.7,1.88,12.46,5.65c2.76,3.77,4.13,8.8,4.13,15.1s-1.38,11.33-4.13,15.1c-2.75,3.77-6.91,5.65-12.46,5.65ZM74.74,133.76c-1.26,2.45-1.89,5.68-1.89,9.7s.63,7.25,1.89,9.7c1.26,2.45,3.23,3.67,5.91,3.67s4.65-1.22,5.91-3.67c1.26-2.45,1.9-5.68,1.9-9.7s-.63-7.25-1.9-9.7c-1.26-2.45-3.23-3.67-5.91-3.67s-4.65,1.23-5.91,3.67Z"/><path class="uuid-4e8edabd-75cc-4e07-b7c3-6384066dc5b8" d="M117.39,164.18c-5.55,0-9.7-1.88-12.46-5.65-2.76-3.77-4.13-8.8-4.13-15.1s1.38-11.33,4.13-15.1c2.75-3.77,6.91-5.65,12.46-5.65s9.7,1.88,12.46,5.65c2.76,3.77,4.13,8.8,4.13,15.1s-1.38,11.33-4.13,15.1c-2.75,3.77-6.91,5.65-12.46,5.65ZM111.48,133.76c-1.26,2.45-1.89,5.68-1.89,9.7s.63,7.25,1.89,9.7c1.26,2.45,3.23,3.67,5.91,3.67s4.65-1.22,5.91-3.67c1.26-2.45,1.9-5.68,1.9-9.7s-.63-7.25-1.9-9.7c-1.26-2.45-3.23-3.67-5.91-3.67s-4.65,1.23-5.91,3.67Z"/><path class="uuid-7fd8d210-c136-402c-87a3-e72f7d64f33b" d="M164.13,130.42c0,2.43-1.06,3.96-3.18,4.59l3.85,5.35h-3.16l-3.51-4.95h-3.26v4.95h-2.48v-14.71h5.47c2.24,0,3.85.38,4.82,1.14.97.76,1.45,1.97,1.45,3.64ZM160.83,132.5c.51-.43.76-1.13.76-2.09s-.26-1.62-.78-1.98c-.52-.36-1.44-.54-2.78-.54h-3.16v5.26h3.09c1.4,0,2.36-.22,2.86-.65Z"/><path class="uuid-7fd8d210-c136-402c-87a3-e72f7d64f33b" d="M176.74,135.79h-8.78c.06.81.43,1.47,1.12,1.97.69.5,1.47.75,2.36.75,1.4,0,2.47-.44,3.2-1.33l1.35,1.47c-1.21,1.25-2.78,1.87-4.71,1.87-1.57,0-2.91-.52-4.01-1.57-1.1-1.04-1.65-2.45-1.65-4.21s.56-3.16,1.68-4.2c1.12-1.04,2.44-1.56,3.97-1.56s2.82.46,3.88,1.38c1.07.92,1.6,2.18,1.6,3.8v1.62ZM167.96,133.93h6.42c0-.94-.3-1.66-.88-2.17-.59-.51-1.32-.76-2.18-.76s-1.64.26-2.33.79c-.69.53-1.03,1.24-1.03,2.14Z"/><path class="uuid-7fd8d210-c136-402c-87a3-e72f7d64f33b" d="M180.63,134.29v6.06h-2.36v-11.2h2.36v2.04c.34-.69.85-1.23,1.53-1.62.68-.39,1.41-.59,2.2-.59,1.77,0,2.97.73,3.6,2.19,1.11-1.46,2.49-2.19,4.15-2.19,1.26,0,2.28.39,3.06,1.16.78.77,1.17,1.89,1.17,3.35v6.86h-2.36v-6.15c0-2.06-.86-3.09-2.57-3.09-.8,0-1.5.26-2.09.77-.6.51-.91,1.26-.94,2.24v6.23h-2.36v-6.15c0-1.07-.19-1.85-.57-2.35-.38-.5-.98-.75-1.79-.75s-1.52.27-2.13.81c-.6.54-.91,1.33-.91,2.37Z"/><path class="uuid-7fd8d210-c136-402c-87a3-e72f7d64f33b" d="M207.93,138.85c-1.12,1.12-2.53,1.67-4.21,1.67s-3.09-.56-4.21-1.67c-1.12-1.12-1.68-2.48-1.68-4.09s.56-2.98,1.68-4.09c1.12-1.12,2.53-1.67,4.21-1.67s3.09.56,4.21,1.67c1.12,1.12,1.68,2.48,1.68,4.09s-.56,2.98-1.68,4.09ZM201.19,137.4c.67.68,1.51,1.02,2.54,1.02s1.87-.34,2.54-1.02c.67-.68,1-1.56,1-2.64s-.33-1.96-1-2.64c-.67-.68-1.51-1.02-2.54-1.02s-1.87.34-2.54,1.02c-.67.68-1,1.56-1,2.64s.33,1.96,1,2.64Z"/><path class="uuid-7fd8d210-c136-402c-87a3-e72f7d64f33b" d="M213.6,140.35h-2.36v-15.62h2.36v15.62Z"/><path class="uuid-7fd8d210-c136-402c-87a3-e72f7d64f33b" d="M220.53,140.52c-1.41,0-2.65-.54-3.71-1.62-1.06-1.08-1.59-2.48-1.59-4.21s.53-3.11,1.6-4.15c1.07-1.04,2.35-1.56,3.85-1.56s2.71.71,3.64,2.13v-1.96h2.36v15.28h-2.36v-5.77c-1.12,1.23-2.39,1.85-3.8,1.85ZM217.59,134.79c0,1.07.34,1.95,1.03,2.62.69.67,1.49,1.01,2.42,1.01s1.71-.34,2.36-1.02c.65-.68.97-1.55.97-2.62s-.32-1.95-.97-2.66c-.64-.71-1.44-1.06-2.38-1.06s-1.75.36-2.42,1.06c-.67.71-1.01,1.6-1.01,2.67Z"/><path class="uuid-7fd8d210-c136-402c-87a3-e72f7d64f33b" d="M236.87,135.22v-6.06h2.36v11.2h-2.36v-2.04c-.38.69-.9,1.23-1.57,1.62-.67.39-1.39.59-2.16.59-1.26,0-2.28-.39-3.06-1.16-.78-.77-1.17-1.89-1.17-3.35v-6.86h2.36v6.15c0,2.06.86,3.09,2.57,3.09.81,0,1.52-.27,2.13-.81.6-.54.91-1.33.91-2.37Z"/><path class="uuid-7fd8d210-c136-402c-87a3-e72f7d64f33b" d="M252.01,135.79h-8.78c.06.81.43,1.47,1.12,1.97.69.5,1.47.75,2.36.75,1.4,0,2.47-.44,3.2-1.33l1.35,1.47c-1.21,1.25-2.78,1.87-4.72,1.87-1.57,0-2.91-.52-4.01-1.57-1.1-1.04-1.65-2.45-1.65-4.21s.56-3.16,1.68-4.2c1.12-1.04,2.45-1.56,3.97-1.56s2.82.46,3.88,1.38c1.07.92,1.6,2.18,1.6,3.8v1.62ZM243.23,133.93h6.42c0-.94-.29-1.66-.88-2.17-.59-.51-1.31-.76-2.18-.76s-1.64.26-2.33.79c-.69.53-1.03,1.24-1.03,2.14Z"/><path class="uuid-7fd8d210-c136-402c-87a3-e72f7d64f33b" d="M261.52,137.01c0,1.07-.39,1.92-1.16,2.56-.77.64-1.76.96-2.97.96-.81,0-1.66-.15-2.54-.44-.88-.3-1.65-.71-2.33-1.24l1.14-1.83c1.31.98,2.57,1.47,3.79,1.47.53,0,.95-.12,1.26-.37s.46-.56.46-.94c0-.56-.74-1.07-2.23-1.52-.11-.04-.2-.07-.25-.08-2.33-.63-3.49-1.68-3.49-3.16,0-1.04.4-1.87,1.21-2.49.81-.62,1.86-.94,3.15-.94s2.51.38,3.66,1.14l-.88,1.75c-.91-.6-1.9-.91-2.97-.91-.56,0-1.02.1-1.37.31-.35.2-.53.51-.53.91,0,.36.18.63.55.8.25.13.61.25,1.06.36.46.11.86.23,1.21.34.35.11.69.24,1.02.38.33.14.68.34,1.06.59.76.51,1.14,1.29,1.14,2.36Z"/><path class="uuid-7fd8d210-c136-402c-87a3-e72f7d64f33b" d="M278.28,135.79h-8.78c.06.81.43,1.47,1.12,1.97.69.5,1.47.75,2.36.75,1.4,0,2.47-.44,3.2-1.33l1.35,1.47c-1.21,1.25-2.78,1.87-4.71,1.87-1.57,0-2.91-.52-4.01-1.57-1.1-1.04-1.65-2.45-1.65-4.21s.56-3.16,1.68-4.2c1.12-1.04,2.44-1.56,3.97-1.56s2.82.46,3.88,1.38c1.07.92,1.6,2.18,1.6,3.8v1.62ZM269.5,133.93h6.42c0-.94-.3-1.66-.88-2.17-.59-.51-1.32-.76-2.18-.76s-1.64.26-2.33.79c-.69.53-1.03,1.24-1.03,2.14Z"/><path class="uuid-7fd8d210-c136-402c-87a3-e72f7d64f33b" d="M282.17,134.29v6.06h-2.36v-11.2h2.36v2.04c.38-.69.9-1.23,1.57-1.62s1.39-.59,2.16-.59c1.26,0,2.29.39,3.06,1.16.78.77,1.17,1.89,1.17,3.35v6.86h-2.36v-6.15c0-2.06-.86-3.09-2.57-3.09-.81,0-1.52.27-2.13.81-.6.54-.91,1.33-.91,2.37Z"/><path class="uuid-7fd8d210-c136-402c-87a3-e72f7d64f33b" d="M157.02,165.78c-1.56,0-2.9-.53-4.02-1.59-1.12-1.06-1.68-2.44-1.68-4.16s.59-3.11,1.76-4.18c1.17-1.07,2.6-1.61,4.28-1.61s3.11.58,4.27,1.75l-1.39,1.71c-.97-.84-1.94-1.26-2.92-1.26s-1.84.33-2.56.98c-.72.65-1.08,1.49-1.08,2.53s.36,1.9,1.07,2.62c.72.72,1.6,1.07,2.64,1.07s2.03-.48,2.96-1.43l1.39,1.52c-1.36,1.38-2.93,2.06-4.71,2.06Z"/><path class="uuid-7fd8d210-c136-402c-87a3-e72f7d64f33b" d="M172.11,165.61h-2.15v-1.49c-.93,1.11-2.17,1.66-3.73,1.66-1.16,0-2.13-.33-2.89-.99-.76-.66-1.15-1.54-1.15-2.64s.41-1.93,1.22-2.47c.81-.55,1.92-.82,3.3-.82h3.05v-.42c0-1.49-.83-2.23-2.48-2.23-1.04,0-2.12.38-3.24,1.14l-1.05-1.47c1.36-1.08,2.9-1.62,4.63-1.62,1.32,0,2.4.33,3.23,1,.84.67,1.25,1.72,1.25,3.15v7.22ZM169.75,161.44v-.95h-2.65c-1.7,0-2.55.53-2.55,1.6,0,.55.21.96.63,1.25.42.29,1.01.43,1.76.43s1.41-.21,1.97-.63c.56-.42.84-.99.84-1.7Z"/><path class="uuid-7fd8d210-c136-402c-87a3-e72f7d64f33b" d="M174.34,166.14v-11.73h2.36v11.81c0,1.18-.36,2.12-1.06,2.81-.71.69-1.57,1.04-2.57,1.04s-1.92-.37-2.75-1.12l1.09-1.77c.48.46.96.69,1.44.69s.85-.15,1.11-.46c.25-.31.38-.74.38-1.28ZM174.45,152.18c-.3-.29-.44-.64-.44-1.05s.15-.76.44-1.05.64-.44,1.05-.44.76.15,1.05.44.44.65.44,1.05-.15.76-.44,1.05c-.3.3-.65.44-1.05.44s-.76-.15-1.05-.44Z"/><path class="uuid-7fd8d210-c136-402c-87a3-e72f7d64f33b" d="M188.13,165.61h-2.15v-1.49c-.93,1.11-2.17,1.66-3.73,1.66-1.16,0-2.13-.33-2.89-.99-.76-.66-1.15-1.54-1.15-2.64s.41-1.93,1.22-2.47c.81-.55,1.92-.82,3.3-.82h3.05v-.42c0-1.49-.83-2.23-2.48-2.23-1.04,0-2.12.38-3.24,1.14l-1.05-1.47c1.36-1.08,2.9-1.62,4.63-1.62,1.32,0,2.4.33,3.23,1,.84.67,1.25,1.72,1.25,3.15v7.22ZM185.77,161.44v-.95h-2.65c-1.7,0-2.55.53-2.55,1.6,0,.55.21.96.63,1.25.42.29,1.01.43,1.76.43s1.41-.21,1.97-.63c.56-.42.84-.99.84-1.7Z"/><path class="uuid-7fd8d210-c136-402c-87a3-e72f7d64f33b" d="M203.05,162.27c0,1.07-.38,1.92-1.16,2.56-.77.64-1.76.96-2.97.96-.81,0-1.66-.15-2.54-.44-.88-.3-1.65-.71-2.33-1.24l1.14-1.83c1.31.98,2.57,1.47,3.79,1.47.53,0,.95-.12,1.26-.37.31-.25.46-.56.46-.94,0-.56-.74-1.07-2.23-1.52-.11-.04-.2-.07-.25-.08-2.33-.63-3.49-1.68-3.49-3.16,0-1.04.4-1.87,1.21-2.49.81-.62,1.86-.94,3.15-.94s2.51.38,3.66,1.14l-.88,1.75c-.91-.6-1.9-.91-2.97-.91-.56,0-1.02.1-1.37.31-.35.2-.53.51-.53.91,0,.36.18.63.55.8.25.13.61.25,1.06.36.46.11.86.23,1.21.34.35.11.69.24,1.02.38.33.14.68.34,1.06.59.76.51,1.14,1.29,1.14,2.36Z"/><path class="uuid-7fd8d210-c136-402c-87a3-e72f7d64f33b" d="M215.09,161.04h-8.78c.06.81.43,1.47,1.12,1.97.69.5,1.47.75,2.36.75,1.4,0,2.47-.44,3.2-1.33l1.35,1.47c-1.21,1.25-2.78,1.87-4.71,1.87-1.57,0-2.91-.52-4.01-1.57-1.1-1.04-1.65-2.45-1.65-4.21s.56-3.16,1.68-4.2c1.12-1.04,2.44-1.56,3.97-1.56s2.82.46,3.88,1.38c1.07.92,1.6,2.18,1.6,3.8v1.62ZM206.31,159.19h6.42c0-.94-.3-1.66-.88-2.17-.59-.51-1.32-.76-2.18-.76s-1.64.26-2.33.79c-.69.53-1.03,1.24-1.03,2.14Z"/><path class="uuid-7fd8d210-c136-402c-87a3-e72f7d64f33b" d="M221.59,165.78c-1.56,0-2.9-.53-4.02-1.59-1.12-1.06-1.68-2.44-1.68-4.16s.59-3.11,1.76-4.18c1.17-1.07,2.6-1.61,4.28-1.61s3.11.58,4.27,1.75l-1.39,1.71c-.97-.84-1.94-1.26-2.93-1.26s-1.83.33-2.56.98c-.72.65-1.08,1.49-1.08,2.53s.36,1.9,1.07,2.62c.72.72,1.6,1.07,2.64,1.07s2.03-.48,2.96-1.43l1.39,1.52c-1.36,1.38-2.93,2.06-4.72,2.06Z"/><path class="uuid-7fd8d210-c136-402c-87a3-e72f7d64f33b" d="M236.68,165.61h-2.15v-1.49c-.93,1.11-2.17,1.66-3.73,1.66-1.16,0-2.13-.33-2.89-.99-.76-.66-1.15-1.54-1.15-2.64s.41-1.93,1.22-2.47c.81-.55,1.92-.82,3.3-.82h3.05v-.42c0-1.49-.83-2.23-2.48-2.23-1.04,0-2.12.38-3.24,1.14l-1.05-1.47c1.36-1.08,2.91-1.62,4.63-1.62,1.32,0,2.39.33,3.23,1,.83.67,1.25,1.72,1.25,3.15v7.22ZM234.33,161.44v-.95h-2.65c-1.7,0-2.55.53-2.55,1.6,0,.55.21.96.63,1.25.42.29,1.01.43,1.76.43s1.41-.21,1.97-.63c.56-.42.84-.99.84-1.7Z"/><path class="uuid-4e8edabd-75cc-4e07-b7c3-6384066dc5b8" d="M42.37,191.08h16.25v40.13h-8.61v-32.49h-7.64v-7.64Z"/><path class="uuid-4e8edabd-75cc-4e07-b7c3-6384066dc5b8" d="M80.65,231.66c-5.55,0-9.7-1.88-12.46-5.65-2.76-3.77-4.13-8.8-4.13-15.1s1.38-11.33,4.13-15.1c2.75-3.77,6.91-5.65,12.46-5.65s9.7,1.88,12.46,5.65c2.75,3.77,4.13,8.8,4.13,15.1s-1.38,11.33-4.13,15.1c-2.76,3.77-6.91,5.65-12.46,5.65ZM74.74,201.24c-1.26,2.45-1.89,5.68-1.89,9.7s.63,7.25,1.89,9.7c1.26,2.45,3.23,3.67,5.91,3.67s4.65-1.22,5.91-3.67c1.26-2.45,1.89-5.68,1.89-9.7s-.63-7.25-1.89-9.7c-1.26-2.45-3.23-3.67-5.91-3.67s-4.65,1.23-5.91,3.67Z"/><path class="uuid-4e8edabd-75cc-4e07-b7c3-6384066dc5b8" d="M117.39,231.66c-5.55,0-9.7-1.88-12.46-5.65-2.75-3.77-4.13-8.8-4.13-15.1s1.38-11.33,4.13-15.1c2.75-3.77,6.91-5.65,12.46-5.65s9.7,1.88,12.46,5.65c2.76,3.77,4.13,8.8,4.13,15.1s-1.38,11.33-4.13,15.1c-2.75,3.77-6.91,5.65-12.46,5.65ZM111.48,201.24c-1.26,2.45-1.89,5.68-1.89,9.7s.63,7.25,1.89,9.7c1.26,2.45,3.23,3.67,5.91,3.67s4.65-1.22,5.91-3.67c1.26-2.45,1.9-5.68,1.9-9.7s-.63-7.25-1.9-9.7c-1.26-2.45-3.23-3.67-5.91-3.67s-4.65,1.23-5.91,3.67Z"/><path class="uuid-7fd8d210-c136-402c-87a3-e72f7d64f33b" d="M158.26,193.07v12.44h-2.48v-12.44h-4.46v-2.27h11.41v2.27h-4.46Z"/><path class="uuid-7fd8d210-c136-402c-87a3-e72f7d64f33b" d="M172.05,204c-1.12,1.12-2.53,1.67-4.21,1.67s-3.09-.56-4.21-1.67c-1.12-1.12-1.68-2.48-1.68-4.09s.56-2.98,1.68-4.09c1.12-1.12,2.53-1.67,4.21-1.67s3.09.56,4.21,1.67c1.12,1.12,1.68,2.48,1.68,4.09s-.56,2.98-1.68,4.09ZM165.3,202.55c.67.68,1.51,1.02,2.54,1.02s1.87-.34,2.54-1.02c.67-.68,1-1.56,1-2.64s-.33-1.96-1-2.64c-.67-.68-1.51-1.02-2.54-1.02s-1.87.34-2.54,1.02c-.67.68-1,1.56-1,2.64s.33,1.96,1,2.64Z"/><path class="uuid-7fd8d210-c136-402c-87a3-e72f7d64f33b" d="M181.22,196.52c-1.16,0-2.04.38-2.63,1.14-.59.76-.88,1.78-.88,3.05v4.8h-2.36v-11.2h2.36v2.25c.38-.7.89-1.28,1.55-1.73s1.34-.68,2.07-.7l.02,2.38h-.13Z"/><path class="uuid-7fd8d210-c136-402c-87a3-e72f7d64f33b" d="M185.56,196.2v5.68c0,.53.14.96.42,1.27s.67.47,1.18.47.99-.25,1.45-.74l.97,1.66c-.83.74-1.74,1.12-2.75,1.12s-1.86-.35-2.57-1.04c-.71-.7-1.06-1.63-1.06-2.81v-5.62h-1.41v-1.89h1.41v-3.51h2.36v3.51h2.95v1.89h-2.95Z"/><path class="uuid-7fd8d210-c136-402c-87a3-e72f7d64f33b" d="M192.76,199.45v6.06h-2.36v-15.6h2.36v6.44c.34-.69.85-1.23,1.53-1.62.68-.39,1.41-.59,2.2-.59,1.26,0,2.29.39,3.06,1.16.78.77,1.17,1.89,1.17,3.35v6.86h-2.36v-6.15c0-2.06-.86-3.09-2.57-3.09-.81,0-1.52.27-2.13.81-.6.54-.91,1.33-.91,2.37Z"/><path class="uuid-7fd8d210-c136-402c-87a3-e72f7d64f33b" d="M212.31,204c-1.12,1.12-2.53,1.67-4.21,1.67s-3.09-.56-4.21-1.67c-1.12-1.12-1.68-2.48-1.68-4.09s.56-2.98,1.68-4.09c1.12-1.12,2.53-1.67,4.21-1.67s3.09.56,4.21,1.67c1.12,1.12,1.68,2.48,1.68,4.09s-.56,2.98-1.68,4.09ZM205.57,202.55c.67.68,1.51,1.02,2.54,1.02s1.87-.34,2.54-1.02c.67-.68,1-1.56,1-2.64s-.33-1.96-1-2.64c-.67-.68-1.51-1.02-2.54-1.02s-1.87.34-2.54,1.02c-.67.68-1,1.56-1,2.64s.33,1.96,1,2.64Z"/><path class="uuid-7fd8d210-c136-402c-87a3-e72f7d64f33b" d="M217.97,199.45v6.06h-2.36v-11.2h2.36v2.04c.38-.69.9-1.23,1.57-1.62.67-.39,1.39-.59,2.16-.59,1.26,0,2.28.39,3.06,1.16.78.77,1.17,1.89,1.17,3.35v6.86h-2.36v-6.15c0-2.06-.86-3.09-2.57-3.09-.81,0-1.52.27-2.13.81-.6.54-.9,1.33-.9,2.37Z"/><path class="uuid-7fd8d210-c136-402c-87a3-e72f7d64f33b" d="M158.24,221.78c-1.16,0-2.04.38-2.63,1.14-.59.76-.88,1.78-.88,3.05v4.8h-2.36v-11.2h2.36v2.25c.38-.7.89-1.28,1.55-1.73.65-.45,1.34-.68,2.07-.7l.02,2.38h-.13Z"/><path class="uuid-7fd8d210-c136-402c-87a3-e72f7d64f33b" d="M170.09,226.2h-8.78c.06.81.43,1.47,1.12,1.97.69.5,1.47.75,2.36.75,1.4,0,2.47-.44,3.2-1.33l1.35,1.47c-1.21,1.25-2.78,1.87-4.71,1.87-1.57,0-2.91-.52-4.01-1.57-1.1-1.04-1.65-2.45-1.65-4.21s.56-3.16,1.68-4.2c1.12-1.04,2.44-1.56,3.97-1.56s2.82.46,3.88,1.38c1.07.92,1.6,2.18,1.6,3.8v1.62ZM161.31,224.35h6.42c0-.94-.3-1.66-.88-2.17-.59-.51-1.32-.76-2.18-.76s-1.64.26-2.33.79c-.69.53-1.03,1.24-1.03,2.14Z"/><path class="uuid-7fd8d210-c136-402c-87a3-e72f7d64f33b" d="M174.45,218.64v.93h2.95v1.89h-2.95v9.3h-2.36v-9.3h-1.41v-1.89h1.41v-.86c0-1.18.35-2.12,1.06-2.81.71-.69,1.57-1.04,2.57-1.04s1.92.37,2.75,1.12l-.97,1.66c-.46-.49-.95-.74-1.45-.74s-.9.16-1.18.47c-.28.32-.42.74-.42,1.27Z"/><path class="uuid-7fd8d210-c136-402c-87a3-e72f7d64f33b" d="M184.48,221.78c-1.16,0-2.04.38-2.63,1.14-.59.76-.88,1.78-.88,3.05v4.8h-2.36v-11.2h2.36v2.25c.38-.7.89-1.28,1.55-1.73.65-.45,1.34-.68,2.07-.7l.02,2.38h-.13Z"/><path class="uuid-7fd8d210-c136-402c-87a3-e72f7d64f33b" d="M186.06,217.34c-.3-.29-.44-.64-.44-1.05s.15-.76.44-1.05c.29-.3.64-.44,1.05-.44s.76.15,1.05.44.44.65.44,1.05-.15.76-.44,1.05c-.3.3-.65.44-1.05.44s-.76-.15-1.05-.44ZM188.27,230.77h-2.36v-11.2h2.36v11.2Z"/><path class="uuid-7fd8d210-c136-402c-87a3-e72f7d64f33b" d="M200.99,219.57v9.77c0,1.98-.54,3.46-1.61,4.45s-2.45,1.48-4.14,1.48-3.21-.53-4.57-1.58l1.12-1.79c1.09.83,2.2,1.24,3.32,1.24s2-.29,2.65-.86c.65-.58.98-1.49.98-2.76v-1.43c-.35.66-.85,1.19-1.5,1.58-.65.39-1.39.59-2.2.59-1.49,0-2.71-.52-3.66-1.56-.95-1.04-1.43-2.33-1.43-3.87s.48-2.83,1.43-3.87c.95-1.04,2.17-1.56,3.65-1.56s2.68.61,3.61,1.83v-1.66h2.36ZM192.25,224.74c0,.92.28,1.71.85,2.38.57.67,1.33,1,2.29,1s1.74-.32,2.34-.97c.6-.65.89-1.45.89-2.41s-.3-1.78-.91-2.44c-.6-.67-1.38-1-2.34-1s-1.72.34-2.29,1.03c-.57.69-.85,1.49-.85,2.41Z"/><path class="uuid-7fd8d210-c136-402c-87a3-e72f7d64f33b" d="M213.76,226.2h-8.78c.06.81.43,1.47,1.12,1.97.69.5,1.47.75,2.36.75,1.4,0,2.47-.44,3.2-1.33l1.35,1.47c-1.21,1.25-2.78,1.87-4.71,1.87-1.57,0-2.91-.52-4.01-1.57-1.1-1.04-1.65-2.45-1.65-4.21s.56-3.16,1.68-4.2c1.12-1.04,2.44-1.56,3.97-1.56s2.82.46,3.88,1.38c1.07.92,1.6,2.18,1.6,3.8v1.62ZM204.99,224.35h6.42c0-.94-.3-1.66-.88-2.17-.59-.51-1.32-.76-2.18-.76s-1.64.26-2.33.79c-.69.53-1.03,1.24-1.03,2.14Z"/><path class="uuid-7fd8d210-c136-402c-87a3-e72f7d64f33b" d="M221.17,221.78c-1.16,0-2.04.38-2.63,1.14-.59.76-.88,1.78-.88,3.05v4.8h-2.36v-11.2h2.36v2.25c.38-.7.89-1.28,1.55-1.73.65-.45,1.34-.68,2.07-.7l.02,2.38h-.13Z"/><path class="uuid-7fd8d210-c136-402c-87a3-e72f7d64f33b" d="M231.57,230.77h-2.15v-1.49c-.93,1.11-2.17,1.66-3.73,1.66-1.16,0-2.13-.33-2.89-.99-.76-.66-1.15-1.54-1.15-2.64s.41-1.93,1.22-2.47c.81-.55,1.92-.82,3.3-.82h3.05v-.42c0-1.49-.83-2.23-2.48-2.23-1.04,0-2.12.38-3.24,1.14l-1.05-1.47c1.36-1.08,2.9-1.62,4.63-1.62,1.32,0,2.4.33,3.23,1,.84.67,1.25,1.72,1.25,3.15v7.22ZM229.21,226.6v-.95h-2.65c-1.7,0-2.55.53-2.55,1.6,0,.55.21.96.63,1.25.42.29,1.01.43,1.76.43s1.41-.21,1.97-.63c.56-.42.84-.99.84-1.7Z"/><path class="uuid-7fd8d210-c136-402c-87a3-e72f7d64f33b" d="M234.66,229.34c-1.05-1.07-1.58-2.47-1.58-4.21s.54-3.13,1.62-4.17c1.08-1.04,2.37-1.56,3.86-1.56s2.7.63,3.61,1.89v-6.15h2.36v15.62h-2.36v-1.68c-.87,1.23-2.14,1.85-3.81,1.85-1.42,0-2.65-.53-3.71-1.6ZM235.44,225.22c0,1.07.34,1.95,1.03,2.62s1.49,1.01,2.42,1.01,1.71-.34,2.36-1.02c.65-.68.97-1.55.97-2.62s-.32-1.96-.97-2.67c-.64-.72-1.44-1.07-2.38-1.07s-1.75.36-2.42,1.07c-.67.72-1.01,1.61-1.01,2.68Z"/><path class="uuid-7fd8d210-c136-402c-87a3-e72f7d64f33b" d="M256.26,229.26c-1.12,1.12-2.53,1.67-4.21,1.67s-3.09-.56-4.21-1.67c-1.12-1.12-1.68-2.48-1.68-4.09s.56-2.98,1.68-4.09c1.12-1.12,2.53-1.67,4.21-1.67s3.09.56,4.21,1.67c1.12,1.12,1.68,2.48,1.68,4.09s-.56,2.98-1.68,4.09ZM249.51,227.81c.67.68,1.51,1.02,2.54,1.02s1.87-.34,2.54-1.02c.67-.68,1-1.56,1-2.64s-.33-1.96-1-2.64c-.67-.68-1.51-1.02-2.54-1.02s-1.87.34-2.54,1.02c-.67.68-1,1.56-1,2.64s.33,1.96,1,2.64Z"/><path class="uuid-7fd8d210-c136-402c-87a3-e72f7d64f33b" d="M267.54,227.42c0,1.07-.39,1.92-1.16,2.56-.77.64-1.76.96-2.97.96-.81,0-1.66-.15-2.54-.44-.88-.3-1.65-.71-2.33-1.24l1.14-1.83c1.31.98,2.57,1.47,3.79,1.47.53,0,.95-.12,1.26-.37s.46-.56.46-.94c0-.56-.74-1.07-2.23-1.52-.11-.04-.2-.07-.25-.08-2.33-.63-3.49-1.68-3.49-3.16,0-1.04.4-1.87,1.21-2.49.81-.62,1.86-.94,3.15-.94s2.51.38,3.66,1.14l-.88,1.75c-.91-.6-1.9-.91-2.97-.91-.56,0-1.02.1-1.37.31-.35.2-.53.51-.53.91,0,.36.18.63.55.8.25.13.61.25,1.06.36.46.11.86.23,1.21.34.35.11.69.24,1.02.38.33.14.68.34,1.06.59.76.51,1.14,1.29,1.14,2.36Z"/><path class="uuid-4e8edabd-75cc-4e07-b7c3-6384066dc5b8" d="M54.57,271.67c1.01-1.44,1.52-2.82,1.52-4.16s-.44-2.46-1.32-3.36c-.88-.9-2.01-1.35-3.39-1.35-2.52,0-4.92,1.8-7.18,5.4l-7.18-4.25c1.87-2.91,3.93-5.11,6.17-6.6s5.09-2.24,8.55-2.24,6.51,1.1,9.13,3.3c2.62,2.2,3.93,5.19,3.93,8.98,0,2.07-.53,4.05-1.58,5.94-1.05,1.89-3,4.32-5.83,7.26l-7.23,7.52h15.84v8.04h-28.3v-6.66l11.77-12.05c2.37-2.41,4.07-4.34,5.08-5.77Z"/><path class="uuid-4e8edabd-75cc-4e07-b7c3-6384066dc5b8" d="M95.29,256.03v7.75h-15.84v6.72c1.19-.34,2.54-.52,4.08-.52,3.86,0,7.19,1.17,9.99,3.5,2.79,2.33,4.19,5.48,4.19,9.44s-1.44,7.23-4.33,9.82c-2.89,2.58-6.46,3.87-10.71,3.87-5.43,0-9.97-2.01-13.6-6.03l4.71-6.54c.34.34.8.77,1.38,1.26.57.5,1.63,1.16,3.16,1.98,1.53.82,3.06,1.23,4.59,1.23s2.89-.46,4.08-1.38c1.19-.92,1.78-2.28,1.78-4.08s-.64-3.19-1.92-4.16c-1.28-.98-2.94-1.46-4.97-1.46s-4.38.73-7.06,2.18l-3.73-4.02v-19.58h24.22Z"/><path class="uuid-4e8edabd-75cc-4e07-b7c3-6384066dc5b8" d="M117.39,296.61c-5.55,0-9.7-1.88-12.46-5.65-2.75-3.77-4.13-8.8-4.13-15.1s1.38-11.33,4.13-15.1c2.75-3.77,6.91-5.65,12.46-5.65s9.7,1.88,12.46,5.65c2.76,3.77,4.13,8.8,4.13,15.1s-1.38,11.33-4.13,15.1c-2.75,3.77-6.91,5.65-12.46,5.65ZM111.48,266.19c-1.26,2.45-1.89,5.68-1.89,9.7s.63,7.25,1.89,9.7c1.26,2.45,3.23,3.67,5.91,3.67s4.65-1.22,5.91-3.67c1.26-2.45,1.9-5.68,1.9-9.7s-.63-7.25-1.9-9.7c-1.26-2.45-3.23-3.67-5.91-3.67s-4.65,1.23-5.91,3.67Z"/><path class="uuid-7fd8d210-c136-402c-87a3-e72f7d64f33b" d="M164.11,262.85c0,2.43-1.06,3.96-3.18,4.59l3.85,5.35h-3.16l-3.51-4.95h-3.26v4.95h-2.48v-14.71h5.47c2.24,0,3.85.38,4.82,1.14.97.76,1.45,1.97,1.45,3.64ZM160.81,264.93c.51-.43.76-1.13.76-2.09s-.26-1.62-.78-1.98c-.52-.36-1.44-.54-2.78-.54h-3.16v5.26h3.09c1.4,0,2.36-.22,2.86-.65Z"/><path class="uuid-7fd8d210-c136-402c-87a3-e72f7d64f33b" d="M176.72,268.21h-8.78c.06.81.43,1.47,1.12,1.97.69.5,1.47.75,2.36.75,1.4,0,2.47-.44,3.2-1.33l1.35,1.47c-1.21,1.25-2.78,1.87-4.71,1.87-1.57,0-2.91-.52-4.01-1.57-1.1-1.04-1.65-2.45-1.65-4.21s.56-3.16,1.68-4.2c1.12-1.04,2.44-1.56,3.97-1.56s2.82.46,3.88,1.38c1.07.92,1.6,2.18,1.6,3.8v1.62ZM167.94,266.36h6.42c0-.94-.3-1.66-.88-2.17-.59-.51-1.32-.76-2.18-.76s-1.64.26-2.33.79c-.69.53-1.03,1.24-1.03,2.14Z"/><path class="uuid-7fd8d210-c136-402c-87a3-e72f7d64f33b" d="M180.61,266.72v6.06h-2.36v-11.2h2.36v2.04c.34-.69.85-1.23,1.53-1.62.68-.39,1.41-.59,2.2-.59,1.77,0,2.97.73,3.6,2.19,1.11-1.46,2.49-2.19,4.15-2.19,1.26,0,2.28.39,3.06,1.16.78.77,1.17,1.89,1.17,3.35v6.86h-2.36v-6.15c0-2.06-.86-3.09-2.57-3.09-.8,0-1.5.26-2.09.77-.6.51-.91,1.26-.94,2.24v6.23h-2.36v-6.15c0-1.07-.19-1.85-.57-2.35-.38-.5-.98-.75-1.79-.75s-1.52.27-2.13.81c-.6.54-.91,1.33-.91,2.37Z"/><path class="uuid-7fd8d210-c136-402c-87a3-e72f7d64f33b" d="M207.91,271.28c-1.12,1.12-2.53,1.67-4.21,1.67s-3.09-.56-4.21-1.67c-1.12-1.12-1.68-2.48-1.68-4.09s.56-2.98,1.68-4.09c1.12-1.12,2.53-1.67,4.21-1.67s3.09.56,4.21,1.67c1.12,1.12,1.68,2.48,1.68,4.09s-.56,2.98-1.68,4.09ZM201.17,269.82c.67.68,1.51,1.02,2.54,1.02s1.87-.34,2.54-1.02c.67-.68,1-1.56,1-2.64s-.33-1.96-1-2.64c-.67-.68-1.51-1.02-2.54-1.02s-1.87.34-2.54,1.02c-.67.68-1,1.56-1,2.64s.33,1.96,1,2.64Z"/><path class="uuid-7fd8d210-c136-402c-87a3-e72f7d64f33b" d="M213.57,272.78h-2.36v-15.62h2.36v15.62Z"/><path class="uuid-7fd8d210-c136-402c-87a3-e72f7d64f33b" d="M220.51,272.95c-1.41,0-2.65-.54-3.71-1.62-1.06-1.08-1.59-2.48-1.59-4.21s.53-3.11,1.6-4.15c1.07-1.04,2.35-1.56,3.85-1.56s2.71.71,3.64,2.13v-1.96h2.36v15.28h-2.36v-5.77c-1.12,1.23-2.39,1.85-3.8,1.85ZM217.57,267.21c0,1.07.34,1.95,1.03,2.62.69.67,1.49,1.01,2.42,1.01s1.71-.34,2.36-1.02c.65-.68.97-1.55.97-2.62s-.32-1.95-.97-2.66c-.64-.71-1.44-1.06-2.38-1.06s-1.75.36-2.42,1.06c-.67.71-1.01,1.6-1.01,2.67Z"/><path class="uuid-7fd8d210-c136-402c-87a3-e72f7d64f33b" d="M236.85,267.65v-6.06h2.36v11.2h-2.36v-2.04c-.38.69-.9,1.23-1.57,1.62-.67.39-1.39.59-2.16.59-1.26,0-2.28-.39-3.06-1.16-.78-.77-1.17-1.89-1.17-3.35v-6.86h2.36v6.15c0,2.06.86,3.09,2.57,3.09.81,0,1.52-.27,2.13-.81.6-.54.91-1.33.91-2.37Z"/><path class="uuid-7fd8d210-c136-402c-87a3-e72f7d64f33b" d="M251.99,268.21h-8.78c.06.81.43,1.47,1.12,1.97.69.5,1.47.75,2.36.75,1.4,0,2.47-.44,3.2-1.33l1.35,1.47c-1.21,1.25-2.78,1.87-4.72,1.87-1.57,0-2.91-.52-4.01-1.57-1.1-1.04-1.65-2.45-1.65-4.21s.56-3.16,1.68-4.2c1.12-1.04,2.45-1.56,3.97-1.56s2.82.46,3.88,1.38c1.07.92,1.6,2.18,1.6,3.8v1.62ZM243.21,266.36h6.42c0-.94-.29-1.66-.88-2.17-.59-.51-1.31-.76-2.18-.76s-1.64.26-2.33.79c-.69.53-1.03,1.24-1.03,2.14Z"/><path class="uuid-7fd8d210-c136-402c-87a3-e72f7d64f33b" d="M261.5,269.43c0,1.07-.39,1.92-1.16,2.56-.77.64-1.76.96-2.97.96-.81,0-1.66-.15-2.54-.44-.88-.3-1.65-.71-2.33-1.24l1.14-1.83c1.31.98,2.57,1.47,3.79,1.47.53,0,.95-.12,1.26-.37.31-.25.46-.56.46-.94,0-.56-.74-1.07-2.23-1.52-.11-.04-.2-.07-.25-.08-2.33-.63-3.49-1.68-3.49-3.16,0-1.04.4-1.87,1.21-2.49s1.86-.94,3.15-.94,2.51.38,3.66,1.14l-.88,1.75c-.91-.6-1.9-.91-2.97-.91-.56,0-1.02.1-1.37.31-.35.2-.53.51-.53.91,0,.36.18.63.55.8.25.13.61.25,1.06.36.46.11.86.23,1.21.34.35.11.69.24,1.02.38.33.14.68.34,1.06.59.76.51,1.14,1.29,1.14,2.36Z"/><path class="uuid-7fd8d210-c136-402c-87a3-e72f7d64f33b" d="M162.45,293.47h-8.78c.06.81.43,1.47,1.12,1.97.69.5,1.47.75,2.36.75,1.4,0,2.47-.44,3.2-1.33l1.35,1.47c-1.21,1.25-2.78,1.87-4.72,1.87-1.57,0-2.91-.52-4.01-1.57-1.1-1.04-1.65-2.45-1.65-4.21s.56-3.16,1.68-4.2c1.12-1.04,2.45-1.56,3.97-1.56s2.82.46,3.88,1.38c1.07.92,1.6,2.18,1.6,3.8v1.62ZM153.67,291.62h6.42c0-.94-.29-1.66-.88-2.17-.59-.51-1.31-.76-2.18-.76s-1.64.26-2.33.79c-.69.53-1.03,1.24-1.03,2.14Z"/><path class="uuid-7fd8d210-c136-402c-87a3-e72f7d64f33b" d="M166.34,291.98v6.06h-2.36v-11.2h2.36v2.04c.38-.69.9-1.23,1.57-1.62.67-.39,1.39-.59,2.16-.59,1.26,0,2.28.39,3.06,1.16.78.77,1.17,1.89,1.17,3.35v6.86h-2.36v-6.15c0-2.06-.86-3.09-2.57-3.09-.81,0-1.52.27-2.13.81-.6.54-.9,1.33-.9,2.37Z"/><path class="uuid-7fd8d210-c136-402c-87a3-e72f7d64f33b" d="M181.5,298.21c-1.56,0-2.9-.53-4.02-1.59-1.12-1.06-1.68-2.44-1.68-4.16s.59-3.11,1.76-4.18c1.17-1.07,2.6-1.61,4.28-1.61s3.11.58,4.27,1.75l-1.39,1.71c-.97-.84-1.94-1.26-2.93-1.26s-1.83.33-2.56.98c-.72.65-1.08,1.49-1.08,2.53s.36,1.9,1.07,2.62c.72.72,1.6,1.07,2.64,1.07s2.03-.48,2.96-1.43l1.39,1.52c-1.36,1.38-2.93,2.06-4.72,2.06Z"/><path class="uuid-7fd8d210-c136-402c-87a3-e72f7d64f33b" d="M196.74,296.53c-1.12,1.12-2.53,1.67-4.21,1.67s-3.09-.56-4.21-1.67c-1.12-1.12-1.68-2.48-1.68-4.09s.56-2.98,1.68-4.09c1.12-1.12,2.53-1.67,4.21-1.67s3.09.56,4.21,1.67c1.12,1.12,1.68,2.48,1.68,4.09s-.56,2.98-1.68,4.09ZM189.99,295.08c.67.68,1.51,1.02,2.54,1.02s1.87-.34,2.54-1.02c.67-.68,1-1.56,1-2.64s-.33-1.96-1-2.64c-.67-.68-1.51-1.02-2.54-1.02s-1.87.34-2.54,1.02c-.67.68-1,1.56-1,2.64s.33,1.96,1,2.64Z"/><path class="uuid-7fd8d210-c136-402c-87a3-e72f7d64f33b" d="M205.91,289.05c-1.16,0-2.04.38-2.63,1.14-.59.76-.88,1.78-.88,3.05v4.8h-2.36v-11.2h2.36v2.25c.38-.7.89-1.28,1.55-1.73.65-.45,1.34-.68,2.07-.7l.02,2.38h-.13Z"/><path class="uuid-7fd8d210-c136-402c-87a3-e72f7d64f33b" d="M210.25,288.74v5.68c0,.53.14.96.42,1.27s.67.47,1.18.47.99-.25,1.45-.74l.97,1.66c-.83.74-1.74,1.12-2.75,1.12s-1.86-.35-2.57-1.04c-.71-.7-1.06-1.63-1.06-2.81v-5.62h-1.41v-1.89h1.41v-3.51h2.36v3.51h2.95v1.89h-2.95Z"/><path class="uuid-7fd8d210-c136-402c-87a3-e72f7d64f33b" d="M215.24,284.61c-.3-.29-.44-.64-.44-1.05s.15-.76.44-1.05.65-.44,1.05-.44.76.15,1.05.44c.3.3.44.65.44,1.05s-.15.76-.44,1.05c-.29.3-.64.44-1.05.44s-.76-.15-1.05-.44ZM217.45,298.04h-2.36v-11.2h2.36v11.2Z"/><path class="uuid-7fd8d210-c136-402c-87a3-e72f7d64f33b" d="M222.16,291.98v6.06h-2.36v-11.2h2.36v2.04c.38-.69.9-1.23,1.57-1.62s1.39-.59,2.16-.59c1.26,0,2.29.39,3.06,1.16.78.77,1.17,1.89,1.17,3.35v6.86h-2.36v-6.15c0-2.06-.86-3.09-2.57-3.09-.81,0-1.52.27-2.13.81-.6.54-.91,1.33-.91,2.37Z"/><path class="uuid-7fd8d210-c136-402c-87a3-e72f7d64f33b" d="M241.42,298.04h-2.15v-1.49c-.93,1.11-2.17,1.66-3.73,1.66-1.16,0-2.13-.33-2.89-.99-.76-.66-1.15-1.54-1.15-2.64s.41-1.93,1.22-2.47,1.92-.82,3.3-.82h3.05v-.42c0-1.49-.83-2.23-2.48-2.23-1.04,0-2.12.38-3.24,1.14l-1.05-1.47c1.36-1.08,2.91-1.62,4.63-1.62,1.32,0,2.39.33,3.23,1,.83.67,1.25,1.72,1.25,3.15v7.22ZM239.06,293.87v-.95h-2.65c-1.7,0-2.55.53-2.55,1.6,0,.55.21.96.63,1.25.42.29,1.01.43,1.76.43s1.41-.21,1.97-.63c.56-.42.84-.99.84-1.7Z"/><path class="uuid-7fd8d210-c136-402c-87a3-e72f7d64f33b" d="M244.51,296.61c-1.05-1.07-1.58-2.47-1.58-4.21s.54-3.13,1.62-4.17c1.08-1.04,2.37-1.56,3.86-1.56s2.7.63,3.61,1.89v-6.15h2.36v15.62h-2.36v-1.68c-.87,1.23-2.14,1.85-3.81,1.85-1.42,0-2.65-.53-3.71-1.6ZM245.29,292.49c0,1.07.34,1.95,1.03,2.62.69.67,1.5,1.01,2.42,1.01s1.71-.34,2.36-1.02c.65-.68.97-1.55.97-2.62s-.32-1.96-.97-2.67c-.65-.72-1.44-1.07-2.38-1.07s-1.75.36-2.42,1.07c-.67.72-1.01,1.61-1.01,2.68Z"/><path class="uuid-7fd8d210-c136-402c-87a3-e72f7d64f33b" d="M266.11,296.53c-1.12,1.12-2.53,1.67-4.21,1.67s-3.09-.56-4.21-1.67c-1.12-1.12-1.68-2.48-1.68-4.09s.56-2.98,1.68-4.09c1.12-1.12,2.53-1.67,4.21-1.67s3.09.56,4.21,1.67c1.12,1.12,1.68,2.48,1.68,4.09s-.56,2.98-1.68,4.09ZM259.36,295.08c.67.68,1.51,1.02,2.54,1.02s1.87-.34,2.54-1.02c.67-.68,1-1.56,1-2.64s-.33-1.96-1-2.64c-.67-.68-1.51-1.02-2.54-1.02s-1.87.34-2.54,1.02c-.67.68-1,1.56-1,2.64s.33,1.96,1,2.64Z"/><path class="uuid-7fd8d210-c136-402c-87a3-e72f7d64f33b" d="M277.39,294.69c0,1.07-.38,1.92-1.16,2.56-.77.64-1.76.96-2.97.96-.81,0-1.66-.15-2.54-.44-.88-.3-1.65-.71-2.33-1.24l1.14-1.83c1.31.98,2.57,1.47,3.79,1.47.53,0,.95-.12,1.26-.37.31-.25.46-.56.46-.94,0-.56-.74-1.07-2.23-1.52-.11-.04-.2-.07-.25-.08-2.33-.63-3.49-1.68-3.49-3.16,0-1.04.4-1.87,1.21-2.49.81-.62,1.86-.94,3.15-.94s2.51.38,3.66,1.14l-.88,1.75c-.91-.6-1.9-.91-2.97-.91-.56,0-1.02.1-1.37.31-.35.2-.53.51-.53.91,0,.36.18.63.55.8.25.13.61.25,1.06.36.46.11.86.23,1.21.34.35.11.69.24,1.02.38.33.14.68.34,1.06.59.76.51,1.14,1.29,1.14,2.36Z"/><path class="uuid-4e8edabd-75cc-4e07-b7c3-6384066dc5b8" d="M49.17,335.19c1.01-1.44,1.52-2.82,1.52-4.16s-.44-2.46-1.32-3.36c-.88-.9-2.01-1.35-3.39-1.35-2.53,0-4.92,1.8-7.18,5.4l-7.18-4.25c1.88-2.91,3.93-5.11,6.17-6.6,2.24-1.49,5.09-2.24,8.55-2.24s6.51,1.1,9.13,3.3c2.62,2.2,3.93,5.19,3.93,8.98,0,2.07-.53,4.05-1.58,5.94-1.05,1.89-2.99,4.32-5.83,7.26l-7.23,7.52h15.84v8.04h-28.3v-6.66l11.77-12.05c2.37-2.41,4.07-4.34,5.08-5.77Z"/><path class="uuid-4e8edabd-75cc-4e07-b7c3-6384066dc5b8" d="M80.65,360.13c-5.55,0-9.7-1.88-12.46-5.65-2.76-3.77-4.13-8.8-4.13-15.1s1.38-11.33,4.13-15.1c2.75-3.77,6.91-5.65,12.46-5.65s9.7,1.88,12.46,5.65c2.75,3.77,4.13,8.8,4.13,15.1s-1.38,11.33-4.13,15.1c-2.76,3.77-6.91,5.65-12.46,5.65ZM74.74,329.7c-1.26,2.45-1.89,5.68-1.89,9.7s.63,7.25,1.89,9.7c1.26,2.45,3.23,3.67,5.91,3.67s4.65-1.22,5.91-3.67,1.89-5.68,1.89-9.7-.63-7.25-1.89-9.7c-1.26-2.45-3.23-3.67-5.91-3.67s-4.65,1.23-5.91,3.67Z"/><path class="uuid-4e8edabd-75cc-4e07-b7c3-6384066dc5b8" d="M117.39,360.13c-5.55,0-9.7-1.88-12.46-5.65-2.75-3.77-4.13-8.8-4.13-15.1s1.38-11.33,4.13-15.1c2.75-3.77,6.91-5.65,12.46-5.65s9.7,1.88,12.46,5.65c2.76,3.77,4.13,8.8,4.13,15.1s-1.38,11.33-4.13,15.1c-2.75,3.77-6.91,5.65-12.46,5.65ZM111.48,329.7c-1.26,2.45-1.89,5.68-1.89,9.7s.63,7.25,1.89,9.7c1.26,2.45,3.23,3.67,5.91,3.67s4.65-1.22,5.91-3.67c1.26-2.45,1.9-5.68,1.9-9.7s-.63-7.25-1.9-9.7c-1.26-2.45-3.23-3.67-5.91-3.67s-4.65,1.23-5.91,3.67Z"/><path class="uuid-7fd8d210-c136-402c-87a3-e72f7d64f33b" d="M158.97,331.77c.86,0,1.59-.14,2.21-.43.62-.29,1.26-.75,1.94-1.38l1.6,1.64c-1.56,1.73-3.45,2.59-5.67,2.59s-4.07-.72-5.54-2.15c-1.47-1.43-2.2-3.24-2.2-5.43s.75-4.01,2.24-5.47c1.5-1.46,3.38-2.19,5.66-2.19s4.19.84,5.72,2.52l-1.58,1.73c-.7-.67-1.37-1.14-1.99-1.41-.62-.27-1.36-.4-2.2-.4-1.49,0-2.74.48-3.75,1.44-1.01.96-1.52,2.19-1.52,3.68s.5,2.74,1.5,3.75c1,1,2.19,1.5,3.57,1.5Z"/><path class="uuid-7fd8d210-c136-402c-87a3-e72f7d64f33b" d="M175.43,334.02h-2.15v-1.49c-.93,1.11-2.17,1.66-3.73,1.66-1.16,0-2.13-.33-2.89-.99-.77-.66-1.15-1.54-1.15-2.64s.41-1.93,1.22-2.47,1.92-.82,3.3-.82h3.05v-.42c0-1.49-.83-2.23-2.48-2.23-1.04,0-2.12.38-3.24,1.14l-1.05-1.47c1.36-1.08,2.91-1.62,4.63-1.62,1.32,0,2.39.33,3.23,1,.84.67,1.25,1.72,1.25,3.15v7.22ZM173.08,329.85v-.95h-2.65c-1.7,0-2.55.53-2.55,1.6,0,.55.21.96.63,1.25.42.29,1.01.43,1.76.43s1.41-.21,1.97-.63c.56-.42.84-.99.84-1.7Z"/><path class="uuid-7fd8d210-c136-402c-87a3-e72f7d64f33b" d="M180.02,327.96v6.06h-2.36v-11.2h2.36v2.04c.34-.69.84-1.23,1.52-1.62s1.41-.59,2.2-.59c1.77,0,2.97.73,3.6,2.19,1.11-1.46,2.49-2.19,4.15-2.19,1.26,0,2.28.39,3.06,1.16.78.77,1.17,1.89,1.17,3.35v6.86h-2.36v-6.15c0-2.06-.86-3.09-2.57-3.09-.8,0-1.5.26-2.09.77-.6.51-.91,1.26-.94,2.24v6.23h-2.36v-6.15c0-1.07-.19-1.85-.57-2.35s-.97-.75-1.79-.75-1.52.27-2.13.81c-.6.54-.9,1.33-.9,2.37Z"/><path class="uuid-7fd8d210-c136-402c-87a3-e72f7d64f33b" d="M198.1,320.59c-.3-.29-.44-.64-.44-1.05s.15-.76.44-1.05c.29-.3.65-.44,1.05-.44s.76.15,1.05.44c.3.3.44.65.44,1.05s-.15.76-.44,1.05c-.29.3-.65.44-1.05.44s-.76-.15-1.05-.44ZM200.31,334.02h-2.36v-11.2h2.36v11.2Z"/><path class="uuid-7fd8d210-c136-402c-87a3-e72f7d64f33b" d="M212.04,332.52c-1.12,1.12-2.52,1.67-4.21,1.67s-3.09-.56-4.21-1.67c-1.12-1.12-1.68-2.48-1.68-4.09s.56-2.98,1.68-4.09c1.12-1.12,2.53-1.67,4.21-1.67s3.09.56,4.21,1.67c1.12,1.12,1.68,2.48,1.68,4.09s-.56,2.98-1.68,4.09ZM205.29,331.06c.67.68,1.51,1.02,2.54,1.02s1.87-.34,2.54-1.02c.66-.68,1-1.56,1-2.64s-.33-1.96-1-2.64c-.67-.68-1.51-1.02-2.54-1.02s-1.87.34-2.54,1.02c-.67.68-1,1.56-1,2.64s.33,1.96,1,2.64Z"/><path class="uuid-7fd8d210-c136-402c-87a3-e72f7d64f33b" d="M217.7,327.96v6.06h-2.36v-11.2h2.36v2.04c.38-.69.9-1.23,1.57-1.62.67-.39,1.38-.59,2.16-.59,1.26,0,2.28.39,3.06,1.16.78.77,1.17,1.89,1.17,3.35v6.86h-2.36v-6.15c0-2.06-.86-3.09-2.57-3.09-.81,0-1.52.27-2.13.81-.6.54-.9,1.33-.9,2.37Z"/><path class="uuid-7fd8d210-c136-402c-87a3-e72f7d64f33b" d="M238.31,329.45h-8.78c.06.81.43,1.47,1.12,1.97.69.5,1.47.75,2.36.75,1.4,0,2.47-.44,3.2-1.33l1.35,1.47c-1.21,1.25-2.78,1.87-4.72,1.87-1.57,0-2.91-.52-4.01-1.57-1.1-1.04-1.65-2.45-1.65-4.21s.56-3.16,1.68-4.2,2.45-1.56,3.97-1.56,2.82.46,3.88,1.38c1.07.92,1.6,2.18,1.6,3.8v1.62ZM229.53,327.6h6.42c0-.94-.29-1.66-.88-2.17-.59-.51-1.32-.76-2.18-.76s-1.64.26-2.33.79c-.69.53-1.03,1.24-1.03,2.14Z"/><path class="uuid-7fd8d210-c136-402c-87a3-e72f7d64f33b" d="M242.66,324.72v5.68c0,.53.14.96.42,1.27s.67.47,1.18.47.99-.25,1.45-.74l.97,1.66c-.83.74-1.74,1.12-2.75,1.12s-1.86-.35-2.57-1.04c-.71-.7-1.06-1.63-1.06-2.81v-5.62h-1.41v-1.89h1.41v-3.51h2.36v3.51h2.95v1.89h-2.95Z"/><path class="uuid-7fd8d210-c136-402c-87a3-e72f7d64f33b" d="M256.58,334.02h-2.15v-1.49c-.93,1.11-2.17,1.66-3.73,1.66-1.16,0-2.13-.33-2.89-.99-.76-.66-1.15-1.54-1.15-2.64s.41-1.93,1.22-2.47c.82-.55,1.92-.82,3.31-.82h3.05v-.42c0-1.49-.83-2.23-2.48-2.23-1.04,0-2.12.38-3.24,1.14l-1.05-1.47c1.36-1.08,2.9-1.62,4.63-1.62,1.32,0,2.39.33,3.23,1,.84.67,1.25,1.72,1.25,3.15v7.22ZM254.22,329.85v-.95h-2.65c-1.7,0-2.55.53-2.55,1.6,0,.55.21.96.63,1.25.42.29,1.01.43,1.76.43s1.41-.21,1.97-.63c.56-.42.84-.99.84-1.7Z"/><path class="uuid-7fd8d210-c136-402c-87a3-e72f7d64f33b" d="M266.78,330.67c0,1.07-.39,1.92-1.16,2.56-.77.64-1.76.96-2.97.96-.81,0-1.66-.15-2.54-.44-.88-.3-1.65-.71-2.33-1.24l1.14-1.83c1.31.98,2.57,1.47,3.79,1.47.53,0,.95-.12,1.26-.37s.46-.56.46-.94c0-.56-.74-1.07-2.23-1.52-.11-.04-.2-.07-.25-.08-2.33-.63-3.49-1.68-3.49-3.16,0-1.04.4-1.87,1.21-2.49.81-.62,1.86-.94,3.15-.94s2.51.38,3.66,1.14l-.88,1.75c-.91-.6-1.9-.91-2.97-.91-.56,0-1.02.1-1.37.31-.35.2-.53.51-.53.91,0,.36.18.63.55.8.25.13.61.25,1.06.36.46.11.86.23,1.21.34.35.11.69.24,1.02.38.33.14.69.34,1.06.59.76.51,1.14,1.29,1.14,2.36Z"/><path class="uuid-7fd8d210-c136-402c-87a3-e72f7d64f33b" d="M273.98,332.59c-1.05-1.07-1.58-2.47-1.58-4.21s.54-3.13,1.62-4.17c1.08-1.04,2.37-1.56,3.86-1.56s2.7.63,3.61,1.89v-6.15h2.36v15.62h-2.36v-1.68c-.87,1.23-2.14,1.85-3.81,1.85-1.42,0-2.65-.53-3.71-1.6ZM274.76,328.47c0,1.07.34,1.95,1.03,2.62.69.67,1.5,1.01,2.42,1.01s1.71-.34,2.36-1.02c.65-.68.97-1.55.97-2.62s-.32-1.96-.97-2.67c-.64-.72-1.44-1.07-2.38-1.07s-1.75.36-2.42,1.07-1.01,1.61-1.01,2.68Z"/><path class="uuid-7fd8d210-c136-402c-87a3-e72f7d64f33b" d="M296.63,329.45h-8.78c.06.81.43,1.47,1.12,1.97.69.5,1.47.75,2.36.75,1.4,0,2.47-.44,3.2-1.33l1.35,1.47c-1.21,1.25-2.78,1.87-4.72,1.87-1.57,0-2.91-.52-4.01-1.57-1.1-1.04-1.65-2.45-1.65-4.21s.56-3.16,1.68-4.2c1.12-1.04,2.45-1.56,3.97-1.56s2.82.46,3.88,1.38c1.07.92,1.6,2.18,1.6,3.8v1.62ZM287.85,327.6h6.42c0-.94-.29-1.66-.88-2.17-.59-.51-1.32-.76-2.18-.76s-1.64.26-2.33.79c-.69.53-1.03,1.24-1.03,2.14Z"/><path class="uuid-7fd8d210-c136-402c-87a3-e72f7d64f33b" d="M159.75,354.14v-6.06h2.36v11.2h-2.36v-2.04c-.38.69-.9,1.23-1.57,1.62-.67.39-1.39.59-2.16.59-1.26,0-2.28-.39-3.06-1.16-.78-.77-1.17-1.89-1.17-3.35v-6.86h2.36v6.15c0,2.06.86,3.09,2.57,3.09.81,0,1.52-.27,2.13-.81.6-.54.91-1.33.91-2.37ZM157.58,346.61h-2.15l2.23-3.05,2.48,1.03-2.57,2.02Z"/><path class="uuid-7fd8d210-c136-402c-87a3-e72f7d64f33b" d="M166.83,359.28h-2.36v-15.62h2.36v15.62Z"/><path class="uuid-7fd8d210-c136-402c-87a3-e72f7d64f33b" d="M172.09,349.98v5.68c0,.53.14.96.42,1.27.28.32.67.47,1.18.47s.99-.25,1.45-.74l.97,1.66c-.83.74-1.74,1.12-2.75,1.12s-1.86-.35-2.57-1.04c-.71-.7-1.06-1.63-1.06-2.81v-5.62h-1.41v-1.89h1.41v-3.51h2.36v3.51h2.95v1.89h-2.95Z"/><path class="uuid-7fd8d210-c136-402c-87a3-e72f7d64f33b" d="M177.07,345.85c-.29-.29-.44-.64-.44-1.05s.15-.76.44-1.05c.3-.3.65-.44,1.05-.44s.76.15,1.05.44c.3.3.44.65.44,1.05s-.15.76-.44,1.05c-.29.3-.64.44-1.05.44s-.76-.15-1.05-.44ZM179.29,359.28h-2.36v-11.2h2.36v11.2Z"/><path class="uuid-7fd8d210-c136-402c-87a3-e72f7d64f33b" d="M184,353.22v6.06h-2.36v-11.2h2.36v2.04c.34-.69.85-1.23,1.53-1.62.68-.39,1.41-.59,2.2-.59,1.77,0,2.97.73,3.6,2.19,1.11-1.46,2.49-2.19,4.15-2.19,1.26,0,2.28.39,3.06,1.16.78.77,1.17,1.89,1.17,3.35v6.86h-2.36v-6.15c0-2.06-.86-3.09-2.57-3.09-.8,0-1.5.26-2.09.77-.6.51-.91,1.26-.94,2.24v6.23h-2.36v-6.15c0-1.07-.19-1.85-.57-2.35-.38-.5-.98-.75-1.79-.75s-1.52.27-2.13.81c-.6.54-.91,1.33-.91,2.37Z"/><path class="uuid-7fd8d210-c136-402c-87a3-e72f7d64f33b" d="M211,359.28h-2.15v-1.49c-.93,1.11-2.17,1.66-3.73,1.66-1.16,0-2.13-.33-2.9-.99-.76-.66-1.15-1.54-1.15-2.64s.41-1.93,1.22-2.47c.81-.55,1.92-.82,3.3-.82h3.05v-.42c0-1.49-.83-2.23-2.48-2.23-1.04,0-2.12.38-3.24,1.14l-1.05-1.47c1.36-1.08,2.9-1.62,4.63-1.62,1.32,0,2.4.33,3.23,1,.83.67,1.25,1.72,1.25,3.15v7.22ZM208.65,355.11v-.95h-2.65c-1.7,0-2.55.53-2.55,1.6,0,.55.21.96.63,1.25.42.29,1.01.43,1.76.43s1.41-.21,1.97-.63c.56-.42.84-.99.84-1.7Z"/><path class="uuid-7fd8d210-c136-402c-87a3-e72f7d64f33b" d="M220.31,353.22v6.06h-2.36v-11.2h2.36v2.04c.34-.69.85-1.23,1.53-1.62.68-.39,1.41-.59,2.2-.59,1.77,0,2.97.73,3.6,2.19,1.11-1.46,2.49-2.19,4.15-2.19,1.26,0,2.28.39,3.06,1.16.78.77,1.17,1.89,1.17,3.35v6.86h-2.36v-6.15c0-2.06-.86-3.09-2.57-3.09-.8,0-1.5.26-2.09.77-.6.51-.91,1.26-.94,2.24v6.23h-2.36v-6.15c0-1.07-.19-1.85-.57-2.35-.38-.5-.98-.75-1.79-.75s-1.52.27-2.13.81c-.6.54-.91,1.33-.91,2.37Z"/><path class="uuid-7fd8d210-c136-402c-87a3-e72f7d64f33b" d="M238.39,345.85c-.29-.29-.44-.64-.44-1.05s.15-.76.44-1.05c.3-.3.65-.44,1.05-.44s.76.15,1.05.44c.3.3.44.65.44,1.05s-.15.76-.44,1.05c-.29.3-.64.44-1.05.44s-.76-.15-1.05-.44ZM240.6,359.28h-2.36v-11.2h2.36v11.2Z"/><path class="uuid-7fd8d210-c136-402c-87a3-e72f7d64f33b" d="M245.31,359.28h-2.36v-15.62h2.36v15.62Z"/><path class="uuid-7fd8d210-c136-402c-87a3-e72f7d64f33b" d="M250.03,359.28h-2.36v-15.62h2.36v15.62Z"/><path class="uuid-7fd8d210-c136-402c-87a3-e72f7d64f33b" d="M261.46,359.28h-2.15v-1.49c-.93,1.11-2.17,1.66-3.73,1.66-1.16,0-2.13-.33-2.9-.99-.76-.66-1.15-1.54-1.15-2.64s.41-1.93,1.22-2.47c.81-.55,1.92-.82,3.3-.82h3.05v-.42c0-1.49-.83-2.23-2.48-2.23-1.04,0-2.12.38-3.24,1.14l-1.05-1.47c1.36-1.08,2.9-1.62,4.63-1.62,1.32,0,2.4.33,3.23,1,.83.67,1.25,1.72,1.25,3.15v7.22ZM259.1,355.11v-.95h-2.65c-1.7,0-2.55.53-2.55,1.6,0,.55.21.96.63,1.25.42.29,1.01.43,1.76.43s1.41-.21,1.97-.63c.56-.42.84-.99.84-1.7Z"/></g></svg>