<?xml version="1.0" encoding="UTF-8"?><svg xmlns="http://www.w3.org/2000/svg" xmlns:xlink="http://www.w3.org/1999/xlink" viewBox="0 0 1283.48 372.82"><defs><style>.uuid-4423ad34-3b32-468c-9f1f-e168882b3e23{fill:none;}.uuid-2a4305d2-6ca1-42b0-b3b2-1962dca477a8{fill:url(#uuid-d3217aa9-6f45-4605-8e4e-2328ebaa030d);}.uuid-1dd43384-e475-4107-908b-101eb1cde2f2{fill:url(#uuid-c194e92f-1d85-488f-ae42-09e911d03c0b);}.uuid-1c0978bf-ac66-4595-820c-3f19a95318b3{isolation:isolate;}.uuid-9e90a888-a861-4368-a9e3-7a21f83e1ccd{fill:#fff;}.uuid-62d00f37-e7ea-407f-bca4-16c04040751c{mix-blend-mode:overlay;}.uuid-79a91a3b-cdf2-4f1a-93b5-b2812358cb72{fill:url(#uuid-f19e54cc-1fc8-4a8c-bfb6-59535202292f);}.uuid-9071125d-adc1-451c-90e0-c64809061698{clip-path:url(#uuid-2894e3da-c9c6-4285-a73d-b51f809d93a2);}</style><clipPath id="uuid-2894e3da-c9c6-4285-a73d-b51f809d93a2"><rect class="uuid-4423ad34-3b32-468c-9f1f-e168882b3e23" width="1283.48" height="372.82"/></clipPath><linearGradient id="uuid-d3217aa9-6f45-4605-8e4e-2328ebaa030d" x1="1332.27" y1="145.8" x2="-198.53" y2="274.32" gradientTransform="translate(8.12 42.64) rotate(.63) scale(1 .7)" gradientUnits="userSpaceOnUse"><stop offset="0" stop-color="#575756"/><stop offset=".72" stop-color="#cdcdcd"/><stop offset=".83" stop-color="#dfdfdf"/><stop offset=".98" stop-color="#fff"/></linearGradient><linearGradient id="uuid-c194e92f-1d85-488f-ae42-09e911d03c0b" x1="334.21" y1="-164.64" x2="922.31" y2="-752.75" gradientTransform="translate(92.08 726.58) rotate(-7.55)" gradientUnits="userSpaceOnUse"><stop offset="0" stop-color="#fff381"/><stop offset=".17" stop-color="#fff27d"/><stop offset=".31" stop-color="#ffee73"/><stop offset=".44" stop-color="#ffe961"/><stop offset=".57" stop-color="#ffe248"/><stop offset=".69" stop-color="#ffd828"/><stop offset=".81" stop-color="#ffcd01"/><stop offset=".82" stop-color="#ffcd00"/></linearGradient><linearGradient id="uuid-f19e54cc-1fc8-4a8c-bfb6-59535202292f" x1="1339.63" y1="63.67" x2="406.11" y2="63.67" gradientTransform="translate(-12.96 97.38) rotate(-1.11)" gradientUnits="userSpaceOnUse"><stop offset="0" stop-color="#ffe608"/><stop offset=".3" stop-color="#fcd204"/><stop offset=".68" stop-color="#fabf01"/><stop offset=".95" stop-color="#fab900"/></linearGradient></defs><g class="uuid-1c0978bf-ac66-4595-820c-3f19a95318b3"><g id="uuid-8f6383f3-db69-4ccb-b69c-01f907a60813"><g id="uuid-59616cb8-99b7-40d7-b014-755d0bf88983"><g class="uuid-9071125d-adc1-451c-90e0-c64809061698"><polygon class="uuid-9e90a888-a861-4368-a9e3-7a21f83e1ccd" points="-107.25 162.69 458.53 135.59 981.96 228.76 1327.74 140.59 1339.38 408.32 -83.53 413.4 -107.25 162.69"/><polygon points="-36.1 -76.15 1368.17 -82.93 1359.7 176.25 841.36 215.21 334.87 133.9 -64.9 161 -36.1 -76.15"/><path class="uuid-2a4305d2-6ca1-42b0-b3b2-1962dca477a8" d="M-197.83,178.06S-33.98,115.49,298.25,109.13c157.49-3.01,331.71,42.6,660.91,33.19,204.5-5.84,222.28-19.59,283.37-38.89,61.1-19.3,83.26-32.17,83.26-32.17l-3.73,167.41s-35.67,33.55-306.95,33.55c-399.66,0-381.69-90.25-764.13-111.5-98.42-5.47-448.8,17.34-448.8,17.34Z"/><path class="uuid-9e90a888-a861-4368-a9e3-7a21f83e1ccd" d="M-61.07,174.51s147.83-66.87,501.72-62.38c296.69,3.77,381.28,65.66,620.63,45.01,186.36-16.07,280.96-88.21,265.41-71.76l.9,73.78s-75.76,73.34-233.93,76.42c-233.02,4.54-308.91-16.34-543.71-47.49-248.4-32.95-611-13.59-611-13.59Z"/><path class="uuid-1dd43384-e475-4107-908b-101eb1cde2f2" d="M-47.63,175.26s249.08-79.56,604.37-51.14c142.97,11.44,292.66,47.36,493.66,40.06,220.96-8.03,278.63-56.07,278.63-56.07l2.1,128.6c7.82-2-264.48,69.24-696.3-28.7C248.28,120.34-47.63,175.26-47.63,175.26Z"/><path class="uuid-79a91a3b-cdf2-4f1a-93b5-b2812358cb72" d="M394.53,165s76.63-16.44,172.8-17.07c96.17-.62,232.68,19.27,433.44,9.68,124.71-5.96,239.25-39.43,276.01-51.81,36.76-12.38,49.92-20.42,49.92-20.42l1.06,55.21s-169.25,47.64-334.92,50.87c-244.06,4.76-236.51-15.72-404.06-26.59-59.99-3.89-194.23.14-194.23.14Z"/><g class="uuid-62d00f37-e7ea-407f-bca4-16c04040751c"><path class="uuid-2a4305d2-6ca1-42b0-b3b2-1962dca477a8" d="M-197.83,178.06S-33.98,115.49,298.25,109.13c157.49-3.01,331.71,42.6,660.91,33.19,204.5-5.84,222.28-19.59,283.37-38.89,61.1-19.3,83.26-32.17,83.26-32.17l-3.73,167.41s-35.67,33.55-306.95,33.55c-399.66,0-381.69-90.25-764.13-111.5-98.42-5.47-448.8,17.34-448.8,17.34Z"/><path class="uuid-9e90a888-a861-4368-a9e3-7a21f83e1ccd" d="M-61.07,174.51s147.83-66.87,501.72-62.38c296.69,3.77,381.28,65.66,620.63,45.01,186.36-16.07,280.96-88.21,265.41-71.76l.9,73.78s-75.76,73.34-233.93,76.42c-233.02,4.54-308.91-16.34-543.71-47.49-248.4-32.95-611-13.59-611-13.59Z"/><path class="uuid-1dd43384-e475-4107-908b-101eb1cde2f2" d="M-47.63,175.26s249.08-79.56,604.37-51.14c142.97,11.44,292.66,47.36,493.66,40.06,220.96-8.03,278.63-56.07,278.63-56.07l2.1,128.6c7.82-2-264.48,69.24-696.3-28.7C248.28,120.34-47.63,175.26-47.63,175.26Z"/><path class="uuid-79a91a3b-cdf2-4f1a-93b5-b2812358cb72" d="M394.53,165s76.63-16.44,172.8-17.07c96.17-.62,232.68,19.27,433.44,9.68,124.71-5.96,239.25-39.43,276.01-51.81,36.76-12.38,49.92-20.42,49.92-20.42l1.06,55.21s-169.25,47.64-334.92,50.87c-244.06,4.76-236.51-15.72-404.06-26.59-59.99-3.89-194.23.14-194.23.14Z"/></g><g class="uuid-62d00f37-e7ea-407f-bca4-16c04040751c"><path class="uuid-2a4305d2-6ca1-42b0-b3b2-1962dca477a8" d="M-197.83,178.06S-33.98,115.49,298.25,109.13c157.49-3.01,331.71,42.6,660.91,33.19,204.5-5.84,222.28-19.59,283.37-38.89,61.1-19.3,83.26-32.17,83.26-32.17l-3.73,167.41s-35.67,33.55-306.95,33.55c-399.66,0-381.69-90.25-764.13-111.5-98.42-5.47-448.8,17.34-448.8,17.34Z"/><path class="uuid-9e90a888-a861-4368-a9e3-7a21f83e1ccd" d="M-61.07,174.51s147.83-66.87,501.72-62.38c296.69,3.77,381.28,65.66,620.63,45.01,186.36-16.07,280.96-88.21,265.41-71.76l.9,73.78s-75.76,73.34-233.93,76.42c-233.02,4.54-308.91-16.34-543.71-47.49-248.4-32.95-611-13.59-611-13.59Z"/><path class="uuid-1dd43384-e475-4107-908b-101eb1cde2f2" d="M-47.63,175.26s249.08-79.56,604.37-51.14c142.97,11.44,292.66,47.36,493.66,40.06,220.96-8.03,278.63-56.07,278.63-56.07l2.1,128.6c7.82-2-264.48,69.24-696.3-28.7C248.28,120.34-47.63,175.26-47.63,175.26Z"/><path class="uuid-79a91a3b-cdf2-4f1a-93b5-b2812358cb72" d="M394.53,165s76.63-16.44,172.8-17.07c96.17-.62,232.68,19.27,433.44,9.68,124.71-5.96,239.25-39.43,276.01-51.81,36.76-12.38,49.92-20.42,49.92-20.42l1.06,55.21s-169.25,47.64-334.92,50.87c-244.06,4.76-236.51-15.72-404.06-26.59-59.99-3.89-194.23.14-194.23.14Z"/></g><g class="uuid-62d00f37-e7ea-407f-bca4-16c04040751c"><path class="uuid-2a4305d2-6ca1-42b0-b3b2-1962dca477a8" d="M-197.83,178.06S-33.98,115.49,298.25,109.13c157.49-3.01,331.71,42.6,660.91,33.19,204.5-5.84,222.28-19.59,283.37-38.89,61.1-19.3,83.26-32.17,83.26-32.17l-3.73,167.41s-35.67,33.55-306.95,33.55c-399.66,0-381.69-90.25-764.13-111.5-98.42-5.47-448.8,17.34-448.8,17.34Z"/><path class="uuid-9e90a888-a861-4368-a9e3-7a21f83e1ccd" d="M-61.07,174.51s147.83-66.87,501.72-62.38c296.69,3.77,381.28,65.66,620.63,45.01,186.36-16.07,280.96-88.21,265.41-71.76l.9,73.78s-75.76,73.34-233.93,76.42c-233.02,4.54-308.91-16.34-543.71-47.49-248.4-32.95-611-13.59-611-13.59Z"/><path class="uuid-1dd43384-e475-4107-908b-101eb1cde2f2" d="M-47.63,175.26s249.08-79.56,604.37-51.14c142.97,11.44,292.66,47.36,493.66,40.06,220.96-8.03,278.63-56.07,278.63-56.07l2.1,128.6c7.82-2-264.48,69.24-696.3-28.7C248.28,120.34-47.63,175.26-47.63,175.26Z"/><path class="uuid-79a91a3b-cdf2-4f1a-93b5-b2812358cb72" d="M394.53,165s76.63-16.44,172.8-17.07c96.17-.62,232.68,19.27,433.44,9.68,124.71-5.96,239.25-39.43,276.01-51.81,36.76-12.38,49.92-20.42,49.92-20.42l1.06,55.21s-169.25,47.64-334.92,50.87c-244.06,4.76-236.51-15.72-404.06-26.59-59.99-3.89-194.23.14-194.23.14Z"/></g><g class="uuid-62d00f37-e7ea-407f-bca4-16c04040751c"><path class="uuid-2a4305d2-6ca1-42b0-b3b2-1962dca477a8" d="M-197.83,178.06S-33.98,115.49,298.25,109.13c157.49-3.01,331.71,42.6,660.91,33.19,204.5-5.84,222.28-19.59,283.37-38.89,61.1-19.3,83.26-32.17,83.26-32.17l-3.73,167.41s-35.67,33.55-306.95,33.55c-399.66,0-381.69-90.25-764.13-111.5-98.42-5.47-448.8,17.34-448.8,17.34Z"/><path class="uuid-9e90a888-a861-4368-a9e3-7a21f83e1ccd" d="M-61.07,174.51s147.83-66.87,501.72-62.38c296.69,3.77,381.28,65.66,620.63,45.01,186.36-16.07,280.96-88.21,265.41-71.76l.9,73.78s-75.76,73.34-233.93,76.42c-233.02,4.54-308.91-16.34-543.71-47.49-248.4-32.95-611-13.59-611-13.59Z"/><path class="uuid-1dd43384-e475-4107-908b-101eb1cde2f2" d="M-47.63,175.26s249.08-79.56,604.37-51.14c142.97,11.44,292.66,47.36,493.66,40.06,220.96-8.03,278.63-56.07,278.63-56.07l2.1,128.6c7.82-2-264.48,69.24-696.3-28.7C248.28,120.34-47.63,175.26-47.63,175.26Z"/><path class="uuid-79a91a3b-cdf2-4f1a-93b5-b2812358cb72" d="M394.53,165s76.63-16.44,172.8-17.07c96.17-.62,232.68,19.27,433.44,9.68,124.71-5.96,239.25-39.43,276.01-51.81,36.76-12.38,49.92-20.42,49.92-20.42l1.06,55.21s-169.25,47.64-334.92,50.87c-244.06,4.76-236.51-15.72-404.06-26.59-59.99-3.89-194.23.14-194.23.14Z"/></g><g class="uuid-62d00f37-e7ea-407f-bca4-16c04040751c"><path class="uuid-2a4305d2-6ca1-42b0-b3b2-1962dca477a8" d="M-197.83,178.06S-33.98,115.49,298.25,109.13c157.49-3.01,331.71,42.6,660.91,33.19,204.5-5.84,222.28-19.59,283.37-38.89,61.1-19.3,83.26-32.17,83.26-32.17l-3.73,167.41s-35.67,33.55-306.95,33.55c-399.66,0-381.69-90.25-764.13-111.5-98.42-5.47-448.8,17.34-448.8,17.34Z"/><path class="uuid-9e90a888-a861-4368-a9e3-7a21f83e1ccd" d="M-61.07,174.51s147.83-66.87,501.72-62.38c296.69,3.77,381.28,65.66,620.63,45.01,186.36-16.07,280.96-88.21,265.41-71.76l.9,73.78s-75.76,73.34-233.93,76.42c-233.02,4.54-308.91-16.34-543.71-47.49-248.4-32.95-611-13.59-611-13.59Z"/><path class="uuid-1dd43384-e475-4107-908b-101eb1cde2f2" d="M-47.63,175.26s249.08-79.56,604.37-51.14c142.97,11.44,292.66,47.36,493.66,40.06,220.96-8.03,278.63-56.07,278.63-56.07l2.1,128.6c7.82-2-264.48,69.24-696.3-28.7C248.28,120.34-47.63,175.26-47.63,175.26Z"/><path class="uuid-79a91a3b-cdf2-4f1a-93b5-b2812358cb72" d="M394.53,165s76.63-16.44,172.8-17.07c96.17-.62,232.68,19.27,433.44,9.68,124.71-5.96,239.25-39.43,276.01-51.81,36.76-12.38,49.92-20.42,49.92-20.42l1.06,55.21s-169.25,47.64-334.92,50.87c-244.06,4.76-236.51-15.72-404.06-26.59-59.99-3.89-194.23.14-194.23.14Z"/></g><g class="uuid-62d00f37-e7ea-407f-bca4-16c04040751c"><path class="uuid-2a4305d2-6ca1-42b0-b3b2-1962dca477a8" d="M-197.83,178.06S-33.98,115.49,298.25,109.13c157.49-3.01,331.71,42.6,660.91,33.19,204.5-5.84,222.28-19.59,283.37-38.89,61.1-19.3,83.26-32.17,83.26-32.17l-3.73,167.41s-35.67,33.55-306.95,33.55c-399.66,0-381.69-90.25-764.13-111.5-98.42-5.47-448.8,17.34-448.8,17.34Z"/><path class="uuid-9e90a888-a861-4368-a9e3-7a21f83e1ccd" d="M-61.07,174.51s147.83-66.87,501.72-62.38c296.69,3.77,381.28,65.66,620.63,45.01,186.36-16.07,280.96-88.21,265.41-71.76l.9,73.78s-75.76,73.34-233.93,76.42c-233.02,4.54-308.91-16.34-543.71-47.49-248.4-32.95-611-13.59-611-13.59Z"/><path class="uuid-1dd43384-e475-4107-908b-101eb1cde2f2" d="M-47.63,175.26s249.08-79.56,604.37-51.14c142.97,11.44,292.66,47.36,493.66,40.06,220.96-8.03,278.63-56.07,278.63-56.07l2.1,128.6c7.82-2-264.48,69.24-696.3-28.7C248.28,120.34-47.63,175.26-47.63,175.26Z"/><path class="uuid-79a91a3b-cdf2-4f1a-93b5-b2812358cb72" d="M394.53,165s76.63-16.44,172.8-17.07c96.17-.62,232.68,19.27,433.44,9.68,124.71-5.96,239.25-39.43,276.01-51.81,36.76-12.38,49.92-20.42,49.92-20.42l1.06,55.21s-169.25,47.64-334.92,50.87c-244.06,4.76-236.51-15.72-404.06-26.59-59.99-3.89-194.23.14-194.23.14Z"/></g><g class="uuid-62d00f37-e7ea-407f-bca4-16c04040751c"><path class="uuid-2a4305d2-6ca1-42b0-b3b2-1962dca477a8" d="M-197.83,178.06S-33.98,115.49,298.25,109.13c157.49-3.01,331.71,42.6,660.91,33.19,204.5-5.84,222.28-19.59,283.37-38.89,61.1-19.3,83.26-32.17,83.26-32.17l-3.73,167.41s-35.67,33.55-306.95,33.55c-399.66,0-381.69-90.25-764.13-111.5-98.42-5.47-448.8,17.34-448.8,17.34Z"/><path class="uuid-9e90a888-a861-4368-a9e3-7a21f83e1ccd" d="M-61.07,174.51s147.83-66.87,501.72-62.38c296.69,3.77,381.28,65.66,620.63,45.01,186.36-16.07,280.96-88.21,265.41-71.76l.9,73.78s-75.76,73.34-233.93,76.42c-233.02,4.54-308.91-16.34-543.71-47.49-248.4-32.95-611-13.59-611-13.59Z"/><path class="uuid-1dd43384-e475-4107-908b-101eb1cde2f2" d="M-47.63,175.26s249.08-79.56,604.37-51.14c142.97,11.44,292.66,47.36,493.66,40.06,220.96-8.03,278.63-56.07,278.63-56.07l2.1,128.6c7.82-2-264.48,69.24-696.3-28.7C248.28,120.34-47.63,175.26-47.63,175.26Z"/><path class="uuid-79a91a3b-cdf2-4f1a-93b5-b2812358cb72" d="M394.53,165s76.63-16.44,172.8-17.07c96.17-.62,232.68,19.27,433.44,9.68,124.71-5.96,239.25-39.43,276.01-51.81,36.76-12.38,49.92-20.42,49.92-20.42l1.06,55.21s-169.25,47.64-334.92,50.87c-244.06,4.76-236.51-15.72-404.06-26.59-59.99-3.89-194.23.14-194.23.14Z"/></g></g></g></g></g></svg>