<?xml version="1.0" encoding="UTF-8"?><svg id="uuid-d49cb85a-b002-44a5-824a-85c47229eab4" xmlns="http://www.w3.org/2000/svg" xmlns:xlink="http://www.w3.org/1999/xlink" viewBox="0 0 1283.48 372.82"><defs><style>.uuid-f29c09ff-46f6-45b3-b536-80c2d9e25324{fill:none;}.uuid-7610d4d3-36fe-4182-a2ad-34d84d1a499a{fill:url(#uuid-7b2bd0d3-d8f4-4a95-b4af-ba85aee69b8c);}.uuid-a4c958a1-65ac-4ddf-b4a8-69c591fdc8c1{fill:url(#uuid-066f3a9d-fe43-4472-a98e-d1b1fa17431c);}.uuid-40d1ad0b-f0e6-4c90-8da1-010cfca9575b{clip-path:url(#uuid-4fd6d0ae-aceb-4dd9-b297-4f04fb5b1398);}.uuid-d77204d3-7b69-4a88-90f5-a40e2ec4c810{fill:#fff;}.uuid-edbabcc9-4696-4117-8f1a-e68b871dfbef{fill:url(#uuid-654908a0-4d32-4295-9e80-3f5bf58169f7);}</style><clipPath id="uuid-4fd6d0ae-aceb-4dd9-b297-4f04fb5b1398"><rect class="uuid-f29c09ff-46f6-45b3-b536-80c2d9e25324" width="1283.48" height="372.82"/></clipPath><linearGradient id="uuid-066f3a9d-fe43-4472-a98e-d1b1fa17431c" x1="1336.21" y1="123.71" x2="-194.58" y2="252.22" gradientTransform="translate(4.01 58.04) rotate(.63) scale(1 .7)" gradientUnits="userSpaceOnUse"><stop offset="0" stop-color="#575756"/><stop offset=".72" stop-color="#cdcdcd"/><stop offset=".83" stop-color="#dfdfdf"/><stop offset=".98" stop-color="#fff"/></linearGradient><linearGradient id="uuid-654908a0-4d32-4295-9e80-3f5bf58169f7" x1="322.09" y1="19.03" x2="910.19" y2="-569.08" gradientTransform="translate(79.96 542.9) rotate(-7.55)" gradientUnits="userSpaceOnUse"><stop offset="0" stop-color="#fff381"/><stop offset=".17" stop-color="#fff27d"/><stop offset=".31" stop-color="#ffee73"/><stop offset=".44" stop-color="#ffe961"/><stop offset=".57" stop-color="#ffe248"/><stop offset=".69" stop-color="#ffd828"/><stop offset=".81" stop-color="#ffcd01"/><stop offset=".82" stop-color="#ffcd00"/></linearGradient><linearGradient id="uuid-7b2bd0d3-d8f4-4a95-b4af-ba85aee69b8c" x1="1339.37" y1="90.65" x2="405.85" y2="90.65" gradientTransform="translate(-13.22 70.4) rotate(-1.11)" gradientUnits="userSpaceOnUse"><stop offset="0" stop-color="#ffe608"/><stop offset=".3" stop-color="#fcd204"/><stop offset=".68" stop-color="#fabf01"/><stop offset=".95" stop-color="#fab900"/></linearGradient></defs><g id="uuid-40644382-c50c-4773-a40f-4b886f0011fe"><g class="uuid-40d1ad0b-f0e6-4c90-8da1-010cfca9575b"><polygon class="uuid-d77204d3-7b69-4a88-90f5-a40e2ec4c810" points="-107.25 162.69 458.53 135.59 981.96 228.76 1327.74 140.59 1339.38 408.32 -83.53 413.4 -107.25 162.69"/><polygon points="-36.1 -76.15 1368.17 -82.93 1359.7 176.25 841.36 215.21 334.87 133.9 -64.9 161 -36.1 -76.15"/><path class="uuid-a4c958a1-65ac-4ddf-b4a8-69c591fdc8c1" d="M-197.83,178.06S-33.98,115.49,298.25,109.13c157.49-3.01,331.71,42.6,660.91,33.19,204.5-5.84,222.28-19.59,283.37-38.89,61.1-19.3,83.26-32.17,83.26-32.17l-3.73,167.41s-35.67,33.55-306.95,33.55c-399.66,0-381.69-90.25-764.13-111.5-98.42-5.47-448.8,17.34-448.8,17.34Z"/><path class="uuid-d77204d3-7b69-4a88-90f5-a40e2ec4c810" d="M-61.07,174.51s147.83-66.87,501.72-62.38c296.69,3.77,381.28,65.66,620.63,45.01,186.36-16.07,280.96-88.21,265.41-71.76l.9,73.78s-75.76,73.34-233.93,76.42c-233.02,4.54-308.91-16.34-543.71-47.49-248.4-32.95-611-13.59-611-13.59Z"/><path class="uuid-edbabcc9-4696-4117-8f1a-e68b871dfbef" d="M-47.63,175.26s249.08-79.56,604.37-51.14c142.97,11.44,292.66,47.36,493.66,40.06,220.96-8.03,278.63-56.07,278.63-56.07l2.1,128.6c7.82-2-264.48,69.24-696.3-28.7C248.28,120.34-47.63,175.26-47.63,175.26Z"/><path class="uuid-7610d4d3-36fe-4182-a2ad-34d84d1a499a" d="M394.53,165s76.63-16.44,172.8-17.07c96.17-.62,232.68,19.27,433.44,9.68,124.71-5.96,239.25-39.43,276.01-51.81,36.76-12.38,49.92-20.42,49.92-20.42l1.06,55.21s-169.25,47.64-334.92,50.87c-244.06,4.76-236.51-15.72-404.06-26.59-59.99-3.89-194.23.14-194.23.14Z"/></g></g></svg>