<?xml version="1.0" encoding="UTF-8"?><svg xmlns="http://www.w3.org/2000/svg" xmlns:xlink="http://www.w3.org/1999/xlink" viewBox="0 0 1280.48 242.85"><defs><style>.uuid-1530667f-b928-4af7-bb61-acc9e8b31da1{fill:none;}.uuid-d982d3d0-43bb-4e46-a4c9-e9489e76a31d{fill:url(#uuid-423949a7-8ded-432d-8fa5-02c46729bf38);}.uuid-99ba1ebc-780c-4f10-a454-e369b9cc8c50{fill:#ffcb00;}.uuid-0f7a9245-8c84-4495-8c1f-a1a359b27134{isolation:isolate;}.uuid-2a701902-0f30-4ca4-b3dc-426645b977c8{clip-path:url(#uuid-ba6163e7-c4c9-4f0f-895f-812208ad9c75);}.uuid-bb92ca75-0e4d-4715-8fd4-9fc63af636ab{fill:url(#uuid-3fdbf50f-e93a-4f30-a2a0-3049d85f5011);}.uuid-14f2dbc2-c10f-487b-b84b-3612677c6102{mix-blend-mode:overlay;}.uuid-7a9ddc64-6e83-4b3f-84a0-3618d2a2e08a{fill:url(#uuid-5c578cef-0f06-4cb0-8739-3599e4d9ec6b);}</style><clipPath id="uuid-ba6163e7-c4c9-4f0f-895f-812208ad9c75"><rect class="uuid-1530667f-b928-4af7-bb61-acc9e8b31da1" width="1280.48" height="242.85"/></clipPath><linearGradient id="uuid-5c578cef-0f06-4cb0-8739-3599e4d9ec6b" x1="-2991.35" y1="-2200.94" x2="-2684.5" y2="-2639.16" gradientTransform="translate(5153.39 2968.03) rotate(-22.97) scale(1.06 1.81)" gradientUnits="userSpaceOnUse"><stop offset="0" stop-color="#ffe608"/><stop offset=".3" stop-color="#fcd204"/><stop offset=".68" stop-color="#fabf01"/><stop offset=".95" stop-color="#fab900"/></linearGradient><linearGradient id="uuid-423949a7-8ded-432d-8fa5-02c46729bf38" x1="-2860" y1="-2388.41" x2="-2846.98" y2="-2444.18" gradientTransform="translate(5153.39 2968.03) rotate(-22.97) scale(1.06 1.81)" gradientUnits="userSpaceOnUse"><stop offset="0" stop-color="#fff381"/><stop offset=".17" stop-color="#fff27d"/><stop offset=".31" stop-color="#ffee73"/><stop offset=".44" stop-color="#ffe961"/><stop offset=".57" stop-color="#ffe248"/><stop offset=".69" stop-color="#ffd828"/><stop offset=".81" stop-color="#ffcd01"/><stop offset=".82" stop-color="#ffcd00"/></linearGradient><linearGradient id="uuid-3fdbf50f-e93a-4f30-a2a0-3049d85f5011" x1="-3530.1" y1="-2424.56" x2="-2185.21" y2="-2424.56" gradientTransform="translate(5153.39 2968.03) rotate(-22.97) scale(1.06 1.81)" gradientUnits="userSpaceOnUse"><stop offset=".63" stop-color="#cdcdcd"/><stop offset=".67" stop-color="#b7b7b7"/><stop offset=".76" stop-color="#8d8d8d"/><stop offset=".83" stop-color="#6f6f6f"/><stop offset=".9" stop-color="#5d5d5c"/><stop offset=".95" stop-color="#575756"/></linearGradient></defs><g class="uuid-0f7a9245-8c84-4495-8c1f-a1a359b27134"><g id="uuid-4c4ff52f-61df-446d-9a11-ace9b7a58629"><g id="uuid-d686f68f-52c7-4808-9ec0-ccb58bfe61bb"><g class="uuid-2a701902-0f30-4ca4-b3dc-426645b977c8"><polygon class="uuid-99ba1ebc-780c-4f10-a454-e369b9cc8c50" points="1821.84 599.7 -102.62 599.7 -66.34 162.68 1821.84 126.4 1821.84 599.7"/><path class="uuid-7a9ddc64-6e83-4b3f-84a0-3618d2a2e08a" d="M1472.43,132.24l-120.54-96.11S666.32,166.08-32.3,145.55c-41.34-1.21-81.54-7.76-81.54-7.76,0,0,67.98,22.1,180.56,31.64,596.63,50.6,1405.72-37.19,1405.72-37.19Z"/><path class="uuid-d982d3d0-43bb-4e46-a4c9-e9489e76a31d" d="M1363.63,47s-136.14,23.09-498.42,66.17C502.92,156.24-13.98,163.49-113.84,137.79l11.19,8.84s305.85,62.09,1072.31,8.8c235.47-16.37,474.39-43.27,474.39-43.27l-80.42-65.16Z"/><path class="uuid-bb92ca75-0e4d-4715-8fd4-9fc63af636ab" d="M-106.53,143.49c201.4,28.44,633.87,7.48,948.27-16.63,170.25-13.06,540.65-62.95,540.65-62.95l37.49,29.25s-230.53,27.28-618.98,55.58c-662.11,48.25-906.2-4.17-906.2-4.17l-1.24-1.07Z"/><g class="uuid-14f2dbc2-c10f-487b-b84b-3612677c6102"><path class="uuid-7a9ddc64-6e83-4b3f-84a0-3618d2a2e08a" d="M1472.43,132.24l-120.54-96.11S666.32,166.08-32.3,145.55c-41.34-1.21-81.54-7.76-81.54-7.76,0,0,67.98,22.1,180.56,31.64,596.63,50.6,1405.72-37.19,1405.72-37.19Z"/><path class="uuid-d982d3d0-43bb-4e46-a4c9-e9489e76a31d" d="M1363.63,47s-136.14,23.09-498.42,66.17C502.92,156.24-13.98,163.49-113.84,137.79l11.19,8.84s305.85,62.09,1072.31,8.8c235.47-16.37,474.39-43.27,474.39-43.27l-80.42-65.16Z"/><path class="uuid-bb92ca75-0e4d-4715-8fd4-9fc63af636ab" d="M-106.53,143.49c201.4,28.44,633.87,7.48,948.27-16.63,170.25-13.06,540.65-62.95,540.65-62.95l37.49,29.25s-230.53,27.28-618.98,55.58c-662.11,48.25-906.2-4.17-906.2-4.17l-1.24-1.07Z"/></g><g class="uuid-14f2dbc2-c10f-487b-b84b-3612677c6102"><path class="uuid-7a9ddc64-6e83-4b3f-84a0-3618d2a2e08a" d="M1472.43,132.24l-120.54-96.11S666.32,166.08-32.3,145.55c-41.34-1.21-81.54-7.76-81.54-7.76,0,0,67.98,22.1,180.56,31.64,596.63,50.6,1405.72-37.19,1405.72-37.19Z"/><path class="uuid-d982d3d0-43bb-4e46-a4c9-e9489e76a31d" d="M1363.63,47s-136.14,23.09-498.42,66.17C502.92,156.24-13.98,163.49-113.84,137.79l11.19,8.84s305.85,62.09,1072.31,8.8c235.47-16.37,474.39-43.27,474.39-43.27l-80.42-65.16Z"/><path class="uuid-bb92ca75-0e4d-4715-8fd4-9fc63af636ab" d="M-106.53,143.49c201.4,28.44,633.87,7.48,948.27-16.63,170.25-13.06,540.65-62.95,540.65-62.95l37.49,29.25s-230.53,27.28-618.98,55.58c-662.11,48.25-906.2-4.17-906.2-4.17l-1.24-1.07Z"/></g><g class="uuid-14f2dbc2-c10f-487b-b84b-3612677c6102"><path class="uuid-7a9ddc64-6e83-4b3f-84a0-3618d2a2e08a" d="M1472.43,132.24l-120.54-96.11S666.32,166.08-32.3,145.55c-41.34-1.21-81.54-7.76-81.54-7.76,0,0,67.98,22.1,180.56,31.64,596.63,50.6,1405.72-37.19,1405.72-37.19Z"/><path class="uuid-d982d3d0-43bb-4e46-a4c9-e9489e76a31d" d="M1363.63,47s-136.14,23.09-498.42,66.17C502.92,156.24-13.98,163.49-113.84,137.79l11.19,8.84s305.85,62.09,1072.31,8.8c235.47-16.37,474.39-43.27,474.39-43.27l-80.42-65.16Z"/><path class="uuid-bb92ca75-0e4d-4715-8fd4-9fc63af636ab" d="M-106.53,143.49c201.4,28.44,633.87,7.48,948.27-16.63,170.25-13.06,540.65-62.95,540.65-62.95l37.49,29.25s-230.53,27.28-618.98,55.58c-662.11,48.25-906.2-4.17-906.2-4.17l-1.24-1.07Z"/></g><g class="uuid-14f2dbc2-c10f-487b-b84b-3612677c6102"><path class="uuid-7a9ddc64-6e83-4b3f-84a0-3618d2a2e08a" d="M1472.43,132.24l-120.54-96.11S666.32,166.08-32.3,145.55c-41.34-1.21-81.54-7.76-81.54-7.76,0,0,67.98,22.1,180.56,31.64,596.63,50.6,1405.72-37.19,1405.72-37.19Z"/><path class="uuid-d982d3d0-43bb-4e46-a4c9-e9489e76a31d" d="M1363.63,47s-136.14,23.09-498.42,66.17C502.92,156.24-13.98,163.49-113.84,137.79l11.19,8.84s305.85,62.09,1072.31,8.8c235.47-16.37,474.39-43.27,474.39-43.27l-80.42-65.16Z"/><path class="uuid-bb92ca75-0e4d-4715-8fd4-9fc63af636ab" d="M-106.53,143.49c201.4,28.44,633.87,7.48,948.27-16.63,170.25-13.06,540.65-62.95,540.65-62.95l37.49,29.25s-230.53,27.28-618.98,55.58c-662.11,48.25-906.2-4.17-906.2-4.17l-1.24-1.07Z"/></g><g class="uuid-14f2dbc2-c10f-487b-b84b-3612677c6102"><path class="uuid-7a9ddc64-6e83-4b3f-84a0-3618d2a2e08a" d="M1472.43,132.24l-120.54-96.11S666.32,166.08-32.3,145.55c-41.34-1.21-81.54-7.76-81.54-7.76,0,0,67.98,22.1,180.56,31.64,596.63,50.6,1405.72-37.19,1405.72-37.19Z"/><path class="uuid-d982d3d0-43bb-4e46-a4c9-e9489e76a31d" d="M1363.63,47s-136.14,23.09-498.42,66.17C502.92,156.24-13.98,163.49-113.84,137.79l11.19,8.84s305.85,62.09,1072.31,8.8c235.47-16.37,474.39-43.27,474.39-43.27l-80.42-65.16Z"/><path class="uuid-bb92ca75-0e4d-4715-8fd4-9fc63af636ab" d="M-106.53,143.49c201.4,28.44,633.87,7.48,948.27-16.63,170.25-13.06,540.65-62.95,540.65-62.95l37.49,29.25s-230.53,27.28-618.98,55.58c-662.11,48.25-906.2-4.17-906.2-4.17l-1.24-1.07Z"/></g></g></g></g></g></svg>