<?xml version="1.0" encoding="UTF-8"?><svg xmlns="http://www.w3.org/2000/svg" xmlns:xlink="http://www.w3.org/1999/xlink" viewBox="0 0 1268.44 309.32"><defs><style>.uuid-0139eee6-6303-4665-84da-7881e852c749{fill:none;}.uuid-e796b930-caa5-4007-8cc5-a5856b69cb5d{clip-path:url(#uuid-e09b1352-221e-4209-9d0e-04894afb3e2e);}.uuid-1d0d07a2-0ae8-4084-a509-36590a29ba65{clip-path:url(#uuid-cd235ea7-72ec-4f59-b766-4af90a645971);}.uuid-ffd36711-ff57-4a5d-a7dd-502e746cfedb{fill:url(#uuid-7c7837d9-5e05-4421-b92b-7d793945b6fc);}.uuid-c5033e99-58b8-4f53-853a-7bdf7281e4c1{clip-path:url(#uuid-07265694-fee4-4108-b36c-2342f499bfbc);}.uuid-619bd45f-a35c-47cd-bc27-4e91999b1571{clip-path:url(#uuid-ae213ff0-ce80-4e0b-b52f-6c2fe653549b);}.uuid-89107acf-624d-489f-877c-ed23bc76f7bc{clip-path:url(#uuid-fef697d6-10c9-4605-99b7-c777b39a11fc);}.uuid-34ee7879-f8fe-4df8-b8e6-ccc2d4f3b350{isolation:isolate;}.uuid-bdc65c3e-43e3-48b2-925f-2777095604f6{fill:#fff;}.uuid-e3a55207-23a7-45dc-a1f4-39b315e94ef3{clip-path:url(#uuid-52a5b3d6-aeca-4ccf-89bb-5ebe6a8eb5d8);}.uuid-5588a510-dafd-46ed-8416-544b827f9698{mix-blend-mode:overlay;}.uuid-15adb96f-31ff-4ad9-848d-302ffa0cd247{clip-path:url(#uuid-9c6bc08d-11ba-4f3f-a330-4f600d196ed8);}.uuid-40c8e401-6bf8-43be-90d2-e93bdc110acd{fill:url(#uuid-7b1f8e26-5d3f-4dad-984a-2fdd69855013);}.uuid-e27aa3b2-13bc-49a9-892b-39010395597a{clip-path:url(#uuid-47af8199-daaa-4e34-87c9-e1c604c95b60);}.uuid-1c9f64e5-03cd-4090-b675-d8f6740379a4{clip-path:url(#uuid-6b4743f9-1f0b-41c9-b1cf-88199051120d);}.uuid-5fe3f5a7-b5a1-4249-ace2-6b1e24a1e6dd{clip-path:url(#uuid-42638f7d-f7d3-4648-a92c-f4aee0d47d82);}.uuid-10635784-4de9-46c2-8051-c2841c25bf37{fill:url(#uuid-9a32d146-e62d-473c-9fbe-399c468c7c3e);}.uuid-7dd00ff6-b1f0-4613-890a-c3913385ce3d{clip-path:url(#uuid-b5425c4e-7011-4030-aaac-cb3129bf4707);}</style><clipPath id="uuid-b5425c4e-7011-4030-aaac-cb3129bf4707"><rect class="uuid-0139eee6-6303-4665-84da-7881e852c749" width="1268.44" height="309.32"/></clipPath><clipPath id="uuid-47af8199-daaa-4e34-87c9-e1c604c95b60"><rect class="uuid-0139eee6-6303-4665-84da-7881e852c749" x="-7.38" y="50.61" width="1283.53" height="227.48"/></clipPath><clipPath id="uuid-07265694-fee4-4108-b36c-2342f499bfbc"><polygon class="uuid-0139eee6-6303-4665-84da-7881e852c749" points="-1.3 259.67 1289.51 200.1 1278.37 96.66 -6.09 117.19 -1.3 259.67"/></clipPath><linearGradient id="uuid-9a32d146-e62d-473c-9fbe-399c468c7c3e" x1="2062.28" y1="282.71" x2="2427.8" y2="-239.32" gradientTransform="translate(-2197.74 329.56) rotate(-4.48) scale(1.24 1.48)" gradientUnits="userSpaceOnUse"><stop offset="0" stop-color="#ffe608"/><stop offset=".3" stop-color="#fcd204"/><stop offset=".68" stop-color="#fabf01"/><stop offset=".95" stop-color="#fab900"/></linearGradient><linearGradient id="uuid-7b1f8e26-5d3f-4dad-984a-2fdd69855013" x1="2206.05" y1="139.11" x2="2250.66" y2="-51.89" gradientTransform="translate(-2197.74 329.56) rotate(-4.48) scale(1.24 1.48)" gradientUnits="userSpaceOnUse"><stop offset="0" stop-color="#fff381"/><stop offset=".17" stop-color="#fff27d"/><stop offset=".31" stop-color="#ffee73"/><stop offset=".44" stop-color="#ffe961"/><stop offset=".57" stop-color="#ffe248"/><stop offset=".69" stop-color="#ffd828"/><stop offset=".81" stop-color="#ffcd01"/><stop offset=".82" stop-color="#ffcd00"/></linearGradient><linearGradient id="uuid-7c7837d9-5e05-4421-b92b-7d793945b6fc" x1="1660.08" y1="32.56" x2="2816.92" y2="32.56" gradientTransform="translate(-2197.74 329.56) rotate(-4.48) scale(1.24 1.48)" gradientUnits="userSpaceOnUse"><stop offset=".63" stop-color="#cdcdcd"/><stop offset=".67" stop-color="#b7b7b7"/><stop offset=".76" stop-color="#8d8d8d"/><stop offset=".83" stop-color="#6f6f6f"/><stop offset=".9" stop-color="#5d5d5c"/><stop offset=".95" stop-color="#575756"/></linearGradient><clipPath id="uuid-52a5b3d6-aeca-4ccf-89bb-5ebe6a8eb5d8"><rect class="uuid-0139eee6-6303-4665-84da-7881e852c749" x="-7.38" y="50.61" width="1283.53" height="227.48"/></clipPath><clipPath id="uuid-cd235ea7-72ec-4f59-b766-4af90a645971"><polygon class="uuid-0139eee6-6303-4665-84da-7881e852c749" points="-1.3 259.67 1289.51 200.1 1278.37 96.66 -6.09 117.19 -1.3 259.67"/></clipPath><clipPath id="uuid-ae213ff0-ce80-4e0b-b52f-6c2fe653549b"><rect class="uuid-0139eee6-6303-4665-84da-7881e852c749" x="-7.38" y="50.61" width="1283.53" height="227.48"/></clipPath><clipPath id="uuid-e09b1352-221e-4209-9d0e-04894afb3e2e"><polygon class="uuid-0139eee6-6303-4665-84da-7881e852c749" points="-1.3 259.67 1289.51 200.1 1278.37 96.66 -6.09 117.19 -1.3 259.67"/></clipPath><clipPath id="uuid-42638f7d-f7d3-4648-a92c-f4aee0d47d82"><rect class="uuid-0139eee6-6303-4665-84da-7881e852c749" x="-7.38" y="50.61" width="1283.53" height="227.48"/></clipPath><clipPath id="uuid-9c6bc08d-11ba-4f3f-a330-4f600d196ed8"><polygon class="uuid-0139eee6-6303-4665-84da-7881e852c749" points="-1.3 259.67 1289.51 200.1 1278.37 96.66 -6.09 117.19 -1.3 259.67"/></clipPath><clipPath id="uuid-6b4743f9-1f0b-41c9-b1cf-88199051120d"><rect class="uuid-0139eee6-6303-4665-84da-7881e852c749" x="-7.38" y="50.61" width="1283.53" height="227.48"/></clipPath><clipPath id="uuid-fef697d6-10c9-4605-99b7-c777b39a11fc"><polygon class="uuid-0139eee6-6303-4665-84da-7881e852c749" points="-1.3 259.67 1289.51 200.1 1278.37 96.66 -6.09 117.19 -1.3 259.67"/></clipPath></defs><g class="uuid-34ee7879-f8fe-4df8-b8e6-ccc2d4f3b350"><g id="uuid-71974efe-3d9a-4c51-a9ae-cf1caaa59eeb"><g id="uuid-20493e62-1304-4184-8efa-9a42ce414e0f"><g class="uuid-7dd00ff6-b1f0-4613-890a-c3913385ce3d"><rect class="uuid-bdc65c3e-43e3-48b2-925f-2777095604f6" x="-162.23" y="170.31" width="2089.67" height="468.84"/><g class="uuid-e27aa3b2-13bc-49a9-892b-39010395597a"><g class="uuid-c5033e99-58b8-4f53-853a-7bdf7281e4c1"><path class="uuid-10635784-4de9-46c2-8051-c2841c25bf37" d="M1300.1,195.08l-1.31-85.63c-.02.49-777.94,100.51-1395.92,54.99-36.46-2.69-66.06-8.92-66.06-8.92,0,0,36.59,17.77,129.12,29.09,490.4,59.98,1334.16,10.47,1334.16,10.47Z"/><path class="uuid-40c8e401-6bf8-43be-90d2-e93bdc110acd" d="M1297.23,119.69s-151.33,15.96-533.12,42.71c-381.79,26.75-864.81,18.52-927.28-6.27l.2,3.35s210.25,66.22,974.9,42.01c234.91-7.44,484.98-23.79,484.98-23.79l.31-58.02Z"/><path class="uuid-ffd36711-ff57-4a5d-a7dd-502e746cfedb" d="M-117.48,163.94c152.61,29.97,528.21,20.77,844.42,8.92,171.24-6.42,568.25-38.78,568.25-38.78l1.14,26.08s-242.79,16.91-631.79,30.29C1.47,213.25-143.44,161-143.44,161l25.97,2.93Z"/></g></g><g class="uuid-5588a510-dafd-46ed-8416-544b827f9698"><g class="uuid-e3a55207-23a7-45dc-a1f4-39b315e94ef3"><g class="uuid-1d0d07a2-0ae8-4084-a509-36590a29ba65"><path class="uuid-10635784-4de9-46c2-8051-c2841c25bf37" d="M1300.1,195.08l-1.31-85.63c-.02.49-777.94,100.51-1395.92,54.99-36.46-2.69-66.06-8.92-66.06-8.92,0,0,36.59,17.77,129.12,29.09,490.4,59.98,1334.16,10.47,1334.16,10.47Z"/><path class="uuid-40c8e401-6bf8-43be-90d2-e93bdc110acd" d="M1297.23,119.69s-151.33,15.96-533.12,42.71c-381.79,26.75-864.81,18.52-927.28-6.27l.2,3.35s210.25,66.22,974.9,42.01c234.91-7.44,484.98-23.79,484.98-23.79l.31-58.02Z"/><path class="uuid-ffd36711-ff57-4a5d-a7dd-502e746cfedb" d="M-117.48,163.94c152.61,29.97,528.21,20.77,844.42,8.92,171.24-6.42,568.25-38.78,568.25-38.78l1.14,26.08s-242.79,16.91-631.79,30.29C1.47,213.25-143.44,161-143.44,161l25.97,2.93Z"/></g></g></g><g class="uuid-5588a510-dafd-46ed-8416-544b827f9698"><g class="uuid-619bd45f-a35c-47cd-bc27-4e91999b1571"><g class="uuid-e796b930-caa5-4007-8cc5-a5856b69cb5d"><path class="uuid-10635784-4de9-46c2-8051-c2841c25bf37" d="M1300.1,195.08l-1.31-85.63c-.02.49-777.94,100.51-1395.92,54.99-36.46-2.69-66.06-8.92-66.06-8.92,0,0,36.59,17.77,129.12,29.09,490.4,59.98,1334.16,10.47,1334.16,10.47Z"/><path class="uuid-40c8e401-6bf8-43be-90d2-e93bdc110acd" d="M1297.23,119.69s-151.33,15.96-533.12,42.71c-381.79,26.75-864.81,18.52-927.28-6.27l.2,3.35s210.25,66.22,974.9,42.01c234.91-7.44,484.98-23.79,484.98-23.79l.31-58.02Z"/><path class="uuid-ffd36711-ff57-4a5d-a7dd-502e746cfedb" d="M-117.48,163.94c152.61,29.97,528.21,20.77,844.42,8.92,171.24-6.42,568.25-38.78,568.25-38.78l1.14,26.08s-242.79,16.91-631.79,30.29C1.47,213.25-143.44,161-143.44,161l25.97,2.93Z"/></g></g></g><g class="uuid-5588a510-dafd-46ed-8416-544b827f9698"><g class="uuid-5fe3f5a7-b5a1-4249-ace2-6b1e24a1e6dd"><g class="uuid-15adb96f-31ff-4ad9-848d-302ffa0cd247"><path class="uuid-10635784-4de9-46c2-8051-c2841c25bf37" d="M1300.1,195.08l-1.31-85.63c-.02.49-777.94,100.51-1395.92,54.99-36.46-2.69-66.06-8.92-66.06-8.92,0,0,36.59,17.77,129.12,29.09,490.4,59.98,1334.16,10.47,1334.16,10.47Z"/><path class="uuid-40c8e401-6bf8-43be-90d2-e93bdc110acd" d="M1297.23,119.69s-151.33,15.96-533.12,42.71c-381.79,26.75-864.81,18.52-927.28-6.27l.2,3.35s210.25,66.22,974.9,42.01c234.91-7.44,484.98-23.79,484.98-23.79l.31-58.02Z"/><path class="uuid-ffd36711-ff57-4a5d-a7dd-502e746cfedb" d="M-117.48,163.94c152.61,29.97,528.21,20.77,844.42,8.92,171.24-6.42,568.25-38.78,568.25-38.78l1.14,26.08s-242.79,16.91-631.79,30.29C1.47,213.25-143.44,161-143.44,161l25.97,2.93Z"/></g></g></g><g class="uuid-5588a510-dafd-46ed-8416-544b827f9698"><g class="uuid-1c9f64e5-03cd-4090-b675-d8f6740379a4"><g class="uuid-89107acf-624d-489f-877c-ed23bc76f7bc"><path class="uuid-10635784-4de9-46c2-8051-c2841c25bf37" d="M1300.1,195.08l-1.31-85.63c-.02.49-777.94,100.51-1395.92,54.99-36.46-2.69-66.06-8.92-66.06-8.92,0,0,36.59,17.77,129.12,29.09,490.4,59.98,1334.16,10.47,1334.16,10.47Z"/><path class="uuid-40c8e401-6bf8-43be-90d2-e93bdc110acd" d="M1297.23,119.69s-151.33,15.96-533.12,42.71c-381.79,26.75-864.81,18.52-927.28-6.27l.2,3.35s210.25,66.22,974.9,42.01c234.91-7.44,484.98-23.79,484.98-23.79l.31-58.02Z"/><path class="uuid-ffd36711-ff57-4a5d-a7dd-502e746cfedb" d="M-117.48,163.94c152.61,29.97,528.21,20.77,844.42,8.92,171.24-6.42,568.25-38.78,568.25-38.78l1.14,26.08s-242.79,16.91-631.79,30.29C1.47,213.25-143.44,161-143.44,161l25.97,2.93Z"/></g></g></g></g></g></g></g></svg>