<?xml version="1.0" encoding="UTF-8"?><svg xmlns="http://www.w3.org/2000/svg" xmlns:xlink="http://www.w3.org/1999/xlink" viewBox="0 0 1271.79 251.45"><defs><style>.uuid-ac5051d7-a5c0-4876-a8fa-9065852a4de4{fill:none;}.uuid-ae02ec38-02fe-44b7-88b5-3b734ee7025a{clip-path:url(#uuid-2ffbb3ec-51d3-4b4f-81fb-badce4a9dea3);}.uuid-62c08a12-2383-4c3e-afd5-e2f6798c131b{clip-path:url(#uuid-2a74d6ba-a5f1-473f-9082-c71445b8a485);}.uuid-7ae571f5-3ef3-4083-afdc-5b2d6875d741{clip-path:url(#uuid-1d097890-d3b6-47bf-9e3b-c7aacdf16582);}.uuid-f271ade4-9dd4-445a-819a-60707316c5bc{clip-path:url(#uuid-b7d0ea61-fa8b-4c3a-9ad8-b9c419cf676a);}.uuid-a34e03b8-b78f-45ae-ab7c-83b54cef8116{fill:url(#uuid-a8d80538-d59a-4bdf-9ca9-2fc4e428ee0e);}.uuid-859b59f3-1c09-467b-90b1-0bdb04a47ef7{fill:url(#uuid-c5697d16-2797-4b09-9fd2-0845f39d3924);}.uuid-749774fa-9723-4cad-b983-22941114def9{isolation:isolate;}.uuid-6454b948-2a9c-4aa0-9edc-ba7f7e5d9e40{fill:url(#uuid-13f499a0-30a1-4333-b2aa-7a2d2104d350);}.uuid-b1ccc2c7-1e4c-4fd4-8854-9e2fe8e23efc{fill:url(#uuid-829273ae-59ac-4778-ae3c-70ed08b3cf46);}.uuid-191dd26f-63d9-4f20-9745-02c53dee8d70{clip-path:url(#uuid-c7bef725-bd20-4f61-a6af-d8fc89737ecc);}.uuid-0d4b5d2d-e44c-4e8d-894d-1197d7696114{mix-blend-mode:overlay;}.uuid-3fcaafb6-3688-4f37-8888-8c88cdb4ef11{fill:url(#uuid-03d051b2-3f39-41b2-83ac-7b4422713937);}.uuid-005fdb14-aa26-43fb-85ff-cd966d84e137{fill:url(#uuid-5bc62579-c360-42d2-a43e-70cdea009902);}.uuid-59796579-a2b6-4086-aeff-09741a8c099e{clip-path:url(#uuid-4ba049e6-f744-40b0-85f1-9af41830d787);}.uuid-b948722f-d79d-4fb9-a79f-59a07d06bf70{fill:url(#uuid-60fb69f6-87e6-467c-913c-fd27e8da3c61);}.uuid-c953e7d4-8473-4931-b007-efd2473b903e{fill:url(#uuid-02f55395-3b7f-4cc7-a311-9981b7dc04f2);}.uuid-6593f870-04ac-4ed1-8c1e-2da5aa8cc1f1{clip-path:url(#uuid-fbcbb494-8f56-4d8f-b7e6-3e0a3ffbde07);}.uuid-c81eb660-e8fe-4ba9-89c3-293745a464c3{fill:url(#uuid-d820de01-d33d-46c8-82e1-0bf9588e218e);}</style><clipPath id="uuid-1d097890-d3b6-47bf-9e3b-c7aacdf16582"><rect class="uuid-ac5051d7-a5c0-4876-a8fa-9065852a4de4" width="1271.79" height="251.45"/></clipPath><clipPath id="uuid-fbcbb494-8f56-4d8f-b7e6-3e0a3ffbde07"><rect class="uuid-ac5051d7-a5c0-4876-a8fa-9065852a4de4" x="-6.52" y="-141.39" width="1279.06" height="398.5" transform="translate(1267.28 99.68) rotate(178.55)"/></clipPath><linearGradient id="uuid-13f499a0-30a1-4333-b2aa-7a2d2104d350" x1="-6008.46" y1="727.94" x2="-7555.41" y2="727.94" gradientTransform="translate(-6526.34 820.24) rotate(168.63) scale(1.04 -.96) skewX(-11.69)" gradientUnits="userSpaceOnUse"><stop offset="0" stop-color="#fff"/><stop offset=".05" stop-color="#fffefb"/><stop offset=".1" stop-color="#fffdf1"/><stop offset=".14" stop-color="#fffbdf"/><stop offset=".18" stop-color="#fff8c6"/><stop offset=".22" stop-color="#fff5a6"/><stop offset=".26" stop-color="#fff07f"/><stop offset=".27" stop-color="#fff079"/><stop offset=".35" stop-color="#ffee73"/><stop offset=".46" stop-color="#ffea64"/><stop offset=".57" stop-color="#ffe24c"/><stop offset=".7" stop-color="#ffd929"/><stop offset=".82" stop-color="#ffcd00"/></linearGradient><linearGradient id="uuid-829273ae-59ac-4778-ae3c-70ed08b3cf46" x1="-2593.41" y1="-3550.09" x2="-3221.62" y2="-3181.75" gradientTransform="translate(-3863.79 2035.03) rotate(-161.91) scale(1.23 -1) skewX(.47)" xlink:href="#uuid-13f499a0-30a1-4333-b2aa-7a2d2104d350"/><linearGradient id="uuid-60fb69f6-87e6-467c-913c-fd27e8da3c61" x1="-3648.79" y1="-3320.52" x2="-2317.84" y2="-3320.52" gradientTransform="translate(-3863.79 2035.03) rotate(-161.91) scale(1.23 -1) skewX(.47)" gradientUnits="userSpaceOnUse"><stop offset="0" stop-color="#fff59f"/><stop offset=".05" stop-color="#feef8f"/><stop offset=".22" stop-color="#fcdb5c"/><stop offset=".37" stop-color="#fbcc34"/><stop offset=".52" stop-color="#fac117"/><stop offset=".64" stop-color="#fabb06"/><stop offset=".73" stop-color="#fab900"/><stop offset=".75" stop-color="#fabf01" stop-opacity=".91"/><stop offset=".81" stop-color="#face05" stop-opacity=".69"/><stop offset=".86" stop-color="#fbda08" stop-opacity=".52"/><stop offset=".91" stop-color="#fbe20b" stop-opacity=".4"/><stop offset=".95" stop-color="#fbe80c" stop-opacity=".33"/><stop offset=".97" stop-color="#fcea0d" stop-opacity=".3"/></linearGradient><linearGradient id="uuid-03d051b2-3f39-41b2-83ac-7b4422713937" x1="-6008.25" y1="730.65" x2="-7554.84" y2="730.65" gradientTransform="translate(-6526.34 820.24) rotate(168.63) scale(1.04 -.96) skewX(-11.69)" gradientUnits="userSpaceOnUse"><stop offset=".09" stop-color="#fff"/><stop offset=".1" stop-color="#f3f3f3"/><stop offset=".14" stop-color="#ddd"/><stop offset=".17" stop-color="#d1d1d1"/><stop offset=".2" stop-color="#cdcdcd"/><stop offset=".23" stop-color="#c2c2c2"/><stop offset=".31" stop-color="#a1a1a0"/><stop offset=".41" stop-color="#868685"/><stop offset=".51" stop-color="#717170"/><stop offset=".62" stop-color="#626261"/><stop offset=".75" stop-color="#595958"/><stop offset=".95" stop-color="#575756"/></linearGradient><clipPath id="uuid-c7bef725-bd20-4f61-a6af-d8fc89737ecc"><rect class="uuid-ac5051d7-a5c0-4876-a8fa-9065852a4de4" x="-6.52" y="-141.39" width="1279.06" height="398.5" transform="translate(1267.28 99.68) rotate(178.55)"/></clipPath><linearGradient id="uuid-a8d80538-d59a-4bdf-9ca9-2fc4e428ee0e" x1="-2593.41" y1="-3550.09" x2="-3221.62" y2="-3181.75" gradientTransform="translate(-3863.79 2035.03) rotate(-161.91) scale(1.23 -1) skewX(.47)" xlink:href="#uuid-13f499a0-30a1-4333-b2aa-7a2d2104d350"/><clipPath id="uuid-2a74d6ba-a5f1-473f-9082-c71445b8a485"><rect class="uuid-ac5051d7-a5c0-4876-a8fa-9065852a4de4" x="-6.52" y="-141.39" width="1279.06" height="398.5" transform="translate(1267.28 99.68) rotate(178.55)"/></clipPath><linearGradient id="uuid-c5697d16-2797-4b09-9fd2-0845f39d3924" x1="-2593.41" y1="-3550.09" x2="-3221.62" y2="-3181.75" gradientTransform="translate(-3863.79 2035.03) rotate(-161.91) scale(1.23 -1) skewX(.47)" xlink:href="#uuid-13f499a0-30a1-4333-b2aa-7a2d2104d350"/><clipPath id="uuid-2ffbb3ec-51d3-4b4f-81fb-badce4a9dea3"><rect class="uuid-ac5051d7-a5c0-4876-a8fa-9065852a4de4" x="-6.52" y="-141.39" width="1279.06" height="398.5" transform="translate(1267.28 99.68) rotate(178.55)"/></clipPath><linearGradient id="uuid-02f55395-3b7f-4cc7-a311-9981b7dc04f2" x1="-2593.41" y1="-3550.09" x2="-3221.62" y2="-3181.75" gradientTransform="translate(-3863.79 2035.03) rotate(-161.91) scale(1.23 -1) skewX(.47)" xlink:href="#uuid-13f499a0-30a1-4333-b2aa-7a2d2104d350"/><clipPath id="uuid-b7d0ea61-fa8b-4c3a-9ad8-b9c419cf676a"><rect class="uuid-ac5051d7-a5c0-4876-a8fa-9065852a4de4" x="-6.52" y="-141.39" width="1279.06" height="398.5" transform="translate(1267.28 99.68) rotate(178.55)"/></clipPath><linearGradient id="uuid-5bc62579-c360-42d2-a43e-70cdea009902" x1="-2593.41" y1="-3550.09" x2="-3221.62" y2="-3181.75" gradientTransform="translate(-3863.79 2035.03) rotate(-161.91) scale(1.23 -1) skewX(.47)" xlink:href="#uuid-13f499a0-30a1-4333-b2aa-7a2d2104d350"/><clipPath id="uuid-4ba049e6-f744-40b0-85f1-9af41830d787"><rect class="uuid-ac5051d7-a5c0-4876-a8fa-9065852a4de4" x="-6.52" y="-141.39" width="1279.06" height="398.5" transform="translate(1267.28 99.68) rotate(178.55)"/></clipPath><linearGradient id="uuid-d820de01-d33d-46c8-82e1-0bf9588e218e" x1="-2593.41" y1="-3550.09" x2="-3221.62" y2="-3181.75" gradientTransform="translate(-3863.79 2035.03) rotate(-161.91) scale(1.23 -1) skewX(.47)" xlink:href="#uuid-13f499a0-30a1-4333-b2aa-7a2d2104d350"/></defs><g class="uuid-749774fa-9723-4cad-b983-22941114def9"><g id="uuid-de94b61c-f56d-478d-87a7-5efe749b9500"><g id="uuid-456eb898-be75-4876-bb6d-d51f4783257d"><g class="uuid-7ae571f5-3ef3-4083-afdc-5b2d6875d741"><polygon points="1327.68 206.86 -5.16 204.78 -219.48 86.3 733.82 148.66 1316.52 96.69 1327.68 206.86"/><g class="uuid-6593f870-04ac-4ed1-8c1e-2da5aa8cc1f1"><path class="uuid-6454b948-2a9c-4aa0-9edc-ba7f7e5d9e40" d="M-151.65,77.23l22.07,39.97s198.85-16.21,735.46,65.68c506.9,77.36,942.92-164.46,942.92-164.46l-12.45-25.54s-565.97,214.67-955.34,160.16C388.71,126.12-151.65,77.23-151.65,77.23Z"/><path class="uuid-b1ccc2c7-1e4c-4fd4-8854-9e2fe8e23efc" d="M-156.44,69.54s199.11-22.45,833.28,53.59C1023.02,164.64,1466.24,13.4,1532.9-17.03l9.69,18.02s-411.79,211.72-924.14,158.29c-271.85-28.35-753.3-46.33-753.3-46.33l-21.58-43.4Z"/><path class="uuid-b948722f-d79d-4fb9-a79f-59a07d06bf70" d="M1552.46,16.72s-452.76,214-840.74,153.2C126.67,78.23-195.1,78-195.1,78c623.17-13.93,892.95,148.8,1374.02,25.87,245.58-62.75,356.38-122.35,356.38-122.35l17.16,35.2Z"/><path class="uuid-3fcaafb6-3688-4f37-8888-8c88cdb4ef11" d="M-133.65,115.84l-7.07-13.64s292.99-3.7,816.55,55.9C1074.58,203.49,1541.16,2.76,1541.16,2.76c0,0-476.42,230.26-910.11,173.11C81.83,103.49-133.65,115.84-133.65,115.84Z"/></g><g class="uuid-0d4b5d2d-e44c-4e8d-894d-1197d7696114"><g class="uuid-191dd26f-63d9-4f20-9745-02c53dee8d70"><path class="uuid-6454b948-2a9c-4aa0-9edc-ba7f7e5d9e40" d="M-151.65,77.23l22.07,39.97s198.85-16.21,735.46,65.68c506.9,77.36,942.92-164.46,942.92-164.46l-12.45-25.54s-565.97,214.67-955.34,160.16C388.71,126.12-151.65,77.23-151.65,77.23Z"/><path class="uuid-a34e03b8-b78f-45ae-ab7c-83b54cef8116" d="M-156.44,69.54s199.11-22.45,833.28,53.59C1023.02,164.64,1466.24,13.4,1532.9-17.03l9.69,18.02s-411.79,211.72-924.14,158.29c-271.85-28.35-753.3-46.33-753.3-46.33l-21.58-43.4Z"/><path class="uuid-b948722f-d79d-4fb9-a79f-59a07d06bf70" d="M1552.46,16.72s-452.76,214-840.74,153.2C126.67,78.23-195.1,78-195.1,78c623.17-13.93,892.95,148.8,1374.02,25.87,245.58-62.75,356.38-122.35,356.38-122.35l17.16,35.2Z"/><path class="uuid-3fcaafb6-3688-4f37-8888-8c88cdb4ef11" d="M-133.65,115.84l-7.07-13.64s292.99-3.7,816.55,55.9C1074.58,203.49,1541.16,2.76,1541.16,2.76c0,0-476.42,230.26-910.11,173.11C81.83,103.49-133.65,115.84-133.65,115.84Z"/></g></g><g class="uuid-0d4b5d2d-e44c-4e8d-894d-1197d7696114"><g class="uuid-62c08a12-2383-4c3e-afd5-e2f6798c131b"><path class="uuid-6454b948-2a9c-4aa0-9edc-ba7f7e5d9e40" d="M-151.65,77.23l22.07,39.97s198.85-16.21,735.46,65.68c506.9,77.36,942.92-164.46,942.92-164.46l-12.45-25.54s-565.97,214.67-955.34,160.16C388.71,126.12-151.65,77.23-151.65,77.23Z"/><path class="uuid-859b59f3-1c09-467b-90b1-0bdb04a47ef7" d="M-156.44,69.54s199.11-22.45,833.28,53.59C1023.02,164.64,1466.24,13.4,1532.9-17.03l9.69,18.02s-411.79,211.72-924.14,158.29c-271.85-28.35-753.3-46.33-753.3-46.33l-21.58-43.4Z"/><path class="uuid-b948722f-d79d-4fb9-a79f-59a07d06bf70" d="M1552.46,16.72s-452.76,214-840.74,153.2C126.67,78.23-195.1,78-195.1,78c623.17-13.93,892.95,148.8,1374.02,25.87,245.58-62.75,356.38-122.35,356.38-122.35l17.16,35.2Z"/><path class="uuid-3fcaafb6-3688-4f37-8888-8c88cdb4ef11" d="M-133.65,115.84l-7.07-13.64s292.99-3.7,816.55,55.9C1074.58,203.49,1541.16,2.76,1541.16,2.76c0,0-476.42,230.26-910.11,173.11C81.83,103.49-133.65,115.84-133.65,115.84Z"/></g></g><g class="uuid-0d4b5d2d-e44c-4e8d-894d-1197d7696114"><g class="uuid-ae02ec38-02fe-44b7-88b5-3b734ee7025a"><path class="uuid-6454b948-2a9c-4aa0-9edc-ba7f7e5d9e40" d="M-151.65,77.23l22.07,39.97s198.85-16.21,735.46,65.68c506.9,77.36,942.92-164.46,942.92-164.46l-12.45-25.54s-565.97,214.67-955.34,160.16C388.71,126.12-151.65,77.23-151.65,77.23Z"/><path class="uuid-c953e7d4-8473-4931-b007-efd2473b903e" d="M-156.44,69.54s199.11-22.45,833.28,53.59C1023.02,164.64,1466.24,13.4,1532.9-17.03l9.69,18.02s-411.79,211.72-924.14,158.29c-271.85-28.35-753.3-46.33-753.3-46.33l-21.58-43.4Z"/><path class="uuid-b948722f-d79d-4fb9-a79f-59a07d06bf70" d="M1552.46,16.72s-452.76,214-840.74,153.2C126.67,78.23-195.1,78-195.1,78c623.17-13.93,892.95,148.8,1374.02,25.87,245.58-62.75,356.38-122.35,356.38-122.35l17.16,35.2Z"/><path class="uuid-3fcaafb6-3688-4f37-8888-8c88cdb4ef11" d="M-133.65,115.84l-7.07-13.64s292.99-3.7,816.55,55.9C1074.58,203.49,1541.16,2.76,1541.16,2.76c0,0-476.42,230.26-910.11,173.11C81.83,103.49-133.65,115.84-133.65,115.84Z"/></g></g><g class="uuid-0d4b5d2d-e44c-4e8d-894d-1197d7696114"><g class="uuid-f271ade4-9dd4-445a-819a-60707316c5bc"><path class="uuid-6454b948-2a9c-4aa0-9edc-ba7f7e5d9e40" d="M-151.65,77.23l22.07,39.97s198.85-16.21,735.46,65.68c506.9,77.36,942.92-164.46,942.92-164.46l-12.45-25.54s-565.97,214.67-955.34,160.16C388.71,126.12-151.65,77.23-151.65,77.23Z"/><path class="uuid-005fdb14-aa26-43fb-85ff-cd966d84e137" d="M-156.44,69.54s199.11-22.45,833.28,53.59C1023.02,164.64,1466.24,13.4,1532.9-17.03l9.69,18.02s-411.79,211.72-924.14,158.29c-271.85-28.35-753.3-46.33-753.3-46.33l-21.58-43.4Z"/><path class="uuid-b948722f-d79d-4fb9-a79f-59a07d06bf70" d="M1552.46,16.72s-452.76,214-840.74,153.2C126.67,78.23-195.1,78-195.1,78c623.17-13.93,892.95,148.8,1374.02,25.87,245.58-62.75,356.38-122.35,356.38-122.35l17.16,35.2Z"/><path class="uuid-3fcaafb6-3688-4f37-8888-8c88cdb4ef11" d="M-133.65,115.84l-7.07-13.64s292.99-3.7,816.55,55.9C1074.58,203.49,1541.16,2.76,1541.16,2.76c0,0-476.42,230.26-910.11,173.11C81.83,103.49-133.65,115.84-133.65,115.84Z"/></g></g><g class="uuid-0d4b5d2d-e44c-4e8d-894d-1197d7696114"><g class="uuid-59796579-a2b6-4086-aeff-09741a8c099e"><path class="uuid-6454b948-2a9c-4aa0-9edc-ba7f7e5d9e40" d="M-151.65,77.23l22.07,39.97s198.85-16.21,735.46,65.68c506.9,77.36,942.92-164.46,942.92-164.46l-12.45-25.54s-565.97,214.67-955.34,160.16C388.71,126.12-151.65,77.23-151.65,77.23Z"/><path class="uuid-c81eb660-e8fe-4ba9-89c3-293745a464c3" d="M-156.44,69.54s199.11-22.45,833.28,53.59C1023.02,164.64,1466.24,13.4,1532.9-17.03l9.69,18.02s-411.79,211.72-924.14,158.29c-271.85-28.35-753.3-46.33-753.3-46.33l-21.58-43.4Z"/><path class="uuid-b948722f-d79d-4fb9-a79f-59a07d06bf70" d="M1552.46,16.72s-452.76,214-840.74,153.2C126.67,78.23-195.1,78-195.1,78c623.17-13.93,892.95,148.8,1374.02,25.87,245.58-62.75,356.38-122.35,356.38-122.35l17.16,35.2Z"/><path class="uuid-3fcaafb6-3688-4f37-8888-8c88cdb4ef11" d="M-133.65,115.84l-7.07-13.64s292.99-3.7,816.55,55.9C1074.58,203.49,1541.16,2.76,1541.16,2.76c0,0-476.42,230.26-910.11,173.11C81.83,103.49-133.65,115.84-133.65,115.84Z"/></g></g></g></g></g></g></svg>