<?xml version="1.0" encoding="UTF-8"?><svg id="uuid-bddf9995-661b-4945-a440-f37584a9d386" xmlns="http://www.w3.org/2000/svg" xmlns:xlink="http://www.w3.org/1999/xlink" viewBox="0 0 1271.79 251.45"><defs><style>.uuid-fc00767f-1e54-45c4-a9b4-097dc9326bbf{fill:none;}.uuid-84e5aa19-e9be-40f0-9807-e1a6b0f943bd{fill:url(#uuid-24df7236-b8af-4696-9b14-0f56c799cc5e);}.uuid-f08bdcff-82e6-4fcf-90c7-3797bfd728d3{fill:url(#uuid-59c43ba5-5ae5-4a05-bdfc-c8e5fc08d081);}.uuid-979b5d88-22b5-4dfd-ad22-e69fb15ed3bc{fill:url(#uuid-6d98d745-cb6a-435d-bafa-21235b193568);}.uuid-e18ac1bc-34ce-424f-b590-f03904140b86{clip-path:url(#uuid-1958b08c-4026-4ad8-b413-780ed342a794);}.uuid-674b329e-058c-4fa2-993b-ecebfcaa82c0{fill:url(#uuid-db3a9f57-d924-4ed2-aa54-96f6c681d595);}.uuid-7ab4abb5-df3f-4c97-ab96-3a953fa9bc78{clip-path:url(#uuid-de14fb8b-2a1e-43d1-b918-ce7758f188e8);}</style><clipPath id="uuid-1958b08c-4026-4ad8-b413-780ed342a794"><rect class="uuid-fc00767f-1e54-45c4-a9b4-097dc9326bbf" width="1271.79" height="251.45"/></clipPath><clipPath id="uuid-de14fb8b-2a1e-43d1-b918-ce7758f188e8"><rect class="uuid-fc00767f-1e54-45c4-a9b4-097dc9326bbf" x="-6.52" y="-141.39" width="1279.06" height="398.5" transform="translate(1267.28 99.68) rotate(178.55)"/></clipPath><linearGradient id="uuid-24df7236-b8af-4696-9b14-0f56c799cc5e" x1="-7941.56" y1="926.2" x2="-9488.51" y2="926.2" gradientTransform="translate(-8585.61 1040.63) rotate(168.63) scale(1.04 -.96) skewX(-11.69)" gradientUnits="userSpaceOnUse"><stop offset="0" stop-color="#fff"/><stop offset=".05" stop-color="#fffefb"/><stop offset=".1" stop-color="#fffdf1"/><stop offset=".14" stop-color="#fffbdf"/><stop offset=".18" stop-color="#fff8c6"/><stop offset=".22" stop-color="#fff5a6"/><stop offset=".26" stop-color="#fff07f"/><stop offset=".27" stop-color="#fff079"/><stop offset=".35" stop-color="#ffee73"/><stop offset=".46" stop-color="#ffea64"/><stop offset=".57" stop-color="#ffe24c"/><stop offset=".7" stop-color="#ffd929"/><stop offset=".82" stop-color="#ffcd00"/></linearGradient><linearGradient id="uuid-db3a9f57-d924-4ed2-aa54-96f6c681d595" x1="-4288.67" y1="-3847.66" x2="-4916.88" y2="-3479.32" gradientTransform="translate(-5939.69 1669.28) rotate(-161.91) scale(1.23 -1) skewX(.47)" xlink:href="#uuid-24df7236-b8af-4696-9b14-0f56c799cc5e"/><linearGradient id="uuid-59c43ba5-5ae5-4a05-bdfc-c8e5fc08d081" x1="-5344.05" y1="-3618.09" x2="-4013.1" y2="-3618.09" gradientTransform="translate(-5939.69 1669.28) rotate(-161.91) scale(1.23 -1) skewX(.47)" gradientUnits="userSpaceOnUse"><stop offset="0" stop-color="#fff59f"/><stop offset=".05" stop-color="#feef8f"/><stop offset=".22" stop-color="#fcdb5c"/><stop offset=".37" stop-color="#fbcc34"/><stop offset=".52" stop-color="#fac117"/><stop offset=".64" stop-color="#fabb06"/><stop offset=".73" stop-color="#fab900"/><stop offset=".75" stop-color="#fabf01" stop-opacity=".91"/><stop offset=".81" stop-color="#face05" stop-opacity=".69"/><stop offset=".86" stop-color="#fbda08" stop-opacity=".52"/><stop offset=".91" stop-color="#fbe20b" stop-opacity=".4"/><stop offset=".95" stop-color="#fbe80c" stop-opacity=".33"/><stop offset=".97" stop-color="#fcea0d" stop-opacity=".3"/></linearGradient><linearGradient id="uuid-6d98d745-cb6a-435d-bafa-21235b193568" x1="-7941.35" y1="928.91" x2="-9487.94" y2="928.91" gradientTransform="translate(-8585.61 1040.63) rotate(168.63) scale(1.04 -.96) skewX(-11.69)" gradientUnits="userSpaceOnUse"><stop offset=".09" stop-color="#fff"/><stop offset=".1" stop-color="#f3f3f3"/><stop offset=".14" stop-color="#ddd"/><stop offset=".17" stop-color="#d1d1d1"/><stop offset=".2" stop-color="#cdcdcd"/><stop offset=".23" stop-color="#c2c2c2"/><stop offset=".31" stop-color="#a1a1a0"/><stop offset=".41" stop-color="#868685"/><stop offset=".51" stop-color="#717170"/><stop offset=".62" stop-color="#626261"/><stop offset=".75" stop-color="#595958"/><stop offset=".95" stop-color="#575756"/></linearGradient></defs><g id="uuid-843b78d3-92ed-42c7-944b-9f2c6b3ca213"><g class="uuid-e18ac1bc-34ce-424f-b590-f03904140b86"><polygon points="1327.68 206.86 -5.16 204.78 -219.48 86.3 733.82 148.66 1316.52 96.69 1327.68 206.86"/><g class="uuid-7ab4abb5-df3f-4c97-ab96-3a953fa9bc78"><path class="uuid-84e5aa19-e9be-40f0-9807-e1a6b0f943bd" d="M-151.65,77.23l22.07,39.97s198.85-16.21,735.46,65.68c506.9,77.36,942.92-164.46,942.92-164.46l-12.45-25.54s-565.97,214.67-955.34,160.16C388.71,126.12-151.65,77.23-151.65,77.23Z"/><path class="uuid-674b329e-058c-4fa2-993b-ecebfcaa82c0" d="M-156.44,69.54s199.11-22.45,833.28,53.59C1023.02,164.64,1466.24,13.4,1532.9-17.03l9.69,18.02s-411.79,211.72-924.14,158.29c-271.85-28.35-753.3-46.33-753.3-46.33l-21.58-43.4Z"/><path class="uuid-f08bdcff-82e6-4fcf-90c7-3797bfd728d3" d="M1552.46,16.72s-452.76,214-840.74,153.2C126.67,78.23-195.1,78-195.1,78c623.17-13.93,892.95,148.8,1374.02,25.87,245.58-62.75,356.38-122.35,356.38-122.35l17.16,35.2Z"/><path class="uuid-979b5d88-22b5-4dfd-ad22-e69fb15ed3bc" d="M-133.65,115.84l-7.07-13.64s292.99-3.7,816.55,55.9C1074.58,203.49,1541.16,2.76,1541.16,2.76c0,0-476.42,230.26-910.11,173.11C81.83,103.49-133.65,115.84-133.65,115.84Z"/></g></g></g></svg>