<?xml version="1.0" encoding="UTF-8"?><svg id="uuid-7fa4df50-6e3f-4b92-bf47-385c4f251904" xmlns="http://www.w3.org/2000/svg" viewBox="0 0 68.79 68.79"><defs><style>.uuid-d02d9631-014d-42e1-8eda-08c6f0f00f87{fill:#1d1d1b;stroke:#1d1d1b;}.uuid-d02d9631-014d-42e1-8eda-08c6f0f00f87,.uuid-a5da5dec-254a-4d61-964e-c9ad37b330c4{stroke-miterlimit:10;stroke-width:.75px;}.uuid-a5da5dec-254a-4d61-964e-c9ad37b330c4{stroke:#fff;}.uuid-a5da5dec-254a-4d61-964e-c9ad37b330c4,.uuid-5088c796-c3d7-4e0a-a6c1-35b02422fb56{fill:#fff;}</style></defs><g id="uuid-3c820ee4-e084-423f-9a9e-4fe76d952c51"><rect class="uuid-d02d9631-014d-42e1-8eda-08c6f0f00f87" x=".38" y=".38" width="68.04" height="68.04"/><g id="uuid-019a82f5-7bcd-4924-acff-fa4e3b182533"><path class="uuid-a5da5dec-254a-4d61-964e-c9ad37b330c4" d="M43.23,21.12h-2.64l-.51-3.12-.31-.31-10.67-.02-.37.33-.51,3.12h-2.64c.22-1.06.28-2.21.52-3.26.34-1.53,1.38-2.45,3.15-2.57,3.35.15,6.91-.19,10.24,0,1.82.11,2.88.99,3.23,2.57.23,1.05.3,2.2.52,3.26Z"/><path class="uuid-5088c796-c3d7-4e0a-a6c1-35b02422fb56" d="M28.96,41.38v1.59c0,.1.3.57.43.65,1.43.61,2.94,1.58,4.38,2.13.49.19.77.19,1.27,0,1.08-.41,2.71-1.25,3.76-1.8.36-.19,1.05-.54,1.05-.98v-1.59h12c.33,0,1.4-.3,1.75-.43.7-.25,1.34-.63,1.92-1.05v12.58c0,.49-1.12,1.18-1.69,1.07H14.89c-.54.08-1.61-.61-1.61-1.07v-12.58c.58.41,1.23.8,1.92,1.05.35.12,1.42.43,1.75.43h12Z"/><path class="uuid-5088c796-c3d7-4e0a-a6c1-35b02422fb56" d="M39.85,37.56v-2.25c0-.25-.61-.85-.95-.84-2.83.18-6.05-.25-8.83,0-.43.04-1.11.45-1.11.85v2.25h-11.76c-1.77,0-3.73-1.99-3.91-3.51-.27-2.34.18-5.06,0-7.44.14-.66.75-1.15,1.52-1.15h39.28c.76.04,1.35.55,1.44,1.22-.16,2.35.21,4.91,0,7.23-.14,1.59-2.07,3.65-3.92,3.65h-11.76Z"/><polygon class="uuid-5088c796-c3d7-4e0a-a6c1-35b02422fb56" points="37.37 37.47 37.37 41.27 34.43 42.7 31.43 41.27 31.43 37.47 37.37 37.47"/></g></g></svg>