<?xml version="1.0" encoding="UTF-8"?><svg id="uuid-005f1906-5ecb-45c2-aedc-90a279978c9b" xmlns="http://www.w3.org/2000/svg" viewBox="0 0 68.04 68.04"><defs><style>.uuid-18f99d52-0b38-4f7b-a1b3-f94c0cb8fae8{fill:#ffcb00;}.uuid-cd201f09-290b-4120-87a0-29ee36ca9096{fill:#1d1d1b;stroke:#1d1d1b;}.uuid-cd201f09-290b-4120-87a0-29ee36ca9096,.uuid-35b3c1aa-a6af-4ea5-94cf-943ef995e79b{stroke-miterlimit:10;stroke-width:.75px;}.uuid-35b3c1aa-a6af-4ea5-94cf-943ef995e79b{fill:#fff;stroke:#fff;}</style></defs><g id="uuid-63063e39-a22d-4474-9e38-c4dcfc776751"><rect class="uuid-18f99d52-0b38-4f7b-a1b3-f94c0cb8fae8" x="0" y="0" width="68.04" height="68.04"/><g id="uuid-e5a56885-a2c4-43d1-b0c1-c7d8395fbb99"><path class="uuid-cd201f09-290b-4120-87a0-29ee36ca9096" d="M13.45,54.75l3.59-10.79c-7.29-12.13-.07-28.02,13.89-30.37,14.17-2.39,26.2,10.14,23.21,24.21-2.8,13.16-17.73,19.91-29.52,13.43l-11.16,3.52Z"/><path class="uuid-35b3c1aa-a6af-4ea5-94cf-943ef995e79b" d="M27.23,23.63c.25-.04.5,0,.75-.02,1.15.15,1.34-.12,1.84,1,.57,1.3.92,2.78,1.52,4.08.18.45-.19.99-.45,1.36-.3.42-1.08,1.04-1.25,1.36-.26.51.14,1,.39,1.43,1.17,2.02,3.01,3.86,5.05,5,.37.21,1.64.89,1.98.83.37-.07,1.07-.93,1.36-1.25.51-.57.8-1.43,1.67-1.29.58.1,3.36,1.65,4.02,2.04s.84.42.79,1.28c-.21,3.56-4.05,4.74-7.04,3.82-4.63-1.43-7.87-3.9-10.66-7.82-2.03-2.84-4.15-6.39-2.12-9.84.39-.66,1.39-1.84,2.17-1.97Z"/></g></g></svg>