<?xml version="1.0" encoding="UTF-8"?><svg xmlns="http://www.w3.org/2000/svg" xmlns:xlink="http://www.w3.org/1999/xlink" viewBox="0 0 1282.48 264.6"><defs><style>.uuid-18e01ebe-3df6-45e7-8d66-3e46ec3b4562{fill:none;}.uuid-bcdd3275-886a-4223-ae15-0126a7eb6d87{fill:url(#uuid-d13f9f35-08ee-4a0d-bf86-4e0570fa8f13);}.uuid-d726fa6e-6111-4e93-a677-5e686f9e4ea6{clip-path:url(#uuid-e559e864-0135-4923-a3b1-ce492d3159a0);}.uuid-f89c904b-94d8-4d55-a5bb-26c73ae2a8de{fill:url(#uuid-ce192e45-5f9d-44d1-9b4a-5054fb25540b);}.uuid-3c3f1319-6031-4777-9f81-0193ccd53d94{fill:url(#uuid-508e0cc2-6216-4fd9-96e2-edb34c7ce195);}.uuid-6cf34cc8-1947-426c-8187-eadb18d2df74{isolation:isolate;}.uuid-52635cee-e28a-4033-add1-0ded15189e8a{mix-blend-mode:overlay;}</style><clipPath id="uuid-e559e864-0135-4923-a3b1-ce492d3159a0"><rect class="uuid-18e01ebe-3df6-45e7-8d66-3e46ec3b4562" width="1282.48" height="264.6"/></clipPath><linearGradient id="uuid-508e0cc2-6216-4fd9-96e2-edb34c7ce195" x1="310.25" y1="-2144" x2="1358.25" y2="-2100.97" gradientTransform="translate(-109.5 3373.97) rotate(-5.28) scale(1.27 1.48)" gradientUnits="userSpaceOnUse"><stop offset=".03" stop-color="#ffeb84"/><stop offset=".57" stop-color="#ffe608"/><stop offset=".64" stop-color="#fee107"/><stop offset=".72" stop-color="#fdd505"/><stop offset=".8" stop-color="#fac101"/><stop offset=".82" stop-color="#fab900"/></linearGradient><linearGradient id="uuid-ce192e45-5f9d-44d1-9b4a-5054fb25540b" x1="814.69" y1="-2041.79" x2="853.73" y2="-2208.98" gradientTransform="translate(-109.5 3373.97) rotate(-5.28) scale(1.27 1.48)" gradientUnits="userSpaceOnUse"><stop offset="0" stop-color="#fff381"/><stop offset=".08" stop-color="#ffe85e"/><stop offset=".18" stop-color="#ffde3c"/><stop offset=".28" stop-color="#ffd621"/><stop offset=".38" stop-color="#ffd10e"/><stop offset=".49" stop-color="#ffce03"/><stop offset=".6" stop-color="#ffcd00"/></linearGradient><linearGradient id="uuid-d13f9f35-08ee-4a0d-bf86-4e0570fa8f13" x1="313.57" y1="-2135.57" x2="1354.84" y2="-2135.57" gradientTransform="translate(-109.5 3373.97) rotate(-5.28) scale(1.27 1.48)" gradientUnits="userSpaceOnUse"><stop offset=".63" stop-color="#cdcdcd"/><stop offset=".71" stop-color="#aeaeae"/><stop offset=".87" stop-color="#6f6f6e"/><stop offset=".95" stop-color="#575756"/></linearGradient></defs><g class="uuid-6cf34cc8-1947-426c-8187-eadb18d2df74"><g id="uuid-a9d9d5b1-8a27-4a05-8387-9d520feddeff"><g id="uuid-8161be81-6e69-40e3-8cec-3dd9ed77a8d3"><g class="uuid-d726fa6e-6111-4e93-a677-5e686f9e4ea6"><path class="uuid-3c3f1319-6031-4777-9f81-0193ccd53d94" d="M1332.63,193.52l-9.57-130.3S915.54,163.96-6.54,114.56l-2.39,39.04c509.06,91.45,1341.57,39.92,1341.57,39.92Z"/><path class="uuid-f89c904b-94d8-4d55-a5bb-26c73ae2a8de" d="M1323.05,89.81s-103.74,17.49-493.1,41.2c-273.59,16.67-664.43,7.74-835.96-10.45l-1.73,23.01c86.4,11.36,452.19,44.43,840.42,38.16,240.31-3.88,495.56-16.96,495.56-16.96l-5.18-74.97Z"/><path class="uuid-bcdd3275-886a-4223-ae15-0126a7eb6d87" d="M-6.38,127.35c203.87,19.65,600.1,28.66,866.24,16.12,174.39-8.22,462.54-34.33,462.54-34.33l3.64,33.74s-292.49,16.59-645.65,21.18C293.62,169.08-7.38,136.38-7.38,136.38l1-9.03Z"/><g class="uuid-52635cee-e28a-4033-add1-0ded15189e8a"><path class="uuid-3c3f1319-6031-4777-9f81-0193ccd53d94" d="M1332.63,193.52l-9.57-130.3S915.54,163.96-6.54,114.56l-2.39,39.04c509.06,91.45,1341.57,39.92,1341.57,39.92Z"/><path class="uuid-f89c904b-94d8-4d55-a5bb-26c73ae2a8de" d="M1323.05,89.81s-103.74,17.49-493.1,41.2c-273.59,16.67-664.43,7.74-835.96-10.45l-1.73,23.01c86.4,11.36,452.19,44.43,840.42,38.16,240.31-3.88,495.56-16.96,495.56-16.96l-5.18-74.97Z"/><path class="uuid-bcdd3275-886a-4223-ae15-0126a7eb6d87" d="M-6.38,127.35c203.87,19.65,600.1,28.66,866.24,16.12,174.39-8.22,462.54-34.33,462.54-34.33l3.64,33.74s-292.49,16.59-645.65,21.18C293.62,169.08-7.38,136.38-7.38,136.38l1-9.03Z"/></g><g class="uuid-52635cee-e28a-4033-add1-0ded15189e8a"><path class="uuid-3c3f1319-6031-4777-9f81-0193ccd53d94" d="M1332.63,193.52l-9.57-130.3S915.54,163.96-6.54,114.56l-2.39,39.04c509.06,91.45,1341.57,39.92,1341.57,39.92Z"/><path class="uuid-f89c904b-94d8-4d55-a5bb-26c73ae2a8de" d="M1323.05,89.81s-103.74,17.49-493.1,41.2c-273.59,16.67-664.43,7.74-835.96-10.45l-1.73,23.01c86.4,11.36,452.19,44.43,840.42,38.16,240.31-3.88,495.56-16.96,495.56-16.96l-5.18-74.97Z"/><path class="uuid-bcdd3275-886a-4223-ae15-0126a7eb6d87" d="M-6.38,127.35c203.87,19.65,600.1,28.66,866.24,16.12,174.39-8.22,462.54-34.33,462.54-34.33l3.64,33.74s-292.49,16.59-645.65,21.18C293.62,169.08-7.38,136.38-7.38,136.38l1-9.03Z"/></g><g class="uuid-52635cee-e28a-4033-add1-0ded15189e8a"><path class="uuid-3c3f1319-6031-4777-9f81-0193ccd53d94" d="M1332.63,193.52l-9.57-130.3S915.54,163.96-6.54,114.56l-2.39,39.04c509.06,91.45,1341.57,39.92,1341.57,39.92Z"/><path class="uuid-f89c904b-94d8-4d55-a5bb-26c73ae2a8de" d="M1323.05,89.81s-103.74,17.49-493.1,41.2c-273.59,16.67-664.43,7.74-835.96-10.45l-1.73,23.01c86.4,11.36,452.19,44.43,840.42,38.16,240.31-3.88,495.56-16.96,495.56-16.96l-5.18-74.97Z"/><path class="uuid-bcdd3275-886a-4223-ae15-0126a7eb6d87" d="M-6.38,127.35c203.87,19.65,600.1,28.66,866.24,16.12,174.39-8.22,462.54-34.33,462.54-34.33l3.64,33.74s-292.49,16.59-645.65,21.18C293.62,169.08-7.38,136.38-7.38,136.38l1-9.03Z"/></g><g class="uuid-52635cee-e28a-4033-add1-0ded15189e8a"><path class="uuid-3c3f1319-6031-4777-9f81-0193ccd53d94" d="M1332.63,193.52l-9.57-130.3S915.54,163.96-6.54,114.56l-2.39,39.04c509.06,91.45,1341.57,39.92,1341.57,39.92Z"/><path class="uuid-f89c904b-94d8-4d55-a5bb-26c73ae2a8de" d="M1323.05,89.81s-103.74,17.49-493.1,41.2c-273.59,16.67-664.43,7.74-835.96-10.45l-1.73,23.01c86.4,11.36,452.19,44.43,840.42,38.16,240.31-3.88,495.56-16.96,495.56-16.96l-5.18-74.97Z"/><path class="uuid-bcdd3275-886a-4223-ae15-0126a7eb6d87" d="M-6.38,127.35c203.87,19.65,600.1,28.66,866.24,16.12,174.39-8.22,462.54-34.33,462.54-34.33l3.64,33.74s-292.49,16.59-645.65,21.18C293.62,169.08-7.38,136.38-7.38,136.38l1-9.03Z"/></g><g class="uuid-52635cee-e28a-4033-add1-0ded15189e8a"><path class="uuid-3c3f1319-6031-4777-9f81-0193ccd53d94" d="M1332.63,193.52l-9.57-130.3S915.54,163.96-6.54,114.56l-2.39,39.04c509.06,91.45,1341.57,39.92,1341.57,39.92Z"/><path class="uuid-f89c904b-94d8-4d55-a5bb-26c73ae2a8de" d="M1323.05,89.81s-103.74,17.49-493.1,41.2c-273.59,16.67-664.43,7.74-835.96-10.45l-1.73,23.01c86.4,11.36,452.19,44.43,840.42,38.16,240.31-3.88,495.56-16.96,495.56-16.96l-5.18-74.97Z"/><path class="uuid-bcdd3275-886a-4223-ae15-0126a7eb6d87" d="M-6.38,127.35c203.87,19.65,600.1,28.66,866.24,16.12,174.39-8.22,462.54-34.33,462.54-34.33l3.64,33.74s-292.49,16.59-645.65,21.18C293.62,169.08-7.38,136.38-7.38,136.38l1-9.03Z"/></g><g class="uuid-52635cee-e28a-4033-add1-0ded15189e8a"><path class="uuid-3c3f1319-6031-4777-9f81-0193ccd53d94" d="M1332.63,193.52l-9.57-130.3S915.54,163.96-6.54,114.56l-2.39,39.04c509.06,91.45,1341.57,39.92,1341.57,39.92Z"/><path class="uuid-f89c904b-94d8-4d55-a5bb-26c73ae2a8de" d="M1323.05,89.81s-103.74,17.49-493.1,41.2c-273.59,16.67-664.43,7.74-835.96-10.45l-1.73,23.01c86.4,11.36,452.19,44.43,840.42,38.16,240.31-3.88,495.56-16.96,495.56-16.96l-5.18-74.97Z"/><path class="uuid-bcdd3275-886a-4223-ae15-0126a7eb6d87" d="M-6.38,127.35c203.87,19.65,600.1,28.66,866.24,16.12,174.39-8.22,462.54-34.33,462.54-34.33l3.64,33.74s-292.49,16.59-645.65,21.18C293.62,169.08-7.38,136.38-7.38,136.38l1-9.03Z"/></g><g class="uuid-52635cee-e28a-4033-add1-0ded15189e8a"><path class="uuid-3c3f1319-6031-4777-9f81-0193ccd53d94" d="M1332.63,193.52l-9.57-130.3S915.54,163.96-6.54,114.56l-2.39,39.04c509.06,91.45,1341.57,39.92,1341.57,39.92Z"/><path class="uuid-f89c904b-94d8-4d55-a5bb-26c73ae2a8de" d="M1323.05,89.81s-103.74,17.49-493.1,41.2c-273.59,16.67-664.43,7.74-835.96-10.45l-1.73,23.01c86.4,11.36,452.19,44.43,840.42,38.16,240.31-3.88,495.56-16.96,495.56-16.96l-5.18-74.97Z"/><path class="uuid-bcdd3275-886a-4223-ae15-0126a7eb6d87" d="M-6.38,127.35c203.87,19.65,600.1,28.66,866.24,16.12,174.39-8.22,462.54-34.33,462.54-34.33l3.64,33.74s-292.49,16.59-645.65,21.18C293.62,169.08-7.38,136.38-7.38,136.38l1-9.03Z"/></g><g class="uuid-52635cee-e28a-4033-add1-0ded15189e8a"><path class="uuid-3c3f1319-6031-4777-9f81-0193ccd53d94" d="M1332.63,193.52l-9.57-130.3S915.54,163.96-6.54,114.56l-2.39,39.04c509.06,91.45,1341.57,39.92,1341.57,39.92Z"/><path class="uuid-f89c904b-94d8-4d55-a5bb-26c73ae2a8de" d="M1323.05,89.81s-103.74,17.49-493.1,41.2c-273.59,16.67-664.43,7.74-835.96-10.45l-1.73,23.01c86.4,11.36,452.19,44.43,840.42,38.16,240.31-3.88,495.56-16.96,495.56-16.96l-5.18-74.97Z"/><path class="uuid-bcdd3275-886a-4223-ae15-0126a7eb6d87" d="M-6.38,127.35c203.87,19.65,600.1,28.66,866.24,16.12,174.39-8.22,462.54-34.33,462.54-34.33l3.64,33.74s-292.49,16.59-645.65,21.18C293.62,169.08-7.38,136.38-7.38,136.38l1-9.03Z"/></g></g></g></g></g></svg>