<?xml version="1.0" encoding="UTF-8"?><svg id="uuid-7b1dfff0-1465-4961-891b-ade20fd7e0f3" xmlns="http://www.w3.org/2000/svg" xmlns:xlink="http://www.w3.org/1999/xlink" viewBox="0 0 1282.48 264.6"><defs><style>.uuid-c172705c-c3b0-4280-a39c-edd8ce560d79{fill:none;}.uuid-d88f7340-99f5-42d6-a443-3325c97ebc67{fill:url(#uuid-7a7d705f-7acc-4955-b0ab-25c402d1e84e);}.uuid-e7f2b998-2e3a-45c4-9563-14e9c25dc7bb{fill:url(#uuid-0150efe2-d643-4f46-a546-98e923614de5);}.uuid-a2922925-13de-4d5c-bed5-f2477057fc9e{clip-path:url(#uuid-704d270f-7d77-47f7-9af8-86486e26118f);}.uuid-a9e553da-c2df-4432-a6ac-9b4a24f62d4b{fill:url(#uuid-c4823f4c-21c2-45dd-83a5-d280f6d8558f);}</style><clipPath id="uuid-704d270f-7d77-47f7-9af8-86486e26118f"><rect class="uuid-c172705c-c3b0-4280-a39c-edd8ce560d79" width="1282.48" height="264.6"/></clipPath><linearGradient id="uuid-7a7d705f-7acc-4955-b0ab-25c402d1e84e" x1="316.37" y1="-2111.72" x2="1364.36" y2="-2068.69" gradientTransform="translate(-121.65 3327.2) rotate(-5.28) scale(1.27 1.48)" gradientUnits="userSpaceOnUse"><stop offset=".03" stop-color="#ffeb84"/><stop offset=".57" stop-color="#ffe608"/><stop offset=".64" stop-color="#fee107"/><stop offset=".72" stop-color="#fdd505"/><stop offset=".8" stop-color="#fac101"/><stop offset=".82" stop-color="#fab900"/></linearGradient><linearGradient id="uuid-c4823f4c-21c2-45dd-83a5-d280f6d8558f" x1="820.8" y1="-2009.51" x2="859.85" y2="-2176.7" gradientTransform="translate(-121.65 3327.2) rotate(-5.28) scale(1.27 1.48)" gradientUnits="userSpaceOnUse"><stop offset="0" stop-color="#fff381"/><stop offset=".08" stop-color="#ffe85e"/><stop offset=".18" stop-color="#ffde3c"/><stop offset=".28" stop-color="#ffd621"/><stop offset=".38" stop-color="#ffd10e"/><stop offset=".49" stop-color="#ffce03"/><stop offset=".6" stop-color="#ffcd00"/></linearGradient><linearGradient id="uuid-0150efe2-d643-4f46-a546-98e923614de5" x1="319.68" y1="-2103.28" x2="1360.96" y2="-2103.28" gradientTransform="translate(-121.65 3327.2) rotate(-5.28) scale(1.27 1.48)" gradientUnits="userSpaceOnUse"><stop offset=".63" stop-color="#cdcdcd"/><stop offset=".71" stop-color="#aeaeae"/><stop offset=".87" stop-color="#6f6f6e"/><stop offset=".95" stop-color="#575756"/></linearGradient></defs><g id="uuid-f5d7952f-2052-4a9f-a1f6-a5e1ff284d49"><g class="uuid-a2922925-13de-4d5c-bed5-f2477057fc9e"><path class="uuid-d88f7340-99f5-42d6-a443-3325c97ebc67" d="M1332.63,193.52l-9.57-130.3S915.54,163.96-6.54,114.56l-2.39,39.04c509.06,91.45,1341.57,39.92,1341.57,39.92Z"/><path class="uuid-a9e553da-c2df-4432-a6ac-9b4a24f62d4b" d="M1323.05,89.81s-103.74,17.49-493.1,41.2c-273.59,16.67-664.43,7.74-835.96-10.45l-1.73,23.01c86.4,11.36,452.19,44.43,840.42,38.16,240.31-3.88,495.56-16.96,495.56-16.96l-5.18-74.97Z"/><path class="uuid-e7f2b998-2e3a-45c4-9563-14e9c25dc7bb" d="M-6.38,127.35c203.87,19.65,600.1,28.66,866.24,16.12,174.39-8.22,462.54-34.33,462.54-34.33l3.64,33.74s-292.49,16.59-645.65,21.18C293.62,169.08-7.38,136.38-7.38,136.38l1-9.03Z"/></g></g></svg>