<?xml version="1.0" encoding="UTF-8"?><svg id="uuid-7f5443e8-885f-4c09-a5db-36369feb3bf0" xmlns="http://www.w3.org/2000/svg" xmlns:xlink="http://www.w3.org/1999/xlink" viewBox="0 0 1281.07 220.14"><defs><style>.uuid-0fe23439-78b0-42a0-ad1c-a8d5d252b3e3{fill:none;}.uuid-6daaba38-2645-4a1b-8287-496935fa12df{fill:url(#uuid-f3c22821-2dd7-4bce-9880-e291a09a6546);}.uuid-15f94e1d-e484-47e6-9c3e-d081dfa72116{fill:url(#uuid-698a1d53-4c85-47d2-9513-d1e24de9966e);}.uuid-1cdd241a-0242-4ad9-93dd-1923cf2d066e{clip-path:url(#uuid-011920b6-48de-4e58-a1cd-0189a152c2a2);}.uuid-8ab04182-9ca3-473a-97ee-254768e50ff4{fill:url(#uuid-984b8b0d-4645-4a6e-b52a-6fc8a22bbe09);}.uuid-cbf65caf-06d7-4c33-aad5-ec2e8ac10228{fill:url(#uuid-09c628ae-6e31-4ead-ac8b-623d78d1c1c8);}.uuid-172688fb-4e82-4f4e-8acf-ba41bbb737f9{clip-path:url(#uuid-b6459fd2-776f-4642-9db3-8b3f89211a45);}</style><clipPath id="uuid-b6459fd2-776f-4642-9db3-8b3f89211a45"><rect class="uuid-0fe23439-78b0-42a0-ad1c-a8d5d252b3e3" width="1281.07" height="220.14"/></clipPath><clipPath id="uuid-011920b6-48de-4e58-a1cd-0189a152c2a2"><rect class="uuid-0fe23439-78b0-42a0-ad1c-a8d5d252b3e3" x="-5.24" y="-174.69" width="1287.93" height="401.26" transform="translate(1277.91 35.7) rotate(178.55)"/></clipPath><linearGradient id="uuid-984b8b0d-4645-4a6e-b52a-6fc8a22bbe09" x1="-6849.21" y1="1467.7" x2="-8406.88" y2="1467.7" gradientTransform="translate(-7537.77 772.03) rotate(165.44) scale(1.04 -.96) skewX(-11.69)" gradientUnits="userSpaceOnUse"><stop offset="0" stop-color="#fff"/><stop offset=".05" stop-color="#fffefb"/><stop offset=".1" stop-color="#fffdf1"/><stop offset=".14" stop-color="#fffbdf"/><stop offset=".18" stop-color="#fff8c6"/><stop offset=".22" stop-color="#fff5a6"/><stop offset=".26" stop-color="#fff07f"/><stop offset=".27" stop-color="#fff079"/><stop offset=".35" stop-color="#ffee73"/><stop offset=".46" stop-color="#ffea64"/><stop offset=".57" stop-color="#ffe24c"/><stop offset=".7" stop-color="#ffd929"/><stop offset=".82" stop-color="#ffcd00"/></linearGradient><linearGradient id="uuid-09c628ae-6e31-4ead-ac8b-623d78d1c1c8" x1="-6968.76" y1="-4150.7" x2="-7601.32" y2="-3779.81" gradientTransform="translate(-8983.65 1452.46) rotate(-165.1) scale(1.23 -1) skewX(.47)" xlink:href="#uuid-984b8b0d-4645-4a6e-b52a-6fc8a22bbe09"/><linearGradient id="uuid-698a1d53-4c85-47d2-9513-d1e24de9966e" x1="-8031.45" y1="-3919.54" x2="-6691.27" y2="-3919.54" gradientTransform="translate(-8983.65 1452.46) rotate(-165.1) scale(1.23 -1) skewX(.47)" gradientUnits="userSpaceOnUse"><stop offset="0" stop-color="#fff59f"/><stop offset=".05" stop-color="#feef8f"/><stop offset=".22" stop-color="#fcdb5c"/><stop offset=".37" stop-color="#fbcc34"/><stop offset=".52" stop-color="#fac117"/><stop offset=".64" stop-color="#fabb06"/><stop offset=".73" stop-color="#fab900"/><stop offset=".75" stop-color="#fabf01" stop-opacity=".91"/><stop offset=".81" stop-color="#face05" stop-opacity=".69"/><stop offset=".86" stop-color="#fbda08" stop-opacity=".52"/><stop offset=".91" stop-color="#fbe20b" stop-opacity=".4"/><stop offset=".95" stop-color="#fbe80c" stop-opacity=".33"/><stop offset=".97" stop-color="#fcea0d" stop-opacity=".3"/></linearGradient><linearGradient id="uuid-f3c22821-2dd7-4bce-9880-e291a09a6546" x1="-6849.01" y1="1470.43" x2="-8406.31" y2="1470.43" gradientTransform="translate(-7537.77 772.03) rotate(165.44) scale(1.04 -.96) skewX(-11.69)" gradientUnits="userSpaceOnUse"><stop offset=".09" stop-color="#fff"/><stop offset=".1" stop-color="#f3f3f3"/><stop offset=".14" stop-color="#ddd"/><stop offset=".17" stop-color="#d1d1d1"/><stop offset=".2" stop-color="#cdcdcd"/><stop offset=".23" stop-color="#c2c2c2"/><stop offset=".31" stop-color="#a1a1a0"/><stop offset=".41" stop-color="#868685"/><stop offset=".51" stop-color="#717170"/><stop offset=".62" stop-color="#626261"/><stop offset=".75" stop-color="#595958"/><stop offset=".95" stop-color="#575756"/></linearGradient></defs><g id="uuid-7484ec0f-f86c-4516-92d6-49320598655e"><g class="uuid-172688fb-4e82-4f4e-8acf-ba41bbb737f9"><polygon points="-72.66 151.23 37.86 104.64 965.48 134.78 1330.5 69.47 1320.46 263.66 -49.21 299.43 -72.66 151.23"/><g class="uuid-1cdd241a-0242-4ad9-93dd-1923cf2d066e"><path class="uuid-8ab04182-9ca3-473a-97ee-254768e50ff4" d="M-31.73,99.92l24.42,38.95s199.02-27.43,743.09,24.86c513.96,49.39,938.78-218.13,938.78-218.13l-13.95-24.98s-557,247.51-951.51,214.51C514.27,118.82-31.73,99.92-31.73,99.92Z"/><path class="uuid-cbf65caf-06d7-4c33-aad5-ec2e8ac10228" d="M-36.97,92.46s198.93-33.72,840.76,7.23c350.36,22.35,787.5-154.52,852.81-188.85l10.75,17.57s-402.15,235.91-920.25,210.88c-274.9-13.28-759.95-4.41-759.95-4.41l-24.12-42.42Z"/><path class="uuid-15f94e1d-e484-47e6-9c3e-d081dfa72116" d="M1678.15-56.32s-443.21,240.5-836.68,201.09C248.14,85.35-75.37,103.13-75.37,103.13c625.74-48.89,906.07,99.61,1382.85-50.92,243.39-76.84,351.45-142.96,351.45-142.96l19.22,34.43Z"/><path class="uuid-6daaba38-2645-4a1b-8287-496935fa12df" d="M-11.47,137.74l-7.87-13.32s294.36-20.12,824.07,10.48c403.43,23.31,861.28-204.62,861.28-204.62,0,0-466.09,258.17-905.31,224.99C204.47,113.26-11.47,137.74-11.47,137.74Z"/></g></g></g></svg>