<?xml version="1.0" encoding="UTF-8"?><svg xmlns="http://www.w3.org/2000/svg" xmlns:xlink="http://www.w3.org/1999/xlink" viewBox="0 0 1281.07 220.14"><defs><style>.uuid-daa4257b-b310-4f40-8f90-880b685806fb{fill:none;}.uuid-f9fe2dfd-a2c8-4a3d-ba71-692224115733{fill:url(#uuid-82654324-e263-430a-9e98-403ba8c89b4a);}.uuid-5c462b58-b41c-4569-8d9f-97a8a65d8597{clip-path:url(#uuid-772a1bb3-f9c6-4e96-9af3-bd8f38609c48);}.uuid-9064acbb-5687-4eaa-9bac-b0887c7be625{fill:url(#uuid-ef0a0530-0296-4cb1-af68-a1a9fc653397);}.uuid-3ae25d74-1019-47c1-a5f0-98ae82bfb551{fill:url(#uuid-e9a79842-2874-4702-a525-b6da26af6ee6);}.uuid-5c3abf9e-04dd-4461-8645-cc1c3d7c6e21{fill:url(#uuid-56412b48-9941-4988-ae51-2acc00c24245);}.uuid-9434c06e-2274-4bbb-805e-93769b17543f{fill:url(#uuid-f5da565a-35ff-4a79-b379-a3159d67b731);}.uuid-b398a7bd-a6be-43b7-8c2e-a5cec3183690{clip-path:url(#uuid-5ab897f2-305f-4221-a0f9-8c6ef33e9256);}.uuid-f1be78ad-ea9c-4ff2-8c88-f12f268dd1b8{clip-path:url(#uuid-bfd21edf-eff5-4291-8912-88c653c8d362);}.uuid-4ba43b1f-1d83-409a-9d72-1a2bef5b2d65{clip-path:url(#uuid-299af4a8-f7f7-40ae-bde5-02ec8a30ff60);}.uuid-c5b6e6d7-04a2-4243-9bec-48f5d2a2d9b1{isolation:isolate;}.uuid-9c875e7c-0bcd-452c-842d-13b50bb67d83{fill:url(#uuid-8b2063f8-bf8f-43b1-a057-aa492d8a2d31);}.uuid-6745d949-0832-4018-ba21-6cd1657ab359{fill:url(#uuid-c8211453-5eb6-44e1-bd5c-66375a6c3cc9);}.uuid-756154c0-7cd0-4dcf-92e1-d8e8666decde{clip-path:url(#uuid-9c63905c-b4b5-40ff-9826-68375f926745);}.uuid-8eed587d-4911-494e-9e01-bb72bef5aa5d{fill:url(#uuid-76fea69a-4d14-4e78-a873-095c1230197f);}.uuid-53a78250-1a64-4fbd-90aa-2ab54f51ca48{mix-blend-mode:overlay;}.uuid-205fecdc-2972-4dda-9b06-80fc1f876c58{fill:url(#uuid-fbaa3e93-ed0d-4acb-b041-0250d737b46a);}.uuid-19349189-5772-499e-992f-6d57cd80d403{clip-path:url(#uuid-37c2282c-0af9-429e-8ce7-fa26091ee7cf);}.uuid-4f701d06-6b7e-4e3d-8839-db4623e36602{clip-path:url(#uuid-2ea6e80d-2bdc-4f82-b566-c51c21344d1b);}.uuid-065089f7-9334-42dd-9353-41640e60970c{fill:url(#uuid-27bd3bf2-fbb2-4899-ae69-f9b8601378e7);}.uuid-6969bcfa-fd41-4eae-8a62-ffb6f7fc6a00{clip-path:url(#uuid-a0286690-9c72-4c67-ac46-e56569424ac4);}</style><clipPath id="uuid-299af4a8-f7f7-40ae-bde5-02ec8a30ff60"><rect class="uuid-daa4257b-b310-4f40-8f90-880b685806fb" width="1281.07" height="220.14"/></clipPath><clipPath id="uuid-bfd21edf-eff5-4291-8912-88c653c8d362"><rect class="uuid-daa4257b-b310-4f40-8f90-880b685806fb" x="-5.24" y="-174.69" width="1287.93" height="401.26" transform="translate(1277.91 35.7) rotate(178.55)"/></clipPath><linearGradient id="uuid-fbaa3e93-ed0d-4acb-b041-0250d737b46a" x1="-9440.74" y1="1830.78" x2="-10998.41" y2="1830.78" gradientTransform="translate(-10321.52 1135.57) rotate(165.44) scale(1.04 -.96) skewX(-11.69)" gradientUnits="userSpaceOnUse"><stop offset="0" stop-color="#fff"/><stop offset=".05" stop-color="#fffefb"/><stop offset=".1" stop-color="#fffdf1"/><stop offset=".14" stop-color="#fffbdf"/><stop offset=".18" stop-color="#fff8c6"/><stop offset=".22" stop-color="#fff5a6"/><stop offset=".26" stop-color="#fff07f"/><stop offset=".27" stop-color="#fff079"/><stop offset=".35" stop-color="#ffee73"/><stop offset=".46" stop-color="#ffea64"/><stop offset=".57" stop-color="#ffe24c"/><stop offset=".7" stop-color="#ffd929"/><stop offset=".82" stop-color="#ffcd00"/></linearGradient><linearGradient id="uuid-27bd3bf2-fbb2-4899-ae69-f9b8601378e7" x1="-9438.18" y1="-4507.42" x2="-10070.75" y2="-4136.53" gradientTransform="translate(-12012.05 1014.82) rotate(-165.1) scale(1.23 -1) skewX(.47)" xlink:href="#uuid-fbaa3e93-ed0d-4acb-b041-0250d737b46a"/><linearGradient id="uuid-f5da565a-35ff-4a79-b379-a3159d67b731" x1="-10500.88" y1="-4276.26" x2="-9160.7" y2="-4276.26" gradientTransform="translate(-12012.05 1014.82) rotate(-165.1) scale(1.23 -1) skewX(.47)" gradientUnits="userSpaceOnUse"><stop offset="0" stop-color="#fff59f"/><stop offset=".05" stop-color="#feef8f"/><stop offset=".22" stop-color="#fcdb5c"/><stop offset=".37" stop-color="#fbcc34"/><stop offset=".52" stop-color="#fac117"/><stop offset=".64" stop-color="#fabb06"/><stop offset=".73" stop-color="#fab900"/><stop offset=".75" stop-color="#fabf01" stop-opacity=".91"/><stop offset=".81" stop-color="#face05" stop-opacity=".69"/><stop offset=".86" stop-color="#fbda08" stop-opacity=".52"/><stop offset=".91" stop-color="#fbe20b" stop-opacity=".4"/><stop offset=".95" stop-color="#fbe80c" stop-opacity=".33"/><stop offset=".97" stop-color="#fcea0d" stop-opacity=".3"/></linearGradient><linearGradient id="uuid-76fea69a-4d14-4e78-a873-095c1230197f" x1="-9440.53" y1="1833.5" x2="-10997.84" y2="1833.5" gradientTransform="translate(-10321.52 1135.57) rotate(165.44) scale(1.04 -.96) skewX(-11.69)" gradientUnits="userSpaceOnUse"><stop offset=".09" stop-color="#fff"/><stop offset=".1" stop-color="#f3f3f3"/><stop offset=".14" stop-color="#ddd"/><stop offset=".17" stop-color="#d1d1d1"/><stop offset=".2" stop-color="#cdcdcd"/><stop offset=".23" stop-color="#c2c2c2"/><stop offset=".31" stop-color="#a1a1a0"/><stop offset=".41" stop-color="#868685"/><stop offset=".51" stop-color="#717170"/><stop offset=".62" stop-color="#626261"/><stop offset=".75" stop-color="#595958"/><stop offset=".95" stop-color="#575756"/></linearGradient><clipPath id="uuid-37c2282c-0af9-429e-8ce7-fa26091ee7cf"><rect class="uuid-daa4257b-b310-4f40-8f90-880b685806fb" x="-5.24" y="-174.69" width="1287.93" height="401.26" transform="translate(1277.91 35.7) rotate(178.55)"/></clipPath><linearGradient id="uuid-56412b48-9941-4988-ae51-2acc00c24245" x1="-9438.18" y1="-4507.42" x2="-10070.75" y2="-4136.53" gradientTransform="translate(-12012.05 1014.82) rotate(-165.1) scale(1.23 -1) skewX(.47)" xlink:href="#uuid-fbaa3e93-ed0d-4acb-b041-0250d737b46a"/><clipPath id="uuid-2ea6e80d-2bdc-4f82-b566-c51c21344d1b"><rect class="uuid-daa4257b-b310-4f40-8f90-880b685806fb" x="-5.24" y="-174.69" width="1287.93" height="401.26" transform="translate(1277.91 35.7) rotate(178.55)"/></clipPath><linearGradient id="uuid-ef0a0530-0296-4cb1-af68-a1a9fc653397" x1="-9438.18" y1="-4507.42" x2="-10070.75" y2="-4136.53" gradientTransform="translate(-12012.05 1014.82) rotate(-165.1) scale(1.23 -1) skewX(.47)" xlink:href="#uuid-fbaa3e93-ed0d-4acb-b041-0250d737b46a"/><clipPath id="uuid-5ab897f2-305f-4221-a0f9-8c6ef33e9256"><rect class="uuid-daa4257b-b310-4f40-8f90-880b685806fb" x="-5.24" y="-174.69" width="1287.93" height="401.26" transform="translate(1277.91 35.7) rotate(178.55)"/></clipPath><linearGradient id="uuid-e9a79842-2874-4702-a525-b6da26af6ee6" x1="-9438.18" y1="-4507.42" x2="-10070.75" y2="-4136.53" gradientTransform="translate(-12012.05 1014.82) rotate(-165.1) scale(1.23 -1) skewX(.47)" xlink:href="#uuid-fbaa3e93-ed0d-4acb-b041-0250d737b46a"/><clipPath id="uuid-772a1bb3-f9c6-4e96-9af3-bd8f38609c48"><rect class="uuid-daa4257b-b310-4f40-8f90-880b685806fb" x="-5.24" y="-174.69" width="1287.93" height="401.26" transform="translate(1277.91 35.7) rotate(178.55)"/></clipPath><linearGradient id="uuid-8b2063f8-bf8f-43b1-a057-aa492d8a2d31" x1="-9438.18" y1="-4507.42" x2="-10070.75" y2="-4136.53" gradientTransform="translate(-12012.05 1014.82) rotate(-165.1) scale(1.23 -1) skewX(.47)" xlink:href="#uuid-fbaa3e93-ed0d-4acb-b041-0250d737b46a"/><clipPath id="uuid-9c63905c-b4b5-40ff-9826-68375f926745"><rect class="uuid-daa4257b-b310-4f40-8f90-880b685806fb" x="-5.24" y="-174.69" width="1287.93" height="401.26" transform="translate(1277.91 35.7) rotate(178.55)"/></clipPath><linearGradient id="uuid-c8211453-5eb6-44e1-bd5c-66375a6c3cc9" x1="-9438.18" y1="-4507.42" x2="-10070.75" y2="-4136.53" gradientTransform="translate(-12012.05 1014.82) rotate(-165.1) scale(1.23 -1) skewX(.47)" xlink:href="#uuid-fbaa3e93-ed0d-4acb-b041-0250d737b46a"/><clipPath id="uuid-a0286690-9c72-4c67-ac46-e56569424ac4"><rect class="uuid-daa4257b-b310-4f40-8f90-880b685806fb" x="-5.24" y="-174.69" width="1287.93" height="401.26" transform="translate(1277.91 35.7) rotate(178.55)"/></clipPath><linearGradient id="uuid-82654324-e263-430a-9e98-403ba8c89b4a" x1="-9438.18" y1="-4507.42" x2="-10070.75" y2="-4136.53" gradientTransform="translate(-12012.05 1014.82) rotate(-165.1) scale(1.23 -1) skewX(.47)" xlink:href="#uuid-fbaa3e93-ed0d-4acb-b041-0250d737b46a"/></defs><g class="uuid-c5b6e6d7-04a2-4243-9bec-48f5d2a2d9b1"><g id="uuid-93539372-f9b5-4322-94a7-40e37290035d"><g id="uuid-1709ac31-65b6-448a-ac62-d0b15cde0a30"><g class="uuid-4ba43b1f-1d83-409a-9d72-1a2bef5b2d65"><polygon points="-72.66 151.23 37.86 104.64 965.48 134.78 1330.5 69.47 1320.46 263.66 -49.21 299.43 -72.66 151.23"/><g class="uuid-f1be78ad-ea9c-4ff2-8c88-f12f268dd1b8"><path class="uuid-205fecdc-2972-4dda-9b06-80fc1f876c58" d="M-31.73,99.92l24.42,38.95s199.02-27.43,743.09,24.86c513.96,49.39,938.78-218.13,938.78-218.13l-13.95-24.98s-557,247.51-951.51,214.51C514.27,118.82-31.73,99.92-31.73,99.92Z"/><path class="uuid-065089f7-9334-42dd-9353-41640e60970c" d="M-36.97,92.46s198.93-33.72,840.76,7.23c350.36,22.35,787.5-154.52,852.81-188.85l10.75,17.57s-402.15,235.91-920.25,210.88c-274.9-13.28-759.95-4.41-759.95-4.41l-24.12-42.42Z"/><path class="uuid-9434c06e-2274-4bbb-805e-93769b17543f" d="M1678.15-56.32s-443.21,240.5-836.68,201.09C248.14,85.35-75.37,103.13-75.37,103.13c625.74-48.89,906.07,99.61,1382.85-50.92,243.39-76.84,351.45-142.96,351.45-142.96l19.22,34.43Z"/><path class="uuid-8eed587d-4911-494e-9e01-bb72bef5aa5d" d="M-11.47,137.74l-7.87-13.32s294.36-20.12,824.07,10.48c403.43,23.31,861.28-204.62,861.28-204.62,0,0-466.09,258.17-905.31,224.99C204.47,113.26-11.47,137.74-11.47,137.74Z"/></g><g class="uuid-53a78250-1a64-4fbd-90aa-2ab54f51ca48"><g class="uuid-19349189-5772-499e-992f-6d57cd80d403"><path class="uuid-205fecdc-2972-4dda-9b06-80fc1f876c58" d="M-31.73,99.92l24.42,38.95s199.02-27.43,743.09,24.86c513.96,49.39,938.78-218.13,938.78-218.13l-13.95-24.98s-557,247.51-951.51,214.51C514.27,118.82-31.73,99.92-31.73,99.92Z"/><path class="uuid-5c3abf9e-04dd-4461-8645-cc1c3d7c6e21" d="M-36.97,92.46s198.93-33.72,840.76,7.23c350.36,22.35,787.5-154.52,852.81-188.85l10.75,17.57s-402.15,235.91-920.25,210.88c-274.9-13.28-759.95-4.41-759.95-4.41l-24.12-42.42Z"/><path class="uuid-9434c06e-2274-4bbb-805e-93769b17543f" d="M1678.15-56.32s-443.21,240.5-836.68,201.09C248.14,85.35-75.37,103.13-75.37,103.13c625.74-48.89,906.07,99.61,1382.85-50.92,243.39-76.84,351.45-142.96,351.45-142.96l19.22,34.43Z"/><path class="uuid-8eed587d-4911-494e-9e01-bb72bef5aa5d" d="M-11.47,137.74l-7.87-13.32s294.36-20.12,824.07,10.48c403.43,23.31,861.28-204.62,861.28-204.62,0,0-466.09,258.17-905.31,224.99C204.47,113.26-11.47,137.74-11.47,137.74Z"/></g></g><g class="uuid-53a78250-1a64-4fbd-90aa-2ab54f51ca48"><g class="uuid-4f701d06-6b7e-4e3d-8839-db4623e36602"><path class="uuid-205fecdc-2972-4dda-9b06-80fc1f876c58" d="M-31.73,99.92l24.42,38.95s199.02-27.43,743.09,24.86c513.96,49.39,938.78-218.13,938.78-218.13l-13.95-24.98s-557,247.51-951.51,214.51C514.27,118.82-31.73,99.92-31.73,99.92Z"/><path class="uuid-9064acbb-5687-4eaa-9bac-b0887c7be625" d="M-36.97,92.46s198.93-33.72,840.76,7.23c350.36,22.35,787.5-154.52,852.81-188.85l10.75,17.57s-402.15,235.91-920.25,210.88c-274.9-13.28-759.95-4.41-759.95-4.41l-24.12-42.42Z"/><path class="uuid-9434c06e-2274-4bbb-805e-93769b17543f" d="M1678.15-56.32s-443.21,240.5-836.68,201.09C248.14,85.35-75.37,103.13-75.37,103.13c625.74-48.89,906.07,99.61,1382.85-50.92,243.39-76.84,351.45-142.96,351.45-142.96l19.22,34.43Z"/><path class="uuid-8eed587d-4911-494e-9e01-bb72bef5aa5d" d="M-11.47,137.74l-7.87-13.32s294.36-20.12,824.07,10.48c403.43,23.31,861.28-204.62,861.28-204.62,0,0-466.09,258.17-905.31,224.99C204.47,113.26-11.47,137.74-11.47,137.74Z"/></g></g><g class="uuid-53a78250-1a64-4fbd-90aa-2ab54f51ca48"><g class="uuid-b398a7bd-a6be-43b7-8c2e-a5cec3183690"><path class="uuid-205fecdc-2972-4dda-9b06-80fc1f876c58" d="M-31.73,99.92l24.42,38.95s199.02-27.43,743.09,24.86c513.96,49.39,938.78-218.13,938.78-218.13l-13.95-24.98s-557,247.51-951.51,214.51C514.27,118.82-31.73,99.92-31.73,99.92Z"/><path class="uuid-3ae25d74-1019-47c1-a5f0-98ae82bfb551" d="M-36.97,92.46s198.93-33.72,840.76,7.23c350.36,22.35,787.5-154.52,852.81-188.85l10.75,17.57s-402.15,235.91-920.25,210.88c-274.9-13.28-759.95-4.41-759.95-4.41l-24.12-42.42Z"/><path class="uuid-9434c06e-2274-4bbb-805e-93769b17543f" d="M1678.15-56.32s-443.21,240.5-836.68,201.09C248.14,85.35-75.37,103.13-75.37,103.13c625.74-48.89,906.07,99.61,1382.85-50.92,243.39-76.84,351.45-142.96,351.45-142.96l19.22,34.43Z"/><path class="uuid-8eed587d-4911-494e-9e01-bb72bef5aa5d" d="M-11.47,137.74l-7.87-13.32s294.36-20.12,824.07,10.48c403.43,23.31,861.28-204.62,861.28-204.62,0,0-466.09,258.17-905.31,224.99C204.47,113.26-11.47,137.74-11.47,137.74Z"/></g></g><g class="uuid-53a78250-1a64-4fbd-90aa-2ab54f51ca48"><g class="uuid-5c462b58-b41c-4569-8d9f-97a8a65d8597"><path class="uuid-205fecdc-2972-4dda-9b06-80fc1f876c58" d="M-31.73,99.92l24.42,38.95s199.02-27.43,743.09,24.86c513.96,49.39,938.78-218.13,938.78-218.13l-13.95-24.98s-557,247.51-951.51,214.51C514.27,118.82-31.73,99.92-31.73,99.92Z"/><path class="uuid-9c875e7c-0bcd-452c-842d-13b50bb67d83" d="M-36.97,92.46s198.93-33.72,840.76,7.23c350.36,22.35,787.5-154.52,852.81-188.85l10.75,17.57s-402.15,235.91-920.25,210.88c-274.9-13.28-759.95-4.41-759.95-4.41l-24.12-42.42Z"/><path class="uuid-9434c06e-2274-4bbb-805e-93769b17543f" d="M1678.15-56.32s-443.21,240.5-836.68,201.09C248.14,85.35-75.37,103.13-75.37,103.13c625.74-48.89,906.07,99.61,1382.85-50.92,243.39-76.84,351.45-142.96,351.45-142.96l19.22,34.43Z"/><path class="uuid-8eed587d-4911-494e-9e01-bb72bef5aa5d" d="M-11.47,137.74l-7.87-13.32s294.36-20.12,824.07,10.48c403.43,23.31,861.28-204.62,861.28-204.62,0,0-466.09,258.17-905.31,224.99C204.47,113.26-11.47,137.74-11.47,137.74Z"/></g></g><g class="uuid-53a78250-1a64-4fbd-90aa-2ab54f51ca48"><g class="uuid-756154c0-7cd0-4dcf-92e1-d8e8666decde"><path class="uuid-205fecdc-2972-4dda-9b06-80fc1f876c58" d="M-31.73,99.92l24.42,38.95s199.02-27.43,743.09,24.86c513.96,49.39,938.78-218.13,938.78-218.13l-13.95-24.98s-557,247.51-951.51,214.51C514.27,118.82-31.73,99.92-31.73,99.92Z"/><path class="uuid-6745d949-0832-4018-ba21-6cd1657ab359" d="M-36.97,92.46s198.93-33.72,840.76,7.23c350.36,22.35,787.5-154.52,852.81-188.85l10.75,17.57s-402.15,235.91-920.25,210.88c-274.9-13.28-759.95-4.41-759.95-4.41l-24.12-42.42Z"/><path class="uuid-9434c06e-2274-4bbb-805e-93769b17543f" d="M1678.15-56.32s-443.21,240.5-836.68,201.09C248.14,85.35-75.37,103.13-75.37,103.13c625.74-48.89,906.07,99.61,1382.85-50.92,243.39-76.84,351.45-142.96,351.45-142.96l19.22,34.43Z"/><path class="uuid-8eed587d-4911-494e-9e01-bb72bef5aa5d" d="M-11.47,137.74l-7.87-13.32s294.36-20.12,824.07,10.48c403.43,23.31,861.28-204.62,861.28-204.62,0,0-466.09,258.17-905.31,224.99C204.47,113.26-11.47,137.74-11.47,137.74Z"/></g></g><g class="uuid-53a78250-1a64-4fbd-90aa-2ab54f51ca48"><g class="uuid-6969bcfa-fd41-4eae-8a62-ffb6f7fc6a00"><path class="uuid-205fecdc-2972-4dda-9b06-80fc1f876c58" d="M-31.73,99.92l24.42,38.95s199.02-27.43,743.09,24.86c513.96,49.39,938.78-218.13,938.78-218.13l-13.95-24.98s-557,247.51-951.51,214.51C514.27,118.82-31.73,99.92-31.73,99.92Z"/><path class="uuid-f9fe2dfd-a2c8-4a3d-ba71-692224115733" d="M-36.97,92.46s198.93-33.72,840.76,7.23c350.36,22.35,787.5-154.52,852.81-188.85l10.75,17.57s-402.15,235.91-920.25,210.88c-274.9-13.28-759.95-4.41-759.95-4.41l-24.12-42.42Z"/><path class="uuid-9434c06e-2274-4bbb-805e-93769b17543f" d="M1678.15-56.32s-443.21,240.5-836.68,201.09C248.14,85.35-75.37,103.13-75.37,103.13c625.74-48.89,906.07,99.61,1382.85-50.92,243.39-76.84,351.45-142.96,351.45-142.96l19.22,34.43Z"/><path class="uuid-8eed587d-4911-494e-9e01-bb72bef5aa5d" d="M-11.47,137.74l-7.87-13.32s294.36-20.12,824.07,10.48c403.43,23.31,861.28-204.62,861.28-204.62,0,0-466.09,258.17-905.31,224.99C204.47,113.26-11.47,137.74-11.47,137.74Z"/></g></g></g></g></g></g></svg>