<?xml version="1.0" encoding="UTF-8"?><svg xmlns="http://www.w3.org/2000/svg" xmlns:xlink="http://www.w3.org/1999/xlink" viewBox="0 0 1281.49 323.72"><defs><style>.uuid-947d214f-06b7-4e77-9bd5-07738f01d318{fill:none;}.uuid-e4d79894-e4ca-4f22-87cd-592ba91d3563{fill:url(#uuid-37448959-bb66-4a19-b29f-abd0efecc30a);}.uuid-a0eac021-bca6-4b3d-be45-b07678a5edad{fill:url(#uuid-9613a57d-03ce-4255-aba8-50da97cb9df3);}.uuid-87011170-7b8c-47b2-a271-18f50755ea55{clip-path:url(#uuid-23222a4d-ef0c-4752-9f73-c7d303a463ec);}.uuid-b3e60cba-4111-432f-80d9-321b6866f1d1{fill:url(#uuid-b3a8894a-f474-4013-8cbb-70dc88df03a8);}.uuid-7cb866c0-e7d7-49ca-a1ba-3d92004d084d{clip-path:url(#uuid-33092f98-e0d7-462b-96db-47c8aad7d413);}.uuid-f382daf9-dfe0-463f-8977-420b13e8fe93{fill:url(#uuid-b4254779-441d-4e98-8fb3-7594c831799a);}.uuid-4e85c9ed-57c2-497f-92dc-6366664dd90e{isolation:isolate;}.uuid-abc076be-2ff1-4783-88d7-8d045ec8a74d{clip-path:url(#uuid-70c6c3cd-4d2b-412c-9498-8874ffdbdefd);}.uuid-e4e17cb0-ee84-4fc5-9f3f-efde995c03de{fill:url(#uuid-a3c18b99-4120-4471-8405-7790a147d003);}.uuid-fffc4d4a-1862-4894-bc9a-2d5f6a2b591f{fill:url(#uuid-40b0b46c-229b-4c58-8225-042bae6febc9);}.uuid-2d87ee03-54b4-4e72-b27a-192eb68c73a2{fill:url(#uuid-bd7c9319-eb4c-452e-aa74-8d58dbd08aaf);}.uuid-60858978-5dad-4879-b4d5-abad45436950{fill:#fff;}.uuid-8d5a470b-208e-4748-928c-6eb12fe1ef1e{mix-blend-mode:overlay;}.uuid-66781a92-ecba-47d7-9044-3e6404ccd77c{clip-path:url(#uuid-9c3726bb-3c28-4faf-aec2-84a6bab6b006);}.uuid-11d1ebc5-7cb5-49c7-9b82-6f4821664a0c{fill:url(#uuid-16e78896-d28e-4bcc-ae05-a546c71edfcc);}.uuid-db668a5c-7aa6-4831-afa6-c784a577bbfa{fill:url(#uuid-83f1d1d0-0061-494b-b4ba-273c0590dc38);}.uuid-672abeea-dfee-4af9-abdc-6b88187349ea{clip-path:url(#uuid-bfce3224-200f-426b-a3e0-0ebc1c1c3fd4);}</style><clipPath id="uuid-33092f98-e0d7-462b-96db-47c8aad7d413"><rect class="uuid-947d214f-06b7-4e77-9bd5-07738f01d318" width="1281.49" height="323.72"/></clipPath><clipPath id="uuid-70c6c3cd-4d2b-412c-9498-8874ffdbdefd"><polygon class="uuid-947d214f-06b7-4e77-9bd5-07738f01d318" points="1286.97 195.98 2.87 295.52 1.21 100.65 1287.72 37.89 1286.97 195.98"/></clipPath><linearGradient id="uuid-16e78896-d28e-4bcc-ae05-a546c71edfcc" x1="-7192.12" y1="-2176" x2="-7648.17" y2="-2827.29" gradientTransform="translate(-8758.9 -26.71) rotate(163.6) scale(1.21 1.13)" gradientUnits="userSpaceOnUse"><stop offset="0" stop-color="#ffe608"/><stop offset=".3" stop-color="#fcd204"/><stop offset=".68" stop-color="#fabf01"/><stop offset=".95" stop-color="#fab900"/></linearGradient><linearGradient id="uuid-37448959-bb66-4a19-b29f-abd0efecc30a" x1="-329.05" y1="-581.9" x2="954.05" y2="-581.9" gradientTransform="translate(281.28 706.66) rotate(4.71)" gradientUnits="userSpaceOnUse"><stop offset="0" stop-color="#fff381"/><stop offset=".04" stop-color="#fff27d"/><stop offset=".08" stop-color="#fff173"/><stop offset=".11" stop-color="#ffef61"/><stop offset=".14" stop-color="#ffec48"/><stop offset=".17" stop-color="#ffe929"/><stop offset=".2" stop-color="#ffe608"/><stop offset=".48" stop-color="#ffd803"/><stop offset=".66" stop-color="#ffcd00"/><stop offset=".93" stop-color="#fff6ad"/></linearGradient><linearGradient id="uuid-83f1d1d0-0061-494b-b4ba-273c0590dc38" x1="-7200.74" y1="-1967.05" x2="-7641.65" y2="-2596.74" gradientTransform="translate(-8691.23 -133.5) rotate(165.68) scale(1.21 1.13)" gradientUnits="userSpaceOnUse"><stop offset=".12" stop-color="#6d6d6c"/><stop offset=".31" stop-color="#cdcdcd"/><stop offset=".45" stop-color="#dbdbdb"/><stop offset=".45" stop-color="#d7d7d7"/><stop offset=".51" stop-color="#a4a3a3"/><stop offset=".56" stop-color="#848484"/><stop offset=".58" stop-color="#797878"/><stop offset=".61" stop-color="#8e8d8d"/><stop offset=".66" stop-color="#a7a7a7"/><stop offset=".68" stop-color="#b1b1b1"/><stop offset=".71" stop-color="#bfbfbf"/><stop offset=".77" stop-color="#dadada"/><stop offset=".81" stop-color="#e5e5e5"/><stop offset=".84" stop-color="#b7b7b7"/><stop offset=".87" stop-color="#8e8e8d"/><stop offset=".9" stop-color="#6f6f6f"/><stop offset=".93" stop-color="#5d5d5c"/><stop offset=".95" stop-color="#575756"/></linearGradient><linearGradient id="uuid-b3a8894a-f474-4013-8cbb-70dc88df03a8" x1="-7957.25" y1="-2279.94" x2="-6892.43" y2="-2279.94" gradientTransform="translate(-8690.97 -132.08) rotate(165.66) scale(1.21 1.13)" gradientUnits="userSpaceOnUse"><stop offset="0" stop-color="#fff59f"/><stop offset=".05" stop-color="#feef8f"/><stop offset=".24" stop-color="#fcdb5c"/><stop offset=".41" stop-color="#fbcc34"/><stop offset=".57" stop-color="#fac117"/><stop offset=".71" stop-color="#fabb06"/><stop offset=".81" stop-color="#fab900"/></linearGradient><linearGradient id="uuid-40b0b46c-229b-4c58-8225-042bae6febc9" x1="-7434.65" y1="-2443.91" x2="-7412.61" y2="-2538.25" gradientTransform="translate(-8758.9 -26.71) rotate(163.6) scale(1.21 1.13)" gradientUnits="userSpaceOnUse"><stop offset="0" stop-color="#fff381"/><stop offset=".17" stop-color="#fff27d"/><stop offset=".31" stop-color="#ffee73"/><stop offset=".44" stop-color="#ffe961"/><stop offset=".57" stop-color="#ffe248"/><stop offset=".69" stop-color="#ffd828"/><stop offset=".81" stop-color="#ffcd01"/><stop offset=".82" stop-color="#ffcd00"/></linearGradient><linearGradient id="uuid-bd7c9319-eb4c-452e-aa74-8d58dbd08aaf" x1="-7439.42" y1="-2427.52" x2="-7418.7" y2="-2516.27" xlink:href="#uuid-40b0b46c-229b-4c58-8225-042bae6febc9"/><clipPath id="uuid-bfce3224-200f-426b-a3e0-0ebc1c1c3fd4"><polygon class="uuid-947d214f-06b7-4e77-9bd5-07738f01d318" points="1286.97 195.98 2.87 295.52 1.21 100.65 1287.72 37.89 1286.97 195.98"/></clipPath><linearGradient id="uuid-b4254779-441d-4e98-8fb3-7594c831799a" x1="-7439.42" y1="-2427.52" x2="-7418.7" y2="-2516.27" xlink:href="#uuid-40b0b46c-229b-4c58-8225-042bae6febc9"/><clipPath id="uuid-23222a4d-ef0c-4752-9f73-c7d303a463ec"><polygon class="uuid-947d214f-06b7-4e77-9bd5-07738f01d318" points="1286.97 195.98 2.87 295.52 1.21 100.65 1287.72 37.89 1286.97 195.98"/></clipPath><linearGradient id="uuid-a3c18b99-4120-4471-8405-7790a147d003" x1="-7439.42" y1="-2427.52" x2="-7418.7" y2="-2516.27" xlink:href="#uuid-40b0b46c-229b-4c58-8225-042bae6febc9"/><clipPath id="uuid-9c3726bb-3c28-4faf-aec2-84a6bab6b006"><polygon class="uuid-947d214f-06b7-4e77-9bd5-07738f01d318" points="1286.97 195.98 2.87 295.52 1.21 100.65 1287.72 37.89 1286.97 195.98"/></clipPath><linearGradient id="uuid-9613a57d-03ce-4255-aba8-50da97cb9df3" x1="-7439.42" y1="-2427.52" x2="-7418.7" y2="-2516.27" xlink:href="#uuid-40b0b46c-229b-4c58-8225-042bae6febc9"/></defs><g class="uuid-4e85c9ed-57c2-497f-92dc-6366664dd90e"><g id="uuid-b86fb646-6b93-4d37-89c7-9b8a0e4c3b4a"><g id="uuid-d0a786df-a0c4-4dc9-be37-8c36bdb3a3d5"><g class="uuid-7cb866c0-e7d7-49ca-a1ba-3d92004d084d"><rect x="-137.54" y="-189.66" width="1627.53" height="753.49"/><polygon class="uuid-60858978-5dad-4879-b4d5-abad45436950" points="1648.78 82.44 559.02 98.34 -1063.77 416.48 -1063.77 -701.19 1619.76 -701.19 1648.78 82.44"/><g class="uuid-abc076be-2ff1-4783-88d7-8d045ec8a74d"><path class="uuid-11d1ebc5-7cb5-49c7-9b82-6f4821664a0c" d="M-2.07,215.95L-.11,236.51s247.86-109.19,543.26-127.29c357.63-21.92,650.99-19.1,749.24-11.31l-3.47,17.94s-384.13-40.14-802.62-11.05C193.19,125.17-2.07,215.95-2.07,215.95Z"/><path class="uuid-e4d79894-e4ca-4f22-87cd-592ba91d3563" d="M-2.07,215.95l-3.34-37.12S255.08,102.42,544.88,81.77c488.84-34.84,743.71,11.68,743.71,11.68l.03,5.43s-365.37-11.31-956.57,17.06C148.71,124.74-2.07,215.95-2.07,215.95Z"/><path class="uuid-db668a5c-7aa6-4831-afa6-c784a577bbfa" d="M-3.51,200.77l2,20.96s224.41-101.7,519.27-111.77c434.36-14.84,769.66-4.63,769.66-4.63v-3.66c-68.3-4.64-408.89-22.99-780.49-4.46C213.97,111.81-3.51,200.77-3.51,200.77Z"/><path class="uuid-b3e60cba-4111-432f-80d9-321b6866f1d1" d="M1289.5,87.81s-334.82-9.83-544.61,2.83C261.3,119.82-3.41,204.36-3.41,204.36L-.25,237.51C682.43,41.52,1289.28,100.62,1289.28,100.62l.22-12.81Z"/><path class="uuid-fffc4d4a-1862-4894-bc9a-2d5f6a2b591f" d="M3.46,274s81.39-54.91,360.32-116.77c175.5-38.92,472.35-101.76,925.04-36.31l2.82-8.63s-294.95-33.64-851.37,24.4C226.5,158.98-1.52,221.73-1.52,221.73l4.98,52.27Z"/><path class="uuid-2d87ee03-54b4-4e72-b27a-192eb68c73a2" d="M-.12,236.33s195.73-93.19,405.17-120.04c243.14-31.17,421.64-65.52,883.5-22.23l3.39-9.3s-481.92-31.62-894.03,37.16C197.81,155.32.89,246.93.89,246.93l-1.01-10.6Z"/></g><g class="uuid-8d5a470b-208e-4748-928c-6eb12fe1ef1e"><g class="uuid-672abeea-dfee-4af9-abdc-6b88187349ea"><path class="uuid-11d1ebc5-7cb5-49c7-9b82-6f4821664a0c" d="M-2.07,215.95L-.11,236.51s247.86-109.19,543.26-127.29c357.63-21.92,650.99-19.1,749.24-11.31l-3.47,17.94s-384.13-40.14-802.62-11.05C193.19,125.17-2.07,215.95-2.07,215.95Z"/><path class="uuid-e4d79894-e4ca-4f22-87cd-592ba91d3563" d="M-2.07,215.95l-3.34-37.12S255.08,102.42,544.88,81.77c488.84-34.84,743.71,11.68,743.71,11.68l.03,5.43s-365.37-11.31-956.57,17.06C148.71,124.74-2.07,215.95-2.07,215.95Z"/><path class="uuid-db668a5c-7aa6-4831-afa6-c784a577bbfa" d="M-3.51,200.77l2,20.96s224.41-101.7,519.27-111.77c434.36-14.84,769.66-4.63,769.66-4.63v-3.66c-68.3-4.64-408.89-22.99-780.49-4.46C213.97,111.81-3.51,200.77-3.51,200.77Z"/><path class="uuid-b3e60cba-4111-432f-80d9-321b6866f1d1" d="M1289.5,87.81s-334.82-9.83-544.61,2.83C261.3,119.82-3.41,204.36-3.41,204.36L-.25,237.51C682.43,41.52,1289.28,100.62,1289.28,100.62l.22-12.81Z"/><path class="uuid-fffc4d4a-1862-4894-bc9a-2d5f6a2b591f" d="M3.46,274s81.39-54.91,360.32-116.77c175.5-38.92,472.35-101.76,925.04-36.31l2.82-8.63s-294.95-33.64-851.37,24.4C226.5,158.98-1.52,221.73-1.52,221.73l4.98,52.27Z"/><path class="uuid-f382daf9-dfe0-463f-8977-420b13e8fe93" d="M-.12,236.33s195.73-93.19,405.17-120.04c243.14-31.17,421.64-65.52,883.5-22.23l3.39-9.3s-481.92-31.62-894.03,37.16C197.81,155.32.89,246.93.89,246.93l-1.01-10.6Z"/></g></g><g class="uuid-8d5a470b-208e-4748-928c-6eb12fe1ef1e"><g class="uuid-87011170-7b8c-47b2-a271-18f50755ea55"><path class="uuid-11d1ebc5-7cb5-49c7-9b82-6f4821664a0c" d="M-2.07,215.95L-.11,236.51s247.86-109.19,543.26-127.29c357.63-21.92,650.99-19.1,749.24-11.31l-3.47,17.94s-384.13-40.14-802.62-11.05C193.19,125.17-2.07,215.95-2.07,215.95Z"/><path class="uuid-e4d79894-e4ca-4f22-87cd-592ba91d3563" d="M-2.07,215.95l-3.34-37.12S255.08,102.42,544.88,81.77c488.84-34.84,743.71,11.68,743.71,11.68l.03,5.43s-365.37-11.31-956.57,17.06C148.71,124.74-2.07,215.95-2.07,215.95Z"/><path class="uuid-db668a5c-7aa6-4831-afa6-c784a577bbfa" d="M-3.51,200.77l2,20.96s224.41-101.7,519.27-111.77c434.36-14.84,769.66-4.63,769.66-4.63v-3.66c-68.3-4.64-408.89-22.99-780.49-4.46C213.97,111.81-3.51,200.77-3.51,200.77Z"/><path class="uuid-b3e60cba-4111-432f-80d9-321b6866f1d1" d="M1289.5,87.81s-334.82-9.83-544.61,2.83C261.3,119.82-3.41,204.36-3.41,204.36L-.25,237.51C682.43,41.52,1289.28,100.62,1289.28,100.62l.22-12.81Z"/><path class="uuid-fffc4d4a-1862-4894-bc9a-2d5f6a2b591f" d="M3.46,274s81.39-54.91,360.32-116.77c175.5-38.92,472.35-101.76,925.04-36.31l2.82-8.63s-294.95-33.64-851.37,24.4C226.5,158.98-1.52,221.73-1.52,221.73l4.98,52.27Z"/><path class="uuid-e4e17cb0-ee84-4fc5-9f3f-efde995c03de" d="M-.12,236.33s195.73-93.19,405.17-120.04c243.14-31.17,421.64-65.52,883.5-22.23l3.39-9.3s-481.92-31.62-894.03,37.16C197.81,155.32.89,246.93.89,246.93l-1.01-10.6Z"/></g></g><g class="uuid-8d5a470b-208e-4748-928c-6eb12fe1ef1e"><g class="uuid-66781a92-ecba-47d7-9044-3e6404ccd77c"><path class="uuid-11d1ebc5-7cb5-49c7-9b82-6f4821664a0c" d="M-2.07,215.95L-.11,236.51s247.86-109.19,543.26-127.29c357.63-21.92,650.99-19.1,749.24-11.31l-3.47,17.94s-384.13-40.14-802.62-11.05C193.19,125.17-2.07,215.95-2.07,215.95Z"/><path class="uuid-e4d79894-e4ca-4f22-87cd-592ba91d3563" d="M-2.07,215.95l-3.34-37.12S255.08,102.42,544.88,81.77c488.84-34.84,743.71,11.68,743.71,11.68l.03,5.43s-365.37-11.31-956.57,17.06C148.71,124.74-2.07,215.95-2.07,215.95Z"/><path class="uuid-db668a5c-7aa6-4831-afa6-c784a577bbfa" d="M-3.51,200.77l2,20.96s224.41-101.7,519.27-111.77c434.36-14.84,769.66-4.63,769.66-4.63v-3.66c-68.3-4.64-408.89-22.99-780.49-4.46C213.97,111.81-3.51,200.77-3.51,200.77Z"/><path class="uuid-b3e60cba-4111-432f-80d9-321b6866f1d1" d="M1289.5,87.81s-334.82-9.83-544.61,2.83C261.3,119.82-3.41,204.36-3.41,204.36L-.25,237.51C682.43,41.52,1289.28,100.62,1289.28,100.62l.22-12.81Z"/><path class="uuid-fffc4d4a-1862-4894-bc9a-2d5f6a2b591f" d="M3.46,274s81.39-54.91,360.32-116.77c175.5-38.92,472.35-101.76,925.04-36.31l2.82-8.63s-294.95-33.64-851.37,24.4C226.5,158.98-1.52,221.73-1.52,221.73l4.98,52.27Z"/><path class="uuid-a0eac021-bca6-4b3d-be45-b07678a5edad" d="M-.12,236.33s195.73-93.19,405.17-120.04c243.14-31.17,421.64-65.52,883.5-22.23l3.39-9.3s-481.92-31.62-894.03,37.16C197.81,155.32.89,246.93.89,246.93l-1.01-10.6Z"/></g></g></g></g></g></g></svg>