<?xml version="1.0" encoding="UTF-8"?><svg id="uuid-53180732-89e4-4bc5-9254-059caa3a3b0e" xmlns="http://www.w3.org/2000/svg" viewBox="0 0 172.46 69.87"><defs><style>.uuid-869f1074-56c4-4482-a3ea-a3a0303f652a{fill:#ffcb00;}.uuid-869f1074-56c4-4482-a3ea-a3a0303f652a,.uuid-116e5b40-1b32-495d-8fa3-932227b9b8fa{fill-rule:evenodd;}.uuid-bdb956c6-b0a0-4020-a6ad-31302fba3939{fill:#fff;}.uuid-c9e1c3c0-e0b7-4e53-a27a-1ade4d531bba{fill:#cececd;}</style></defs><g id="uuid-d0e43de1-9cd8-462d-93bf-fb6b5b0071c6"><path class="uuid-bdb956c6-b0a0-4020-a6ad-31302fba3939" d="M172.45,3.3c-.06-.38-.29-.7-.62-.86-3.32-1.62-7.42-2.44-12.19-2.44-5.22,0-10.96.98-17.04,2.93-12.45,3.98-24.48,11.41-33.01,20.41-.27.29-.37.7-.27,1.09-.47-.03-.96-.05-1.48-.05h-5.71l4.82-8.4c.2-.35.21-.79.01-1.15s-.56-.58-.95-.58h-7.86c-.39,0-.74.21-.94.56l-7.86,14.01c-.5-2.36-2.61-4.76-9.07-4.76h-15.91c-.23,0-.45.08-.63.22-.16-.1-.35-.16-.56-.16h-14.3c-.14,0-.28,0-.42,0-3.83,0-6.5,1.77-7.74,5.13l-5.22,11.65-2.49,5.38c-.16.35-.14.77.06,1.1.2.33.55.54.92.54h7.57c.42,0,.81-.26.99-.66l2.47-5.53,4.27-9.37c.17-.18.46-.36,1.11-.36h10.19c.23,0,.45-.08.63-.22.18.13.4.22.62.22h.84c-1.72.24-3.07,1.21-3.87,2.79l-2.93,6.08s-.02.05-.03.08l-.05.12s-.02.05-.03.08c-.25.77-.36,1.38-.36,1.9,0,2.25,1.37,4.94,7.89,4.94h10.1c4.64,0,7.86-1.29,9.61-3.82.22,1.33,1.03,2.68,3.16,3.46-9.48,3.72-19.98,6.51-30.59,8.11-6.24.94-12.2,1.42-17.71,1.42-11.59,0-20.57-2.17-24.82-5.89.01-.16,0-.33-.07-.49-.69-1.86-.65-3.72.14-5.52,1.48-3.4,5.12-5.78,8.03-6.87.31-.12.55-.37.66-.69l2.37-6.94c.05-.13.08-.28.08-.44,0-.15-.03-.28-.08-.41.35-.35.45-.92.2-1.38-.2-.37-.57-.59-.95-.59-.17,0-.34.04-.5.13-7.31,4-13.25,8.47-17.19,12.92-.06.07-.11.14-.15.22-.32.61-.6,1.21-.82,1.79-.18.48-.33.96-.45,1.43-.02-.01-.03-.02-.05-.03-.16-.09-.33-.13-.5-.13-.35,0-.7.18-.91.51-.96,1.51-1.69,3.02-2.17,4.49-1.27,3.88-.84,7.55,1.26,10.63,4.33,6.35,15.52,9.99,30.69,9.99,5.41,0,11.21-.46,17.25-1.37,20.04-3.02,39.83-10.52,52.94-20.07.1-.07.19-.16.26-.26,3.53-.35,6.05-1.61,7.52-3.77.56,1.84,2.47,3.56,7.69,3.56h10.1c3.04,0,5.47-.55,7.28-1.64-.14.34-.12.73.07,1.05.2.34.55.54.93.54h7.93c.41,0,.79-.24.98-.63l14.02-29.37c.09-.16.14-.35.14-.56,0-.63-.49-1.14-1.09-1.14h-7.77c-.41,0-.79.24-.97.63l-5.65,11.69c-.61-2.26-2.8-4.46-9-4.46h-13.23c2.25-1.39,4.58-2.67,6.97-3.84.2.37.56.59.95.59.12,0,.25-.02.37-.07,10.97-4.14,19.34-4.99,25.4-5.26.07,0,.15-.01.22-.03l5.69-1.49c.34-.09.61-.35.74-.68,0,0,.01,0,.02,0,.27,0,.54-.11.74-.3l8.94-8.66c.27-.26.39-.64.34-1.02Z"/><path class="uuid-bdb956c6-b0a0-4020-a6ad-31302fba3939" d="M17.46,22.21h12.23l-11.46,24.27c-.17.35-.15.77.05,1.11s.55.54.93.54h8.02c.41,0,.79-.24.97-.63l12.2-25.29h45.03c.4,0,.77-.23.96-.6l2.96-5.8c.18-.35.17-.78-.03-1.12-.2-.34-.55-.55-.93-.55H20.19c-.42,0-.79.25-.98.64l-2.73,5.8c-.17.35-.15.77.05,1.11.2.33.55.54.93.54Z"/><path class="uuid-bdb956c6-b0a0-4020-a6ad-31302fba3939" d="M161.74,17.88c-1.85,0-3.36,1.58-3.36,3.52s1.51,3.52,3.36,3.52,3.36-1.58,3.36-3.52-1.51-3.52-3.36-3.52ZM160.21,19.62h0c-.14.13-.26.27-.37.43-.17.26-.28.55-.35.86-.03.16-.05.32-.05.48h0c0-.17.02-.33.05-.48.06-.31.18-.6.35-.86.1-.16.23-.3.37-.43ZM161.74,20.11s-.09,0-.12,0c-.07,0-.13,0-.17.01.04,0,.09-.01.17-.01.04,0,.08,0,.12,0h0ZM162.28,19.59c.18.04.32.11.44.21.1.08.18.18.23.31-.05-.12-.13-.22-.23-.31-.12-.1-.26-.16-.44-.21ZM163.06,22.73c-.05-.2-.12-.47-.18-.71-.02-.08-.04-.15-.07-.22-.08-.2-.2-.35-.37-.42v-.02c.11-.04.21-.11.31-.2.06-.06.12-.13.16-.21-.04.08-.1.15-.16.21-.09.09-.2.16-.31.2v.02c.17.07.29.22.37.42.03.07.05.14.07.22.06.24.13.51.18.71h0ZM159.9,21.4c0-.39.11-.75.3-1.06v2.11c-.19-.3-.3-.67-.3-1.06ZM160.27,23.23h0c-.05-.04-.11-.08-.15-.13.05.05.1.09.15.13ZM161.86,23v-.13c.04.14.08.26.12.35.01.03.03.06.05.08-.1.02-.19.03-.29.03,0,0,0,0,0,0,.08-.09.13-.2.13-.33ZM163.4,22.21c-.03-.1-.05-.21-.08-.31-.02-.09-.07-.28-.18-.47.16-.18.27-.42.32-.69.07.21.12.43.12.66,0,.29-.07.56-.18.81ZM163.3,19.65s.04.03.06.05c-.02-.02-.04-.03-.06-.05ZM160.58,23.46h0c.09.06.18.11.27.16-.1-.04-.18-.1-.27-.16ZM164.04,21.4c0-.17-.02-.33-.05-.48-.06-.31-.18-.6-.35-.86.17.26.28.55.35.86.03.16.05.32.05.48h0ZM163.59,23.74c.36-.31.64-.71.83-1.16.15-.36.23-.76.23-1.18s-.08-.82-.23-1.18c-.16-.41-.41-.77-.72-1.06.31.29.56.65.72,1.06.15.36.23.76.23,1.18s-.08.82-.23,1.18c-.18.45-.47.85-.83,1.16Z"/><path d="M160.66,19.6c.24-.04.59-.07.99-.07.49,0,.83.08,1.06.27.2.16.31.41.31.73,0,.43-.3.74-.58.84v.02c.23.1.36.32.44.64.1.39.2.84.26.98h-.76c-.05-.1-.13-.38-.22-.8-.09-.44-.23-.55-.54-.55h-.22v1.36h-.74v-3.4ZM161.4,21.08h.29c.37,0,.59-.19.59-.5s-.2-.48-.55-.48c-.18,0-.28.01-.34.03v.95Z"/><path d="M161.74,24.44c-1.6,0-2.9-1.36-2.9-3.04s1.3-3.04,2.9-3.04,2.9,1.36,2.9,3.04-1.3,3.04-2.9,3.04ZM161.74,19c-1.27,0-2.3,1.08-2.3,2.4s1.03,2.4,2.3,2.4,2.3-1.08,2.3-2.4-1.03-2.4-2.3-2.4Z"/><path class="uuid-c9e1c3c0-e0b7-4e53-a27a-1ade4d531bba" d="M115.95,30.2c-.13-3.11-2.85-4.69-8.11-4.69h-7.64l5.82-10.13h-7.86l-7.89,14.07-5.86,12.22-.05.12c-.21.64-.31,1.15-.31,1.54,0,2.52,2.29,3.8,6.8,3.8h10.1c4.93,0,8.09-1.52,9.37-4.49l5.62-12.21v-.23Z"/><path class="uuid-869f1074-56c4-4482-a3ea-a3a0303f652a" d="M93.05,42.6h9.19c.69,0,1.32-.4,1.63-1.03l4.61-9.32c.61-1.24-.27-2.71-1.63-2.71h-9.29c-.69,0-.43-.05-.74.58l-4.95,9.79c-.6,1.24-.17,2.69,1.18,2.69h0Z"/><path class="uuid-869f1074-56c4-4482-a3ea-a3a0303f652a" d="M106.84,29.4h-9.29c-.69,0-.43-.05-.74.58l-4.95,9.79c-.6,1.24-.17,2.69,1.18,2.69h9.19c.69,0,1.32-.4,1.63-1.03l4.61-9.32c.61-1.24-.27-2.71-1.63-2.71Z"/><path class="uuid-c9e1c3c0-e0b7-4e53-a27a-1ade4d531bba" d="M143.42,30.12v-.23c-.13-3.11-2.86-4.69-8.11-4.69h-15.91l-2.53,5.63h17.46c.47,0,.63.11.7.27l-1.01,1.96h-15.42c-1.74,0-3.05.77-3.79,2.24l-2.92,6.05-.05.12c-.2.64-.3,1.15-.3,1.54,0,2.52,2.29,3.8,6.8,3.8h10.1c4.93,0,8.09-1.52,9.37-4.49l5.62-12.21ZM131.41,38.8l-.77,1.51c-.45.5-.92.79-1.44.88l-8.17-.05c-.15,0-.83-.01-1.05-.21l1.05-2.13h10.37Z"/><polygon class="uuid-c9e1c3c0-e0b7-4e53-a27a-1ade4d531bba" points="150.92 17.35 136.71 46.76 144.64 46.76 158.68 17.35 150.92 17.35"/><polygon class="uuid-c9e1c3c0-e0b7-4e53-a27a-1ade4d531bba" points="85.44 21.06 88.4 15.26 20.19 15.26 17.47 21.06 31.46 21.06 19.22 46.98 27.24 46.98 39.74 21.06 85.44 21.06"/><path class="uuid-c9e1c3c0-e0b7-4e53-a27a-1ade4d531bba" d="M63.2,25.26h-14.31c-3.62-.12-6.03,1.37-7.15,4.43l-5.24,11.69-2.5,5.39h7.57l2.47-5.53,4.34-9.52c.45-.59,1.11-.88,2.03-.88h10.19l2.59-5.58Z"/><path class="uuid-c9e1c3c0-e0b7-4e53-a27a-1ade4d531bba" d="M88.41,29.89c-.13-3.11-2.86-4.69-8.11-4.69h-15.91l-2.53,5.63h17.46c.47,0,.63.11.7.27l-1.01,1.96h-15.42c-1.74,0-3.05.77-3.79,2.25l-2.92,6.05-.05.12c-.21.65-.3,1.14-.3,1.54,0,2.52,2.29,3.8,6.8,3.8h10.1c4.93,0,8.09-1.52,9.37-4.49l5.62-12.21v-.23ZM75.63,40.31c-.45.5-.92.79-1.44.88l-8.17-.05c-.15,0-.83-.01-1.05-.21l1.05-2.13h10.37l-.77,1.51Z"/><path class="uuid-116e5b40-1b32-495d-8fa3-932227b9b8fa" d="M132.99,37.49l-1.51,2.95c-.63.73-1.32,1.15-2.09,1.25l-8.23-.05c-1.29,0-1.94-.4-1.98-1.2l1.46-2.95h12.34ZM133.36,33.56h-14.64c-1.42,0-2.43.58-3.02,1.75l-2.92,6.05c-.17.54-.26.96-.26,1.25,0,1.93,1.98,2.89,5.94,2.89h10.1c4.58,0,7.45-1.33,8.59-3.98l5.52-12c-.1-2.55-2.52-3.82-7.24-3.82h-15.37l-1.72,3.82h16.09c.97,0,1.51.44,1.62,1.31l-1.41,2.73h-1.3Z"/><polygon class="uuid-116e5b40-1b32-495d-8fa3-932227b9b8fa" points="157.42 17.85 144.24 45.45 138.25 45.45 151.59 17.85 157.42 17.85"/><polygon class="uuid-116e5b40-1b32-495d-8fa3-932227b9b8fa" points="40.8 19.75 85.06 19.75 87.09 15.77 20.87 15.77 19 19.75 32.99 19.75 20.75 45.67 26.84 45.67 39.34 19.75 40.8 19.75"/><path class="uuid-116e5b40-1b32-495d-8fa3-932227b9b8fa" d="M55.32,29.52h-4.77c-1.23,0-2.16.44-2.77,1.31l-4.38,9.6-2.24,5.02h-5.64l1.9-4.09,5.25-11.73c.97-2.69,3.08-3.98,6.32-3.87h12.96l-1.75,3.77h-4.88Z"/><path class="uuid-116e5b40-1b32-495d-8fa3-932227b9b8fa" d="M77.99,37.49l-1.51,2.95c-.63.73-1.32,1.15-2.09,1.25l-8.23-.05c-1.28,0-1.95-.4-1.98-1.2l1.46-2.95h12.35ZM78.36,33.56h-14.64c-1.42,0-2.43.58-3.02,1.75l-2.92,6.05c-.17.54-.26.96-.26,1.25,0,1.93,1.98,2.89,5.94,2.89h10.1c4.58,0,7.45-1.33,8.59-3.98l5.52-12c-.11-2.55-2.52-3.82-7.24-3.82h-15.37l-1.72,3.82h16.09c.97,0,1.51.44,1.61,1.31l-1.4,2.73h-1.3Z"/><path class="uuid-116e5b40-1b32-495d-8fa3-932227b9b8fa" d="M104.5,29.84h-5.11c-1.32,0-2.31.44-2.97,1.31l-4.69,9.6c.03.8.69,1.2,1.98,1.2l8.23.05c.8-.11,1.44-.53,1.93-1.25l4.74-9.6c-.1-.87-.64-1.31-1.62-1.31h-2.5ZM115.23,29.84l-5.52,12c-1.14,2.65-4.01,3.98-8.59,3.98h-10.1c-3.96,0-5.94-.96-5.94-2.89,0-.29.09-.71.26-1.25l5.83-12.16,7.64-13.62h5.83l-5.82,10.13h9.17c4.72,0,7.14,1.27,7.24,3.82h0Z"/><path class="uuid-869f1074-56c4-4482-a3ea-a3a0303f652a" d="M161.41,12.84l-5.69,1.49c-5.46.25-14.23.99-25.72,5.33,3.44-2.66,22.01-8.78,31.42-6.82h0Z"/><path class="uuid-869f1074-56c4-4482-a3ea-a3a0303f652a" d="M23.2,30.28l-2.39,7c-5.34,2-11.25,7.33-8.82,13.87-4.67-6.54-.2-12.91,11.21-20.87h0Z"/><path class="uuid-116e5b40-1b32-495d-8fa3-932227b9b8fa" d="M101.53,47.49h-5.25c-.96.6-1.97,1.18-3.01,1.76-.45-.01-.96-.02-1.43-.07,1.11-.55,2.19-1.11,3.23-1.69h-3.65c-.62,0-1.21-.02-1.77-.07-9.9,4.19-21.69,7.58-33.89,9.42-29.35,4.42-49.94-1.77-45.98-13.83,1.53-4.65,6.48-9.5,13.68-13.96-7.12,3.9-12.96,8.24-16.9,12.69-.29.55-.55,1.11-.76,1.66-.97,2.57-.96,4.94-.09,7.07-.57,0-1.49.51-2.21,1.2-.61-1.92-.55-4.02.27-6.28-.9,1.41-1.59,2.83-2.05,4.23-4.76,14.52,16.73,22.46,48.01,17.75,20.48-3.09,40.07-10.84,52.49-19.89-.24,0-.48.01-.72.01h0ZM9.21,58.12c.07-.93.44-1.74.97-2.43l-.14-.17c4.33,3.06,11.28,5.11,20.08,5.84-.07.69-.07,1.36.02,1.99-8.99-.52-16.22-2.36-20.94-5.23h0ZM48.04,62.79c-3.71.4-7.26.63-10.63.69-.22-.56-.38-1.17-.5-1.84,4.09.02,8.48-.2,13.1-.71,2.35-.26,4.69-.58,7.02-.96.41.46.83.89,1.23,1.3-3.36.63-6.78,1.14-10.22,1.51h0ZM64.11,60.05c-.58-.28-1.09-.62-1.43-1.11,4.21-.87,8.32-1.92,12.26-3.13.37.3.76.58,1.14.86-3.82,1.28-7.84,2.42-11.98,3.38h0ZM82.03,54.51c-.44-.17-.87-.37-1.24-.65,2.49-.9,4.89-1.86,7.18-2.87.4.13.81.26,1.18.4-2.25,1.09-4.63,2.13-7.12,3.11h0Z"/><path class="uuid-116e5b40-1b32-495d-8fa3-932227b9b8fa" d="M142.93,4.02c-12.69,4.05-24.51,11.64-32.56,20.12.91.1,1.77.27,2.56.53.84-.73,1.71-1.46,2.61-2.17.24.47.54.86.9,1.18-.69.54-1.36,1.09-2.02,1.64.66.38,1.21.86,1.64,1.45,6.71-4.97,14.94-9.28,23.64-12.06,8.87-2.83,16.77-3.6,22.74-2.57l8.94-8.66c-6.49-3.16-16.63-3.23-28.45.54h0ZM119.82,21.17c-.37-.29-.72-.66-1.05-1.11,1.29-.92,2.63-1.82,4-2.69.23.48.53.9.91,1.26-1.32.82-2.61,1.66-3.85,2.54h0ZM127.87,16.21c-.38-.33-.72-.75-1.04-1.25,2.05-1.15,4.18-2.22,6.35-3.22.14.57.36,1.08.67,1.54-2.04.9-4.05,1.88-5.99,2.93h0ZM140.54,10.69c-.74.25-1.47.51-2.2.78-.34-.43-.63-.94-.88-1.54,1.57-.62,3.16-1.19,4.77-1.72,1.47-.48,2.88-.9,4.25-1.28.1.66.29,1.27.59,1.84-2.07.52-4.25,1.15-6.53,1.92h0ZM159.57,6.74c-2.02.12-4.24.38-6.65.79-.35-.55-.62-1.21-.83-1.96,3.6-.74,6.79-1.13,9.55-1.27-.67.6-1.44,1.53-2.07,2.44h0Z"/></g></svg>