<?xml version="1.0" encoding="UTF-8"?><svg id="uuid-af391e20-66e4-4bbb-a31f-3446840db8ff" xmlns="http://www.w3.org/2000/svg" xmlns:xlink="http://www.w3.org/1999/xlink" viewBox="0 0 1281.4 361.89"><defs><style>.uuid-dc3070b6-910b-43d9-8456-46e30549265f{fill:none;}.uuid-1e9e7d23-3ec0-4a6b-b45f-69beb3addaf1{clip-path:url(#uuid-c9b9eced-9f3b-4298-b189-5059a81b8619);}.uuid-d3708644-e24e-4912-bb77-c9bcc242598b{fill:#ffe900;}.uuid-ea55c44e-2512-4a24-a8a1-fd36a478f1cc{fill:url(#uuid-c1d18dcf-c9b3-4300-96b3-2671a6cd5d59);}.uuid-3d6aeb99-cca7-46af-b583-7e077901e024{fill:url(#uuid-6301148f-15d6-485d-b61c-9ee7f56dfb7b);}.uuid-ea1323dc-81c3-4baa-8f18-315c6906f666{fill:#fff;}.uuid-014d70ec-6610-485b-92b4-ae101e471d09{clip-path:url(#uuid-c75505a9-2f9c-4fc0-8c47-2dc6daa3e0a6);}.uuid-bcadb436-d200-4301-aa55-23c0c4db703b{fill:url(#uuid-b17e9b3b-f026-44e8-96f7-35588f9aaa9b);}.uuid-51bc9c1a-d245-4d44-b7a8-ba4191bcac03{fill:url(#uuid-2a4a32b8-b972-4e8a-a16a-b45b7a88a6a7);}</style><clipPath id="uuid-c9b9eced-9f3b-4298-b189-5059a81b8619"><rect class="uuid-dc3070b6-910b-43d9-8456-46e30549265f" width="1281.4" height="361.89"/></clipPath><clipPath id="uuid-c75505a9-2f9c-4fc0-8c47-2dc6daa3e0a6"><rect class="uuid-dc3070b6-910b-43d9-8456-46e30549265f" x="-7.13" y="-26.37" width="1290.32" height="379.64" transform="translate(1286.15 280.69) rotate(175.88)"/></clipPath><linearGradient id="uuid-c1d18dcf-c9b3-4300-96b3-2671a6cd5d59" x1="4591.71" y1="19.22" x2="5887.5" y2="19.22" gradientTransform="translate(5862.42 -210.66) rotate(175.88) scale(1 -1)" gradientUnits="userSpaceOnUse"><stop offset="0" stop-color="#fff59f"/><stop offset=".05" stop-color="#feef8f"/><stop offset=".24" stop-color="#fcdb5c"/><stop offset=".41" stop-color="#fbcc34"/><stop offset=".57" stop-color="#fac117"/><stop offset=".71" stop-color="#fabb06"/><stop offset=".81" stop-color="#fab900"/></linearGradient><linearGradient id="uuid-b17e9b3b-f026-44e8-96f7-35588f9aaa9b" x1="3208.27" y1="1440.62" x2="2503.98" y2="434.8" gradientTransform="translate(3982.28 1122.93) rotate(-152.4) scale(1.19 -.75)" gradientUnits="userSpaceOnUse"><stop offset="0" stop-color="#ffe608"/><stop offset=".3" stop-color="#fcd204"/><stop offset=".68" stop-color="#fabf01"/><stop offset=".95" stop-color="#fab900"/></linearGradient><linearGradient id="uuid-6301148f-15d6-485d-b61c-9ee7f56dfb7b" x1="2824.67" y1="1171.69" x2="2908.38" y2="813.22" gradientTransform="translate(3982.28 1122.93) rotate(-152.4) scale(1.19 -.75)" gradientUnits="userSpaceOnUse"><stop offset="0" stop-color="#fff381"/><stop offset=".13" stop-color="#fff27d"/><stop offset=".25" stop-color="#ffee73"/><stop offset=".35" stop-color="#ffe961"/><stop offset=".45" stop-color="#ffe248"/><stop offset=".55" stop-color="#ffd828"/><stop offset=".65" stop-color="#ffcd01"/><stop offset=".65" stop-color="#ffcd00"/><stop offset=".97" stop-color="#cea601"/></linearGradient><linearGradient id="uuid-2a4a32b8-b972-4e8a-a16a-b45b7a88a6a7" x1="2352.6" y1="954.37" x2="3392.56" y2="954.37" gradientTransform="translate(3982.28 1122.93) rotate(-152.4) scale(1.19 -.75)" gradientUnits="userSpaceOnUse"><stop offset=".05" stop-color="#f8c400"/><stop offset=".06" stop-color="#f4c40f"/><stop offset=".09" stop-color="#ebc63b"/><stop offset=".12" stop-color="#e3c862"/><stop offset=".15" stop-color="#dcc983"/><stop offset=".18" stop-color="#d6ca9e"/><stop offset=".21" stop-color="#d2cbb3"/><stop offset=".25" stop-color="#cfccc1"/><stop offset=".3" stop-color="#cdccca"/><stop offset=".37" stop-color="#cdcdcd"/><stop offset=".52" stop-color="#9d9d9c"/><stop offset=".65" stop-color="#797978"/><stop offset=".75" stop-color="#636362"/><stop offset=".82" stop-color="#5b5b5a"/><stop offset=".83" stop-color="#575756"/><stop offset=".9" stop-color="#373736"/><stop offset=".96" stop-color="#242422"/><stop offset="1" stop-color="#1d1d1b"/></linearGradient></defs><g id="uuid-45a48f05-04c2-497a-84f8-9b0e00bd31b4"><g class="uuid-1e9e7d23-3ec0-4a6b-b45f-69beb3addaf1"><rect class="uuid-ea1323dc-81c3-4baa-8f18-315c6906f666" x="-2.08" y="50.05" width="1312.74" height="283.76"/><polygon points="-118.84 399.67 430.36 649.72 1334.55 428.7 1323.39 230 966.18 267.95 -42.94 134 -103.22 245.63 -118.84 399.67"/><g class="uuid-014d70ec-6610-485b-92b4-ae101e471d09"><path class="uuid-ea55c44e-2512-4a24-a8a1-fd36a478f1cc" d="M-17.13,111.37l4.13,57.42s104.14,24.81,355.29,64.05c518.76,81.06,949.28,21.98,949.28,21.98l.06-9.59s-433.25,60.4-927.55-32.52C199.92,181.86-17.13,111.37-17.13,111.37Z"/><path class="uuid-bcadb436-d200-4301-aa55-23c0c4db703b" d="M-15.05,151.58l-3.64-50.58s203.74,84.47,478.4,112.73c515.8,53.06,901.85,22.13,901.85,22.13,0,0-491.23,66.16-880.66,4.42C217.27,198.49-15.05,151.58-15.05,151.58Z"/><path class="uuid-3d6aeb99-cca7-46af-b583-7e077901e024" d="M-21.95,44.33s37.46,50.59,369.22,121.25c342.44,72.93,738.6,88.16,942.76,65.91l.21,5.78s-419.39,53.76-1019.3-53.17C78.31,149.77-17.88,100.94-17.88,100.94l-4.07-56.61Z"/><path class="uuid-51bc9c1a-d245-4d44-b7a8-ba4191bcac03" d="M1291.45,246.34s-231.87,32.62-543.23,14.37C347.91,237.24-17.07,110.67-17.07,110.67l3.14-30.14c628.71,242.97,1305.7,161.83,1305.7,161.83l-.32,3.98Z"/><path class="uuid-d3708644-e24e-4912-bb77-c9bcc242598b" d="M1291.05,240.67s-188.25,30.11-499.61,11.86C391.12,229.06-17.68,105.52-17.68,105.52l3.14-30.14c628.71,242.97,1305.7,161.83,1305.7,161.83l-.11,3.46Z"/></g></g></g></svg>