<?xml version="1.0" encoding="UTF-8"?><svg id="uuid-bdc85305-4517-4bc5-872f-84ab112fd055" xmlns="http://www.w3.org/2000/svg" xmlns:xlink="http://www.w3.org/1999/xlink" viewBox="0 0 1281.4 361.89"><defs><style>.uuid-67d0b866-e831-41e2-a43d-2df681b50d60{fill:none;}.uuid-bd6a3fb1-1f8d-4b63-bbc1-ac99e221fecb{fill:#ffe900;}.uuid-87522d75-e3a6-4e65-b3f6-426a01853aeb{fill:url(#uuid-7f7dfb40-8ae2-4fd6-962c-a416be9c88d4);}.uuid-5893889c-2cf7-46ab-bc0f-4bf31f1ce118{clip-path:url(#uuid-6c2bc75d-b7bb-441a-aa7e-31ffc4302227);}.uuid-e11de3d7-f493-4cdf-b556-ee9597000535{clip-path:url(#uuid-ba361d36-675a-4dba-ac9f-1890e8fac386);}.uuid-6008935b-472e-4191-b731-89ef87424ba7{fill:#fff;}.uuid-54587e82-6840-4c8b-ae3e-43768baaaf90{fill:url(#uuid-783be8ff-3aca-4c40-a378-82b29795acae);}.uuid-16ba9554-45de-4d07-876e-b47b32ccd75c{fill:url(#uuid-4f9501e7-9276-4828-a104-62e3f1475bdf);}.uuid-0138eb2b-1a6c-4471-9fe9-e7fa1b29fa01{fill:url(#uuid-b4581142-d486-4e40-8557-3d0473bf0adc);}</style><clipPath id="uuid-ba361d36-675a-4dba-ac9f-1890e8fac386"><rect class="uuid-67d0b866-e831-41e2-a43d-2df681b50d60" x="0" width="1281.4" height="361.89"/></clipPath><clipPath id="uuid-6c2bc75d-b7bb-441a-aa7e-31ffc4302227"><rect class="uuid-67d0b866-e831-41e2-a43d-2df681b50d60" x="-7.13" y="-26.37" width="1290.32" height="379.64" transform="translate(1286.15 280.69) rotate(175.88)"/></clipPath><linearGradient id="uuid-b4581142-d486-4e40-8557-3d0473bf0adc" x1="5385.58" y1="-9.3" x2="6681.37" y2="-9.3" gradientTransform="translate(6656.29 -239.18) rotate(175.88) scale(1 -1)" gradientUnits="userSpaceOnUse"><stop offset="0" stop-color="#fff59f"/><stop offset=".05" stop-color="#feef8f"/><stop offset=".24" stop-color="#fcdb5c"/><stop offset=".41" stop-color="#fbcc34"/><stop offset=".57" stop-color="#fac117"/><stop offset=".71" stop-color="#fabb06"/><stop offset=".81" stop-color="#fab900"/></linearGradient><linearGradient id="uuid-783be8ff-3aca-4c40-a378-82b29795acae" x1="3958.3" y1="1667.26" x2="3254.02" y2="661.44" gradientTransform="translate(4848.98 1385.51) rotate(-152.4) scale(1.19 -.75)" gradientUnits="userSpaceOnUse"><stop offset="0" stop-color="#ffe608"/><stop offset=".3" stop-color="#fcd204"/><stop offset=".68" stop-color="#fabf01"/><stop offset=".95" stop-color="#fab900"/></linearGradient><linearGradient id="uuid-4f9501e7-9276-4828-a104-62e3f1475bdf" x1="3574.7" y1="1398.33" x2="3658.42" y2="1039.86" gradientTransform="translate(4848.98 1385.51) rotate(-152.4) scale(1.19 -.75)" gradientUnits="userSpaceOnUse"><stop offset="0" stop-color="#fff381"/><stop offset=".13" stop-color="#fff27d"/><stop offset=".25" stop-color="#ffee73"/><stop offset=".35" stop-color="#ffe961"/><stop offset=".45" stop-color="#ffe248"/><stop offset=".55" stop-color="#ffd828"/><stop offset=".65" stop-color="#ffcd01"/><stop offset=".65" stop-color="#ffcd00"/><stop offset=".97" stop-color="#cea601"/></linearGradient><linearGradient id="uuid-7f7dfb40-8ae2-4fd6-962c-a416be9c88d4" x1="3102.63" y1="1181.01" x2="4142.6" y2="1181.01" gradientTransform="translate(4848.98 1385.51) rotate(-152.4) scale(1.19 -.75)" gradientUnits="userSpaceOnUse"><stop offset=".05" stop-color="#f8c400"/><stop offset=".06" stop-color="#f4c40f"/><stop offset=".09" stop-color="#ebc63b"/><stop offset=".12" stop-color="#e3c862"/><stop offset=".15" stop-color="#dcc983"/><stop offset=".18" stop-color="#d6ca9e"/><stop offset=".21" stop-color="#d2cbb3"/><stop offset=".25" stop-color="#cfccc1"/><stop offset=".3" stop-color="#cdccca"/><stop offset=".37" stop-color="#cdcdcd"/><stop offset=".52" stop-color="#9d9d9c"/><stop offset=".65" stop-color="#797978"/><stop offset=".75" stop-color="#636362"/><stop offset=".82" stop-color="#5b5b5a"/><stop offset=".83" stop-color="#575756"/><stop offset=".9" stop-color="#373736"/><stop offset=".96" stop-color="#242422"/><stop offset="1" stop-color="#1d1d1b"/></linearGradient></defs><g id="uuid-9b51c11a-eb99-44bb-afcb-9d8496c02ae0"><g class="uuid-e11de3d7-f493-4cdf-b556-ee9597000535"><rect class="uuid-6008935b-472e-4191-b731-89ef87424ba7" x="-2.08" y="50.05" width="1312.74" height="283.76"/><polygon points="-118.84 399.67 430.36 649.72 1334.55 428.7 1323.39 230 966.18 267.95 -42.94 134 -103.22 245.63 -118.84 399.67"/><g class="uuid-5893889c-2cf7-46ab-bc0f-4bf31f1ce118"><path class="uuid-0138eb2b-1a6c-4471-9fe9-e7fa1b29fa01" d="M-17.13,111.37l4.13,57.42s104.14,24.81,355.29,64.05c518.76,81.06,949.28,21.98,949.28,21.98l.06-9.59s-433.25,60.4-927.55-32.52C199.92,181.86-17.13,111.37-17.13,111.37Z"/><path class="uuid-54587e82-6840-4c8b-ae3e-43768baaaf90" d="M-15.05,151.58l-3.64-50.58s203.74,84.47,478.4,112.73c515.8,53.06,901.85,22.13,901.85,22.13,0,0-491.23,66.16-880.66,4.42C217.27,198.49-15.05,151.58-15.05,151.58Z"/><path class="uuid-16ba9554-45de-4d07-876e-b47b32ccd75c" d="M-21.95,44.33s37.46,50.59,369.22,121.25c342.44,72.93,738.6,88.16,942.76,65.91l.21,5.78s-419.39,53.76-1019.3-53.17C78.31,149.77-17.88,100.94-17.88,100.94l-4.07-56.61Z"/><path class="uuid-87522d75-e3a6-4e65-b3f6-426a01853aeb" d="M1291.45,246.34s-231.87,32.62-543.23,14.37C347.91,237.24-17.07,110.67-17.07,110.67l3.14-30.14c628.71,242.97,1305.7,161.83,1305.7,161.83l-.32,3.98Z"/><path class="uuid-bd6a3fb1-1f8d-4b63-bbc1-ac99e221fecb" d="M1291.05,240.67s-188.25,30.11-499.61,11.86C391.12,229.06-17.68,105.52-17.68,105.52l3.14-30.14c628.71,242.97,1305.7,161.83,1305.7,161.83l-.11,3.46Z"/></g></g></g></svg>