<?xml version="1.0" encoding="UTF-8"?><svg id="uuid-5930901a-02b2-47d1-a9fa-ffcd842a4152" xmlns="http://www.w3.org/2000/svg" xmlns:xlink="http://www.w3.org/1999/xlink" viewBox="0 0 1282.18 454.71"><defs><style>.uuid-93aaab76-8b8d-4bbc-bc87-5db04c1db3a8{fill:none;}.uuid-cda5ae2b-cb79-49ff-bfb5-1667edf30a50{fill:url(#uuid-4a5b087d-4e80-497c-a423-763c998a0d45);}.uuid-46a1b4e6-a40f-443b-b01d-f0bd187a1824{fill:#ffe900;}.uuid-c569fb3c-f1b6-4546-9dc0-dec546420942{fill:url(#uuid-6c6a92a9-1c6a-46e1-90cf-211988c7941f);}.uuid-0f67dbef-906b-4b47-b8bb-a8e34fbfa5fb{clip-path:url(#uuid-4ea0fe24-82aa-4748-843a-285c96b05f7e);}.uuid-fff3e8bc-08e5-4f68-9039-d79d3d4e52c7{fill:url(#uuid-f05a1e3d-1acf-4ae0-b255-c990e3694934);}.uuid-2e5cdfe1-3b5a-43af-add4-1393a74c30cf{clip-path:url(#uuid-3de09a21-6360-422c-87e2-b95b1dce6e2a);}.uuid-e4277ad6-ab38-40f5-addd-31bd94dd86b7{fill:#fff;}.uuid-c1f8fc38-c5e8-47a1-ab6f-2c28be29d0d1{fill:url(#uuid-4e739f97-de01-4056-bb0b-6a3eff65213f);}.uuid-e973d0fd-96d1-40e3-93b4-b5fcb30f8bc8{fill:url(#uuid-70649651-6226-4c36-afc6-8dfa8b2fc889);}</style><clipPath id="uuid-4ea0fe24-82aa-4748-843a-285c96b05f7e"><rect class="uuid-93aaab76-8b8d-4bbc-bc87-5db04c1db3a8" width="1282.18" height="454.71"/></clipPath><linearGradient id="uuid-4a5b087d-4e80-497c-a423-763c998a0d45" x1="-3775.46" y1="-194.27" x2="-3519.99" y2="-559.13" gradientTransform="translate(-4232.14 1119.6) rotate(173.35) scale(1.31 -.82) skewX(6.05)" gradientUnits="userSpaceOnUse"><stop offset=".02" stop-color="#575756"/><stop offset=".93" stop-color="#000"/></linearGradient><clipPath id="uuid-3de09a21-6360-422c-87e2-b95b1dce6e2a"><polygon class="uuid-93aaab76-8b8d-4bbc-bc87-5db04c1db3a8" points="-4.93 177.12 1337.95 -65.22 1341.88 193.16 -1.31 414.55 -4.93 177.12"/></clipPath><linearGradient id="uuid-f05a1e3d-1acf-4ae0-b255-c990e3694934" x1="-6186.32" y1="-3755.3" x2="-6804.07" y2="-4637.53" gradientTransform="translate(-7196.47 2521.54) rotate(-176.08) scale(1.18 -.68)" gradientUnits="userSpaceOnUse"><stop offset=".02" stop-color="#fff6aa"/><stop offset=".06" stop-color="#fff6ae"/><stop offset=".1" stop-color="#fff7ba"/><stop offset=".13" stop-color="#fff9ce"/><stop offset=".17" stop-color="#fffceb"/><stop offset=".19" stop-color="#fff"/><stop offset=".21" stop-color="#fffbe4"/><stop offset=".23" stop-color="#fff4b8"/><stop offset=".26" stop-color="#ffee90"/><stop offset=".28" stop-color="#ffe96f"/><stop offset=".31" stop-color="#ffe554"/><stop offset=".34" stop-color="#ffe23f"/><stop offset=".38" stop-color="#ffe031"/><stop offset=".42" stop-color="#ffdf28"/><stop offset=".48" stop-color="#ffdf26"/><stop offset=".86" stop-color="#fbc40b"/><stop offset="1" stop-color="#fab900"/></linearGradient><linearGradient id="uuid-4e739f97-de01-4056-bb0b-6a3eff65213f" x1="-6528.12" y1="-4064.31" x2="-6477.78" y2="-4279.86" gradientTransform="translate(-7196.47 2521.54) rotate(-176.08) scale(1.18 -.68)" gradientUnits="userSpaceOnUse"><stop offset="0" stop-color="#fff381"/><stop offset=".17" stop-color="#fff27d"/><stop offset=".31" stop-color="#ffee73"/><stop offset=".44" stop-color="#ffe961"/><stop offset=".57" stop-color="#ffe248"/><stop offset=".69" stop-color="#ffd828"/><stop offset=".81" stop-color="#ffcd01"/><stop offset=".82" stop-color="#ffcd00"/></linearGradient><linearGradient id="uuid-6c6a92a9-1c6a-46e1-90cf-211988c7941f" x1="-2721.66" y1="-3088.78" x2="-3154.66" y2="-3707.16" gradientTransform="translate(-2829.57 4107.42) rotate(178.84) scale(1.21 -1.13)" gradientUnits="userSpaceOnUse"><stop offset=".12" stop-color="#6d6d6c"/><stop offset=".31" stop-color="#cdcdcd"/><stop offset=".45" stop-color="#dbdbdb"/><stop offset=".45" stop-color="#d7d7d7"/><stop offset=".51" stop-color="#a4a3a3"/><stop offset=".56" stop-color="#848484"/><stop offset=".58" stop-color="#797878"/><stop offset=".61" stop-color="#8e8d8d"/><stop offset=".66" stop-color="#a7a7a7"/><stop offset=".68" stop-color="#b1b1b1"/><stop offset=".71" stop-color="#bfbfbf"/><stop offset=".77" stop-color="#dadada"/><stop offset=".81" stop-color="#e5e5e5"/><stop offset=".84" stop-color="#b7b7b7"/><stop offset=".87" stop-color="#8e8e8d"/><stop offset=".9" stop-color="#6f6f6f"/><stop offset=".93" stop-color="#5d5d5c"/><stop offset=".95" stop-color="#575756"/></linearGradient><linearGradient id="uuid-70649651-6226-4c36-afc6-8dfa8b2fc889" x1="-7031.05" y1="-4194.17" x2="-5927.42" y2="-4194.17" gradientTransform="translate(-7196.47 2521.54) rotate(-176.08) scale(1.18 -.68)" gradientUnits="userSpaceOnUse"><stop offset="0" stop-color="#fff59f"/><stop offset=".05" stop-color="#feef8f"/><stop offset=".24" stop-color="#fcdb5c"/><stop offset=".41" stop-color="#fbcc34"/><stop offset=".57" stop-color="#fac117"/><stop offset=".71" stop-color="#fabb06"/><stop offset=".81" stop-color="#fab900"/></linearGradient></defs><g id="uuid-33b3a46b-8049-4b32-960b-a1443e670811"><g class="uuid-0f67dbef-906b-4b47-b8bb-a8e34fbfa5fb"><path d="M-238.91-177.76h1597.39l-39.07,260.09-714.42,202.05-722.23,18.98-121.67-481.12Z"/><path class="uuid-e4277ad6-ab38-40f5-addd-31bd94dd86b7" d="M-15.67,259.48s237.74,26.85,483.95,2.08c293.15-29.49,511.67-65.66,582.8-76.12,71.13-10.46-165.99,24.69-165.99,24.69,0,0-275.73,67.32-549.92,108.36C60.99,359.53-16.8,365.04-16.8,365.04l1.13-105.55Z"/><path class="uuid-cda5ae2b-cb79-49ff-bfb5-1667edf30a50" d="M-1.99,376.45l-1.03-50.1s566.05-21.38,648.08-42.24c82.02-20.86,449.08-123.63,449.08-123.63,0,0-24.63,11.37-275.5,97.98C521,361.22-1.99,376.45-1.99,376.45Z"/><g class="uuid-2e5cdfe1-3b5a-43af-add4-1393a74c30cf"><path class="uuid-46a1b4e6-a40f-443b-b01d-f0bd187a1824" d="M-3.83,324.89l-2.69,38.04s116.73-2.76,345.72-23.11c472.98-42.03,774.04-185.99,774.04-185.99l-4.41-10.37s-304.01,147.44-764.51,173.29c-152.95,8.59-348.15,8.14-348.15,8.14Z"/><path class="uuid-fff3e8bc-08e5-4f68-9039-d79d3d4e52c7" d="M-3.01,339.81l-.81-14.92s300.75-12.33,543.69-37.16c404.16-41.3,800.65-218.33,800.65-218.33l-228.8,82.78c-95.53,39.19-450.18,125.77-729.76,155.36C141.64,332.98-3.01,339.81-3.01,339.81Z"/><path class="uuid-c1f8fc38-c5e8-47a1-ab6f-2c28be29d0d1" d="M-37.68,252.92s24.46,34.75,338.74,24.9c324.4-10.17,887.27-142.84,1039.45-208.41l-228.8,82.78s-306.02,128.86-861.14,159.39c-165.98,9.13-254.39,13.32-254.39,13.32l-33.85-71.97Z"/><path class="uuid-c569fb3c-f1b6-4546-9dc0-dec546420942" d="M-23.32,277.47l-4.98-4.46s297.7,80.4,660.29,2.11c152.39-32.9,643.05-177.6,674.93-193.25l5.28,4.02s-251.42,98.18-600.07,184.88c-394.01,97.99-735.46,6.69-735.46,6.69Z"/><path class="uuid-e973d0fd-96d1-40e3-93b4-b5fcb30f8bc8" d="M1110.18,146.19s-115.87,39.28-380.75,100.05C412.55,318.93-6.56,316.58-6.56,316.58l-10.64-21.58c532.35,96.77,1322.5-207.34,1322.5-207.34l-195.12,58.54Z"/></g></g></g></svg>