<?xml version="1.0" encoding="UTF-8"?><svg xmlns="http://www.w3.org/2000/svg" xmlns:xlink="http://www.w3.org/1999/xlink" viewBox="0 0 1282.18 454.71"><defs><style>.uuid-3ef3e381-4f3d-4b69-94e4-66c1cfc5db8e{fill:none;}.uuid-9f357c54-e6c3-4415-b824-311d8d37b427{fill:#ffe900;}.uuid-f9fc079d-9f28-4e75-9eb8-8b1fcf39afaa{fill:url(#uuid-32e5d520-dd93-406c-b2a5-dd68f0edd242);}.uuid-6bf35fa9-8cc2-4257-890e-1a637e20d82a{clip-path:url(#uuid-52dae430-dfdc-4db1-bacf-f4109cc224b7);}.uuid-4bbfae68-0a59-4e72-8ae7-eb242b4658ab{clip-path:url(#uuid-5d35e931-c18e-459b-b680-6c21971f602f);}.uuid-63f2f3f3-ff12-4fd2-8176-80d96edc95b4{fill:url(#uuid-4ca3347b-b5c0-4525-a9dd-1cd42dcb4824);}.uuid-8910eb06-b547-4592-be02-2ff0474931ff{isolation:isolate;}.uuid-5d48333a-77e9-4e61-b666-f0003f3351f5{fill:#fff;}.uuid-3009e32c-cc9e-41b9-9a60-8ea2d74794d5{fill:url(#uuid-7219595d-706f-436a-b76e-cd4b209587fc);}.uuid-48be302e-af3b-40e1-a0ae-4f07cb328f02{clip-path:url(#uuid-b1c9a66c-5214-486b-939f-856d54e9ade5);}.uuid-8559ed4f-9797-4288-b142-8b7b22adcb62{clip-path:url(#uuid-387e90f7-4013-4c5e-95b0-b15027c3a9d6);}.uuid-e3d7210d-2732-4147-b3c0-8bb3c383858c{fill:url(#uuid-b5929317-c862-4944-9e24-d702145a4971);}.uuid-2bb4adb6-8edb-4717-af1d-129a4ea6e0d6{mix-blend-mode:overlay;}.uuid-a2cb9425-95ed-4980-ab89-f6586936858d{clip-path:url(#uuid-43c187f2-b318-4b78-aee7-b2cab174044f);}.uuid-d639e10e-38c7-4c74-a955-1c9238e43267{clip-path:url(#uuid-77a13b64-5f43-494e-a6b6-d07c02e2ac4f);}.uuid-6ed5a0bb-182c-4a3e-8442-ce063b33e319{clip-path:url(#uuid-8781fd96-7c9f-4df4-88b3-32761224a0c7);}.uuid-d9789d7f-c278-4058-8b4c-8c5d87f2c8f9{fill:url(#uuid-edd3e671-7fac-4308-87b6-a32b65f22b7c);}.uuid-69d2a855-98da-4bf3-9b25-585fa52e83ff{clip-path:url(#uuid-72a95aaf-d3de-4f84-bf30-5f152a739365);}.uuid-d66a33f9-4ad5-4fe7-8676-24a43039760c{clip-path:url(#uuid-ce58b519-e9f5-48bb-9f05-6cc75dc0917b);}.uuid-b131a442-0e52-464b-93a0-e2fe63858f83{clip-path:url(#uuid-a0fe1dc3-0a68-4135-858a-2aae2e621680);}.uuid-5ff5ce00-1bc1-446a-beaf-3260ac8d55e0{clip-path:url(#uuid-60cc2aec-e762-4017-999c-683534913bc5);}</style><clipPath id="uuid-5d35e931-c18e-459b-b680-6c21971f602f"><rect class="uuid-3ef3e381-4f3d-4b69-94e4-66c1cfc5db8e" y="0" width="1282.18" height="454.71"/></clipPath><linearGradient id="uuid-b5929317-c862-4944-9e24-d702145a4971" x1="-1867.24" y1="-323.85" x2="-1611.77" y2="-688.71" gradientTransform="translate(-1756.04 938.13) rotate(173.35) scale(1.31 -.82) skewX(6.05)" gradientUnits="userSpaceOnUse"><stop offset=".02" stop-color="#575756"/><stop offset=".93" stop-color="#000"/></linearGradient><clipPath id="uuid-60cc2aec-e762-4017-999c-683534913bc5"><polygon class="uuid-3ef3e381-4f3d-4b69-94e4-66c1cfc5db8e" points="-4.93 177.12 1337.95 -65.22 1341.88 193.16 -1.31 414.55 -4.93 177.12"/></clipPath><linearGradient id="uuid-4ca3347b-b5c0-4525-a9dd-1cd42dcb4824" x1="-4204.56" y1="-3596.63" x2="-4822.3" y2="-4478.86" gradientTransform="translate(-4850.82 2574.29) rotate(-176.08) scale(1.18 -.68)" gradientUnits="userSpaceOnUse"><stop offset=".02" stop-color="#fff6aa"/><stop offset=".06" stop-color="#fff6ae"/><stop offset=".1" stop-color="#fff7ba"/><stop offset=".13" stop-color="#fff9ce"/><stop offset=".17" stop-color="#fffceb"/><stop offset=".19" stop-color="#fff"/><stop offset=".21" stop-color="#fffbe4"/><stop offset=".23" stop-color="#fff4b8"/><stop offset=".26" stop-color="#ffee90"/><stop offset=".28" stop-color="#ffe96f"/><stop offset=".31" stop-color="#ffe554"/><stop offset=".34" stop-color="#ffe23f"/><stop offset=".38" stop-color="#ffe031"/><stop offset=".42" stop-color="#ffdf28"/><stop offset=".48" stop-color="#ffdf26"/><stop offset=".86" stop-color="#fbc40b"/><stop offset="1" stop-color="#fab900"/></linearGradient><linearGradient id="uuid-7219595d-706f-436a-b76e-cd4b209587fc" x1="-4546.35" y1="-3905.65" x2="-4496.02" y2="-4121.19" gradientTransform="translate(-4850.82 2574.29) rotate(-176.08) scale(1.18 -.68)" gradientUnits="userSpaceOnUse"><stop offset="0" stop-color="#fff381"/><stop offset=".17" stop-color="#fff27d"/><stop offset=".31" stop-color="#ffee73"/><stop offset=".44" stop-color="#ffe961"/><stop offset=".57" stop-color="#ffe248"/><stop offset=".69" stop-color="#ffd828"/><stop offset=".81" stop-color="#ffcd01"/><stop offset=".82" stop-color="#ffcd00"/></linearGradient><linearGradient id="uuid-edd3e671-7fac-4308-87b6-a32b65f22b7c" x1="-749.3" y1="-3120.79" x2="-1182.3" y2="-3739.17" gradientTransform="translate(-446.1 4095.47) rotate(178.84) scale(1.21 -1.13)" gradientUnits="userSpaceOnUse"><stop offset=".12" stop-color="#6d6d6c"/><stop offset=".31" stop-color="#cdcdcd"/><stop offset=".45" stop-color="#dbdbdb"/><stop offset=".45" stop-color="#d7d7d7"/><stop offset=".51" stop-color="#a4a3a3"/><stop offset=".56" stop-color="#848484"/><stop offset=".58" stop-color="#797878"/><stop offset=".61" stop-color="#8e8d8d"/><stop offset=".66" stop-color="#a7a7a7"/><stop offset=".68" stop-color="#b1b1b1"/><stop offset=".71" stop-color="#bfbfbf"/><stop offset=".77" stop-color="#dadada"/><stop offset=".81" stop-color="#e5e5e5"/><stop offset=".84" stop-color="#b7b7b7"/><stop offset=".87" stop-color="#8e8e8d"/><stop offset=".9" stop-color="#6f6f6f"/><stop offset=".93" stop-color="#5d5d5c"/><stop offset=".95" stop-color="#575756"/></linearGradient><linearGradient id="uuid-32e5d520-dd93-406c-b2a5-dd68f0edd242" x1="-5049.29" y1="-4035.5" x2="-3945.66" y2="-4035.5" gradientTransform="translate(-4850.82 2574.29) rotate(-176.08) scale(1.18 -.68)" gradientUnits="userSpaceOnUse"><stop offset="0" stop-color="#fff59f"/><stop offset=".05" stop-color="#feef8f"/><stop offset=".24" stop-color="#fcdb5c"/><stop offset=".41" stop-color="#fbcc34"/><stop offset=".57" stop-color="#fac117"/><stop offset=".71" stop-color="#fabb06"/><stop offset=".81" stop-color="#fab900"/></linearGradient><clipPath id="uuid-52dae430-dfdc-4db1-bacf-f4109cc224b7"><polygon class="uuid-3ef3e381-4f3d-4b69-94e4-66c1cfc5db8e" points="-4.93 177.12 1337.95 -65.22 1341.88 193.16 -1.31 414.55 -4.93 177.12"/></clipPath><clipPath id="uuid-72a95aaf-d3de-4f84-bf30-5f152a739365"><polygon class="uuid-3ef3e381-4f3d-4b69-94e4-66c1cfc5db8e" points="-4.93 177.12 1337.95 -65.22 1341.88 193.16 -1.31 414.55 -4.93 177.12"/></clipPath><clipPath id="uuid-8781fd96-7c9f-4df4-88b3-32761224a0c7"><polygon class="uuid-3ef3e381-4f3d-4b69-94e4-66c1cfc5db8e" points="-4.93 177.12 1337.95 -65.22 1341.88 193.16 -1.31 414.55 -4.93 177.12"/></clipPath><clipPath id="uuid-43c187f2-b318-4b78-aee7-b2cab174044f"><polygon class="uuid-3ef3e381-4f3d-4b69-94e4-66c1cfc5db8e" points="-4.93 177.12 1337.95 -65.22 1341.88 193.16 -1.31 414.55 -4.93 177.12"/></clipPath><clipPath id="uuid-ce58b519-e9f5-48bb-9f05-6cc75dc0917b"><polygon class="uuid-3ef3e381-4f3d-4b69-94e4-66c1cfc5db8e" points="-4.93 177.12 1337.95 -65.22 1341.88 193.16 -1.31 414.55 -4.93 177.12"/></clipPath><clipPath id="uuid-b1c9a66c-5214-486b-939f-856d54e9ade5"><polygon class="uuid-3ef3e381-4f3d-4b69-94e4-66c1cfc5db8e" points="-4.93 177.12 1337.95 -65.22 1341.88 193.16 -1.31 414.55 -4.93 177.12"/></clipPath><clipPath id="uuid-77a13b64-5f43-494e-a6b6-d07c02e2ac4f"><polygon class="uuid-3ef3e381-4f3d-4b69-94e4-66c1cfc5db8e" points="-4.93 177.12 1337.95 -65.22 1341.88 193.16 -1.31 414.55 -4.93 177.12"/></clipPath><clipPath id="uuid-a0fe1dc3-0a68-4135-858a-2aae2e621680"><polygon class="uuid-3ef3e381-4f3d-4b69-94e4-66c1cfc5db8e" points="-4.93 177.12 1337.95 -65.22 1341.88 193.16 -1.31 414.55 -4.93 177.12"/></clipPath><clipPath id="uuid-387e90f7-4013-4c5e-95b0-b15027c3a9d6"><polygon class="uuid-3ef3e381-4f3d-4b69-94e4-66c1cfc5db8e" points="-4.93 177.12 1337.95 -65.22 1341.88 193.16 -1.31 414.55 -4.93 177.12"/></clipPath></defs><g class="uuid-8910eb06-b547-4592-be02-2ff0474931ff"><g id="uuid-1f8bb0af-4921-48f7-9dd5-19ad6c89b338"><g id="uuid-d61b5292-624d-4c98-bdc7-8d54832a0ee8"><g class="uuid-4bbfae68-0a59-4e72-8ae7-eb242b4658ab"><path d="M-238.91-177.76h1597.39l-39.07,260.09-714.42,202.05-722.23,18.98-121.67-481.12Z"/><path class="uuid-5d48333a-77e9-4e61-b666-f0003f3351f5" d="M-15.67,259.48s237.74,26.85,483.95,2.08c293.15-29.49,511.67-65.66,582.8-76.12,71.13-10.46-165.99,24.69-165.99,24.69,0,0-275.73,67.32-549.92,108.36C60.99,359.53-16.8,365.04-16.8,365.04l1.13-105.55Z"/><path class="uuid-e3d7210d-2732-4147-b3c0-8bb3c383858c" d="M-1.99,376.45l-1.03-50.1s566.05-21.38,648.08-42.24c82.02-20.86,449.08-123.63,449.08-123.63,0,0-24.63,11.37-275.5,97.98C521,361.22-1.99,376.45-1.99,376.45Z"/><g class="uuid-5ff5ce00-1bc1-446a-beaf-3260ac8d55e0"><path class="uuid-9f357c54-e6c3-4415-b824-311d8d37b427" d="M-3.83,324.89l-2.69,38.04s116.73-2.76,345.72-23.11c472.98-42.03,774.04-185.99,774.04-185.99l-4.41-10.37s-304.01,147.44-764.51,173.29c-152.95,8.59-348.15,8.14-348.15,8.14Z"/><path class="uuid-63f2f3f3-ff12-4fd2-8176-80d96edc95b4" d="M-3.01,339.81l-.81-14.92s300.75-12.33,543.69-37.16c404.16-41.3,800.65-218.33,800.65-218.33l-228.8,82.78c-95.53,39.19-450.18,125.77-729.76,155.36C141.64,332.98-3.01,339.81-3.01,339.81Z"/><path class="uuid-3009e32c-cc9e-41b9-9a60-8ea2d74794d5" d="M-37.68,252.92s24.46,34.75,338.74,24.9c324.4-10.17,887.27-142.84,1039.45-208.41l-228.8,82.78s-306.02,128.86-861.14,159.39c-165.98,9.13-254.39,13.32-254.39,13.32l-33.85-71.97Z"/><path class="uuid-d9789d7f-c278-4058-8b4c-8c5d87f2c8f9" d="M-23.32,277.47l-4.98-4.46s297.7,80.4,660.29,2.11c152.39-32.9,643.05-177.6,674.93-193.25l5.28,4.02s-251.42,98.18-600.07,184.88c-394.01,97.99-735.46,6.69-735.46,6.69Z"/><path class="uuid-f9fc079d-9f28-4e75-9eb8-8b1fcf39afaa" d="M1110.18,146.19s-115.87,39.28-380.75,100.05C412.55,318.93-6.56,316.58-6.56,316.58l-10.64-21.58c532.35,96.77,1322.5-207.34,1322.5-207.34l-195.12,58.54Z"/></g><g class="uuid-2bb4adb6-8edb-4717-af1d-129a4ea6e0d6"><g class="uuid-6bf35fa9-8cc2-4257-890e-1a637e20d82a"><path class="uuid-9f357c54-e6c3-4415-b824-311d8d37b427" d="M-3.83,324.89l-2.69,38.04s116.73-2.76,345.72-23.11c472.98-42.03,774.04-185.99,774.04-185.99l-4.41-10.37s-304.01,147.44-764.51,173.29c-152.95,8.59-348.15,8.14-348.15,8.14Z"/><path class="uuid-63f2f3f3-ff12-4fd2-8176-80d96edc95b4" d="M-3.01,339.81l-.81-14.92s300.75-12.33,543.69-37.16c404.16-41.3,800.65-218.33,800.65-218.33l-228.8,82.78c-95.53,39.19-450.18,125.77-729.76,155.36C141.64,332.98-3.01,339.81-3.01,339.81Z"/><path class="uuid-3009e32c-cc9e-41b9-9a60-8ea2d74794d5" d="M-37.68,252.92s24.46,34.75,338.74,24.9c324.4-10.17,887.27-142.84,1039.45-208.41l-228.8,82.78s-306.02,128.86-861.14,159.39c-165.98,9.13-254.39,13.32-254.39,13.32l-33.85-71.97Z"/><path class="uuid-d9789d7f-c278-4058-8b4c-8c5d87f2c8f9" d="M-23.32,277.47l-4.98-4.46s297.7,80.4,660.29,2.11c152.39-32.9,643.05-177.6,674.93-193.25l5.28,4.02s-251.42,98.18-600.07,184.88c-394.01,97.99-735.46,6.69-735.46,6.69Z"/><path class="uuid-f9fc079d-9f28-4e75-9eb8-8b1fcf39afaa" d="M1110.18,146.19s-115.87,39.28-380.75,100.05C412.55,318.93-6.56,316.58-6.56,316.58l-10.64-21.58c532.35,96.77,1322.5-207.34,1322.5-207.34l-195.12,58.54Z"/></g></g><path class="uuid-5d48333a-77e9-4e61-b666-f0003f3351f5" d="M-15.67,259.48s237.74,26.85,483.95,2.08c293.15-29.49,511.67-65.66,582.8-76.12,71.13-10.46-165.99,24.69-165.99,24.69,0,0-275.73,67.32-549.92,108.36C60.99,359.53-16.8,365.04-16.8,365.04l1.13-105.55Z"/><path class="uuid-e3d7210d-2732-4147-b3c0-8bb3c383858c" d="M-1.99,376.45l-1.03-50.1s566.05-21.38,648.08-42.24c82.02-20.86,449.08-123.63,449.08-123.63,0,0-24.63,11.37-275.5,97.98C521,361.22-1.99,376.45-1.99,376.45Z"/><g class="uuid-69d2a855-98da-4bf3-9b25-585fa52e83ff"><path class="uuid-9f357c54-e6c3-4415-b824-311d8d37b427" d="M-3.83,324.89l-2.69,38.04s116.73-2.76,345.72-23.11c472.98-42.03,774.04-185.99,774.04-185.99l-4.41-10.37s-304.01,147.44-764.51,173.29c-152.95,8.59-348.15,8.14-348.15,8.14Z"/><path class="uuid-63f2f3f3-ff12-4fd2-8176-80d96edc95b4" d="M-3.01,339.81l-.81-14.92s300.75-12.33,543.69-37.16c404.16-41.3,800.65-218.33,800.65-218.33l-228.8,82.78c-95.53,39.19-450.18,125.77-729.76,155.36C141.64,332.98-3.01,339.81-3.01,339.81Z"/><path class="uuid-3009e32c-cc9e-41b9-9a60-8ea2d74794d5" d="M-37.68,252.92s24.46,34.75,338.74,24.9c324.4-10.17,887.27-142.84,1039.45-208.41l-228.8,82.78s-306.02,128.86-861.14,159.39c-165.98,9.13-254.39,13.32-254.39,13.32l-33.85-71.97Z"/><path class="uuid-d9789d7f-c278-4058-8b4c-8c5d87f2c8f9" d="M-23.32,277.47l-4.98-4.46s297.7,80.4,660.29,2.11c152.39-32.9,643.05-177.6,674.93-193.25l5.28,4.02s-251.42,98.18-600.07,184.88c-394.01,97.99-735.46,6.69-735.46,6.69Z"/><path class="uuid-f9fc079d-9f28-4e75-9eb8-8b1fcf39afaa" d="M1110.18,146.19s-115.87,39.28-380.75,100.05C412.55,318.93-6.56,316.58-6.56,316.58l-10.64-21.58c532.35,96.77,1322.5-207.34,1322.5-207.34l-195.12,58.54Z"/></g><g class="uuid-2bb4adb6-8edb-4717-af1d-129a4ea6e0d6"><g class="uuid-6ed5a0bb-182c-4a3e-8442-ce063b33e319"><path class="uuid-9f357c54-e6c3-4415-b824-311d8d37b427" d="M-3.83,324.89l-2.69,38.04s116.73-2.76,345.72-23.11c472.98-42.03,774.04-185.99,774.04-185.99l-4.41-10.37s-304.01,147.44-764.51,173.29c-152.95,8.59-348.15,8.14-348.15,8.14Z"/><path class="uuid-63f2f3f3-ff12-4fd2-8176-80d96edc95b4" d="M-3.01,339.81l-.81-14.92s300.75-12.33,543.69-37.16c404.16-41.3,800.65-218.33,800.65-218.33l-228.8,82.78c-95.53,39.19-450.18,125.77-729.76,155.36C141.64,332.98-3.01,339.81-3.01,339.81Z"/><path class="uuid-3009e32c-cc9e-41b9-9a60-8ea2d74794d5" d="M-37.68,252.92s24.46,34.75,338.74,24.9c324.4-10.17,887.27-142.84,1039.45-208.41l-228.8,82.78s-306.02,128.86-861.14,159.39c-165.98,9.13-254.39,13.32-254.39,13.32l-33.85-71.97Z"/><path class="uuid-d9789d7f-c278-4058-8b4c-8c5d87f2c8f9" d="M-23.32,277.47l-4.98-4.46s297.7,80.4,660.29,2.11c152.39-32.9,643.05-177.6,674.93-193.25l5.28,4.02s-251.42,98.18-600.07,184.88c-394.01,97.99-735.46,6.69-735.46,6.69Z"/><path class="uuid-f9fc079d-9f28-4e75-9eb8-8b1fcf39afaa" d="M1110.18,146.19s-115.87,39.28-380.75,100.05C412.55,318.93-6.56,316.58-6.56,316.58l-10.64-21.58c532.35,96.77,1322.5-207.34,1322.5-207.34l-195.12,58.54Z"/></g></g><path class="uuid-5d48333a-77e9-4e61-b666-f0003f3351f5" d="M-15.67,259.48s237.74,26.85,483.95,2.08c293.15-29.49,511.67-65.66,582.8-76.12,71.13-10.46-165.99,24.69-165.99,24.69,0,0-275.73,67.32-549.92,108.36C60.99,359.53-16.8,365.04-16.8,365.04l1.13-105.55Z"/><path class="uuid-e3d7210d-2732-4147-b3c0-8bb3c383858c" d="M-1.99,376.45l-1.03-50.1s566.05-21.38,648.08-42.24c82.02-20.86,449.08-123.63,449.08-123.63,0,0-24.63,11.37-275.5,97.98C521,361.22-1.99,376.45-1.99,376.45Z"/><g class="uuid-a2cb9425-95ed-4980-ab89-f6586936858d"><path class="uuid-9f357c54-e6c3-4415-b824-311d8d37b427" d="M-3.83,324.89l-2.69,38.04s116.73-2.76,345.72-23.11c472.98-42.03,774.04-185.99,774.04-185.99l-4.41-10.37s-304.01,147.44-764.51,173.29c-152.95,8.59-348.15,8.14-348.15,8.14Z"/><path class="uuid-63f2f3f3-ff12-4fd2-8176-80d96edc95b4" d="M-3.01,339.81l-.81-14.92s300.75-12.33,543.69-37.16c404.16-41.3,800.65-218.33,800.65-218.33l-228.8,82.78c-95.53,39.19-450.18,125.77-729.76,155.36C141.64,332.98-3.01,339.81-3.01,339.81Z"/><path class="uuid-3009e32c-cc9e-41b9-9a60-8ea2d74794d5" d="M-37.68,252.92s24.46,34.75,338.74,24.9c324.4-10.17,887.27-142.84,1039.45-208.41l-228.8,82.78s-306.02,128.86-861.14,159.39c-165.98,9.13-254.39,13.32-254.39,13.32l-33.85-71.97Z"/><path class="uuid-d9789d7f-c278-4058-8b4c-8c5d87f2c8f9" d="M-23.32,277.47l-4.98-4.46s297.7,80.4,660.29,2.11c152.39-32.9,643.05-177.6,674.93-193.25l5.28,4.02s-251.42,98.18-600.07,184.88c-394.01,97.99-735.46,6.69-735.46,6.69Z"/><path class="uuid-f9fc079d-9f28-4e75-9eb8-8b1fcf39afaa" d="M1110.18,146.19s-115.87,39.28-380.75,100.05C412.55,318.93-6.56,316.58-6.56,316.58l-10.64-21.58c532.35,96.77,1322.5-207.34,1322.5-207.34l-195.12,58.54Z"/></g><g class="uuid-2bb4adb6-8edb-4717-af1d-129a4ea6e0d6"><g class="uuid-d66a33f9-4ad5-4fe7-8676-24a43039760c"><path class="uuid-9f357c54-e6c3-4415-b824-311d8d37b427" d="M-3.83,324.89l-2.69,38.04s116.73-2.76,345.72-23.11c472.98-42.03,774.04-185.99,774.04-185.99l-4.41-10.37s-304.01,147.44-764.51,173.29c-152.95,8.59-348.15,8.14-348.15,8.14Z"/><path class="uuid-63f2f3f3-ff12-4fd2-8176-80d96edc95b4" d="M-3.01,339.81l-.81-14.92s300.75-12.33,543.69-37.16c404.16-41.3,800.65-218.33,800.65-218.33l-228.8,82.78c-95.53,39.19-450.18,125.77-729.76,155.36C141.64,332.98-3.01,339.81-3.01,339.81Z"/><path class="uuid-3009e32c-cc9e-41b9-9a60-8ea2d74794d5" d="M-37.68,252.92s24.46,34.75,338.74,24.9c324.4-10.17,887.27-142.84,1039.45-208.41l-228.8,82.78s-306.02,128.86-861.14,159.39c-165.98,9.13-254.39,13.32-254.39,13.32l-33.85-71.97Z"/><path class="uuid-d9789d7f-c278-4058-8b4c-8c5d87f2c8f9" d="M-23.32,277.47l-4.98-4.46s297.7,80.4,660.29,2.11c152.39-32.9,643.05-177.6,674.93-193.25l5.28,4.02s-251.42,98.18-600.07,184.88c-394.01,97.99-735.46,6.69-735.46,6.69Z"/><path class="uuid-f9fc079d-9f28-4e75-9eb8-8b1fcf39afaa" d="M1110.18,146.19s-115.87,39.28-380.75,100.05C412.55,318.93-6.56,316.58-6.56,316.58l-10.64-21.58c532.35,96.77,1322.5-207.34,1322.5-207.34l-195.12,58.54Z"/></g></g><path class="uuid-5d48333a-77e9-4e61-b666-f0003f3351f5" d="M-15.67,259.48s237.74,26.85,483.95,2.08c293.15-29.49,511.67-65.66,582.8-76.12,71.13-10.46-165.99,24.69-165.99,24.69,0,0-275.73,67.32-549.92,108.36C60.99,359.53-16.8,365.04-16.8,365.04l1.13-105.55Z"/><path class="uuid-e3d7210d-2732-4147-b3c0-8bb3c383858c" d="M-1.99,376.45l-1.03-50.1s566.05-21.38,648.08-42.24c82.02-20.86,449.08-123.63,449.08-123.63,0,0-24.63,11.37-275.5,97.98C521,361.22-1.99,376.45-1.99,376.45Z"/><g class="uuid-48be302e-af3b-40e1-a0ae-4f07cb328f02"><path class="uuid-9f357c54-e6c3-4415-b824-311d8d37b427" d="M-3.83,324.89l-2.69,38.04s116.73-2.76,345.72-23.11c472.98-42.03,774.04-185.99,774.04-185.99l-4.41-10.37s-304.01,147.44-764.51,173.29c-152.95,8.59-348.15,8.14-348.15,8.14Z"/><path class="uuid-63f2f3f3-ff12-4fd2-8176-80d96edc95b4" d="M-3.01,339.81l-.81-14.92s300.75-12.33,543.69-37.16c404.16-41.3,800.65-218.33,800.65-218.33l-228.8,82.78c-95.53,39.19-450.18,125.77-729.76,155.36C141.64,332.98-3.01,339.81-3.01,339.81Z"/><path class="uuid-3009e32c-cc9e-41b9-9a60-8ea2d74794d5" d="M-37.68,252.92s24.46,34.75,338.74,24.9c324.4-10.17,887.27-142.84,1039.45-208.41l-228.8,82.78s-306.02,128.86-861.14,159.39c-165.98,9.13-254.39,13.32-254.39,13.32l-33.85-71.97Z"/><path class="uuid-d9789d7f-c278-4058-8b4c-8c5d87f2c8f9" d="M-23.32,277.47l-4.98-4.46s297.7,80.4,660.29,2.11c152.39-32.9,643.05-177.6,674.93-193.25l5.28,4.02s-251.42,98.18-600.07,184.88c-394.01,97.99-735.46,6.69-735.46,6.69Z"/><path class="uuid-f9fc079d-9f28-4e75-9eb8-8b1fcf39afaa" d="M1110.18,146.19s-115.87,39.28-380.75,100.05C412.55,318.93-6.56,316.58-6.56,316.58l-10.64-21.58c532.35,96.77,1322.5-207.34,1322.5-207.34l-195.12,58.54Z"/></g><g class="uuid-2bb4adb6-8edb-4717-af1d-129a4ea6e0d6"><g class="uuid-d639e10e-38c7-4c74-a955-1c9238e43267"><path class="uuid-9f357c54-e6c3-4415-b824-311d8d37b427" d="M-3.83,324.89l-2.69,38.04s116.73-2.76,345.72-23.11c472.98-42.03,774.04-185.99,774.04-185.99l-4.41-10.37s-304.01,147.44-764.51,173.29c-152.95,8.59-348.15,8.14-348.15,8.14Z"/><path class="uuid-63f2f3f3-ff12-4fd2-8176-80d96edc95b4" d="M-3.01,339.81l-.81-14.92s300.75-12.33,543.69-37.16c404.16-41.3,800.65-218.33,800.65-218.33l-228.8,82.78c-95.53,39.19-450.18,125.77-729.76,155.36C141.64,332.98-3.01,339.81-3.01,339.81Z"/><path class="uuid-3009e32c-cc9e-41b9-9a60-8ea2d74794d5" d="M-37.68,252.92s24.46,34.75,338.74,24.9c324.4-10.17,887.27-142.84,1039.45-208.41l-228.8,82.78s-306.02,128.86-861.14,159.39c-165.98,9.13-254.39,13.32-254.39,13.32l-33.85-71.97Z"/><path class="uuid-d9789d7f-c278-4058-8b4c-8c5d87f2c8f9" d="M-23.32,277.47l-4.98-4.46s297.7,80.4,660.29,2.11c152.39-32.9,643.05-177.6,674.93-193.25l5.28,4.02s-251.42,98.18-600.07,184.88c-394.01,97.99-735.46,6.69-735.46,6.69Z"/><path class="uuid-f9fc079d-9f28-4e75-9eb8-8b1fcf39afaa" d="M1110.18,146.19s-115.87,39.28-380.75,100.05C412.55,318.93-6.56,316.58-6.56,316.58l-10.64-21.58c532.35,96.77,1322.5-207.34,1322.5-207.34l-195.12,58.54Z"/></g></g><path class="uuid-5d48333a-77e9-4e61-b666-f0003f3351f5" d="M-15.67,259.48s237.74,26.85,483.95,2.08c293.15-29.49,511.67-65.66,582.8-76.12,71.13-10.46-165.99,24.69-165.99,24.69,0,0-275.73,67.32-549.92,108.36C60.99,359.53-16.8,365.04-16.8,365.04l1.13-105.55Z"/><path class="uuid-e3d7210d-2732-4147-b3c0-8bb3c383858c" d="M-1.99,376.45l-1.03-50.1s566.05-21.38,648.08-42.24c82.02-20.86,449.08-123.63,449.08-123.63,0,0-24.63,11.37-275.5,97.98C521,361.22-1.99,376.45-1.99,376.45Z"/><g class="uuid-b131a442-0e52-464b-93a0-e2fe63858f83"><path class="uuid-9f357c54-e6c3-4415-b824-311d8d37b427" d="M-3.83,324.89l-2.69,38.04s116.73-2.76,345.72-23.11c472.98-42.03,774.04-185.99,774.04-185.99l-4.41-10.37s-304.01,147.44-764.51,173.29c-152.95,8.59-348.15,8.14-348.15,8.14Z"/><path class="uuid-63f2f3f3-ff12-4fd2-8176-80d96edc95b4" d="M-3.01,339.81l-.81-14.92s300.75-12.33,543.69-37.16c404.16-41.3,800.65-218.33,800.65-218.33l-228.8,82.78c-95.53,39.19-450.18,125.77-729.76,155.36C141.64,332.98-3.01,339.81-3.01,339.81Z"/><path class="uuid-3009e32c-cc9e-41b9-9a60-8ea2d74794d5" d="M-37.68,252.92s24.46,34.75,338.74,24.9c324.4-10.17,887.27-142.84,1039.45-208.41l-228.8,82.78s-306.02,128.86-861.14,159.39c-165.98,9.13-254.39,13.32-254.39,13.32l-33.85-71.97Z"/><path class="uuid-d9789d7f-c278-4058-8b4c-8c5d87f2c8f9" d="M-23.32,277.47l-4.98-4.46s297.7,80.4,660.29,2.11c152.39-32.9,643.05-177.6,674.93-193.25l5.28,4.02s-251.42,98.18-600.07,184.88c-394.01,97.99-735.46,6.69-735.46,6.69Z"/><path class="uuid-f9fc079d-9f28-4e75-9eb8-8b1fcf39afaa" d="M1110.18,146.19s-115.87,39.28-380.75,100.05C412.55,318.93-6.56,316.58-6.56,316.58l-10.64-21.58c532.35,96.77,1322.5-207.34,1322.5-207.34l-195.12,58.54Z"/></g><g class="uuid-2bb4adb6-8edb-4717-af1d-129a4ea6e0d6"><g class="uuid-8559ed4f-9797-4288-b142-8b7b22adcb62"><path class="uuid-9f357c54-e6c3-4415-b824-311d8d37b427" d="M-3.83,324.89l-2.69,38.04s116.73-2.76,345.72-23.11c472.98-42.03,774.04-185.99,774.04-185.99l-4.41-10.37s-304.01,147.44-764.51,173.29c-152.95,8.59-348.15,8.14-348.15,8.14Z"/><path class="uuid-63f2f3f3-ff12-4fd2-8176-80d96edc95b4" d="M-3.01,339.81l-.81-14.92s300.75-12.33,543.69-37.16c404.16-41.3,800.65-218.33,800.65-218.33l-228.8,82.78c-95.53,39.19-450.18,125.77-729.76,155.36C141.64,332.98-3.01,339.81-3.01,339.81Z"/><path class="uuid-3009e32c-cc9e-41b9-9a60-8ea2d74794d5" d="M-37.68,252.92s24.46,34.75,338.74,24.9c324.4-10.17,887.27-142.84,1039.45-208.41l-228.8,82.78s-306.02,128.86-861.14,159.39c-165.98,9.13-254.39,13.32-254.39,13.32l-33.85-71.97Z"/><path class="uuid-d9789d7f-c278-4058-8b4c-8c5d87f2c8f9" d="M-23.32,277.47l-4.98-4.46s297.7,80.4,660.29,2.11c152.39-32.9,643.05-177.6,674.93-193.25l5.28,4.02s-251.42,98.18-600.07,184.88c-394.01,97.99-735.46,6.69-735.46,6.69Z"/><path class="uuid-f9fc079d-9f28-4e75-9eb8-8b1fcf39afaa" d="M1110.18,146.19s-115.87,39.28-380.75,100.05C412.55,318.93-6.56,316.58-6.56,316.58l-10.64-21.58c532.35,96.77,1322.5-207.34,1322.5-207.34l-195.12,58.54Z"/></g></g></g></g></g></g></svg>