<?xml version="1.0" encoding="UTF-8"?><svg id="uuid-093ae0a1-8c3f-4b1b-9ec8-aeed46c203de" xmlns="http://www.w3.org/2000/svg" xmlns:xlink="http://www.w3.org/1999/xlink" viewBox="0 0 1276.74 272.8"><defs><style>.uuid-53d27dd1-77f6-47eb-af43-6542bd3bcd4d{fill:none;}.uuid-c8f433db-5991-4194-87c2-324db78c9e4c{fill:#ffe900;}.uuid-a6fd7dde-8e84-4fe4-be3d-b2cac54afcce{fill:#ffcb00;}.uuid-27303ea7-6970-4d27-a245-21ef8da91e17{clip-path:url(#uuid-74e454ac-bada-468a-9710-a4da70dea579);}.uuid-b05d72c0-bc54-4eb2-9a90-9a7e17d0c52d{clip-path:url(#uuid-9067e6b5-03dc-4969-923e-87da1ec42963);}.uuid-ae2d74f4-9705-4d86-b646-582fa24ccdc0{fill:url(#uuid-a631d287-bd75-4b05-931c-a3a7c3427dad);}.uuid-71bf6acc-49ba-4cc7-acb6-bfe733258e6b{fill:#fff;}.uuid-669e6d16-afe5-420e-ab6e-e4e8e693d3b9{fill:url(#uuid-5c2755b6-204d-470c-8f56-6ade0bed4cf7);}.uuid-d7dec733-140c-4197-a1ee-886ddcd19fbb{fill:url(#uuid-e0cd91f1-8885-426a-889d-ffe01695a5b0);}.uuid-0acfb557-8c38-4e2c-9d04-6e154dcd6597{fill:url(#uuid-ce0811f0-652e-4ce2-b5c7-cc70f0284d51);}</style><clipPath id="uuid-74e454ac-bada-468a-9710-a4da70dea579"><rect class="uuid-53d27dd1-77f6-47eb-af43-6542bd3bcd4d" width="1276.74" height="272.8"/></clipPath><clipPath id="uuid-9067e6b5-03dc-4969-923e-87da1ec42963"><rect class="uuid-53d27dd1-77f6-47eb-af43-6542bd3bcd4d" x="-5.85" y="-130.86" width="1310.24" height="346.41" transform="translate(-.25 4) rotate(-.35)"/></clipPath><linearGradient id="uuid-5c2755b6-204d-470c-8f56-6ade0bed4cf7" x1="-769.11" y1="1384.69" x2="-1362.53" y2="537.21" gradientTransform="translate(1670.47 -886.16) rotate(-17.02) scale(1.18 .68)" gradientUnits="userSpaceOnUse"><stop offset=".02" stop-color="#fff6aa"/><stop offset=".06" stop-color="#fff6ae"/><stop offset=".1" stop-color="#fff7ba"/><stop offset=".13" stop-color="#fff9ce"/><stop offset=".17" stop-color="#fffceb"/><stop offset=".19" stop-color="#fff"/><stop offset=".21" stop-color="#fffbe4"/><stop offset=".23" stop-color="#fff4b8"/><stop offset=".26" stop-color="#ffee90"/><stop offset=".28" stop-color="#ffe96f"/><stop offset=".31" stop-color="#ffe554"/><stop offset=".34" stop-color="#ffe23f"/><stop offset=".38" stop-color="#ffe031"/><stop offset=".42" stop-color="#ffdf28"/><stop offset=".48" stop-color="#ffdf26"/><stop offset=".86" stop-color="#fbc40b"/><stop offset="1" stop-color="#fab900"/></linearGradient><linearGradient id="uuid-e0cd91f1-8885-426a-889d-ffe01695a5b0" x1="-1089.18" y1="1069.48" x2="-1037.12" y2="846.57" gradientTransform="translate(1670.47 -886.16) rotate(-17.02) scale(1.18 .68)" gradientUnits="userSpaceOnUse"><stop offset="0" stop-color="#fff381"/><stop offset=".17" stop-color="#fff27d"/><stop offset=".31" stop-color="#ffee73"/><stop offset=".44" stop-color="#ffe961"/><stop offset=".57" stop-color="#ffe248"/><stop offset=".69" stop-color="#ffd828"/><stop offset=".81" stop-color="#ffcd01"/><stop offset=".82" stop-color="#ffcd00"/></linearGradient><linearGradient id="uuid-a631d287-bd75-4b05-931c-a3a7c3427dad" x1="3096.71" y1="-3091" x2="2670.25" y2="-3700.05" gradientTransform="translate(-1949.78 4552.36) rotate(-11.94) scale(1.21 1.13)" gradientUnits="userSpaceOnUse"><stop offset=".12" stop-color="#6d6d6c"/><stop offset=".31" stop-color="#cdcdcd"/><stop offset=".45" stop-color="#dbdbdb"/><stop offset=".45" stop-color="#d7d7d7"/><stop offset=".51" stop-color="#a4a3a3"/><stop offset=".56" stop-color="#848484"/><stop offset=".58" stop-color="#797878"/><stop offset=".61" stop-color="#8e8d8d"/><stop offset=".66" stop-color="#a7a7a7"/><stop offset=".68" stop-color="#b1b1b1"/><stop offset=".71" stop-color="#bfbfbf"/><stop offset=".77" stop-color="#dadada"/><stop offset=".81" stop-color="#e5e5e5"/><stop offset=".84" stop-color="#b7b7b7"/><stop offset=".87" stop-color="#8e8e8d"/><stop offset=".9" stop-color="#6f6f6f"/><stop offset=".93" stop-color="#5d5d5c"/><stop offset=".95" stop-color="#575756"/></linearGradient><linearGradient id="uuid-ce0811f0-652e-4ce2-b5c7-cc70f0284d51" x1="-1609.37" y1="929.78" x2="-502.88" y2="929.78" gradientTransform="translate(1670.47 -886.16) rotate(-17.02) scale(1.18 .68)" gradientUnits="userSpaceOnUse"><stop offset="0" stop-color="#fff59f"/><stop offset=".05" stop-color="#feef8f"/><stop offset=".24" stop-color="#fcdb5c"/><stop offset=".41" stop-color="#fbcc34"/><stop offset=".57" stop-color="#fac117"/><stop offset=".71" stop-color="#fabb06"/><stop offset=".81" stop-color="#fab900"/></linearGradient></defs><g id="uuid-dc2c49d5-cea4-4d92-bec2-80f8e26d69c7"><g class="uuid-27303ea7-6970-4d27-a245-21ef8da91e17"><polygon class="uuid-71bf6acc-49ba-4cc7-acb6-bfe733258e6b" points="1296.28 131.35 702.42 229.58 -90.14 213.96 -67.81 -65.11 1325.3 -76.28 1296.28 131.35"/><polygon class="uuid-a6fd7dde-8e84-4fe4-be3d-b2cac54afcce" points="-61.12 131.35 576.9 164.92 1325.3 48.75 1302.97 327.82 -90.14 338.98 -61.12 131.35"/><g class="uuid-b05d72c0-bc54-4eb2-9a90-9a7e17d0c52d"><path class="uuid-c8f433db-5991-4194-87c2-324db78c9e4c" d="M1320.6,63.98l-4.83,48.66s-115.15,24.87-383.73,58.18C377.29,239.62-11.35,136.48-11.35,136.48l1.91-14.14s393.07,106.75,928.61,20.88c177.87-28.52,401.42-79.23,401.42-79.23Z"/><path class="uuid-669e6d16-afe5-420e-ab6e-e4e8e693d3b9" d="M1316.89,85.57l3.7-21.59s-348.38,61.8-634.29,93.08C210.65,209.11-2.52,152.94-2.52,152.94l-7.57-18.93c121.36,24.6,554,42.04,883.35,7.32,283.09-29.84,443.63-55.76,443.63-55.76Z"/><path class="uuid-d7dec733-140c-4197-a1ee-886ddcd19fbb" d="M1337.56-34.94s-17.5,49.85-380.62,118.23C582.12,153.87,187.65,147.12-6.62,104l-3.47,30.02s389.74,82.95,1035.13-21.38c192.97-31.19,295.55-48.65,295.55-48.65l16.97-98.93Z"/><path class="uuid-ae2d74f4-9705-4d86-b646-582fa24ccdc0" d="M1328.56-.47l4.35-6.87s-316.77,177.28-756,172.27c-184.6-2.11-540.64-30.72-581.92-42.15l-4.83,6.4s67.78,31.75,493.59,50.9C964.96,201.71,1328.56-.47,1328.56-.47Z"/><path class="uuid-0acfb557-8c38-4e2c-9d04-6e154dcd6597" d="M-10.15,126.12s144.69,19.48,466.65,27.62c385.15,9.74,864.71-100.88,864.71-100.88l5.65-29.79C746.16,281.15-6.94,117.13-6.94,117.13l-3.21,8.99Z"/></g></g></g></svg>