<?xml version="1.0" encoding="UTF-8"?><svg id="uuid-6f7dede8-6c56-48a1-959c-86ef89e633bc" xmlns="http://www.w3.org/2000/svg" viewBox="0 0 285.7 110.51"><defs><style>.uuid-60460550-5922-4c2f-ba85-e102bae03cd3{fill:#ffcb00;}.uuid-60460550-5922-4c2f-ba85-e102bae03cd3,.uuid-be908179-dc43-401f-aac0-8b8fd77103aa{fill-rule:evenodd;}.uuid-40662fef-8afb-4d16-b17e-aaa8349a6d69{fill:#fff;}.uuid-a787746e-6c1d-45aa-b55e-37b896b4a77f{fill:#cececd;}</style></defs><g id="uuid-5653b945-45ab-4c82-8812-a2048126a37a"><path class="uuid-40662fef-8afb-4d16-b17e-aaa8349a6d69" d="M285.68,5.22c-.09-.59-.48-1.1-1.02-1.36-5.5-2.56-12.29-3.86-20.19-3.86-8.65,0-18.15,1.56-28.22,4.63-20.63,6.29-40.56,18.05-54.69,32.28-.45.45-.61,1.11-.45,1.72-.77-.05-1.59-.07-2.45-.07h-9.46l7.99-13.28c.34-.56.34-1.25.02-1.82s-.92-.92-1.57-.92h-13.02c-.64,0-1.23.34-1.56.89l-13.02,22.16c-.83-3.74-4.32-7.53-15.02-7.53h-26.36c-.39,0-.74.13-1.05.35-.27-.16-.58-.26-.92-.26h-23.69c-.24,0-.47-.01-.7-.01-6.34,0-10.77,2.8-12.83,8.11l-8.65,18.43-4.13,8.51c-.27.56-.24,1.22.09,1.75.33.53.91.85,1.53.85h12.55c.7,0,1.34-.41,1.64-1.04l4.09-8.75,7.08-14.82c.28-.29.76-.58,1.83-.58h16.88c.38,0,.74-.13,1.04-.34.3.21.66.34,1.03.34h1.4c-2.84.39-5.09,1.92-6.42,4.41l-4.85,9.61s-.04.08-.06.12l-.08.19s-.03.08-.05.12c-.41,1.22-.6,2.18-.6,3.01,0,3.56,2.27,7.81,13.08,7.81h16.74c7.68,0,13.02-2.03,15.93-6.04.36,2.1,1.71,4.23,5.23,5.47-15.71,5.88-33.1,10.29-50.67,12.82-10.34,1.49-20.21,2.24-29.34,2.24-19.2,0-34.08-3.43-41.12-9.32.02-.26-.01-.52-.11-.77-1.15-2.95-1.07-5.88.23-8.72,2.45-5.38,8.48-9.14,13.31-10.87.51-.18.91-.58,1.09-1.09l3.93-10.98c.09-.21.14-.45.14-.69,0-.23-.05-.45-.13-.65.58-.56.74-1.45.33-2.18-.33-.59-.94-.93-1.58-.93-.28,0-.57.07-.84.21-12.11,6.33-21.95,13.4-28.48,20.44-.1.11-.18.23-.26.35-.53.96-.99,1.92-1.35,2.84-.3.76-.55,1.51-.75,2.26-.03-.02-.06-.03-.08-.05-.26-.14-.55-.2-.83-.2-.59,0-1.16.29-1.51.81-1.59,2.39-2.8,4.78-3.6,7.1-2.11,6.13-1.38,11.95,2.09,16.81,7.17,10.04,25.7,15.8,50.85,15.8,8.96,0,18.57-.73,28.57-2.17,33.2-4.78,65.98-16.65,87.69-31.74.17-.11.31-.26.43-.42,5.85-.56,10.02-2.55,12.45-5.96.92,2.91,4.1,5.64,12.75,5.64h16.74c5.04,0,9.07-.87,12.07-2.6-.23.54-.2,1.15.11,1.65.33.53.91.86,1.54.86h13.14c.68,0,1.31-.39,1.62-1l23.23-46.46c.15-.26.23-.56.23-.88,0-1-.81-1.81-1.8-1.81h-12.87c-.68,0-1.3.38-1.61.99l-9.36,18.49c-1.02-3.58-4.64-7.06-14.9-7.06h-21.92c3.72-2.19,7.58-4.22,11.55-6.07.33.59.94.93,1.58.93.2,0,.41-.03.61-.11,18.18-6.55,32.04-7.89,42.08-8.33.12,0,.24-.02.36-.05l9.43-2.36c.57-.14,1.01-.55,1.23-1.07,0,0,.02,0,.03,0,.45,0,.89-.17,1.23-.48l14.82-13.7c.44-.41.65-1.01.56-1.61Z"/><path class="uuid-40662fef-8afb-4d16-b17e-aaa8349a6d69" d="M28.93,35.13h20.27l-18.98,38.38c-.28.56-.24,1.22.08,1.75.33.53.91.85,1.53.85h13.29c.68,0,1.3-.38,1.61-.99l20.21-40h74.6c.67,0,1.28-.37,1.59-.96l4.9-9.18c.3-.56.28-1.24-.04-1.78-.33-.54-.91-.88-1.55-.88H33.45c-.69,0-1.32.39-1.62,1.01l-4.52,9.18c-.28.56-.24,1.22.09,1.75.33.53.91.85,1.53.85Z"/><path class="uuid-a787746e-6c1d-45aa-b55e-37b896b4a77f" d="M192.08,47.77c-.21-4.92-4.02-7.91-13.43-7.41h-12.65l9.64-16.02h-13.02l-20.48,37.39-2.37,4.37c-.34,1.01-.51,1.81-.51,2.44,0,3.99,3.79,6.01,11.27,6.01h16.74c8.17,0,13.4-2.4,15.53-7.11l9.31-19.31-.02-.36ZM171.58,67.83l-21.9-.75,9.57-21.95,23.59.82-11.27,21.88Z"/><path class="uuid-40662fef-8afb-4d16-b17e-aaa8349a6d69" d="M267.94,28.29c-3.07,0-5.56,2.5-5.56,5.56s2.5,5.56,5.56,5.56,5.56-2.5,5.56-5.56-2.5-5.56-5.56-5.56ZM265.39,31.04h0c-.23.21-.44.43-.61.68-.27.4-.47.86-.57,1.36-.05.25-.08.5-.08.77h0c0-.26.03-.52.08-.77.1-.49.3-.95.57-1.36.17-.25.38-.48.61-.68ZM267.93,31.81c-.07,0-.14,0-.2,0-.12,0-.21.01-.27.02.07,0,.16-.02.27-.02.06,0,.13,0,.2,0h0ZM268.83,30.99c.29.07.53.18.72.33.17.13.29.29.38.48-.09-.19-.21-.35-.38-.48-.19-.15-.43-.26-.72-.33ZM270.13,35.96c-.09-.31-.19-.74-.3-1.12-.03-.13-.07-.24-.12-.35-.13-.32-.32-.55-.61-.66v-.02c.18-.06.36-.17.51-.32.1-.1.2-.21.27-.34-.07.13-.17.24-.27.34-.16.15-.33.25-.51.32v.02c.28.12.47.34.61.66.04.11.08.22.12.35.11.39.21.81.3,1.12h0ZM264.89,33.85c0-.62.19-1.19.5-1.67v3.34c-.32-.48-.5-1.05-.5-1.67ZM265.5,36.75h0c-.08-.07-.18-.13-.25-.21.08.08.17.14.25.21ZM268.13,36.38v-.21c.06.22.13.41.2.55.02.05.06.09.09.13-.16.03-.32.05-.48.05,0,0-.01,0-.02,0,.13-.14.21-.31.21-.51ZM270.69,35.13c-.04-.16-.09-.33-.13-.5-.04-.14-.12-.44-.3-.74.26-.29.45-.66.52-1.09.12.33.19.67.19,1.04,0,.46-.11.89-.29,1.28ZM270.53,31.08s.07.05.1.08c-.03-.03-.07-.05-.1-.08ZM266.01,37.11h0c.15.09.29.18.45.25-.16-.07-.3-.16-.45-.25ZM271.74,33.85c0-.26-.03-.52-.08-.77-.1-.49-.3-.95-.57-1.36.27.4.47.86.57,1.36.05.25.08.5.08.77h0ZM270.99,37.56c.59-.49,1.07-1.12,1.37-1.84.24-.57.38-1.21.38-1.87s-.13-1.29-.38-1.87c-.27-.64-.69-1.21-1.19-1.68.51.46.92,1.03,1.19,1.68.24.57.38,1.21.38,1.87s-.13,1.29-.38,1.87c-.3.72-.78,1.35-1.37,1.84Z"/><path d="M266.15,31c.4-.06.98-.11,1.64-.11.81,0,1.38.12,1.76.43.33.26.51.65.51,1.15,0,.69-.49,1.17-.96,1.34v.02c.38.15.59.51.73,1.01.17.62.33,1.34.44,1.55h-1.26c-.08-.16-.22-.6-.37-1.27-.15-.69-.39-.87-.9-.87h-.36v2.14h-1.22v-5.38ZM267.37,33.35h.49c.61,0,.98-.31.98-.78s-.34-.75-.91-.75c-.3,0-.47.02-.56.04v1.5Z"/><path d="M267.94,38.66c-2.65,0-4.81-2.16-4.81-4.81s2.16-4.81,4.81-4.81,4.81,2.16,4.81,4.81-2.16,4.81-4.81,4.81ZM267.94,30.05c-2.1,0-3.8,1.71-3.8,3.8s1.71,3.8,3.8,3.8,3.8-1.71,3.8-3.8-1.71-3.8-3.8-3.8Z"/><path class="uuid-60460550-5922-4c2f-ba85-e102bae03cd3" d="M154.52,66.81h15.22c1.14,0,2.18-.63,2.7-1.62l7.63-14.75c1.02-1.97-.44-4.29-2.7-4.29h-15.4c-1.15,0-.72-.08-1.23.92l-8.19,15.48c-.99,1.97-.28,4.26,1.96,4.26h0Z"/><path class="uuid-a787746e-6c1d-45aa-b55e-37b896b4a77f" d="M237.58,47.64l-.02-.36c-.21-4.92-4.72-7.42-13.43-7.42h-26.36l-4.2,8.91h28.92c.77,0,1.05.18,1.16.42l-1.67,3.09h-25.55c-2.88,0-5.05,1.22-6.28,3.55l-4.83,9.58-.08.19c-.34,1.01-.5,1.81-.5,2.44,0,3.98,3.79,6.01,11.27,6.01h16.74c8.17,0,13.4-2.4,15.53-7.11l9.3-19.31ZM217.69,61.37l-1.28,2.39c-.75.79-1.53,1.25-2.38,1.39l-13.53-.09c-.26,0-1.37-.02-1.73-.33l1.74-3.36h17.18Z"/><polygon class="uuid-a787746e-6c1d-45aa-b55e-37b896b4a77f" points="250.01 27.44 226.47 73.96 239.61 73.96 262.87 27.44 250.01 27.44"/><polygon class="uuid-a787746e-6c1d-45aa-b55e-37b896b4a77f" points="141.54 33.32 146.43 24.14 33.45 24.14 28.93 33.32 52.11 33.32 31.84 74.31 45.12 74.31 65.83 33.32 141.54 33.32"/><path class="uuid-a787746e-6c1d-45aa-b55e-37b896b4a77f" d="M104.69,39.95h-23.71c-6-.19-9.99,2.17-11.84,7l-8.67,18.49-4.14,8.53h12.55l4.09-8.75,7.19-15.05c.74-.93,1.84-1.39,3.36-1.39h16.88l4.3-8.82Z"/><path class="uuid-a787746e-6c1d-45aa-b55e-37b896b4a77f" d="M146.45,47.28c-.21-4.92-4.73-7.41-13.43-7.41h-26.36l-4.2,8.91h28.92c.77,0,1.05.18,1.16.42l-1.67,3.1h-25.55c-2.88,0-5.05,1.22-6.29,3.55l-4.83,9.58-.08.19c-.34,1.04-.5,1.81-.5,2.44,0,3.98,3.79,6.01,11.27,6.01h16.74c8.17,0,13.4-2.4,15.53-7.11l9.31-19.31-.02-.36ZM125.29,63.76c-.75.79-1.53,1.25-2.38,1.39l-13.53-.09c-.26,0-1.38-.02-1.74-.32l1.74-3.37h17.18l-1.28,2.39Z"/><path class="uuid-be908179-dc43-401f-aac0-8b8fd77103aa" d="M220.31,59.79l-2.5,4.66c-1.04,1.15-2.19,1.81-3.45,1.98l-13.63-.09c-2.13,0-3.22-.63-3.28-1.9l2.42-4.66h20.45ZM220.92,53.58h-24.25c-2.36,0-4.03.92-5,2.76l-4.83,9.58c-.29.86-.43,1.52-.43,1.98,0,3.05,3.27,4.57,9.83,4.57h16.74c7.59,0,12.34-2.1,14.23-6.3l9.15-18.98c-.17-4.03-4.17-6.04-11.99-6.04h-25.45l-2.85,6.04h26.66c1.61,0,2.5.69,2.68,2.07l-2.33,4.31h-2.16Z"/><polygon class="uuid-be908179-dc43-401f-aac0-8b8fd77103aa" points="260.78 28.23 238.95 71.89 229.03 71.89 251.12 28.23 260.78 28.23"/><polygon class="uuid-be908179-dc43-401f-aac0-8b8fd77103aa" points="67.59 31.25 140.91 31.25 144.27 24.94 34.58 24.94 31.47 31.25 54.65 31.25 34.38 72.24 44.47 72.24 65.18 31.25 67.59 31.25"/><path class="uuid-be908179-dc43-401f-aac0-8b8fd77103aa" d="M91.64,46.7h-7.9c-2.04,0-3.57.69-4.59,2.07l-7.25,15.19-3.71,7.94h-9.34l3.14-6.47,8.7-18.55c1.61-4.26,5.1-6.3,10.47-6.13h21.46l-2.9,5.96h-8.08Z"/><path class="uuid-be908179-dc43-401f-aac0-8b8fd77103aa" d="M129.2,59.29l-2.5,4.66c-1.04,1.15-2.19,1.81-3.45,1.98l-13.63-.09c-2.13,0-3.22-.63-3.28-1.9l2.41-4.66h20.45ZM129.8,53.08h-24.25c-2.36,0-4.03.92-5.01,2.76l-4.83,9.58c-.29.86-.43,1.52-.43,1.98,0,3.05,3.28,4.57,9.84,4.57h16.74c7.59,0,12.34-2.1,14.23-6.3l9.15-18.98c-.18-4.03-4.17-6.04-11.99-6.04h-25.45l-2.85,6.04h26.66c1.61,0,2.5.69,2.67,2.07l-2.33,4.31h-2.16Z"/><path class="uuid-be908179-dc43-401f-aac0-8b8fd77103aa" d="M173.11,47.19h-8.46c-2.18,0-3.82.69-4.92,2.07l-7.76,15.19c.06,1.26,1.15,1.9,3.28,1.9l13.63.09c1.33-.17,2.39-.83,3.2-1.98l7.85-15.19c-.17-1.38-1.06-2.07-2.68-2.07h-4.14ZM190.88,47.19l-9.15,18.98c-1.9,4.2-6.64,6.3-14.24,6.3h-16.74c-6.56,0-9.84-1.52-9.84-4.57,0-.46.14-1.12.43-1.98l22.32-40.78h9.66l-9.64,16.02h15.19c7.83,0,11.82,2.02,11.99,6.04h0Z"/><path class="uuid-60460550-5922-4c2f-ba85-e102bae03cd3" d="M267.39,20.32l-9.43,2.36c-9.04.39-23.58,1.57-42.61,8.43,5.7-4.21,36.46-13.89,52.05-10.79h0Z"/><path class="uuid-60460550-5922-4c2f-ba85-e102bae03cd3" d="M38.44,47.9l-3.96,11.07c-8.84,3.16-18.64,11.59-14.61,21.95-7.73-10.35-.34-20.42,18.57-33.01h0Z"/><path class="uuid-be908179-dc43-401f-aac0-8b8fd77103aa" d="M168.2,75.11h-8.69c-1.6.94-3.26,1.87-4.98,2.79-.75-.02-1.59-.04-2.37-.11,1.84-.87,3.62-1.76,5.35-2.67h-6.04c-1.02,0-2-.04-2.93-.12-16.4,6.63-35.94,11.99-56.15,14.89-48.62,7-82.72-2.79-76.17-21.87,2.53-7.36,10.74-15.03,22.66-22.08-11.79,6.17-21.47,13.04-27.99,20.07-.48.88-.91,1.75-1.25,2.63-1.61,4.07-1.59,7.82-.15,11.18-.94,0-2.47.8-3.65,1.9-1.02-3.03-.92-6.36.46-9.93-1.49,2.23-2.63,4.47-3.39,6.69-7.89,22.96,27.72,35.53,79.54,28.07,33.92-4.88,66.37-17.14,86.96-31.46-.39.01-.79.02-1.19.02h0ZM15.26,91.93c.12-1.47.73-2.75,1.61-3.85l-.22-.27c7.17,4.84,18.69,8.09,33.26,9.23-.12,1.1-.11,2.15.04,3.15-14.89-.82-26.87-3.74-34.68-8.27h0ZM79.58,99.32c-6.14.64-12.03,1-17.62,1.09-.36-.88-.63-1.85-.82-2.91,6.78.04,14.04-.32,21.7-1.12,3.9-.41,7.78-.92,11.62-1.51.68.72,1.37,1.4,2.04,2.05-5.57,1-11.23,1.8-16.93,2.4h0ZM106.21,94.98c-.95-.44-1.81-.98-2.36-1.76,6.98-1.37,13.79-3.04,20.31-4.95.62.47,1.26.92,1.89,1.36-6.34,2.02-12.99,3.82-19.84,5.35h0ZM135.88,86.22c-.73-.27-1.44-.58-2.05-1.02,4.13-1.42,8.1-2.94,11.89-4.54.67.2,1.35.41,1.95.63-3.73,1.73-7.67,3.37-11.79,4.93h0Z"/><path class="uuid-be908179-dc43-401f-aac0-8b8fd77103aa" d="M236.77,6.36c-21.02,6.41-40.6,18.4-53.93,31.82,1.5.16,2.93.43,4.23.84,1.39-1.16,2.83-2.31,4.32-3.44.39.74.89,1.36,1.5,1.87-1.14.85-2.25,1.72-3.34,2.59,1.09.6,2.01,1.36,2.71,2.29,11.12-7.86,24.75-14.68,39.15-19.07,14.7-4.48,27.79-5.69,37.66-4.07l14.82-13.7c-10.75-5-27.55-5.11-47.13.86h0ZM198.49,33.49c-.62-.45-1.2-1.04-1.74-1.76,2.14-1.46,4.35-2.88,6.63-4.25.39.76.89,1.43,1.5,2-2.19,1.29-4.32,2.63-6.38,4.01h0ZM211.83,25.64c-.63-.52-1.2-1.18-1.72-1.98,3.4-1.81,6.92-3.52,10.53-5.09.23.9.6,1.71,1.12,2.43-3.39,1.42-6.7,2.97-9.92,4.64h0ZM232.81,16.91c-1.22.39-2.44.8-3.64,1.23-.56-.68-1.04-1.49-1.45-2.44,2.6-.98,5.24-1.89,7.9-2.71,2.43-.76,4.78-1.42,7.05-2.02.16,1.04.48,2.02.97,2.92-3.43.83-7.04,1.83-10.82,3.04h0ZM264.34,10.66c-3.34.2-7.02.59-11.01,1.25-.57-.88-1.03-1.91-1.37-3.1,5.97-1.17,11.25-1.79,15.82-2.01-1.11.95-2.38,2.41-3.43,3.86h0Z"/></g></svg>