<?xml version="1.0" encoding="UTF-8"?><svg xmlns="http://www.w3.org/2000/svg" xmlns:xlink="http://www.w3.org/1999/xlink" viewBox="0 0 1280 250.52"><defs><style>.uuid-e607572a-b2c5-4457-bff2-67f899690628{fill:none;}.uuid-e0e7faad-294a-4f08-9ead-c39ae156cb80{clip-path:url(#uuid-f4f76255-1ad7-4570-b162-a70de9f6890d);}.uuid-87f6f97d-28ab-4940-937a-ae7b691ab01c{fill:#ffe900;}.uuid-8c980034-ec1b-455c-9d3b-35e2c533856b{fill:url(#uuid-5652fe2c-5588-43c5-8efa-0c3d0c3b33c0);}.uuid-1ed9a402-e173-48a3-8ef0-c27ca8a7946f{clip-path:url(#uuid-2a812e7c-388f-4334-9471-49df0d8b0aea);}.uuid-2235289a-230e-4491-9daa-bb2f10da4716{fill:url(#uuid-502d3163-f73e-4212-b307-766dd6ff1cb7);}.uuid-2dedc980-ee28-4f62-8374-859233f12f1d{fill:url(#uuid-458b752e-b2bf-45e2-8e73-04ad4655f8ed);}.uuid-0c3d4360-8a2a-44a7-b64b-3485146ab4c2{isolation:isolate;}.uuid-21ecf2ad-6c64-41e4-a89f-0bf6ae17587d{mix-blend-mode:multiply;}.uuid-71b9f2d9-8631-4d6b-b4ce-0b9f34270a94{fill:#fff;}.uuid-1bb58bce-0b5c-4ace-bdb3-fbe66fe5b387{mix-blend-mode:overlay;}.uuid-e3492a29-5b83-4aeb-84a2-1087f9d08af6{clip-path:url(#uuid-a202b1cc-3bec-4000-9d02-cbdf7a1b201b);}.uuid-f639ead4-fc6f-4669-a3e4-ab0b76e88750{clip-path:url(#uuid-f76e36c8-30b3-4f4c-bf6e-9b68949730fc);}.uuid-39417d27-0811-4979-b10e-f123117f2b6d{fill:url(#uuid-c3360768-13a6-4fef-84ed-c1dc258fc897);}.uuid-b243d73a-8f24-48ab-bfda-ebfdb5db3ae0{clip-path:url(#uuid-14ce1f04-4275-496d-8309-4f9f440d80f9);}</style><clipPath id="uuid-2a812e7c-388f-4334-9471-49df0d8b0aea"><rect class="uuid-e607572a-b2c5-4457-bff2-67f899690628" width="1280" height="250.52"/></clipPath><clipPath id="uuid-f76e36c8-30b3-4f4c-bf6e-9b68949730fc"><rect class="uuid-e607572a-b2c5-4457-bff2-67f899690628" x="-8.21" y="-91.43" width="1296.42" height="381.44" transform="translate(20.44 -89.4) rotate(8.12)"/></clipPath><linearGradient id="uuid-458b752e-b2bf-45e2-8e73-04ad4655f8ed" x1="186.58" y1="580.64" x2="1488.5" y2="580.64" gradientTransform="translate(-108.29 -572.68) rotate(8.12)" gradientUnits="userSpaceOnUse"><stop offset="0" stop-color="#fff59f"/><stop offset=".05" stop-color="#feef8f"/><stop offset=".24" stop-color="#fcdb5c"/><stop offset=".41" stop-color="#fbcc34"/><stop offset=".57" stop-color="#fac117"/><stop offset=".71" stop-color="#fabb06"/><stop offset=".81" stop-color="#fab900"/></linearGradient><linearGradient id="uuid-c3360768-13a6-4fef-84ed-c1dc258fc897" x1="1917.27" y1="-2375.05" x2="1209.66" y2="-3385.63" gradientTransform="translate(-219.25 2815.91) rotate(-23.6) scale(1.19 .75)" gradientUnits="userSpaceOnUse"><stop offset="0" stop-color="#ffe608"/><stop offset=".3" stop-color="#fcd204"/><stop offset=".68" stop-color="#fabf01"/><stop offset=".95" stop-color="#fab900"/></linearGradient><linearGradient id="uuid-502d3163-f73e-4212-b307-766dd6ff1cb7" x1="1531.86" y1="-2645.25" x2="1615.97" y2="-3005.42" gradientTransform="translate(-219.25 2815.91) rotate(-23.6) scale(1.19 .75)" gradientUnits="userSpaceOnUse"><stop offset="0" stop-color="#fff381"/><stop offset=".13" stop-color="#fff27d"/><stop offset=".25" stop-color="#ffee73"/><stop offset=".35" stop-color="#ffe961"/><stop offset=".45" stop-color="#ffe248"/><stop offset=".55" stop-color="#ffd828"/><stop offset=".65" stop-color="#ffcd01"/><stop offset=".65" stop-color="#ffcd00"/><stop offset=".97" stop-color="#cea601"/></linearGradient><linearGradient id="uuid-5652fe2c-5588-43c5-8efa-0c3d0c3b33c0" x1="1057.56" y1="-2863.6" x2="2102.44" y2="-2863.6" gradientTransform="translate(-219.25 2815.91) rotate(-23.6) scale(1.19 .75)" gradientUnits="userSpaceOnUse"><stop offset=".05" stop-color="#f8c400"/><stop offset=".06" stop-color="#f4c40f"/><stop offset=".09" stop-color="#ebc63b"/><stop offset=".12" stop-color="#e3c862"/><stop offset=".15" stop-color="#dcc983"/><stop offset=".18" stop-color="#d6ca9e"/><stop offset=".21" stop-color="#d2cbb3"/><stop offset=".25" stop-color="#cfccc1"/><stop offset=".3" stop-color="#cdccca"/><stop offset=".37" stop-color="#cdcdcd"/><stop offset=".52" stop-color="#9d9d9c"/><stop offset=".65" stop-color="#797978"/><stop offset=".75" stop-color="#636362"/><stop offset=".82" stop-color="#5b5b5a"/><stop offset=".83" stop-color="#575756"/><stop offset=".9" stop-color="#373736"/><stop offset=".96" stop-color="#242422"/><stop offset="1" stop-color="#1d1d1b"/></linearGradient><clipPath id="uuid-a202b1cc-3bec-4000-9d02-cbdf7a1b201b"><rect class="uuid-e607572a-b2c5-4457-bff2-67f899690628" x="-8.21" y="-91.43" width="1296.42" height="381.44" transform="translate(20.44 -89.4) rotate(8.12)"/></clipPath><clipPath id="uuid-14ce1f04-4275-496d-8309-4f9f440d80f9"><rect class="uuid-e607572a-b2c5-4457-bff2-67f899690628" x="-8.21" y="-91.43" width="1296.42" height="381.44" transform="translate(20.44 -89.4) rotate(8.12)"/></clipPath><clipPath id="uuid-f4f76255-1ad7-4570-b162-a70de9f6890d"><rect class="uuid-e607572a-b2c5-4457-bff2-67f899690628" x="-8.21" y="-91.43" width="1296.42" height="381.44" transform="translate(20.44 -89.4) rotate(8.12)"/></clipPath></defs><g class="uuid-0c3d4360-8a2a-44a7-b64b-3485146ab4c2"><g id="uuid-b3ce8861-2cd1-4060-acbf-2cebae789377"><g id="uuid-2ccb784f-2208-4445-88b0-2ce540f23bd3"><g class="uuid-1ed9a402-e173-48a3-8ef0-c27ca8a7946f"><rect class="uuid-71b9f2d9-8631-4d6b-b4ce-0b9f34270a94" x="-15.23" y="-405.07" width="1298.3" height="1237.37"/><polygon class="uuid-21ecf2ad-6c64-41e4-a89f-0bf6ae17587d" points="1285.33 126.35 1285.33 -725.52 1099.58 -731.52 706.36 -728.52 186.59 -568.49 -17.8 -474.6 -17.8 131.52 414.56 179.93 1285.33 126.35"/><g class="uuid-f639ead4-fc6f-4669-a3e4-ab0b76e88750"><path class="uuid-2dedc980-ee28-4f62-8374-859233f12f1d" d="M1300.31,93.05l-8.17,57.26s-106.11,17.56-360.6,39.27C405.91,234.44-21.45,145.02-21.45,145.02l.61-9.61s430,90.93,931.94,32.48c166.71-19.41,389.2-74.84,389.2-74.84Z"/><path class="uuid-39417d27-0811-4979-b10e-f123117f2b6d" d="M1295.4,133.21l7.2-50.44s-210.13,70.37-487.39,79.42C294.5,179.19-90.25,121.1-90.25,121.1c0,0,487.7,100.77,882.36,66.22,267.16-23.39,503.3-54.11,503.3-54.11Z"/><path class="uuid-2235289a-230e-4491-9daa-bb2f10da4716" d="M1309.84,26.2s-41.09,48.08-378.56,95.62c-348.34,49.07-746.47,36.55-949.53-.08l-.61,5.78s416.57,83.31,1025.35,18.22c195.47-20.9,295.3-63.09,295.3-63.09l8.05-56.45Z"/><path class="uuid-8c980034-ec1b-455c-9d3b-35e2c533856b" d="M-20.72,136.52s230.11,48.96,543.46,52.51c402.87,4.57,777.56-96.69,777.56-96.69l-1.03-30.43C652.08,261.33-20.76,132.51-20.76,132.51l.04,4.02Z"/><path class="uuid-87f6f97d-28ab-4940-937a-ae7b691ab01c" d="M-19.92,130.87s186.57,43.38,499.92,46.94c402.87,4.57,821.27-90.58,821.27-90.58l-1.03-30.43C653.05,256.21-19.78,127.39-19.78,127.39l-.13,3.48Z"/></g><g class="uuid-1bb58bce-0b5c-4ace-bdb3-fbe66fe5b387"><rect class="uuid-71b9f2d9-8631-4d6b-b4ce-0b9f34270a94" x="-15.23" y="-405.07" width="1298.3" height="1237.37"/><polygon class="uuid-21ecf2ad-6c64-41e4-a89f-0bf6ae17587d" points="1285.33 126.35 1285.33 -725.52 1099.58 -731.52 706.36 -728.52 186.59 -568.49 -17.8 -474.6 -17.8 131.52 414.56 179.93 1285.33 126.35"/><g class="uuid-e3492a29-5b83-4aeb-84a2-1087f9d08af6"><path class="uuid-2dedc980-ee28-4f62-8374-859233f12f1d" d="M1300.31,93.05l-8.17,57.26s-106.11,17.56-360.6,39.27C405.91,234.44-21.45,145.02-21.45,145.02l.61-9.61s430,90.93,931.94,32.48c166.71-19.41,389.2-74.84,389.2-74.84Z"/><path class="uuid-39417d27-0811-4979-b10e-f123117f2b6d" d="M1295.4,133.21l7.2-50.44s-210.13,70.37-487.39,79.42C294.5,179.19-90.25,121.1-90.25,121.1c0,0,487.7,100.77,882.36,66.22,267.16-23.39,503.3-54.11,503.3-54.11Z"/><path class="uuid-2235289a-230e-4491-9daa-bb2f10da4716" d="M1309.84,26.2s-41.09,48.08-378.56,95.62c-348.34,49.07-746.47,36.55-949.53-.08l-.61,5.78s416.57,83.31,1025.35,18.22c195.47-20.9,295.3-63.09,295.3-63.09l8.05-56.45Z"/><path class="uuid-8c980034-ec1b-455c-9d3b-35e2c533856b" d="M-20.72,136.52s230.11,48.96,543.46,52.51c402.87,4.57,777.56-96.69,777.56-96.69l-1.03-30.43C652.08,261.33-20.76,132.51-20.76,132.51l.04,4.02Z"/><path class="uuid-87f6f97d-28ab-4940-937a-ae7b691ab01c" d="M-19.92,130.87s186.57,43.38,499.92,46.94c402.87,4.57,821.27-90.58,821.27-90.58l-1.03-30.43C653.05,256.21-19.78,127.39-19.78,127.39l-.13,3.48Z"/></g></g><g class="uuid-1bb58bce-0b5c-4ace-bdb3-fbe66fe5b387"><rect class="uuid-71b9f2d9-8631-4d6b-b4ce-0b9f34270a94" x="-15.23" y="-405.07" width="1298.3" height="1237.37"/><polygon class="uuid-21ecf2ad-6c64-41e4-a89f-0bf6ae17587d" points="1285.33 126.35 1285.33 -725.52 1099.58 -731.52 706.36 -728.52 186.59 -568.49 -17.8 -474.6 -17.8 131.52 414.56 179.93 1285.33 126.35"/><g class="uuid-b243d73a-8f24-48ab-bfda-ebfdb5db3ae0"><path class="uuid-2dedc980-ee28-4f62-8374-859233f12f1d" d="M1300.31,93.05l-8.17,57.26s-106.11,17.56-360.6,39.27C405.91,234.44-21.45,145.02-21.45,145.02l.61-9.61s430,90.93,931.94,32.48c166.71-19.41,389.2-74.84,389.2-74.84Z"/><path class="uuid-39417d27-0811-4979-b10e-f123117f2b6d" d="M1295.4,133.21l7.2-50.44s-210.13,70.37-487.39,79.42C294.5,179.19-90.25,121.1-90.25,121.1c0,0,487.7,100.77,882.36,66.22,267.16-23.39,503.3-54.11,503.3-54.11Z"/><path class="uuid-2235289a-230e-4491-9daa-bb2f10da4716" d="M1309.84,26.2s-41.09,48.08-378.56,95.62c-348.34,49.07-746.47,36.55-949.53-.08l-.61,5.78s416.57,83.31,1025.35,18.22c195.47-20.9,295.3-63.09,295.3-63.09l8.05-56.45Z"/><path class="uuid-8c980034-ec1b-455c-9d3b-35e2c533856b" d="M-20.72,136.52s230.11,48.96,543.46,52.51c402.87,4.57,777.56-96.69,777.56-96.69l-1.03-30.43C652.08,261.33-20.76,132.51-20.76,132.51l.04,4.02Z"/><path class="uuid-87f6f97d-28ab-4940-937a-ae7b691ab01c" d="M-19.92,130.87s186.57,43.38,499.92,46.94c402.87,4.57,821.27-90.58,821.27-90.58l-1.03-30.43C653.05,256.21-19.78,127.39-19.78,127.39l-.13,3.48Z"/></g></g><g class="uuid-1bb58bce-0b5c-4ace-bdb3-fbe66fe5b387"><rect class="uuid-71b9f2d9-8631-4d6b-b4ce-0b9f34270a94" x="-15.23" y="-405.07" width="1298.3" height="1237.37"/><polygon class="uuid-21ecf2ad-6c64-41e4-a89f-0bf6ae17587d" points="1285.33 126.35 1285.33 -725.52 1099.58 -731.52 706.36 -728.52 186.59 -568.49 -17.8 -474.6 -17.8 131.52 414.56 179.93 1285.33 126.35"/><g class="uuid-e0e7faad-294a-4f08-9ead-c39ae156cb80"><path class="uuid-2dedc980-ee28-4f62-8374-859233f12f1d" d="M1300.31,93.05l-8.17,57.26s-106.11,17.56-360.6,39.27C405.91,234.44-21.45,145.02-21.45,145.02l.61-9.61s430,90.93,931.94,32.48c166.71-19.41,389.2-74.84,389.2-74.84Z"/><path class="uuid-39417d27-0811-4979-b10e-f123117f2b6d" d="M1295.4,133.21l7.2-50.44s-210.13,70.37-487.39,79.42C294.5,179.19-90.25,121.1-90.25,121.1c0,0,487.7,100.77,882.36,66.22,267.16-23.39,503.3-54.11,503.3-54.11Z"/><path class="uuid-2235289a-230e-4491-9daa-bb2f10da4716" d="M1309.84,26.2s-41.09,48.08-378.56,95.62c-348.34,49.07-746.47,36.55-949.53-.08l-.61,5.78s416.57,83.31,1025.35,18.22c195.47-20.9,295.3-63.09,295.3-63.09l8.05-56.45Z"/><path class="uuid-8c980034-ec1b-455c-9d3b-35e2c533856b" d="M-20.72,136.52s230.11,48.96,543.46,52.51c402.87,4.57,777.56-96.69,777.56-96.69l-1.03-30.43C652.08,261.33-20.76,132.51-20.76,132.51l.04,4.02Z"/><path class="uuid-87f6f97d-28ab-4940-937a-ae7b691ab01c" d="M-19.92,130.87s186.57,43.38,499.92,46.94c402.87,4.57,821.27-90.58,821.27-90.58l-1.03-30.43C653.05,256.21-19.78,127.39-19.78,127.39l-.13,3.48Z"/></g></g></g></g></g></g></svg>