<?xml version="1.0" encoding="UTF-8"?><svg xmlns="http://www.w3.org/2000/svg" xmlns:xlink="http://www.w3.org/1999/xlink" viewBox="0 0 1280 250.52"><defs><style>.uuid-ff73f089-87bb-4381-958e-393c0be7adb4{fill:none;}.uuid-1fd7dbfe-e378-436f-924e-e751e56bae17{fill:#ffe900;}.uuid-6f694a66-9e76-466d-926b-4fa40f4d6679{clip-path:url(#uuid-9d9cb9f9-538e-4584-9690-57ee76f6e223);}.uuid-7f87ea08-0bd1-46cb-b73a-6b25ed611b9b{fill:url(#uuid-858ecba0-d691-4580-b389-1d60f56e3c86);}.uuid-f342c707-b39b-444d-b754-74ef4c660b6f{fill:url(#uuid-ab1c4e4c-29d4-4459-94b3-4b20c15bf94e);}.uuid-90e96e94-bf6d-4654-a1ec-f742e7838fad{isolation:isolate;}.uuid-3320c953-e5d5-4846-baf1-ae014298aedd{mix-blend-mode:multiply;}.uuid-ec84d354-5b8c-49cb-97db-3fc485ec6c7a{fill:#fff;}.uuid-5e927543-cbf4-4bf5-ac18-acc8763eb980{clip-path:url(#uuid-55b09349-8812-499d-a5b0-02acd40db99a);}.uuid-75142f85-9cf9-42d5-935b-6b9b0f3b3e31{fill:url(#uuid-3605c65e-7561-45c7-af88-1ce6f795513d);}.uuid-f535b84b-7ff0-4b56-b890-b7826d8d1024{fill:url(#uuid-660d6140-b8c7-455f-bf36-0e3bd86fe562);}</style><clipPath id="uuid-9d9cb9f9-538e-4584-9690-57ee76f6e223"><rect class="uuid-ff73f089-87bb-4381-958e-393c0be7adb4" x="0" width="1280" height="250.52"/></clipPath><clipPath id="uuid-55b09349-8812-499d-a5b0-02acd40db99a"><rect class="uuid-ff73f089-87bb-4381-958e-393c0be7adb4" x="-8.21" y="-91.43" width="1296.42" height="381.44" transform="translate(20.44 -89.4) rotate(8.12)"/></clipPath><linearGradient id="uuid-ab1c4e4c-29d4-4459-94b3-4b20c15bf94e" x1="199.64" y1="764.63" x2="1501.56" y2="764.63" gradientTransform="translate(-95.23 -756.67) rotate(8.12)" gradientUnits="userSpaceOnUse"><stop offset="0" stop-color="#fff59f"/><stop offset=".05" stop-color="#feef8f"/><stop offset=".24" stop-color="#fcdb5c"/><stop offset=".41" stop-color="#fbcc34"/><stop offset=".57" stop-color="#fac117"/><stop offset=".71" stop-color="#fabb06"/><stop offset=".81" stop-color="#fab900"/></linearGradient><linearGradient id="uuid-858ecba0-d691-4580-b389-1d60f56e3c86" x1="2213.62" y1="-3074.97" x2="1506" y2="-4085.55" gradientTransform="translate(-332.64 3434.51) rotate(-23.6) scale(1.19 .75)" gradientUnits="userSpaceOnUse"><stop offset="0" stop-color="#ffe608"/><stop offset=".3" stop-color="#fcd204"/><stop offset=".68" stop-color="#fabf01"/><stop offset=".95" stop-color="#fab900"/></linearGradient><linearGradient id="uuid-3605c65e-7561-45c7-af88-1ce6f795513d" x1="1828.2" y1="-3345.17" x2="1912.32" y2="-3705.34" gradientTransform="translate(-332.64 3434.51) rotate(-23.6) scale(1.19 .75)" gradientUnits="userSpaceOnUse"><stop offset="0" stop-color="#fff381"/><stop offset=".13" stop-color="#fff27d"/><stop offset=".25" stop-color="#ffee73"/><stop offset=".35" stop-color="#ffe961"/><stop offset=".45" stop-color="#ffe248"/><stop offset=".55" stop-color="#ffd828"/><stop offset=".65" stop-color="#ffcd01"/><stop offset=".65" stop-color="#ffcd00"/><stop offset=".97" stop-color="#cea601"/></linearGradient><linearGradient id="uuid-660d6140-b8c7-455f-bf36-0e3bd86fe562" x1="1353.9" y1="-3563.52" x2="2398.79" y2="-3563.52" gradientTransform="translate(-332.64 3434.51) rotate(-23.6) scale(1.19 .75)" gradientUnits="userSpaceOnUse"><stop offset=".05" stop-color="#f8c400"/><stop offset=".06" stop-color="#f4c40f"/><stop offset=".09" stop-color="#ebc63b"/><stop offset=".12" stop-color="#e3c862"/><stop offset=".15" stop-color="#dcc983"/><stop offset=".18" stop-color="#d6ca9e"/><stop offset=".21" stop-color="#d2cbb3"/><stop offset=".25" stop-color="#cfccc1"/><stop offset=".3" stop-color="#cdccca"/><stop offset=".37" stop-color="#cdcdcd"/><stop offset=".52" stop-color="#9d9d9c"/><stop offset=".65" stop-color="#797978"/><stop offset=".75" stop-color="#636362"/><stop offset=".82" stop-color="#5b5b5a"/><stop offset=".83" stop-color="#575756"/><stop offset=".9" stop-color="#373736"/><stop offset=".96" stop-color="#242422"/><stop offset="1" stop-color="#1d1d1b"/></linearGradient></defs><g class="uuid-90e96e94-bf6d-4654-a1ec-f742e7838fad"><g id="uuid-c1cae398-5706-4431-8d74-007c2b039ccc"><g id="uuid-3f135834-125e-49ff-b00c-1d6e5f6a37ec"><g class="uuid-6f694a66-9e76-466d-926b-4fa40f4d6679"><rect class="uuid-ec84d354-5b8c-49cb-97db-3fc485ec6c7a" x="-15.23" y="-405.07" width="1298.3" height="1237.37"/><polygon class="uuid-3320c953-e5d5-4846-baf1-ae014298aedd" points="1285.33 126.35 1285.33 -725.52 1099.58 -731.52 706.36 -728.52 186.59 -568.49 -17.8 -474.6 -17.8 131.52 414.56 179.93 1285.33 126.35"/><g class="uuid-5e927543-cbf4-4bf5-ac18-acc8763eb980"><path class="uuid-f342c707-b39b-444d-b754-74ef4c660b6f" d="M1300.31,93.05l-8.17,57.26s-106.11,17.56-360.6,39.27C405.91,234.44-21.45,145.02-21.45,145.02l.61-9.61s430,90.93,931.94,32.48c166.71-19.41,389.2-74.84,389.2-74.84Z"/><path class="uuid-7f87ea08-0bd1-46cb-b73a-6b25ed611b9b" d="M1295.4,133.21l7.2-50.44s-210.13,70.37-487.39,79.42C294.5,179.19-90.25,121.1-90.25,121.1c0,0,487.7,100.77,882.36,66.22,267.16-23.39,503.3-54.11,503.3-54.11Z"/><path class="uuid-75142f85-9cf9-42d5-935b-6b9b0f3b3e31" d="M1309.84,26.2s-41.09,48.08-378.56,95.62c-348.34,49.07-746.47,36.55-949.53-.08l-.61,5.78s416.57,83.31,1025.35,18.22c195.47-20.9,295.3-63.09,295.3-63.09l8.05-56.45Z"/><path class="uuid-f535b84b-7ff0-4b56-b890-b7826d8d1024" d="M-20.72,136.52s230.11,48.96,543.46,52.51c402.87,4.57,777.56-96.69,777.56-96.69l-1.03-30.43C652.08,261.33-20.76,132.51-20.76,132.51l.04,4.02Z"/><path class="uuid-1fd7dbfe-e378-436f-924e-e751e56bae17" d="M-19.92,130.87s186.57,43.38,499.92,46.94c402.87,4.57,821.27-90.58,821.27-90.58l-1.03-30.43C653.05,256.21-19.78,127.39-19.78,127.39l-.13,3.48Z"/></g></g></g></g></g></svg>