<?xml version="1.0" encoding="UTF-8"?>
<svg id="uuid-a9021da4-4393-45b8-b178-24a6981f1e9f" xmlns="http://www.w3.org/2000/svg" version="1.1" viewBox="0 0 281.7 281.7">
  <!-- Generator: Adobe Illustrator 29.3.1, SVG Export Plug-In . SVG Version: 2.1.0 Build 151)  -->
  <defs>
    <style>
      .st0 {
        fill: #1d1d1b;
      }

      .st1 {
        fill: #fff;
      }

      .st2 {
        fill: #fcc400;
      }
    </style>
  </defs>
  <g id="uuid-844c71a9-0df4-4413-b4b0-ebb55256d9e6">
    <circle cx="140.9" cy="140.9" r="136.4"/>
    <path class="st1" d="M140.9,281.7C63.2,281.7,0,218.5,0,140.9S63.2,0,140.9,0s140.9,63.2,140.9,140.9-63.2,140.9-140.9,140.9ZM140.9,9C68.2,9,9,68.2,9,140.9s59.2,131.9,131.9,131.9,131.9-59.1,131.9-131.9S213.6,9,140.9,9Z"/>
    <path class="st1" d="M94.3,167.2l-11.4,26.4h-7.4l-11.3-26.4h8.1l7.2,17.2,7.3-17.2h7.4Z"/>
    <path class="st1" d="M113.3,182.2v11.4h-6.7v-2.6c-1,2-3.1,3-6.1,3-4.9,0-7.7-2.8-7.7-6.3s2.8-6.1,9.1-6.1h4.1c-.1-2.1-1.5-3.2-4.3-3.2s-4.2.7-5.6,1.8l-2.4-4.9c2.3-1.6,5.8-2.4,9.1-2.4,6.7,0,10.5,2.9,10.5,9.4h0ZM106.1,187v-1.8h-3.1c-2.3,0-3.1.8-3.1,2.1s1,2.1,2.7,2.1,3-.8,3.6-2.4h0Z"/>
    <path class="st1" d="M117.8,165.6h7.2v28h-7.2v-28Z"/>
    <path class="st1" d="M128.4,183.4c0-6.1,4.9-10.5,11.6-10.5s11.6,4.4,11.6,10.5-4.8,10.6-11.6,10.6-11.6-4.4-11.6-10.6ZM144.3,183.4c0-3.1-1.9-4.8-4.3-4.8s-4.3,1.7-4.3,4.8,1.9,4.9,4.3,4.9,4.3-1.8,4.3-4.9Z"/>
    <path class="st1" d="M168.6,172.8v6.4c-.6,0-1.1-.1-1.6-.1-2.9,0-4.9,1.5-4.9,5.1v9.4h-7.2v-20.4h6.9v2.4c1.5-1.9,3.9-2.8,6.9-2.8h0Z"/>
    <path class="st1" d="M192.2,185.2h-14.9c.6,2.1,2.4,3.3,5,3.3s3.3-.6,4.7-1.8l3.8,3.9c-2,2.2-4.9,3.3-8.8,3.3-7.3,0-12-4.5-12-10.6s4.8-10.5,11.3-10.5,11,3.9,11,10.6,0,1.2-.1,1.8h0ZM177.2,181.4h8.4c-.4-2.1-2-3.5-4.2-3.5s-3.8,1.4-4.2,3.5h0Z"/>
    <path class="st1" d="M194.1,191.8l2.2-4.9c1.9,1.2,4.7,1.9,7.2,1.9s3.2-.5,3.2-1.4c0-2.8-12.1.4-12.1-7.8s3.6-6.8,10-6.8,6.1.6,8.1,1.7l-2.2,4.9c-2.1-1.1-4.1-1.5-5.9-1.5s-3.3.7-3.3,1.4c0,2.8,12.1-.2,12.1,7.9s-3.5,6.7-10.1,6.7-7.1-.9-9.1-2.1h0Z"/>
    <path class="st0" d="M218.7,164.9l-4-3.5c-3.3,2.3-7.4,3.6-11.8,3.6-8.1,0-14.1-4.2-14.1-9.9s2.3-7.6,7.4-10.3c-2.3-2.4-3.4-4.7-3.4-7.1,0-5.4,4.7-9,11.8-9s10.9,3.3,10.9,8.4-2.1,6.3-6.6,8.8l5.1,4.6c.7-1.5,1.2-3.2,1.6-5l7.7,2.3c-.6,3-1.8,5.7-3.3,8l3.7,3.3-5.1,5.9h0ZM209,156.3l-7.6-6.7c-2.3,1.4-3.2,2.8-3.2,4.5s2.1,3.7,5.4,3.7,3.8-.5,5.4-1.4ZM201.5,137.6c0,1.1.4,2,2.3,3.7,2.7-1.4,3.7-2.6,3.7-3.9s-1-2.4-2.8-2.4-3.1,1.1-3.1,2.6h0Z"/>
    <path class="st2" d="M202.9,165.2c-8.3,0-14.3-4.2-14.3-10.1s2.2-7.6,7.2-10.4c-2.2-2.3-3.2-4.6-3.2-7,0-5.5,4.8-9.2,12.1-9.2s11.1,3.4,11.1,8.6-2,6.3-6.4,8.8l4.7,4.2c.6-1.4,1.1-2.9,1.4-4.7v-.2s8.1,2.4,8.1,2.4v.2c-.7,2.9-1.8,5.6-3.2,7.9l3.8,3.3-5.4,6.2-4-3.5c-3.4,2.3-7.4,3.6-11.8,3.6h0ZM204.6,128.9c-7,0-11.6,3.5-11.6,8.8s1.1,4.7,3.3,6.9l.2.2h-.2c-5.1,2.9-7.2,5.9-7.2,10.3s5.8,9.7,13.9,9.7,8.4-1.2,11.7-3.6h.1c0,0,3.9,3.4,3.9,3.4l4.9-5.6-3.7-3.3h.1c1.5-2.4,2.5-5,3.2-7.9l-7.3-2.2c-.4,1.8-.9,3.4-1.5,4.8v.2c-.1,0-5.7-4.9-5.7-4.9h.3c4.4-2.6,6.4-5.2,6.4-8.7,0-5-4.2-8.2-10.7-8.2h0ZM203.6,157.9c-3.4,0-5.6-1.6-5.6-3.9s1-3.3,3.3-4.7h.1c0,0,7.9,6.9,7.9,6.9h-.2c-1.6,1.1-3.5,1.6-5.5,1.6h0ZM201.3,149.8c-2,1.2-2.9,2.6-2.9,4.3s2.1,3.4,5.2,3.4,3.5-.4,5-1.3l-7.3-6.4h0ZM203.7,141.5h-.1c-1.8-1.8-2.3-2.7-2.3-3.9s1.3-2.8,3.3-2.8,3,1,3,2.6-1.1,2.7-3.8,4.1h-.1c0,0,0,0,0,0ZM204.6,135.1c-1.8,0-2.9.9-2.9,2.4s.3,1.7,2.1,3.4c2.4-1.3,3.4-2.4,3.4-3.7s-.9-2.1-2.6-2.1h0Z"/>
    <path class="st1" d="M84,127.9l-11.4,26.4h-7.4l-11.3-26.4h8.1l7.2,17.2,7.3-17.2s7.4,0,7.4,0Z"/>
    <path class="st1" d="M85,127.8c0-2.2,1.7-3.8,4.4-3.8s4.4,1.6,4.4,3.7-1.7,3.9-4.4,3.9-4.4-1.7-4.4-3.8h0ZM85.8,133.9h7.2v20.4h-7.2v-20.4h0Z"/>
    <path class="st1" d="M96,152.6l2.2-4.9c1.9,1.2,4.7,1.9,7.2,1.9s3.2-.5,3.2-1.4c0-2.8-12.1.4-12.1-7.8s3.6-6.8,10-6.8,6.1.6,8.1,1.7l-2.2,4.9c-2.1-1.1-4.1-1.5-5.9-1.5s-3.3.7-3.3,1.4c0,2.8,12.1-.2,12.1,7.9s-3.5,6.7-10.2,6.7-7.1-.9-9.1-2.1h0Z"/>
    <path class="st1" d="M117.6,127.8c0-2.2,1.7-3.8,4.4-3.8s4.4,1.6,4.4,3.7-1.7,3.9-4.4,3.9-4.4-1.7-4.4-3.8h0ZM118.4,133.9h7.2v20.4h-7.2v-20.4h0Z"/>
    <path class="st1" d="M128.9,144.1c0-6.1,4.9-10.5,11.6-10.5s11.6,4.4,11.6,10.5-4.8,10.6-11.6,10.6-11.6-4.4-11.6-10.6ZM144.8,144.1c0-3.1-1.9-4.8-4.3-4.8s-4.3,1.7-4.3,4.8,1.9,4.9,4.3,4.9,4.3-1.8,4.3-4.9ZM141.8,125.7h7.2l-7.1,5.7h-5.1l5.1-5.7h0Z"/>
    <path class="st1" d="M177.3,142.6v11.7h-7.2v-10.5c0-2.9-1.3-4.2-3.4-4.2s-4.1,1.4-4.1,4.8v9.9h-7.2v-20.4h6.9v2.2c1.6-1.7,3.9-2.6,6.5-2.6,4.8,0,8.5,2.8,8.5,9.1h0Z"/>
    <path class="st1" d="M92.9,114.7v-14c0,0-6.9,11.4-6.9,11.4h-3.3l-6.8-11v13.6h-6.9v-26.4h6.2l9.3,15.2,9.1-15.2h6.2v26.4c0,0-6.8,0-6.8,0h0Z"/>
    <path class="st1" d="M104,88.2c0-2.2,1.7-3.8,4.4-3.8s4.4,1.6,4.4,3.7-1.7,3.9-4.4,3.9-4.4-1.7-4.4-3.8h0ZM104.8,94.2h7.2v20.4h-7.2v-20.4Z"/>
    <path class="st1" d="M115,112.9l2.2-4.9c1.9,1.2,4.7,1.9,7.2,1.9s3.2-.5,3.2-1.4c0-2.8-12.1.4-12.1-7.8s3.6-6.8,10-6.8,6.1.6,8.1,1.7l-2.2,4.9c-2.1-1.1-4.1-1.5-5.9-1.5s-3.3.7-3.3,1.4c0,2.8,12.1-.2,12.1,7.9s-3.5,6.7-10.2,6.7-7.1-.9-9.1-2.1h0Z"/>
    <path class="st1" d="M136.6,88.2c0-2.2,1.7-3.8,4.4-3.8s4.4,1.6,4.4,3.7-1.7,3.9-4.4,3.9-4.4-1.7-4.4-3.8h0ZM137.4,94.2h7.2v20.4h-7.2v-20.4Z"/>
    <path class="st1" d="M147.9,104.4c0-6.1,4.9-10.5,11.6-10.5s11.6,4.4,11.6,10.5-4.8,10.6-11.6,10.6-11.6-4.4-11.6-10.6ZM163.8,104.4c0-3.1-1.9-4.8-4.3-4.8s-4.3,1.7-4.3,4.8,1.9,4.9,4.3,4.9,4.3-1.8,4.3-4.9ZM160.8,86.1h7.2l-7.1,5.7h-5.1l5.1-5.7h0Z"/>
    <path class="st1" d="M196.3,103v11.7h-7.2v-10.5c0-2.9-1.3-4.2-3.4-4.2s-4.1,1.4-4.1,4.8v9.9h-7.2v-20.4h6.9v2.2c1.6-1.7,3.9-2.6,6.5-2.6,4.8,0,8.5,2.8,8.5,9.1h0Z"/>
    <path class="st1" d="M208.1,110.8c0,1.1-.1,1.9-1.2,4.3l-2.4,5.5h-4.5l1.8-6.1c-1.4-.6-2.2-1.9-2.2-3.7,0-2.6,1.8-4.2,4.3-4.2s4.3,1.7,4.3,4.2h0Z"/>
  </g>
</svg>