<?xml version="1.0" encoding="UTF-8"?><svg id="uuid-0e7c5206-6c3a-405e-ba88-d122fd19bddd" xmlns="http://www.w3.org/2000/svg" xmlns:xlink="http://www.w3.org/1999/xlink" viewBox="0 0 1280 341"><defs><style>.uuid-775bb7c6-2d29-4fb9-b1e8-620eb0684134{fill:none;}.uuid-f7200d2f-efac-4755-bc3d-dd5c70588b10{fill:url(#uuid-0f31f67d-2bec-4d67-8eff-a45844abf580);}.uuid-06fd618f-8f81-4e21-b477-909a55882436{fill:url(#uuid-c09c6b98-d896-4ceb-b878-4ab4c49ad6b5);}.uuid-8d4f8092-517b-4356-ae06-a9ddf14b3ad6{fill:#ffe900;}.uuid-3dac6b45-bc72-470d-8f5a-be31449c426e{fill:url(#uuid-c16e9e7d-de01-425f-8552-a398c8b2e62b);}.uuid-5d27224b-40ee-469d-b884-606fcbd52a6b{fill:#fff;}.uuid-67a727fa-788d-4f79-a4c7-974b27759cda{clip-path:url(#uuid-ea638988-9fa1-4031-a3a9-249f05e1a040);}.uuid-73ed49ba-15ba-4cc5-a64b-319c4e0e7f74{fill:url(#uuid-562e6520-0d2b-4169-8a15-52042bda0fdd);}.uuid-173a9087-1d76-41b3-b443-bf073b3ebcf1{fill:url(#uuid-1788b115-9f4b-4f7e-aaba-8f34244fa7fe);}.uuid-94701c54-238c-4f2d-b831-1e3effe0df17{fill:url(#uuid-b9a104d5-c8f8-49de-86ec-6e60cfdf8386);}</style><clipPath id="uuid-ea638988-9fa1-4031-a3a9-249f05e1a040"><rect class="uuid-775bb7c6-2d29-4fb9-b1e8-620eb0684134" width="1280" height="341"/></clipPath><linearGradient id="uuid-c09c6b98-d896-4ceb-b878-4ab4c49ad6b5" x1="-13599.23" y1="-1456.93" x2="-13179.06" y2="-2056.99" gradientTransform="translate(-11426.72 -31.6) rotate(-171.89) scale(.88 -.9)" gradientUnits="userSpaceOnUse"><stop offset="0" stop-color="#ffe608"/><stop offset=".3" stop-color="#fcd204"/><stop offset=".68" stop-color="#fabf01"/><stop offset=".95" stop-color="#fab900"/></linearGradient><linearGradient id="uuid-b9a104d5-c8f8-49de-86ec-6e60cfdf8386" x1="3848.52" y1="1193.06" x2="4042.9" y2="915.46" gradientTransform="translate(-3076.02 -344.12) rotate(-8.13)" xlink:href="#uuid-c09c6b98-d896-4ceb-b878-4ab4c49ad6b5"/><linearGradient id="uuid-562e6520-0d2b-4169-8a15-52042bda0fdd" x1="3973.58" y1="1119.07" x2="4008.49" y2="969.58" gradientTransform="translate(-3076.02 -344.12) rotate(-8.13)" gradientUnits="userSpaceOnUse"><stop offset="0" stop-color="#fff381"/><stop offset=".17" stop-color="#fff27d"/><stop offset=".31" stop-color="#ffee73"/><stop offset=".44" stop-color="#ffe961"/><stop offset=".57" stop-color="#ffe248"/><stop offset=".69" stop-color="#ffd828"/><stop offset=".81" stop-color="#ffcd01"/><stop offset=".82" stop-color="#ffcd00"/></linearGradient><linearGradient id="uuid-0f31f67d-2bec-4d67-8eff-a45844abf580" x1="3675.14" y1="1052.46" x2="4259.04" y2="1052.46" gradientTransform="translate(-3076.02 -344.12) rotate(-8.13)" gradientUnits="userSpaceOnUse"><stop offset="0" stop-color="#ffe608"/><stop offset=".43" stop-color="#fee407"/><stop offset=".58" stop-color="#fedd06"/><stop offset=".69" stop-color="#fcd104"/><stop offset=".78" stop-color="#fac001"/><stop offset=".81" stop-color="#fab900"/></linearGradient><linearGradient id="uuid-1788b115-9f4b-4f7e-aaba-8f34244fa7fe" x1="-12958.37" y1="-1559.47" x2="-12913.42" y2="-1751.91" gradientTransform="translate(-11783 -122.87) rotate(-171.89) scale(.94 -.91)" xlink:href="#uuid-562e6520-0d2b-4169-8a15-52042bda0fdd"/><linearGradient id="uuid-c16e9e7d-de01-425f-8552-a398c8b2e62b" x1="-13499.93" y1="-1794.4" x2="-12190.4" y2="-1794.4" gradientTransform="translate(-11865.78 -32.99) rotate(-171.89) scale(.96 -.89)" gradientUnits="userSpaceOnUse"><stop offset="0" stop-color="#c7c7c6"/><stop offset=".14" stop-color="#acacaa"/><stop offset=".39" stop-color="#838480"/><stop offset=".62" stop-color="#666762"/><stop offset=".81" stop-color="#54564f"/><stop offset=".95" stop-color="#4e5049"/></linearGradient></defs><g id="uuid-333f138f-1f6f-41a6-bc97-8c1cf48ff08c"><g class="uuid-67a727fa-788d-4f79-a4c7-974b27759cda"><polygon points="-134.33 72.71 342.28 131.2 935.58 147.77 1345.31 96.39 1345.31 1098.49 -133.67 1143.14 -134.33 72.71"/><polygon class="uuid-5d27224b-40ee-469d-b884-606fcbd52a6b" points="-134.33 72.72 266.07 154.87 1047.42 161.57 1368.18 107.99 1345.3 -185.51 -133.68 -196.75 -134.33 72.72"/><path class="uuid-06fd618f-8f81-4e21-b477-909a55882436" d="M-115.33,161.47l-6.06-131.87S468.93,163.54,958.05,112.28c223.72-23.45,205.48-24.01,205.48-24.01,0,0,61.29,20.94-208.1,57.7-409.6,55.89-1070.75,15.51-1070.75,15.51Z"/><path class="uuid-94701c54-238c-4f2d-b831-1e3effe0df17" d="M1290.88,148.07l-2.44-39.59s-313.51,41.25-354.88,39.98c-41.37-1.27-253.9-1.83-253.9-1.83,0,0-83.19,28.04,47.22,30.66,263.72,5.3,563.99-29.22,563.99-29.22Z"/><path class="uuid-8d4f8092-517b-4356-ae06-a9ddf14b3ad6" d="M1287.82,98.52l2.14,34.84s-70.27,17.48-272.75,28.57c-145.3,7.96-251.01-17.66-251.01-17.66l29.6,9.23s210.8-17.15,278.41-24.06c67.61-6.91,213.6-30.92,213.6-30.92Z"/><path class="uuid-73ed49ba-15ba-4cc5-a64b-319c4e0e7f74" d="M1284.37,42.38s-36.67,22.55-188.55,57.6c-140.11,32.34-300.04,60.34-335.16,66.14-35.12,5.8,81.71-1.58,81.71-1.58,0,0,138.8,1.72,274.25-19.99,135.45-21.71,171.99-33.34,171.99-33.34l-4.24-68.84Z"/><path class="uuid-f7200d2f-efac-4755-bc3d-dd5c70588b10" d="M785.54,157.43s-15.14,3.45,49.72.13c137.55-7.03,308.13-39.24,369.99-55.2,61.86-15.96,81.34-23.88,81.34-23.88l1.49,24.2s-63.8,19.67-212.06,40.84c-148.26,21.17-367.1,20.11-367.1,20.11l76.61-6.2Z"/><path class="uuid-8d4f8092-517b-4356-ae06-a9ddf14b3ad6" d="M-116.54,108.34l2.3,37.34c159.96,20.78,121.12,12.39,580.23,29.35,325.87,12.04,562.01-14.49,562.01-14.49l7.2-13.13s-546.19-.89-697.91-10.09c-156.75-9.51-130.39.68-453.83-28.98Z"/><path class="uuid-173a9087-1d76-41b3-b443-bf073b3ebcf1" d="M-120.59,42.47S13.22,69.08,322.3,112.9c309.07,43.82,716.92,28.28,795.09,24.11,83.71-4.46-7.44,9.3-7.44,9.3,0,0-579.74,27.5-880.34.45-300.6-27.05-345.68-30.86-345.68-30.86l-4.52-73.44Z"/><path class="uuid-3dac6b45-bc72-470d-8f5a-be31449c426e" d="M1039.02,146.81c-145.39,7.21-418.39,6.6-679.83-14.01C217.61,121.64-119,68.45-119,68.45l2.47,40.12s200.25,37.68,523.94,51.38c335.49,14.2,711.14-16.98,711.14-16.98,0,0,67.23-3.42-79.54,3.86Z"/></g></g></svg>