<?xml version="1.0" encoding="UTF-8"?><svg xmlns="http://www.w3.org/2000/svg" xmlns:xlink="http://www.w3.org/1999/xlink" viewBox="0 0 1280 341"><defs><style>.uuid-80c9f459-99f4-449e-9545-6f01df1f5b89{fill:none;}.uuid-dd0ea1ad-a489-4be0-a1aa-f3a52f8afc03{fill:url(#uuid-66660908-207d-4a88-b100-5dbb1564944c);}.uuid-6b18c19c-fee4-4b5f-8a94-158bc47396e7{fill:#ffe900;}.uuid-06e124c0-66b8-48ea-9051-28dc5954395d{fill:url(#uuid-9ea28e41-e838-46e4-943d-de8a4b9b615b);}.uuid-0e1bccd4-9798-4a2b-884b-c0eccb32b601{fill:url(#uuid-8c5ccd39-2c77-4b8f-bdde-b9044e8ad132);}.uuid-3f0fad11-90c7-40e4-a91c-dd3cb08c6f2a{fill:url(#uuid-17499685-1700-4f8d-9796-37c242e9a1ae);}.uuid-1e011268-58af-4583-875e-ed3c4b736693{fill:url(#uuid-3b926025-28fe-4453-9303-4c8cd536416d);}.uuid-7d14346a-2e2b-4a23-920c-4447fc642399{fill:url(#uuid-4e1a59f4-726c-483c-81dd-45523a7afc48);}.uuid-fa47e1f1-5e90-4044-99f8-d3e951c41b5c{isolation:isolate;}.uuid-f7eb16b6-4ab5-49e1-a9f4-8f8c589a1e34{fill:url(#uuid-416d1a6c-c21f-4962-bafd-944f78b117db);}.uuid-9e60c2d6-4b57-49b4-aec1-20730ad7ce20{fill:#fff;}.uuid-2f470ec0-13c8-4d04-af80-5f153a3f0b17{mix-blend-mode:overlay;}.uuid-5e4f34c1-6850-41b4-9d2c-84e38bc9dd7d{fill:url(#uuid-c9c0f7c7-2ca0-49d1-8422-89732e25b151);}.uuid-b0117b50-3dc0-4a3c-8913-e21d6ba4bd21{fill:url(#uuid-b77894a9-125b-45f7-9a62-619b39e36703);}.uuid-d3eb0b38-24a4-4c1e-b8ad-184688fc430f{clip-path:url(#uuid-a6d61bad-fa35-41dd-acf3-9ce235ea6bb8);}.uuid-36c6b0af-8966-4e51-8fc9-94689ba4740e{fill:url(#uuid-6d1162e0-c96f-4c9a-b906-71f6e4484a2f);}.uuid-7cefe9b3-3a17-4d29-9806-14f76a186117{fill:url(#uuid-e5292526-aa81-4434-b5ac-e46c9b434238);}.uuid-a249febd-5242-43fa-8d59-94349baf8571{fill:url(#uuid-02ffc0cc-7b16-4c26-9f08-a21c31bd2bbe);}</style><clipPath id="uuid-a6d61bad-fa35-41dd-acf3-9ce235ea6bb8"><rect class="uuid-80c9f459-99f4-449e-9545-6f01df1f5b89" width="1280" height="341"/></clipPath><linearGradient id="uuid-8c5ccd39-2c77-4b8f-bdde-b9044e8ad132" x1="-13586.03" y1="-1465.43" x2="-13165.86" y2="-2065.5" gradientTransform="translate(-11416.26 -22.39) rotate(-171.89) scale(.88 -.9)" gradientUnits="userSpaceOnUse"><stop offset="0" stop-color="#ffe608"/><stop offset=".3" stop-color="#fcd204"/><stop offset=".68" stop-color="#fabf01"/><stop offset=".95" stop-color="#fab900"/></linearGradient><linearGradient id="uuid-416d1a6c-c21f-4962-bafd-944f78b117db" x1="3860.2" y1="1193.89" x2="4054.58" y2="916.29" gradientTransform="translate(-3087.7 -343.29) rotate(-8.13)" xlink:href="#uuid-8c5ccd39-2c77-4b8f-bdde-b9044e8ad132"/><linearGradient id="uuid-4e1a59f4-726c-483c-81dd-45523a7afc48" x1="3985.25" y1="1119.9" x2="4020.17" y2="970.41" gradientTransform="translate(-3087.7 -343.29) rotate(-8.13)" gradientUnits="userSpaceOnUse"><stop offset="0" stop-color="#fff381"/><stop offset=".17" stop-color="#fff27d"/><stop offset=".31" stop-color="#ffee73"/><stop offset=".44" stop-color="#ffe961"/><stop offset=".57" stop-color="#ffe248"/><stop offset=".69" stop-color="#ffd828"/><stop offset=".81" stop-color="#ffcd01"/><stop offset=".82" stop-color="#ffcd00"/></linearGradient><linearGradient id="uuid-6d1162e0-c96f-4c9a-b906-71f6e4484a2f" x1="3686.82" y1="1053.29" x2="4270.72" y2="1053.29" gradientTransform="translate(-3087.7 -343.29) rotate(-8.13)" gradientUnits="userSpaceOnUse"><stop offset="0" stop-color="#ffe608"/><stop offset=".43" stop-color="#fee407"/><stop offset=".58" stop-color="#fedd06"/><stop offset=".69" stop-color="#fcd104"/><stop offset=".78" stop-color="#fac001"/><stop offset=".81" stop-color="#fab900"/></linearGradient><linearGradient id="uuid-c9c0f7c7-2ca0-49d1-8422-89732e25b151" x1="-12946.02" y1="-1567.16" x2="-12901.08" y2="-1759.6" gradientTransform="translate(-11772.44 -114.33) rotate(-171.89) scale(.94 -.91)" xlink:href="#uuid-4e1a59f4-726c-483c-81dd-45523a7afc48"/><linearGradient id="uuid-b77894a9-125b-45f7-9a62-619b39e36703" x1="-13487.72" y1="-1804.14" x2="-12178.2" y2="-1804.14" gradientTransform="translate(-11855.45 -22.8) rotate(-171.89) scale(.96 -.89)" gradientUnits="userSpaceOnUse"><stop offset="0" stop-color="#c7c7c6"/><stop offset=".14" stop-color="#acacaa"/><stop offset=".39" stop-color="#838480"/><stop offset=".62" stop-color="#666762"/><stop offset=".81" stop-color="#54564f"/><stop offset=".95" stop-color="#4e5049"/></linearGradient><linearGradient id="uuid-02ffc0cc-7b16-4c26-9f08-a21c31bd2bbe" x1="3860.2" y1="1193.89" x2="4054.58" y2="916.29" gradientTransform="translate(-3087.7 -343.29) rotate(-8.13)" xlink:href="#uuid-8c5ccd39-2c77-4b8f-bdde-b9044e8ad132"/><linearGradient id="uuid-3b926025-28fe-4453-9303-4c8cd536416d" x1="-12946.02" y1="-1567.16" x2="-12901.08" y2="-1759.6" gradientTransform="translate(-11772.44 -114.33) rotate(-171.89) scale(.94 -.91)" xlink:href="#uuid-4e1a59f4-726c-483c-81dd-45523a7afc48"/><linearGradient id="uuid-66660908-207d-4a88-b100-5dbb1564944c" x1="3860.2" y1="1193.89" x2="4054.58" y2="916.29" gradientTransform="translate(-3087.7 -343.29) rotate(-8.13)" xlink:href="#uuid-8c5ccd39-2c77-4b8f-bdde-b9044e8ad132"/><linearGradient id="uuid-17499685-1700-4f8d-9796-37c242e9a1ae" x1="-12946.02" y1="-1567.16" x2="-12901.08" y2="-1759.6" gradientTransform="translate(-11772.44 -114.33) rotate(-171.89) scale(.94 -.91)" xlink:href="#uuid-4e1a59f4-726c-483c-81dd-45523a7afc48"/><linearGradient id="uuid-9ea28e41-e838-46e4-943d-de8a4b9b615b" x1="3860.2" y1="1193.89" x2="4054.58" y2="916.29" gradientTransform="translate(-3087.7 -343.29) rotate(-8.13)" xlink:href="#uuid-8c5ccd39-2c77-4b8f-bdde-b9044e8ad132"/><linearGradient id="uuid-e5292526-aa81-4434-b5ac-e46c9b434238" x1="-12946.02" y1="-1567.16" x2="-12901.08" y2="-1759.6" gradientTransform="translate(-11772.44 -114.33) rotate(-171.89) scale(.94 -.91)" xlink:href="#uuid-4e1a59f4-726c-483c-81dd-45523a7afc48"/></defs><g class="uuid-fa47e1f1-5e90-4044-99f8-d3e951c41b5c"><g id="uuid-0eed9c5a-b81d-4226-b64a-ac3e36cac5db"><g id="uuid-4f68e17e-8070-4bd5-a391-6b4fb9f9d558"><g class="uuid-d3eb0b38-24a4-4c1e-b8ad-184688fc430f"><polygon points="-134.33 72.71 342.28 131.2 935.58 147.77 1345.31 96.39 1345.31 1098.49 -133.67 1143.14 -134.33 72.71"/><polygon class="uuid-9e60c2d6-4b57-49b4-aec1-20730ad7ce20" points="-134.33 72.72 266.07 154.87 1047.42 161.57 1368.18 107.99 1345.3 -185.51 -133.68 -196.75 -134.33 72.72"/><path class="uuid-0e1bccd4-9798-4a2b-884b-c0eccb32b601" d="M-115.33,161.47l-6.06-131.87S468.93,163.54,958.05,112.28c223.72-23.45,205.48-24.01,205.48-24.01,0,0,61.29,20.94-208.1,57.7-409.6,55.89-1070.75,15.51-1070.75,15.51Z"/><path class="uuid-f7eb16b6-4ab5-49e1-a9f4-8f8c589a1e34" d="M1290.88,148.07l-2.44-39.59s-313.51,41.25-354.88,39.98c-41.37-1.27-253.9-1.83-253.9-1.83,0,0-83.19,28.04,47.22,30.66,263.72,5.3,563.99-29.22,563.99-29.22Z"/><path class="uuid-6b18c19c-fee4-4b5f-8a94-158bc47396e7" d="M1287.82,98.52l2.14,34.84s-70.27,17.48-272.75,28.57c-145.3,7.96-251.01-17.66-251.01-17.66l29.6,9.23s210.8-17.15,278.41-24.06c67.61-6.91,213.6-30.92,213.6-30.92Z"/><path class="uuid-7d14346a-2e2b-4a23-920c-4447fc642399" d="M1284.37,42.38s-36.67,22.55-188.55,57.6c-140.11,32.34-300.04,60.34-335.16,66.14-35.12,5.8,81.71-1.58,81.71-1.58,0,0,138.8,1.72,274.25-19.99,135.45-21.71,171.99-33.34,171.99-33.34l-4.24-68.84Z"/><path class="uuid-36c6b0af-8966-4e51-8fc9-94689ba4740e" d="M785.54,157.43s-15.14,3.45,49.72.13c137.55-7.03,308.13-39.24,369.99-55.2,61.86-15.96,81.34-23.88,81.34-23.88l1.49,24.2s-63.8,19.67-212.06,40.84c-148.26,21.17-367.1,20.11-367.1,20.11l76.61-6.2Z"/><path class="uuid-6b18c19c-fee4-4b5f-8a94-158bc47396e7" d="M-116.54,108.34l2.3,37.34c159.96,20.78,121.12,12.39,580.23,29.35,325.87,12.04,562.01-14.49,562.01-14.49l7.2-13.13s-546.19-.89-697.91-10.09c-156.75-9.51-130.39.68-453.83-28.98Z"/><path class="uuid-5e4f34c1-6850-41b4-9d2c-84e38bc9dd7d" d="M-120.59,42.47S13.22,69.08,322.3,112.9c309.07,43.82,716.92,28.28,795.09,24.11,83.71-4.46-7.44,9.3-7.44,9.3,0,0-579.74,27.5-880.34.45-300.6-27.05-345.68-30.86-345.68-30.86l-4.52-73.44Z"/><path class="uuid-b0117b50-3dc0-4a3c-8913-e21d6ba4bd21" d="M1039.02,146.81c-145.39,7.21-418.39,6.6-679.83-14.01C217.61,121.64-119,68.45-119,68.45l2.47,40.12s200.25,37.68,523.94,51.38c335.49,14.2,711.14-16.98,711.14-16.98,0,0,67.23-3.42-79.54,3.86Z"/><g class="uuid-2f470ec0-13c8-4d04-af80-5f153a3f0b17"><polygon points="-134.33 72.71 342.28 131.2 935.58 147.77 1345.31 96.39 1345.31 1098.49 -133.67 1143.14 -134.33 72.71"/><polygon class="uuid-9e60c2d6-4b57-49b4-aec1-20730ad7ce20" points="-134.33 72.72 266.07 154.87 1047.42 161.57 1368.18 107.99 1345.3 -185.51 -133.68 -196.75 -134.33 72.72"/><path class="uuid-0e1bccd4-9798-4a2b-884b-c0eccb32b601" d="M-115.33,161.47l-6.06-131.87S468.93,163.54,958.05,112.28c223.72-23.45,205.48-24.01,205.48-24.01,0,0,61.29,20.94-208.1,57.7-409.6,55.89-1070.75,15.51-1070.75,15.51Z"/><path class="uuid-a249febd-5242-43fa-8d59-94349baf8571" d="M1290.88,148.07l-2.44-39.59s-313.51,41.25-354.88,39.98c-41.37-1.27-253.9-1.83-253.9-1.83,0,0-83.19,28.04,47.22,30.66,263.72,5.3,563.99-29.22,563.99-29.22Z"/><path class="uuid-6b18c19c-fee4-4b5f-8a94-158bc47396e7" d="M1287.82,98.52l2.14,34.84s-70.27,17.48-272.75,28.57c-145.3,7.96-251.01-17.66-251.01-17.66l29.6,9.23s210.8-17.15,278.41-24.06c67.61-6.91,213.6-30.92,213.6-30.92Z"/><path class="uuid-7d14346a-2e2b-4a23-920c-4447fc642399" d="M1284.37,42.38s-36.67,22.55-188.55,57.6c-140.11,32.34-300.04,60.34-335.16,66.14-35.12,5.8,81.71-1.58,81.71-1.58,0,0,138.8,1.72,274.25-19.99,135.45-21.71,171.99-33.34,171.99-33.34l-4.24-68.84Z"/><path class="uuid-36c6b0af-8966-4e51-8fc9-94689ba4740e" d="M785.54,157.43s-15.14,3.45,49.72.13c137.55-7.03,308.13-39.24,369.99-55.2,61.86-15.96,81.34-23.88,81.34-23.88l1.49,24.2s-63.8,19.67-212.06,40.84c-148.26,21.17-367.1,20.11-367.1,20.11l76.61-6.2Z"/><path class="uuid-6b18c19c-fee4-4b5f-8a94-158bc47396e7" d="M-116.54,108.34l2.3,37.34c159.96,20.78,121.12,12.39,580.23,29.35,325.87,12.04,562.01-14.49,562.01-14.49l7.2-13.13s-546.19-.89-697.91-10.09c-156.75-9.51-130.39.68-453.83-28.98Z"/><path class="uuid-1e011268-58af-4583-875e-ed3c4b736693" d="M-120.59,42.47S13.22,69.08,322.3,112.9c309.07,43.82,716.92,28.28,795.09,24.11,83.71-4.46-7.44,9.3-7.44,9.3,0,0-579.74,27.5-880.34.45-300.6-27.05-345.68-30.86-345.68-30.86l-4.52-73.44Z"/><path class="uuid-b0117b50-3dc0-4a3c-8913-e21d6ba4bd21" d="M1039.02,146.81c-145.39,7.21-418.39,6.6-679.83-14.01C217.61,121.64-119,68.45-119,68.45l2.47,40.12s200.25,37.68,523.94,51.38c335.49,14.2,711.14-16.98,711.14-16.98,0,0,67.23-3.42-79.54,3.86Z"/></g><g class="uuid-2f470ec0-13c8-4d04-af80-5f153a3f0b17"><polygon points="-134.33 72.71 342.28 131.2 935.58 147.77 1345.31 96.39 1345.31 1098.49 -133.67 1143.14 -134.33 72.71"/><polygon class="uuid-9e60c2d6-4b57-49b4-aec1-20730ad7ce20" points="-134.33 72.72 266.07 154.87 1047.42 161.57 1368.18 107.99 1345.3 -185.51 -133.68 -196.75 -134.33 72.72"/><path class="uuid-0e1bccd4-9798-4a2b-884b-c0eccb32b601" d="M-115.33,161.47l-6.06-131.87S468.93,163.54,958.05,112.28c223.72-23.45,205.48-24.01,205.48-24.01,0,0,61.29,20.94-208.1,57.7-409.6,55.89-1070.75,15.51-1070.75,15.51Z"/><path class="uuid-dd0ea1ad-a489-4be0-a1aa-f3a52f8afc03" d="M1290.88,148.07l-2.44-39.59s-313.51,41.25-354.88,39.98c-41.37-1.27-253.9-1.83-253.9-1.83,0,0-83.19,28.04,47.22,30.66,263.72,5.3,563.99-29.22,563.99-29.22Z"/><path class="uuid-6b18c19c-fee4-4b5f-8a94-158bc47396e7" d="M1287.82,98.52l2.14,34.84s-70.27,17.48-272.75,28.57c-145.3,7.96-251.01-17.66-251.01-17.66l29.6,9.23s210.8-17.15,278.41-24.06c67.61-6.91,213.6-30.92,213.6-30.92Z"/><path class="uuid-7d14346a-2e2b-4a23-920c-4447fc642399" d="M1284.37,42.38s-36.67,22.55-188.55,57.6c-140.11,32.34-300.04,60.34-335.16,66.14-35.12,5.8,81.71-1.58,81.71-1.58,0,0,138.8,1.72,274.25-19.99,135.45-21.71,171.99-33.34,171.99-33.34l-4.24-68.84Z"/><path class="uuid-36c6b0af-8966-4e51-8fc9-94689ba4740e" d="M785.54,157.43s-15.14,3.45,49.72.13c137.55-7.03,308.13-39.24,369.99-55.2,61.86-15.96,81.34-23.88,81.34-23.88l1.49,24.2s-63.8,19.67-212.06,40.84c-148.26,21.17-367.1,20.11-367.1,20.11l76.61-6.2Z"/><path class="uuid-6b18c19c-fee4-4b5f-8a94-158bc47396e7" d="M-116.54,108.34l2.3,37.34c159.96,20.78,121.12,12.39,580.23,29.35,325.87,12.04,562.01-14.49,562.01-14.49l7.2-13.13s-546.19-.89-697.91-10.09c-156.75-9.51-130.39.68-453.83-28.98Z"/><path class="uuid-3f0fad11-90c7-40e4-a91c-dd3cb08c6f2a" d="M-120.59,42.47S13.22,69.08,322.3,112.9c309.07,43.82,716.92,28.28,795.09,24.11,83.71-4.46-7.44,9.3-7.44,9.3,0,0-579.74,27.5-880.34.45-300.6-27.05-345.68-30.86-345.68-30.86l-4.52-73.44Z"/><path class="uuid-b0117b50-3dc0-4a3c-8913-e21d6ba4bd21" d="M1039.02,146.81c-145.39,7.21-418.39,6.6-679.83-14.01C217.61,121.64-119,68.45-119,68.45l2.47,40.12s200.25,37.68,523.94,51.38c335.49,14.2,711.14-16.98,711.14-16.98,0,0,67.23-3.42-79.54,3.86Z"/></g><g class="uuid-2f470ec0-13c8-4d04-af80-5f153a3f0b17"><polygon points="-134.33 72.71 342.28 131.2 935.58 147.77 1345.31 96.39 1345.31 1098.49 -133.67 1143.14 -134.33 72.71"/><polygon class="uuid-9e60c2d6-4b57-49b4-aec1-20730ad7ce20" points="-134.33 72.72 266.07 154.87 1047.42 161.57 1368.18 107.99 1345.3 -185.51 -133.68 -196.75 -134.33 72.72"/><path class="uuid-0e1bccd4-9798-4a2b-884b-c0eccb32b601" d="M-115.33,161.47l-6.06-131.87S468.93,163.54,958.05,112.28c223.72-23.45,205.48-24.01,205.48-24.01,0,0,61.29,20.94-208.1,57.7-409.6,55.89-1070.75,15.51-1070.75,15.51Z"/><path class="uuid-06e124c0-66b8-48ea-9051-28dc5954395d" d="M1290.88,148.07l-2.44-39.59s-313.51,41.25-354.88,39.98c-41.37-1.27-253.9-1.83-253.9-1.83,0,0-83.19,28.04,47.22,30.66,263.72,5.3,563.99-29.22,563.99-29.22Z"/><path class="uuid-6b18c19c-fee4-4b5f-8a94-158bc47396e7" d="M1287.82,98.52l2.14,34.84s-70.27,17.48-272.75,28.57c-145.3,7.96-251.01-17.66-251.01-17.66l29.6,9.23s210.8-17.15,278.41-24.06c67.61-6.91,213.6-30.92,213.6-30.92Z"/><path class="uuid-7d14346a-2e2b-4a23-920c-4447fc642399" d="M1284.37,42.38s-36.67,22.55-188.55,57.6c-140.11,32.34-300.04,60.34-335.16,66.14-35.12,5.8,81.71-1.58,81.71-1.58,0,0,138.8,1.72,274.25-19.99,135.45-21.71,171.99-33.34,171.99-33.34l-4.24-68.84Z"/><path class="uuid-36c6b0af-8966-4e51-8fc9-94689ba4740e" d="M785.54,157.43s-15.14,3.45,49.72.13c137.55-7.03,308.13-39.24,369.99-55.2,61.86-15.96,81.34-23.88,81.34-23.88l1.49,24.2s-63.8,19.67-212.06,40.84c-148.26,21.17-367.1,20.11-367.1,20.11l76.61-6.2Z"/><path class="uuid-6b18c19c-fee4-4b5f-8a94-158bc47396e7" d="M-116.54,108.34l2.3,37.34c159.96,20.78,121.12,12.39,580.23,29.35,325.87,12.04,562.01-14.49,562.01-14.49l7.2-13.13s-546.19-.89-697.91-10.09c-156.75-9.51-130.39.68-453.83-28.98Z"/><path class="uuid-7cefe9b3-3a17-4d29-9806-14f76a186117" d="M-120.59,42.47S13.22,69.08,322.3,112.9c309.07,43.82,716.92,28.28,795.09,24.11,83.71-4.46-7.44,9.3-7.44,9.3,0,0-579.74,27.5-880.34.45-300.6-27.05-345.68-30.86-345.68-30.86l-4.52-73.44Z"/><path class="uuid-b0117b50-3dc0-4a3c-8913-e21d6ba4bd21" d="M1039.02,146.81c-145.39,7.21-418.39,6.6-679.83-14.01C217.61,121.64-119,68.45-119,68.45l2.47,40.12s200.25,37.68,523.94,51.38c335.49,14.2,711.14-16.98,711.14-16.98,0,0,67.23-3.42-79.54,3.86Z"/></g></g></g></g></g></svg>