<?xml version="1.0" encoding="UTF-8"?><svg xmlns="http://www.w3.org/2000/svg" xmlns:xlink="http://www.w3.org/1999/xlink" viewBox="0 0 1280 267.15"><defs><style>.uuid-16cd30a2-3029-47e6-be42-1e119bf73c52{fill:none;}.uuid-19af726d-7d7b-4cf5-ac73-359b76123bde{clip-path:url(#uuid-fa165e7e-6b45-4085-9c24-31fbdae1923f);}.uuid-b1d93069-968b-41e6-b2cc-32e702b7ea51{fill:url(#uuid-6002d87c-c705-4744-b84f-58ea240a7e52);}.uuid-aa5c64f4-9249-4cf9-8232-6f172ae9db56{fill:url(#uuid-2669a3cb-b0c1-4b39-baff-bba6c20b993a);}.uuid-67abab4a-714e-4bd3-bfa1-4068bbcea0ea{isolation:isolate;}.uuid-728db230-503b-4e13-b669-9b7471ab8510{clip-path:url(#uuid-4037cd04-1890-4ee4-8c42-e91bd7a3e3f4);}.uuid-6916cdb5-0131-45a9-b9e2-4df0ace244c7{fill:#fff;}.uuid-fe6a2148-6608-4d03-a356-a3842113b22a{clip-path:url(#uuid-78a59432-0094-4f01-b520-3ec0b31597dc);}.uuid-8f4d822a-19ef-4f1a-a710-7809d88871b4{mix-blend-mode:overlay;}.uuid-c0e10352-3eca-4ee4-86b0-cfd05ca5ce21{clip-path:url(#uuid-735ce1ed-2e17-440b-8569-ea78c415b25a);}.uuid-eced4e32-71d7-4e4a-8c46-5781ed4632f7{fill:url(#uuid-e6d6f3ff-9b1d-46ab-b349-7158faaa8ef4);}.uuid-8b20ac46-a37c-4d13-9bae-6b4508b399bf{clip-path:url(#uuid-43a4b523-265b-4b35-a57b-e070189c5e1f);}</style><clipPath id="uuid-735ce1ed-2e17-440b-8569-ea78c415b25a"><rect class="uuid-16cd30a2-3029-47e6-be42-1e119bf73c52" width="1280" height="267.15"/></clipPath><clipPath id="uuid-78a59432-0094-4f01-b520-3ec0b31597dc"><rect class="uuid-16cd30a2-3029-47e6-be42-1e119bf73c52" x="-2.39" y="5.98" width="1284.78" height="264"/></clipPath><linearGradient id="uuid-6002d87c-c705-4744-b84f-58ea240a7e52" x1="11162.37" y1="853.82" x2="11532.07" y2="325.84" gradientTransform="translate(14798 -100.69) rotate(-177.19) scale(1.24 -1.48)" gradientUnits="userSpaceOnUse"><stop offset="0" stop-color="#ffe608"/><stop offset=".3" stop-color="#fcd204"/><stop offset=".68" stop-color="#fabf01"/><stop offset=".95" stop-color="#fab900"/></linearGradient><linearGradient id="uuid-2669a3cb-b0c1-4b39-baff-bba6c20b993a" x1="11295.83" y1="723.1" x2="11344.75" y2="513.62" gradientTransform="translate(14798 -100.69) rotate(-177.19) scale(1.24 -1.48)" gradientUnits="userSpaceOnUse"><stop offset="0" stop-color="#fff381"/><stop offset=".17" stop-color="#fff27d"/><stop offset=".31" stop-color="#ffee73"/><stop offset=".44" stop-color="#ffe961"/><stop offset=".57" stop-color="#ffe248"/><stop offset=".69" stop-color="#ffd828"/><stop offset=".81" stop-color="#ffcd01"/><stop offset=".82" stop-color="#ffcd00"/></linearGradient><linearGradient id="uuid-e6d6f3ff-9b1d-46ab-b349-7158faaa8ef4" x1="10738.3" y1="609.33" x2="11905.62" y2="609.33" gradientTransform="translate(14798 -100.69) rotate(-177.19) scale(1.24 -1.48)" gradientUnits="userSpaceOnUse"><stop offset="0" stop-color="#fff59f"/><stop offset=".05" stop-color="#feef8f"/><stop offset=".24" stop-color="#fcdb5c"/><stop offset=".41" stop-color="#fbcc34"/><stop offset=".57" stop-color="#fac117"/><stop offset=".71" stop-color="#fabb06"/><stop offset=".81" stop-color="#fab900"/></linearGradient><clipPath id="uuid-fa165e7e-6b45-4085-9c24-31fbdae1923f"><rect class="uuid-16cd30a2-3029-47e6-be42-1e119bf73c52" x="-2.39" y="5.98" width="1284.78" height="264"/></clipPath><clipPath id="uuid-4037cd04-1890-4ee4-8c42-e91bd7a3e3f4"><rect class="uuid-16cd30a2-3029-47e6-be42-1e119bf73c52" x="-2.39" y="5.98" width="1284.78" height="264"/></clipPath><clipPath id="uuid-43a4b523-265b-4b35-a57b-e070189c5e1f"><rect class="uuid-16cd30a2-3029-47e6-be42-1e119bf73c52" x="-2.39" y="5.98" width="1284.78" height="264"/></clipPath></defs><g class="uuid-67abab4a-714e-4bd3-bfa1-4068bbcea0ea"><g id="uuid-f27c4748-0bdc-4085-9afb-49caf128e5c5"><g id="uuid-81a356ab-59c2-4292-b5b8-9c5dfafcfeb0"><g class="uuid-c0e10352-3eca-4ee4-86b0-cfd05ca5ce21"><polygon points="1307.35 131.35 -25.89 143.92 -25.89 -22.41 1307.35 -22.41 1307.35 131.35"/><rect class="uuid-6916cdb5-0131-45a9-b9e2-4df0ace244c7" x="-30.84" y="126.06" width="1347.83" height="169.67"/><g class="uuid-fe6a2148-6608-4d03-a356-a3842113b22a"><path class="uuid-b1d93069-968b-41e6-b2cc-32e702b7ea51" d="M-14.67,209.4l-1.56-158.59s776.8,135.22,1390.77,38.53c36.33-5.72,65.43-19.51,65.43-19.51,0,0-36.45,41.18-128.14,66.33C825.9,269.42-14.67,209.4-14.67,209.4Z"/><path class="uuid-aa5c64f4-9249-4cf9-8232-6f172ae9db56" d="M-14.33,69.54s151.1,22.69,531.88,54.91c380.77,32.22,861.1-5.9,922.43-54.62l.05,15.57s-207.12,123.74-968.76,113.6c-233.99-3.12-483.35-22.06-483.35-22.06l-2.24-107.4Z"/><path class="uuid-eced4e32-71d7-4e4a-8c46-5781ed4632f7" d="M1440.03,78.74c-150.84,62.4-569.99,72.04-885.02,64.43C384.41,139.04-11.69,97.13-11.69,97.13l-.26,48.34s242.14,20.29,629.64,27.43c660.51,12.16,822.48-90.99,822.48-90.99l-.14-3.16Z"/></g><g class="uuid-8f4d822a-19ef-4f1a-a710-7809d88871b4"><g class="uuid-19af726d-7d7b-4cf5-ac73-359b76123bde"><path class="uuid-b1d93069-968b-41e6-b2cc-32e702b7ea51" d="M-14.67,209.4l-1.56-158.59s776.8,135.22,1390.77,38.53c36.33-5.72,65.43-19.51,65.43-19.51,0,0-36.45,41.18-128.14,66.33C825.9,269.42-14.67,209.4-14.67,209.4Z"/><path class="uuid-aa5c64f4-9249-4cf9-8232-6f172ae9db56" d="M-14.33,69.54s151.1,22.69,531.88,54.91c380.77,32.22,861.1-5.9,922.43-54.62l.05,15.57s-207.12,123.74-968.76,113.6c-233.99-3.12-483.35-22.06-483.35-22.06l-2.24-107.4Z"/><path class="uuid-eced4e32-71d7-4e4a-8c46-5781ed4632f7" d="M1440.03,78.74c-150.84,62.4-569.99,72.04-885.02,64.43C384.41,139.04-11.69,97.13-11.69,97.13l-.26,48.34s242.14,20.29,629.64,27.43c660.51,12.16,822.48-90.99,822.48-90.99l-.14-3.16Z"/></g></g><g class="uuid-8f4d822a-19ef-4f1a-a710-7809d88871b4"><g class="uuid-728db230-503b-4e13-b669-9b7471ab8510"><path class="uuid-b1d93069-968b-41e6-b2cc-32e702b7ea51" d="M-14.67,209.4l-1.56-158.59s776.8,135.22,1390.77,38.53c36.33-5.72,65.43-19.51,65.43-19.51,0,0-36.45,41.18-128.14,66.33C825.9,269.42-14.67,209.4-14.67,209.4Z"/><path class="uuid-aa5c64f4-9249-4cf9-8232-6f172ae9db56" d="M-14.33,69.54s151.1,22.69,531.88,54.91c380.77,32.22,861.1-5.9,922.43-54.62l.05,15.57s-207.12,123.74-968.76,113.6c-233.99-3.12-483.35-22.06-483.35-22.06l-2.24-107.4Z"/><path class="uuid-eced4e32-71d7-4e4a-8c46-5781ed4632f7" d="M1440.03,78.74c-150.84,62.4-569.99,72.04-885.02,64.43C384.41,139.04-11.69,97.13-11.69,97.13l-.26,48.34s242.14,20.29,629.64,27.43c660.51,12.16,822.48-90.99,822.48-90.99l-.14-3.16Z"/></g></g><g class="uuid-8f4d822a-19ef-4f1a-a710-7809d88871b4"><g class="uuid-8b20ac46-a37c-4d13-9bae-6b4508b399bf"><path class="uuid-b1d93069-968b-41e6-b2cc-32e702b7ea51" d="M-14.67,209.4l-1.56-158.59s776.8,135.22,1390.77,38.53c36.33-5.72,65.43-19.51,65.43-19.51,0,0-36.45,41.18-128.14,66.33C825.9,269.42-14.67,209.4-14.67,209.4Z"/><path class="uuid-aa5c64f4-9249-4cf9-8232-6f172ae9db56" d="M-14.33,69.54s151.1,22.69,531.88,54.91c380.77,32.22,861.1-5.9,922.43-54.62l.05,15.57s-207.12,123.74-968.76,113.6c-233.99-3.12-483.35-22.06-483.35-22.06l-2.24-107.4Z"/><path class="uuid-eced4e32-71d7-4e4a-8c46-5781ed4632f7" d="M1440.03,78.74c-150.84,62.4-569.99,72.04-885.02,64.43C384.41,139.04-11.69,97.13-11.69,97.13l-.26,48.34s242.14,20.29,629.64,27.43c660.51,12.16,822.48-90.99,822.48-90.99l-.14-3.16Z"/></g></g></g></g></g></g></svg>