<?xml version="1.0" encoding="UTF-8"?><svg id="uuid-cc973df5-f160-40d5-b5c5-89a822ed9c81" xmlns="http://www.w3.org/2000/svg" xmlns:xlink="http://www.w3.org/1999/xlink" viewBox="0 0 1280 267.15"><defs><style>.uuid-bcc65a50-b6b2-4f89-af17-3d4af60c49dd{fill:none;}.uuid-2da9d3f7-0caa-4c17-9ef5-9375bf9be6bc{fill:url(#uuid-3467a14f-5c62-481b-b045-7c671af8cb3e);}.uuid-9703dce4-ecc3-45b7-93f4-dd0e06e294b1{clip-path:url(#uuid-d79f1e9d-bd9c-4797-bc5f-d68ce30c1c33);}.uuid-df97f019-1313-498d-9b51-9d1be71f27e7{fill:url(#uuid-f8dd289a-296a-4ced-9720-879c1df9aa20);}.uuid-97fe9870-39ce-41da-8c39-dded850582f8{fill:#fff;}.uuid-74131a7b-b613-467d-bfa5-02a6a9795385{fill:url(#uuid-36dfeddf-820a-479b-9f77-64a1c3382d55);}.uuid-0b089d57-03d6-48e6-8a23-21eae46aa1f9{clip-path:url(#uuid-9622249d-adce-43f3-bc76-2f343e1ada60);}</style><clipPath id="uuid-d79f1e9d-bd9c-4797-bc5f-d68ce30c1c33"><rect class="uuid-bcc65a50-b6b2-4f89-af17-3d4af60c49dd" width="1280" height="267.15"/></clipPath><clipPath id="uuid-9622249d-adce-43f3-bc76-2f343e1ada60"><rect class="uuid-bcc65a50-b6b2-4f89-af17-3d4af60c49dd" x="-2.39" y="5.98" width="1284.78" height="264"/></clipPath><linearGradient id="uuid-36dfeddf-820a-479b-9f77-64a1c3382d55" x1="13684.21" y1="899.98" x2="14053.91" y2="372.01" gradientTransform="translate(17928.74 -15.59) rotate(-177.19) scale(1.24 -1.48)" gradientUnits="userSpaceOnUse"><stop offset="0" stop-color="#ffe608"/><stop offset=".3" stop-color="#fcd204"/><stop offset=".68" stop-color="#fabf01"/><stop offset=".95" stop-color="#fab900"/></linearGradient><linearGradient id="uuid-f8dd289a-296a-4ced-9720-879c1df9aa20" x1="13817.67" y1="769.26" x2="13866.59" y2="559.78" gradientTransform="translate(17928.74 -15.59) rotate(-177.19) scale(1.24 -1.48)" gradientUnits="userSpaceOnUse"><stop offset="0" stop-color="#fff381"/><stop offset=".17" stop-color="#fff27d"/><stop offset=".31" stop-color="#ffee73"/><stop offset=".44" stop-color="#ffe961"/><stop offset=".57" stop-color="#ffe248"/><stop offset=".69" stop-color="#ffd828"/><stop offset=".81" stop-color="#ffcd01"/><stop offset=".82" stop-color="#ffcd00"/></linearGradient><linearGradient id="uuid-3467a14f-5c62-481b-b045-7c671af8cb3e" x1="13260.14" y1="655.49" x2="14427.46" y2="655.49" gradientTransform="translate(17928.74 -15.59) rotate(-177.19) scale(1.24 -1.48)" gradientUnits="userSpaceOnUse"><stop offset="0" stop-color="#fff59f"/><stop offset=".05" stop-color="#feef8f"/><stop offset=".24" stop-color="#fcdb5c"/><stop offset=".41" stop-color="#fbcc34"/><stop offset=".57" stop-color="#fac117"/><stop offset=".71" stop-color="#fabb06"/><stop offset=".81" stop-color="#fab900"/></linearGradient></defs><g id="uuid-ee18beff-8204-41ef-bd7b-6ad86098ffa5"><g class="uuid-9703dce4-ecc3-45b7-93f4-dd0e06e294b1"><polygon points="1307.35 131.35 -25.89 143.92 -25.89 -22.41 1307.35 -22.41 1307.35 131.35"/><rect class="uuid-97fe9870-39ce-41da-8c39-dded850582f8" x="-30.84" y="126.06" width="1347.83" height="169.67"/><g class="uuid-0b089d57-03d6-48e6-8a23-21eae46aa1f9"><path class="uuid-74131a7b-b613-467d-bfa5-02a6a9795385" d="M-14.67,209.4l-1.56-158.59s776.8,135.22,1390.77,38.53c36.33-5.72,65.43-19.51,65.43-19.51,0,0-36.45,41.18-128.14,66.33C825.9,269.42-14.67,209.4-14.67,209.4Z"/><path class="uuid-df97f019-1313-498d-9b51-9d1be71f27e7" d="M-14.33,69.54s151.1,22.69,531.88,54.91c380.77,32.22,861.1-5.9,922.43-54.62l.05,15.57s-207.12,123.74-968.76,113.6c-233.99-3.12-483.35-22.06-483.35-22.06l-2.24-107.4Z"/><path class="uuid-2da9d3f7-0caa-4c17-9ef5-9375bf9be6bc" d="M1440.03,78.74c-150.84,62.4-569.99,72.04-885.02,64.43C384.41,139.04-11.69,97.13-11.69,97.13l-.26,48.34s242.14,20.29,629.64,27.43c660.51,12.16,822.48-90.99,822.48-90.99l-.14-3.16Z"/></g></g></g></svg>