<?xml version="1.0" encoding="UTF-8"?><svg id="uuid-49680165-7f59-4d9e-a238-2f7a3d16384c" xmlns="http://www.w3.org/2000/svg" xmlns:xlink="http://www.w3.org/1999/xlink" viewBox="0 0 1278.58 546.19"><defs><style>.uuid-1119c192-4517-4ee9-95dd-0a4ee67b2831{fill:none;}.uuid-36f13ce1-b44f-4c6e-ab8a-ac9eb429491a{clip-path:url(#uuid-8b7dae77-38d5-4544-a85b-a9adb1110e56);}.uuid-7f8a47d4-8278-4c7d-ae64-bce4becf020e{fill:url(#uuid-95d0786b-da12-426b-9251-ceb8173a5b0f);}.uuid-644b4c37-3ced-4b66-a60b-766444355191{fill:#ffe900;}.uuid-85d1cea7-c455-45d9-b0d6-4bdf9e243268{fill:url(#uuid-de3cd29f-8e14-4aef-a3c6-f80a23801dc4);}.uuid-9741cb8f-f48b-492b-84bd-370826b88d72{fill:url(#uuid-ea2352a5-3658-45b2-a495-0c8a86f72e96);}.uuid-d142c01a-dad3-4bbb-b488-b50664a23cb0{fill:#fff;}.uuid-d03ee7eb-8922-4b1a-8a55-8dd0bbc58dc7{fill:url(#uuid-a8127bdc-8923-44ee-bcbe-9664178e6eb8);}.uuid-e1e4dc3e-0763-4fdf-9e01-43a22b95ecf1{fill:url(#uuid-637775d7-9e37-4011-8d4c-fefaa86dc37a);}.uuid-87240109-ee5f-487f-b151-f576ecd2c6b2{clip-path:url(#uuid-57496435-1b0e-46a2-a788-a9af7325d061);}</style><clipPath id="uuid-8b7dae77-38d5-4544-a85b-a9adb1110e56"><rect class="uuid-1119c192-4517-4ee9-95dd-0a4ee67b2831" x="0" width="1278.58" height="546.19"/></clipPath><linearGradient id="uuid-637775d7-9e37-4011-8d4c-fefaa86dc37a" x1="-9597.71" y1="-8700.17" x2="-9597.71" y2="-9149.34" gradientTransform="translate(-9353.58 -8638.13) rotate(-180) scale(1.04 1)" gradientUnits="userSpaceOnUse"><stop offset=".21" stop-color="#ffcb00"/><stop offset="1" stop-color="#fff"/></linearGradient><clipPath id="uuid-57496435-1b0e-46a2-a788-a9af7325d061"><polygon class="uuid-1119c192-4517-4ee9-95dd-0a4ee67b2831" points="-4.33 362.44 1280.2 154.67 1283.68 7.2 -5.04 246.9 -4.33 362.44"/></clipPath><linearGradient id="uuid-a8127bdc-8923-44ee-bcbe-9664178e6eb8" x1="-1518.77" y1="-4204.84" x2="-2090.5" y2="-5021.36" gradientTransform="translate(5565.87 3047.25) rotate(-36.57) scale(1.21 1.13)" gradientUnits="userSpaceOnUse"><stop offset="0" stop-color="#ffe608"/><stop offset=".3" stop-color="#fcd204"/><stop offset=".68" stop-color="#fabf01"/><stop offset=".95" stop-color="#fab900"/></linearGradient><linearGradient id="uuid-95d0786b-da12-426b-9251-ceb8173a5b0f" x1="-1853.09" y1="-4447.18" x2="-1788.25" y2="-4724.82" gradientTransform="translate(5565.87 3047.25) rotate(-36.57) scale(1.21 1.13)" gradientUnits="userSpaceOnUse"><stop offset="0" stop-color="#fff381"/><stop offset=".17" stop-color="#fff27d"/><stop offset=".31" stop-color="#ffee73"/><stop offset=".44" stop-color="#ffe961"/><stop offset=".57" stop-color="#ffe248"/><stop offset=".69" stop-color="#ffd828"/><stop offset=".81" stop-color="#ffcd01"/><stop offset=".82" stop-color="#ffcd00"/></linearGradient><linearGradient id="uuid-de3cd29f-8e14-4aef-a3c6-f80a23801dc4" x1="-2322.73" y1="-4629.72" x2="-1253.82" y2="-4629.72" gradientTransform="translate(5565.87 3047.25) rotate(-36.57) scale(1.21 1.13)" gradientUnits="userSpaceOnUse"><stop offset="0" stop-color="#ececec" stop-opacity=".3"/><stop offset=".06" stop-color="#d4d4d4" stop-opacity=".38"/><stop offset=".47" stop-color="#4f4f4d" stop-opacity=".83"/><stop offset=".7" stop-color="#1d1d1b"/></linearGradient><linearGradient id="uuid-ea2352a5-3658-45b2-a495-0c8a86f72e96" x1="-1531.54" y1="-4212.73" x2="-2031.22" y2="-4926.34" gradientTransform="translate(5565.87 3047.25) rotate(-36.57) scale(1.21 1.13)" gradientUnits="userSpaceOnUse"><stop offset=".17" stop-color="#cdcdcd"/><stop offset=".27" stop-color="#b7b7b7"/><stop offset=".48" stop-color="#8d8d8d"/><stop offset=".67" stop-color="#6f6f6f"/><stop offset=".83" stop-color="#5d5d5c"/><stop offset=".95" stop-color="#575756"/></linearGradient></defs><g id="uuid-0eea1324-7ffd-45bc-b84a-043e2939affd"><g class="uuid-36f13ce1-b44f-4c6e-ab8a-ac9eb429491a"><rect class="uuid-d142c01a-dad3-4bbb-b488-b50664a23cb0" x="-60.16" y="478.88" width="1415.44" height="131.72"/><path class="uuid-e1e4dc3e-0763-4fdf-9e01-43a22b95ecf1" d="M1275.58,511.21H-7.22v-253.27s723.24-25.72,866.25-77.17c277.12-99.69,422.8-118.72,422.8-118.72l-6.25,449.17Z"/><g class="uuid-87240109-ee5f-487f-b151-f576ecd2c6b2"><path class="uuid-644b4c37-3ced-4b66-a60b-766444355191" d="M1346.89,27.66l-21.57,49.88s-138.75,55.55-400.62,114.68C482.98,291.97-1.77,264.09-1.77,264.09l4.78-10.97s497.57,36.2,979.92-94.16c160.21-43.3,363.95-131.3,363.95-131.3Z"/><path class="uuid-d03ee7eb-8922-4b1a-8a55-8dd0bbc58dc7" d="M1337.61,58.74l16.92-40.41s-199.73,84.04-468.32,142.23C439.37,257.36,35.8,264.36,35.8,264.36c0,0,463.04,9.58,841.6-75.29,265.14-59.44,460.21-130.32,460.21-130.32Z"/><path class="uuid-7f8a47d4-8278-4c7d-ae64-bce4becf020e" d="M1362.86-2.78s-29.68,23.69-349.52,119.72C683.21,216.06,227.59,257.72-2.74,247.54l-3.04,17.32s488,11.42,1076.97-140.27c189.11-48.71,282.75-88.99,282.75-88.99l8.91-38.37Z"/><path class="uuid-85d1cea7-c455-45d9-b0d6-4bdf9e243268" d="M-7.15,245.34s246.39,15.03,566.98-28.98C1017.19,153.57,1338.75,23.12,1338.75,23.12l69.25-37.96C538.28,301.68-6.34,242.14-6.34,242.14l-.8,3.2Z"/><path class="uuid-9741cb8f-f48b-492b-84bd-370826b88d72" d="M1313.34,84.43l-6.61-10.08s-182.57,72.16-339.81,102.9c-357.98,69.99-788.55,74.24-788.55,74.24,0,0,481.55,4.35,856.5-84.8,140.37-33.38,278.47-82.25,278.47-82.25Z"/></g></g></g></svg>