<?xml version="1.0" encoding="UTF-8"?><svg xmlns="http://www.w3.org/2000/svg" xmlns:xlink="http://www.w3.org/1999/xlink" viewBox="0 0 420.15 166.69"><defs><style>.uuid-af718bf6-46eb-4b8f-9b46-0963dea39244{fill:none;}.uuid-2b6a20f2-2c4b-403c-9302-f98463cca5ae,.uuid-7f78fee4-c13a-4a01-905c-e6ded13c5c78{fill:#ffcb00;}.uuid-2b6a20f2-2c4b-403c-9302-f98463cca5ae,.uuid-7f78fee4-c13a-4a01-905c-e6ded13c5c78,.uuid-c087c8b0-2b8c-47f8-8d6c-fc172ff5dcb3{fill-rule:evenodd;}.uuid-7f78fee4-c13a-4a01-905c-e6ded13c5c78{mix-blend-mode:multiply;opacity:.6;}.uuid-92c702f0-58de-4b95-bd32-4bb3386027e5{clip-path:url(#uuid-0b9d3748-edee-4fdd-aa76-6b735400866d);}.uuid-2261abab-b936-4d87-978b-409c0468ed14{isolation:isolate;}.uuid-9ecb0f30-0a37-4476-b97d-1d30495e084d{fill:#fff;}.uuid-ccaae268-0b2f-42e0-a686-9297d917e0aa{fill:#cececd;}</style><clipPath id="uuid-0b9d3748-edee-4fdd-aa76-6b735400866d"><rect class="uuid-af718bf6-46eb-4b8f-9b46-0963dea39244" width="420.15" height="166.69"/></clipPath></defs><g class="uuid-2261abab-b936-4d87-978b-409c0468ed14"><g id="uuid-4490ba07-c651-4180-bfaa-11a493cd8b9c"><g id="uuid-20970241-d0ae-4354-81c9-cf7cbf8ff1e1"><g class="uuid-92c702f0-58de-4b95-bd32-4bb3386027e5"><path class="uuid-9ecb0f30-0a37-4476-b97d-1d30495e084d" d="M420.73,9.82c-.14-.88-.7-1.63-1.51-2-8.1-3.77-18.1-5.68-29.72-5.68-12.74,0-26.72,2.29-41.55,6.81-30.37,9.26-59.71,26.58-80.51,47.52-.66.67-.9,1.63-.67,2.53-1.14-.07-2.34-.11-3.61-.11h-13.92l11.76-19.55c.49-.82.51-1.84.04-2.68-.47-.83-1.36-1.35-2.31-1.35h-19.17c-.94,0-1.82.5-2.29,1.31l-19.17,32.62c-1.23-5.5-6.36-11.08-22.12-11.08h-38.81c-.57,0-1.1.19-1.54.51-.4-.24-.86-.38-1.36-.38h-34.87c-.35,0-.69-.02-1.03-.02-9.33,0-15.86,4.13-18.89,11.94l-12.73,27.13-6.08,12.53c-.4.82-.35,1.8.14,2.57.49.78,1.34,1.25,2.25,1.25h18.47c1.03,0,1.97-.6,2.41-1.53l6.02-12.89,10.42-21.82c.41-.43,1.12-.85,2.7-.85h24.85c.56,0,1.09-.19,1.53-.5.44.31.96.5,1.52.5h2.06c-4.19.57-7.49,2.83-9.45,6.5l-7.14,14.15c-.03.06-.06.12-.08.18l-.12.29c-.02.06-.05.12-.07.18-.6,1.8-.88,3.21-.88,4.43,0,5.25,3.34,11.5,19.25,11.5h24.64c11.31,0,19.17-2.99,23.45-8.89.53,3.09,2.51,6.23,7.71,8.05-23.12,8.66-48.73,15.15-74.6,18.88-15.22,2.19-29.75,3.3-43.19,3.3-28.26,0-50.18-5.05-60.54-13.72.03-.38-.02-.77-.17-1.14-1.69-4.34-1.58-8.66.33-12.84,3.61-7.92,12.49-13.46,19.59-16,.75-.27,1.34-.86,1.61-1.61l5.78-16.17c.13-.31.2-.66.2-1.02,0-.34-.07-.66-.19-.96.86-.82,1.09-2.13.49-3.21-.49-.87-1.39-1.37-2.33-1.37-.42,0-.84.1-1.23.3-17.82,9.32-32.32,19.73-41.92,30.09-.15.16-.27.33-.38.52-.78,1.42-1.45,2.82-1.99,4.17-.44,1.12-.81,2.23-1.11,3.33-.04-.02-.08-.05-.13-.07-.39-.2-.81-.3-1.22-.3-.86,0-1.71.42-2.22,1.19-2.34,3.52-4.12,7.04-5.3,10.46-3.1,9.03-2.04,17.59,3.08,24.75,10.55,14.79,37.84,23.27,74.86,23.27,13.19,0,27.34-1.07,42.06-3.19,48.88-7.04,97.14-24.51,129.1-46.73.25-.16.45-.38.63-.61,8.62-.82,14.76-3.76,18.33-8.78,1.36,4.29,6.03,8.3,18.76,8.3h24.64c7.41,0,13.35-1.28,17.77-3.83-.34.79-.29,1.7.16,2.43.48.79,1.34,1.27,2.27,1.27h19.35c1.01,0,1.93-.57,2.38-1.47l34.2-68.39c.21-.38.34-.83.34-1.3,0-1.47-1.19-2.66-2.66-2.66h-18.95c-1,0-1.92.56-2.37,1.46l-13.77,27.22c-1.49-5.27-6.83-10.39-21.94-10.39h-32.26c5.48-3.23,11.17-6.22,17-8.94.48.86,1.38,1.37,2.32,1.37.3,0,.6-.05.9-.16,26.76-9.64,47.16-11.62,61.95-12.26.18,0,.36-.03.53-.08l13.89-3.47c.84-.21,1.49-.81,1.81-1.57.01,0,.03,0,.04,0,.66,0,1.31-.25,1.81-.71l21.82-20.17c.65-.6.96-1.49.82-2.36Z"/><path class="uuid-9ecb0f30-0a37-4476-b97d-1d30495e084d" d="M42.74,53.85h29.84l-27.95,56.51c-.41.82-.36,1.8.12,2.58.49.78,1.34,1.26,2.26,1.26h19.56c1,0,1.92-.56,2.37-1.46l29.75-58.89h109.82c.98,0,1.88-.54,2.35-1.41l7.21-13.51c.44-.82.41-1.82-.07-2.62-.48-.8-1.35-1.29-2.28-1.29H49.39c-1.01,0-1.94.58-2.39,1.48l-6.65,13.51c-.41.82-.36,1.8.13,2.58.49.78,1.34,1.25,2.26,1.25Z"/><path class="uuid-9ecb0f30-0a37-4476-b97d-1d30495e084d" d="M394.61,43.78c-4.52,0-8.19,3.67-8.19,8.19s3.67,8.19,8.19,8.19,8.19-3.67,8.19-8.19-3.67-8.19-8.19-8.19ZM390.86,47.84h0c-.33.3-.64.63-.9,1.01-.4.6-.69,1.27-.84,2-.07.36-.11.74-.11,1.13h0c0-.39.04-.76.11-1.13.15-.73.44-1.41.84-2,.25-.37.56-.7.9-1.01ZM394.6,48.97c-.11,0-.21,0-.3,0-.17,0-.31.02-.4.03.1-.01.23-.03.4-.03.09,0,.19,0,.3,0h0ZM395.93,47.76c.43.1.78.26,1.07.49.24.19.43.43.56.71-.13-.28-.31-.52-.56-.71-.29-.23-.64-.38-1.07-.49ZM397.83,55.08c-.13-.46-.28-1.08-.44-1.65-.05-.18-.11-.36-.17-.51-.2-.47-.48-.81-.9-.98v-.03c.26-.09.52-.25.75-.47.15-.14.29-.31.4-.5-.11.19-.25.36-.4.5-.23.21-.49.37-.75.47v.03c.42.17.7.51.9.98.07.16.12.33.17.51.16.57.31,1.19.44,1.65h0ZM390.12,51.97c0-.91.28-1.75.74-2.46v4.92c-.47-.71-.74-1.55-.74-2.46ZM391.02,56.24h0c-.12-.1-.26-.19-.37-.31.11.11.25.2.37.31ZM394.89,55.7v-.31c.1.32.2.61.3.81.04.07.08.13.13.19-.23.04-.47.07-.71.07,0,0-.02,0-.02,0,.19-.2.31-.46.31-.76ZM398.66,53.86c-.06-.24-.13-.49-.19-.73-.06-.21-.18-.64-.44-1.08.38-.42.67-.97.77-1.6.18.48.29.99.29,1.53,0,.68-.16,1.31-.43,1.89ZM398.42,47.9s.1.08.14.12c-.04-.04-.1-.08-.14-.12ZM391.76,56.77h0c.22.13.43.26.67.36-.23-.1-.45-.23-.67-.36ZM400.21,51.97c0-.39-.04-.76-.11-1.13-.15-.73-.44-1.41-.84-2,.4.6.69,1.27.84,2,.07.36.11.74.11,1.13h0ZM399.11,57.43c.87-.72,1.57-1.65,2.02-2.71.36-.85.56-1.78.56-2.75s-.2-1.91-.56-2.75c-.4-.95-1.01-1.78-1.76-2.47.75.68,1.36,1.52,1.76,2.47.36.85.56,1.78.56,2.75s-.2,1.91-.56,2.75c-.45,1.06-1.15,1.99-2.02,2.71Z"/><path d="M391.98,47.78c.58-.1,1.44-.17,2.42-.17,1.19,0,2.03.18,2.6.63.49.38.75.95.75,1.69,0,1.01-.73,1.72-1.42,1.97v.04c.56.23.87.75,1.07,1.49.25.92.49,1.97.64,2.28h-1.86c-.12-.24-.32-.88-.55-1.87-.23-1.01-.57-1.27-1.32-1.29h-.54v3.16h-1.8v-7.92ZM393.77,51.23h.72c.9,0,1.44-.45,1.44-1.16s-.5-1.11-1.33-1.11c-.44,0-.69.02-.82.06v2.2Z"/><path d="M394.61,59.05c-3.9,0-7.08-3.17-7.08-7.08s3.18-7.08,7.08-7.08,7.08,3.17,7.08,7.08-3.18,7.08-7.08,7.08ZM394.61,46.38c-3.09,0-5.6,2.51-5.6,5.6s2.51,5.6,5.6,5.6,5.6-2.51,5.6-5.6-2.51-5.6-5.6-5.6Z"/><path class="uuid-ccaae268-0b2f-42e0-a686-9297d917e0aa" d="M282.93,72.47c-.31-7.24-6.96-10.92-19.77-10.92h-18.62l14.19-23.58h-19.17l-19.25,32.76-14.29,28.45-.11.28c-.5,1.49-.74,2.67-.74,3.59,0,5.87,5.58,8.84,16.59,8.84h24.64c12.03,0,19.73-3.54,22.86-10.47l13.7-28.42-.02-.53Z"/><path class="uuid-2b6a20f2-2c4b-403c-9302-f98463cca5ae" d="M227.07,101.35h22.41c1.68,0,3.21-.92,3.97-2.39l11.24-21.71c1.5-2.9-.65-6.32-3.97-6.32h-22.67c-1.69,0-1.06-.13-1.81,1.36l-12.06,22.79c-1.46,2.89-.41,6.27,2.89,6.27h0Z"/><path class="uuid-7f78fee4-c13a-4a01-905c-e6ded13c5c78" d="M260.72,70.6h-22.67c-1.69,0-1.06-.13-1.81,1.36l-12.06,22.79c-1.46,2.89-.41,6.27,2.89,6.27h22.41c1.68,0,3.21-.92,3.97-2.39l11.24-21.71c1.5-2.9-.65-6.32-3.97-6.32ZM259.67,76.74l-7.92,15.2c-1.08,2.08-3.78,3.75-6.03,3.72l-17.26-.2c-2.25-.03-3.19-1.73-2.11-3.81l7.92-15.2c1.08-2.08,3.79-3.75,6.03-3.72l17.26.2c2.25.03,3.19,1.73,2.11,3.81Z"/><path class="uuid-ccaae268-0b2f-42e0-a686-9297d917e0aa" d="M349.91,72.27l-.02-.53c-.3-7.24-6.95-10.92-19.76-10.92h-38.81l-6.18,13.12h42.58c1.14,0,1.54.26,1.71.62l-2.46,4.56h-37.61c-4.24,0-7.43,1.79-9.25,5.23l-7.11,14.1-.12.28c-.5,1.49-.74,2.67-.74,3.59,0,5.87,5.58,8.84,16.59,8.84h24.64c12.03,0,19.73-3.54,22.86-10.47l13.69-28.42ZM320.63,92.49l-1.89,3.52c-1.1,1.17-2.25,1.84-3.5,2.04l-19.92-.13c-.38,0-2.02-.03-2.55-.48l2.57-4.95h25.29Z"/><polygon class="uuid-ccaae268-0b2f-42e0-a686-9297d917e0aa" points="368.21 42.53 333.55 111.03 352.9 111.03 387.15 42.53 368.21 42.53"/><polygon class="uuid-ccaae268-0b2f-42e0-a686-9297d917e0aa" points="208.52 51.19 215.73 37.68 49.4 37.68 42.75 51.19 76.87 51.19 47.02 111.54 66.58 111.54 97.07 51.19 208.52 51.19"/><path class="uuid-ccaae268-0b2f-42e0-a686-9297d917e0aa" d="M154.27,60.95h-34.91c-8.84-.28-14.71,3.19-17.43,10.31l-12.77,27.21-6.1,12.56h18.47l6.02-12.89,10.58-22.16c1.09-1.38,2.71-2.04,4.95-2.04h24.85l6.33-12.99Z"/><path class="uuid-ccaae268-0b2f-42e0-a686-9297d917e0aa" d="M215.76,71.74c-.32-7.24-6.97-10.92-19.77-10.92h-38.81l-6.18,13.12h42.58c1.14,0,1.54.26,1.71.62l-2.46,4.56h-37.61c-4.24,0-7.43,1.79-9.26,5.23l-7.11,14.1-.12.29c-.51,1.52-.74,2.66-.74,3.59,0,5.87,5.58,8.84,16.59,8.84h24.64c12.03,0,19.73-3.54,22.86-10.47l13.7-28.42-.02-.53ZM184.6,96c-1.1,1.17-2.25,1.84-3.5,2.04l-19.92-.13c-.38,0-2.03-.03-2.56-.48l2.56-4.96h25.3l-1.89,3.52Z"/><path class="uuid-c087c8b0-2b8c-47f8-8d6c-fc172ff5dcb3" d="M324.5,89.43l-3.68,6.86c-1.53,1.69-3.22,2.67-5.09,2.92l-20.07-.13c-3.13,0-4.74-.93-4.83-2.79l3.56-6.86h30.11ZM325.38,80.29h-35.69c-3.47,0-5.93,1.36-7.37,4.07l-7.11,14.1c-.42,1.27-.63,2.24-.63,2.92,0,4.49,4.82,6.73,14.48,6.73h24.64c11.18,0,18.17-3.09,20.96-9.27l13.47-27.94c-.25-5.93-6.14-8.9-17.65-8.9h-37.47l-4.19,8.9h39.25c2.37,0,3.69,1.01,3.94,3.05l-3.43,6.35h-3.18Z"/><polygon class="uuid-c087c8b0-2b8c-47f8-8d6c-fc172ff5dcb3" points="384.07 43.7 351.93 107.98 337.33 107.98 369.85 43.7 384.07 43.7"/><polygon class="uuid-c087c8b0-2b8c-47f8-8d6c-fc172ff5dcb3" points="99.66 48.14 207.59 48.14 212.55 38.85 51.05 38.85 46.48 48.14 80.61 48.14 50.76 108.49 65.62 108.49 96.1 48.14 99.66 48.14"/><path class="uuid-c087c8b0-2b8c-47f8-8d6c-fc172ff5dcb3" d="M135.06,70.89h-11.63c-3,0-5.26,1.01-6.76,3.05l-10.68,22.36-5.46,11.68h-13.76l4.62-9.52,12.81-27.31c2.37-6.27,7.51-9.27,15.42-9.02h31.6l-4.27,8.77h-11.9Z"/><path class="uuid-c087c8b0-2b8c-47f8-8d6c-fc172ff5dcb3" d="M190.36,89.43l-3.68,6.86c-1.53,1.69-3.22,2.67-5.09,2.92l-20.07-.13c-3.13,0-4.75-.93-4.83-2.79l3.55-6.86h30.11ZM191.24,80.29h-35.69c-3.47,0-5.93,1.36-7.37,4.07l-7.11,14.1c-.42,1.27-.63,2.24-.63,2.92,0,4.49,4.83,6.73,14.48,6.73h24.64c11.18,0,18.16-3.09,20.96-9.27l13.47-27.94c-.26-5.93-6.14-8.9-17.66-8.9h-37.47l-4.19,8.9h39.25c2.37,0,3.69,1.01,3.94,3.05l-3.42,6.35h-3.18Z"/><path class="uuid-c087c8b0-2b8c-47f8-8d6c-fc172ff5dcb3" d="M255,71.62h-12.45c-3.22,0-5.63,1.01-7.24,3.05l-11.43,22.36c.08,1.86,1.69,2.79,4.83,2.79l20.06.13c1.95-.25,3.52-1.23,4.71-2.92l11.56-22.36c-.25-2.03-1.57-3.05-3.94-3.05h-6.09ZM281.16,71.62l-13.47,27.94c-2.79,6.18-9.78,9.27-20.96,9.27h-24.64c-9.65,0-14.48-2.24-14.48-6.73,0-.68.21-1.65.63-2.92l14.22-28.33,18.63-31.72h14.23l-14.19,23.58h22.36c11.52,0,17.41,2.97,17.66,8.9h0Z"/><path class="uuid-2b6a20f2-2c4b-403c-9302-f98463cca5ae" d="M393.8,32.05l-13.89,3.47c-13.31.58-34.72,2.32-62.74,12.41,8.4-6.19,53.67-20.45,76.62-15.89h0Z"/><path class="uuid-2b6a20f2-2c4b-403c-9302-f98463cca5ae" d="M56.74,72.66l-5.83,16.29c-13.02,4.66-27.44,17.07-21.51,32.31-11.38-15.24-.49-30.06,27.34-48.6h0Z"/><path class="uuid-c087c8b0-2b8c-47f8-8d6c-fc172ff5dcb3" d="M247.77,112.72h-12.8c-2.35,1.39-4.79,2.76-7.33,4.1-1.11-.03-2.33-.05-3.49-.17,2.71-1.28,5.33-2.6,7.87-3.93h-8.9c-1.5,0-2.94-.06-4.31-.17-24.15,9.76-52.91,17.65-82.66,21.93-71.58,10.3-121.79-4.11-112.14-32.2,3.72-10.84,15.81-22.13,33.37-32.5-17.36,9.08-31.61,19.2-41.2,29.54-.71,1.29-1.33,2.58-1.85,3.87-2.38,5.99-2.35,11.51-.22,16.46-1.39,0-3.63,1.18-5.38,2.8-1.5-4.46-1.35-9.36.67-14.62-2.19,3.29-3.87,6.58-5,9.85-11.61,33.81,40.81,52.31,117.1,41.33,49.94-7.19,97.71-25.23,128.02-46.32-.58.02-1.16.03-1.76.03h0ZM22.61,137.48c.17-2.16,1.08-4.05,2.37-5.66l-.33-.39c10.55,7.13,27.51,11.9,48.97,13.59-.18,1.61-.17,3.16.05,4.64-21.92-1.21-39.56-5.5-51.06-12.18h0ZM117.3,148.36c-9.04.94-17.71,1.47-25.93,1.61-.53-1.29-.92-2.73-1.21-4.28,9.98.06,20.67-.47,31.95-1.65,5.74-.6,11.45-1.35,17.11-2.23,1,1.07,2.02,2.07,3.01,3.02-8.2,1.47-16.53,2.66-24.92,3.53h0ZM156.51,141.97c-1.4-.65-2.67-1.45-3.48-2.58,10.28-2.02,20.3-4.48,29.9-7.29.91.69,1.86,1.35,2.79,2-9.33,2.98-19.12,5.63-29.21,7.87h0ZM200.2,129.07c-1.08-.4-2.13-.86-3.02-1.5,6.08-2.09,11.93-4.33,17.5-6.68.98.3,1.98.6,2.88.93-5.49,2.54-11.29,4.97-17.36,7.25h0Z"/><path class="uuid-c087c8b0-2b8c-47f8-8d6c-fc172ff5dcb3" d="M348.73,11.5c-30.94,9.44-59.77,27.09-79.4,46.85,2.21.24,4.32.64,6.23,1.23,2.05-1.71,4.17-3.4,6.36-5.06.58,1.09,1.31,2,2.2,2.76-1.68,1.26-3.31,2.53-4.92,3.82,1.6.88,2.96,2,3.99,3.37,16.37-11.57,36.44-21.62,57.64-28.08,21.64-6.6,40.91-8.38,55.45-5.99l21.81-20.17c-15.83-7.36-40.55-7.52-69.38,1.27h0ZM292.37,51.45c-.91-.67-1.76-1.53-2.57-2.6,3.15-2.15,6.4-4.23,9.76-6.26.57,1.12,1.3,2.1,2.21,2.95-3.22,1.9-6.36,3.87-9.4,5.91h0ZM312.01,39.88c-.92-.77-1.77-1.74-2.53-2.91,5.01-2.67,10.19-5.18,15.5-7.49.34,1.32.89,2.52,1.64,3.58-4.98,2.09-9.87,4.38-14.61,6.83h0ZM342.9,27.03c-1.8.57-3.59,1.18-5.37,1.81-.82-1-1.54-2.19-2.13-3.6,3.83-1.44,7.71-2.78,11.63-4,3.58-1.11,7.03-2.1,10.37-2.98.24,1.54.71,2.97,1.43,4.29-5.05,1.22-10.36,2.69-15.93,4.47h0ZM389.31,17.83c-4.92.29-10.33.87-16.22,1.83-.85-1.29-1.51-2.82-2.01-4.56,8.79-1.72,16.56-2.63,23.28-2.96-1.63,1.4-3.51,3.55-5.05,5.68h0Z"/></g></g></g></g></svg>