<?xml version="1.0" encoding="UTF-8"?><svg id="uuid-17bee512-a864-4e07-9982-89036bd9a381" xmlns="http://www.w3.org/2000/svg" viewBox="0 0 35 35"><defs><style>.uuid-42d688cd-e3b3-46b2-ac63-ce858f5ba9ea{fill:#1d1d1b;}</style></defs><g id="uuid-e44dda1f-039e-426f-b56a-710b493cf13b"><path class="uuid-42d688cd-e3b3-46b2-ac63-ce858f5ba9ea" d="M25.34,35h-15.68c-5.33,0-9.66-4.33-9.66-9.66v-15.68C0,4.33,4.33,0,9.66,0h15.68c5.33,0,9.66,4.33,9.66,9.66v15.68c0,5.33-4.33,9.66-9.66,9.66ZM9.66,2.41c-4,0-7.25,3.25-7.25,7.25v15.68c0,4,3.25,7.25,7.25,7.25h15.68c4,0,7.25-3.25,7.25-7.25v-15.68c0-4-3.25-7.25-7.25-7.25h-15.68Z"/><path class="uuid-42d688cd-e3b3-46b2-ac63-ce858f5ba9ea" d="M17.5,26.59c-5.01,0-9.09-4.08-9.09-9.09s4.08-9.09,9.09-9.09,9.09,4.08,9.09,9.09-4.08,9.09-9.09,9.09ZM17.5,10.82c-3.68,0-6.68,3-6.68,6.68s3,6.68,6.68,6.68,6.68-3,6.68-6.68-3-6.68-6.68-6.68Z"/><circle class="uuid-42d688cd-e3b3-46b2-ac63-ce858f5ba9ea" cx="27.42" cy="7.44" r="1.75"/></g></svg>