<?xml version="1.0" encoding="UTF-8"?><svg id="uuid-cb7c2105-be76-403e-9b1c-a14dbd8890aa" xmlns="http://www.w3.org/2000/svg" viewBox="0 0 35 35"><defs><style>.uuid-33ac977e-8128-4915-b39a-48d13563f685{fill:#1d1d1b;}</style></defs><g id="uuid-01bbacb6-caa7-40fa-ae86-c9aaf924bc9e"><path class="uuid-33ac977e-8128-4915-b39a-48d13563f685" d="M35,3.76v27.48c-.02.06-.05.13-.06.19-.24,1.33-.93,2.36-2.11,3-.49.27-1.05.38-1.58.57h-8.68c-.58-.28-.76-.74-.76-1.38.02-3.99,0-7.97,0-11.96,0-.87.38-1.25,1.24-1.26,1.04,0,2.07,0,3.11,0,.12,0,.24-.01.39-.02,0-.91,0-1.78,0-2.66,0-.08-.02-.15-.03-.27-.13,0-.26,0-.38,0-1.06,0-2.12,0-3.18,0-.76,0-1.15-.41-1.15-1.17,0-1.3,0-2.6,0-3.9,0-.84.47-1.31,1.31-1.31,1.01,0,2.03,0,3.04,0,.12,0,.24,0,.37,0v-2.94c-.13,0-.24,0-.35,0-1.03,0-2.05,0-3.08,0-2.46,0-4.24,1.78-4.24,4.25,0,1.3,0,2.6,0,3.9,0,.76-.39,1.16-1.15,1.17-1.06,0-2.12,0-3.18,0-.12,0-.25,0-.38,0v2.95c.15,0,.27,0,.4,0,1.01,0,2.03,0,3.04,0,.91,0,1.28.37,1.28,1.29,0,3.98,0,7.95,0,11.93,0,.64-.18,1.1-.76,1.38H3.76c-.05-.02-.1-.05-.16-.06C1.48,34.58,0,32.86,0,30.69,0,21.9,0,13.11.01,4.32c0-.48.09-.98.24-1.44C.84,1.1,2.45,0,4.42,0c7.66,0,15.33,0,22.99,0,1.13,0,2.26-.01,3.38,0,1.82.03,3.4,1.18,3.98,2.9.09.28.15.57.23.85ZM16.78,32.94v-10.46c-.15,0-.27,0-.39,0-1.04,0-2.07,0-3.11,0-.84,0-1.23-.4-1.23-1.24,0-1.53,0-3.05,0-4.58,0-.86.39-1.26,1.25-1.26,1.04,0,2.07,0,3.11,0,.12,0,.24,0,.4,0,0-.16,0-.28,0-.41,0-.98-.02-1.96.01-2.94.09-3.26,2.72-5.88,5.99-5.96,1.55-.03,3.1-.01,4.65-.01.77,0,1.17.4,1.18,1.19,0,1.56,0,3.12,0,4.68,0,.8-.4,1.19-1.2,1.19-1.06,0-2.12,0-3.18,0-.12,0-.24.01-.35.02v2.23c1.18,0,2.33,0,3.48,0,.86,0,1.26.39,1.26,1.25,0,1.53,0,3.05,0,4.58,0,.86-.4,1.25-1.26,1.25-1.04,0-2.07,0-3.11,0-.12,0-.24.01-.36.02v10.42c.07,0,.1.02.13.02,2.21,0,4.42.02,6.63,0,1.38-.01,2.27-.96,2.27-2.37,0-8.7,0-17.41,0-26.11,0-1.47-.92-2.39-2.39-2.39-8.69,0-17.38,0-26.08,0-1.49,0-2.4.92-2.4,2.42,0,8.68,0,17.36,0,26.04,0,.26.02.53.09.78.27,1.03,1.13,1.64,2.31,1.64,3.99,0,7.97,0,11.96,0,.11,0,.22,0,.35,0Z"/></g></svg>