<?xml version="1.0" encoding="UTF-8"?><svg id="uuid-2b79a03a-b332-4bd2-8889-61a35e73f2f4" xmlns="http://www.w3.org/2000/svg" viewBox="0 0 35 35"><defs><style>.uuid-8f07834f-e6ee-4587-95d9-43fdb58d897b{fill:#1d1d1b;}</style></defs><g id="uuid-5f97712b-d3f1-41e0-b174-cddb3b5490f3"><path class="uuid-8f07834f-e6ee-4587-95d9-43fdb58d897b" d="M35,6.33c0-3.61-2.73-6.33-6.35-6.33H6.42c-1.8,0-3.43.64-4.6,1.81C.65,2.97,0,4.6,0,6.4v22.17c0,3.78,2.65,6.42,6.44,6.43h11.01c2.16,0,4.32,0,6.48,0,1.58,0,3.16,0,4.74,0,3.61,0,6.33-2.73,6.33-6.35,0-7.44,0-14.88,0-22.32ZM27.8,2.37c.64.02,1.28,0,1.86.12,1.76.38,2.94,1.92,2.95,3.82,0,2.61,0,5.23,0,7.85v6.66c-.02,2.56-.03,5.11.02,7.67.02,1.14-.38,2.19-1.13,2.95-.77.78-1.81,1.22-3.05,1.2-3.09-.02-6.17-.02-9.26-.02-2.11,0-4.22,0-6.33,0h-6.33c-2.55,0-4.14-1.58-4.15-4.13,0-7.41,0-14.81,0-22.22,0-2.31,1.69-3.92,4.1-3.92,7.06,0,14.12,0,21.33,0Z"/><path class="uuid-8f07834f-e6ee-4587-95d9-43fdb58d897b" d="M9.24,26.27c.39,0,.66-.03.93,0,.48.06.8-.11,1.1-.49.93-1.15,1.9-2.26,2.86-3.39.75-.88,1.5-1.77,2.29-2.69.14.18.24.31.34.45,1.29,1.89,2.59,3.78,3.87,5.69.21.31.42.44.8.43,1.37-.02,2.75,0,4.12-.01.14,0,.28-.02.47-.04-.09-.13-.14-.21-.19-.28-2.11-3.06-4.22-6.12-6.34-9.18-.21-.3-.2-.47.04-.75,1.72-1.98,3.42-3.98,5.12-5.98.35-.41.68-.84,1.08-1.32-.39,0-.67.03-.95,0-.45-.06-.73.12-1.01.46-1.1,1.34-2.24,2.66-3.37,3.98-.62.72-1.24,1.44-1.88,2.19-.2-.29-.37-.53-.54-.77-1.25-1.82-2.5-3.64-3.76-5.45-.12-.18-.35-.39-.53-.4-1.55-.03-3.09-.02-4.76-.02,2.31,3.38,4.55,6.66,6.79,9.93-2.15,2.53-4.28,5.03-6.48,7.62ZM15.03,15.64c-1.21-1.76-2.41-3.53-3.61-5.29-.09-.14-.18-.28-.32-.5.75,0,1.42-.02,2.09.02.15,0,.33.23.44.38,2.12,3.06,4.22,6.12,6.33,9.18,1.23,1.79,2.47,3.57,3.7,5.36.07.1.13.19.24.36-.79,0-1.49.02-2.2-.02-.14,0-.31-.19-.41-.33-2.1-3.05-4.18-6.1-6.27-9.16Z"/></g></svg>