<?xml version="1.0" encoding="UTF-8"?><svg id="uuid-d92634f7-d04c-47f8-b7b0-383610ad009b" xmlns="http://www.w3.org/2000/svg" viewBox="0 0 35 35"><defs><style>.uuid-b11d6cfa-15b6-457f-8c00-516749c6fe85{fill:#1d1d1b;}</style></defs><g id="uuid-3ad3fd63-b65a-45a8-b4b6-05425fe9737d"><path class="uuid-b11d6cfa-15b6-457f-8c00-516749c6fe85" d="M35,6.33c0-3.61-2.73-6.33-6.35-6.33H6.42c-1.8,0-3.43.64-4.6,1.81C.65,2.97,0,4.6,0,6.4v22.17c0,3.78,2.65,6.42,6.44,6.43h11.01c2.16,0,4.32,0,6.48,0,1.58,0,3.16,0,4.74,0,3.61,0,6.33-2.73,6.33-6.35,0-7.44,0-14.88,0-22.32ZM27.8,2.37c.64.02,1.28,0,1.86.12,1.76.38,2.94,1.92,2.95,3.82,0,2.61,0,5.23,0,7.85v6.66c-.02,2.56-.03,5.11.02,7.67.02,1.14-.38,2.19-1.13,2.95-.77.78-1.81,1.22-3.05,1.2-3.09-.02-6.17-.02-9.26-.02-2.11,0-4.22,0-6.33,0h-6.33c-2.55,0-4.14-1.58-4.15-4.13,0-7.41,0-14.81,0-22.22,0-2.31,1.69-3.92,4.1-3.92,7.06,0,14.12,0,21.33,0Z"/><path class="uuid-b11d6cfa-15b6-457f-8c00-516749c6fe85" d="M24.63,9.81h-14.25c-2.24,0-4.05,1.81-4.05,4.05v7.28c0,2.24,1.81,4.05,4.05,4.05h14.25c2.24,0,4.05-1.81,4.05-4.05v-7.28c0-2.24-1.81-4.05-4.05-4.05ZM13.46,22.17v-9.35l8.08,4.67-8.08,4.67Z"/></g></svg>