<?xml version="1.0" encoding="UTF-8"?><svg id="uuid-97a3badb-a9fd-4517-a594-3cf91abd31fa" xmlns="http://www.w3.org/2000/svg" viewBox="0 0 35 35"><defs><style>.uuid-7d15dc9b-73de-447d-ac54-09a7ac62e574{fill:#1d1d1b;}</style></defs><g id="uuid-e08f2704-6f27-4067-a15a-d60c27157302"><path class="uuid-7d15dc9b-73de-447d-ac54-09a7ac62e574" d="M35,17.53c0,4.23,0,8.46,0,12.68,0,2.18-1.4,4.05-3.48,4.61-.43.12-.89.17-1.34.17-3.88.01-7.77,0-11.65,0-4.19,0-8.38,0-12.56,0-.59,0-1.19.02-1.77-.05-1.76-.21-2.99-1.18-3.76-2.75C.03,31.4,0,30.53,0,29.65c.01-1.19,0-2.39,0-3.58,0-1.17,0-2.34,0-3.51,0-1.16,0-2.32,0-3.49,0-1.17,0-2.34,0-3.51,0-1.16,0-2.32,0-3.49,0-1.19,0-2.37,0-3.56,0-1.17,0-2.34,0-3.51C-.01,2.92.9,1.38,2.77.44,3.46.09,4.22,0,5,0c1.2.01,2.4,0,3.6,0,1.17,0,2.34,0,3.51,0,1.17,0,2.34,0,3.51,0,1.17,0,2.34,0,3.51,0,1.17,0,2.34,0,3.51,0,1.2,0,2.4,0,3.6,0,1.29,0,2.59,0,3.88,0,1.4,0,2.6.47,3.58,1.49.84.88,1.29,1.94,1.3,3.16.01,4.29,0,8.58,0,12.87ZM17.53,32.31c.23,0,.47,0,.7,0,1.64,0,3.27,0,4.91,0,2.1,0,4.19,0,6.29,0,.26,0,.51,0,.77,0,1.24,0,2.1-.86,2.1-2.1,0-8.46,0-16.91,0-25.37,0-.03,0-.06,0-.09-.02-1.19-.88-2.03-2.07-2.03-2.86,0-5.72,0-8.59,0-5.62,0-11.25,0-16.87,0-1.21,0-2.07.87-2.07,2.08,0,2.62,0,5.24,0,7.86,0,5.86,0,11.71,0,17.57,0,1.2.86,2.07,2.05,2.08.52,0,1.04,0,1.57,0,1.63,0,3.26,0,4.89,0,2.11,0,4.21,0,6.32,0Z"/><path class="uuid-7d15dc9b-73de-447d-ac54-09a7ac62e574" d="M24.23,29.6c0-1.02,0-2.01,0-3.01,0-1.66.02-3.32,0-4.98,0-.6-.04-1.21-.19-1.78-.28-1.1-.88-1.56-2.01-1.65-.66-.05-1.31,0-1.9.36-.71.42-1,1.1-1.13,1.87-.24,1.42-.12,2.86-.13,4.3-.02,1.58,0,3.15,0,4.73,0,.05,0,.11,0,.17h-5.38V13.48h5.37v2.36c.06-.05.09-.07.11-.1.66-1.24,1.72-1.92,3.07-2.16,1.25-.22,2.49-.16,3.7.18,1.63.46,2.68,1.55,3.25,3.12.37,1.02.56,2.08.57,3.16.05,2.72.04,5.44.05,8.16,0,.46,0,.92,0,1.39h-5.39Z"/><path class="uuid-7d15dc9b-73de-447d-ac54-09a7ac62e574" d="M5.4,13.47h5.36v16.12h-5.36V13.47Z"/><path class="uuid-7d15dc9b-73de-447d-ac54-09a7ac62e574" d="M8.07,10.78c-1.47,0-2.67-1.21-2.67-2.7,0-1.47,1.19-2.68,2.64-2.69,1.53,0,2.74,1.17,2.74,2.65,0,1.54-1.18,2.73-2.71,2.74Z"/></g></svg>