<?xml version="1.0" encoding="UTF-8"?><svg id="uuid-f515dad2-1c6b-4875-b7fe-de64129b79dd" xmlns="http://www.w3.org/2000/svg" xmlns:xlink="http://www.w3.org/1999/xlink" viewBox="0 0 1279.58 329.24"><defs><style>.uuid-bfb8cdaa-8b1b-4ba6-9ee2-4463ab10eeb6{fill:none;}.uuid-19e6243b-57d0-4ab9-aa06-324fd1af4705{clip-path:url(#uuid-1c499f71-8762-4e7a-be6e-637bacc1dfda);}.uuid-49d3585d-43b7-4ea9-9e9f-a51dba97ed69{clip-path:url(#uuid-cb3bb3ff-9bcb-4a72-8f53-4722d7adc11f);}.uuid-df024e50-2e05-44c5-bd35-932e7247341d{fill:url(#uuid-a833f405-b026-4698-81ee-40a4735709c4);}.uuid-02a07f51-9d71-47b4-a63c-ab61f651d898{fill:#fff;}.uuid-84aed329-f535-40eb-89ba-b487c46855b4{fill:url(#uuid-51e5ed79-67c0-41c0-9bbe-5f64b3515f08);}.uuid-dfda9d92-3219-4d2b-aa71-86aaeae7b89a{fill:url(#uuid-abe30539-e86c-4eab-8cf3-a0b0c73ff39f);}</style><clipPath id="uuid-cb3bb3ff-9bcb-4a72-8f53-4722d7adc11f"><rect class="uuid-bfb8cdaa-8b1b-4ba6-9ee2-4463ab10eeb6" width="1279.58" height="329.24"/></clipPath><clipPath id="uuid-1c499f71-8762-4e7a-be6e-637bacc1dfda"><polygon class="uuid-bfb8cdaa-8b1b-4ba6-9ee2-4463ab10eeb6" points="1430.69 494.37 -15.55 189 67.31 -203.45 1513.44 98.98 1430.69 494.37"/></clipPath><linearGradient id="uuid-51e5ed79-67c0-41c0-9bbe-5f64b3515f08" x1="-1633.81" y1="-2409.27" x2="-1271.82" y2="-2926.25" gradientTransform="translate(3499.05 4253.72) rotate(-17.54) scale(1.06 1.81)" gradientUnits="userSpaceOnUse"><stop offset="0" stop-color="#ffe608"/><stop offset=".3" stop-color="#fcd204"/><stop offset=".68" stop-color="#fabf01"/><stop offset=".95" stop-color="#fab900"/></linearGradient><linearGradient id="uuid-abe30539-e86c-4eab-8cf3-a0b0c73ff39f" x1="-1486.96" y1="-2606.93" x2="-1464" y2="-2705.25" gradientTransform="translate(3499.05 4253.72) rotate(-17.54) scale(1.06 1.81)" gradientUnits="userSpaceOnUse"><stop offset="0" stop-color="#fff381"/><stop offset=".17" stop-color="#fff27d"/><stop offset=".31" stop-color="#ffee73"/><stop offset=".44" stop-color="#ffe961"/><stop offset=".57" stop-color="#ffe248"/><stop offset=".69" stop-color="#ffd828"/><stop offset=".81" stop-color="#ffcd01"/><stop offset=".82" stop-color="#ffcd00"/></linearGradient><linearGradient id="uuid-a833f405-b026-4698-81ee-40a4735709c4" x1="-2224.92" y1="-2665.5" x2="-733.4" y2="-2665.5" gradientTransform="translate(3499.05 4253.72) rotate(-17.54) scale(1.06 1.81)" gradientUnits="userSpaceOnUse"><stop offset=".63" stop-color="#cdcdcd"/><stop offset=".67" stop-color="#b7b7b7"/><stop offset=".76" stop-color="#8d8d8d"/><stop offset=".83" stop-color="#6f6f6f"/><stop offset=".9" stop-color="#5d5d5c"/><stop offset=".95" stop-color="#575756"/></linearGradient></defs><g id="uuid-6c41d47d-a952-47fe-9e62-7547444412c4"><g class="uuid-49d3585d-43b7-4ea9-9e9f-a51dba97ed69"><g class="uuid-19e6243b-57d0-4ab9-aa06-324fd1af4705"><path class="uuid-84aed329-f535-40eb-89ba-b487c46855b4" d="M1442.63,227.76l-116.3-158.24S557.08,210.09-202.44,118.1c-44.94-5.44-87.8-18.99-87.8-18.99,0,0,70.71,39.86,192.1,64.28,643.38,129.42,1540.77,64.37,1540.77,64.37Z"/><path class="uuid-dfda9d92-3219-4d2b-aa71-86aaeae7b89a" d="M1337.41,87.25s-152.32,23.74-554.74,58.66c-402.42,34.92-967.97,1.36-1072.91-46.8l10.81,14.56S44.63,235.62,889.99,219.94c259.71-4.82,524.86-25.53,524.86-25.53l-77.43-107.17Z"/><path class="uuid-df024e50-2e05-44c5-bd35-932e7247341d" d="M-283.17,108.52c215.37,61.16,690.91,66.32,1038.03,56.43,187.97-5.36,600.34-50.06,600.34-50.06l36.27,48.23s-256.06,22.01-684.69,31.95C-23.83,212-281.99,110.27-281.99,110.27l-1.18-1.76Z"/></g><polygon class="uuid-02a07f51-9d71-47b4-a63c-ab61f651d898" points="-59.76 145.18 313.07 194.3 1436.05 156.34 1384.7 500.16 -15.11 350.57 -59.76 145.18"/></g></g></svg>