<?xml version="1.0" encoding="UTF-8"?><svg xmlns="http://www.w3.org/2000/svg" xmlns:xlink="http://www.w3.org/1999/xlink" viewBox="0 0 1279.58 329.24"><defs><style>.uuid-2ef9c846-2ff5-4366-9577-0c813db35536{fill:none;}.uuid-8804088b-f73d-4e63-986f-e593f17cfe65{clip-path:url(#uuid-a1ed0867-1a1b-470b-90e9-a3f8e0a5ab4e);}.uuid-9b2489ae-1220-4046-8bde-2dfd0c8d224f{fill:url(#uuid-0f479987-5430-4ab1-b432-0c30160fed45);}.uuid-daaba917-1c5e-44fb-9c5f-c0b8053239bb{fill:url(#uuid-a122199d-49e6-46a7-89f3-36c3bc4e3187);}.uuid-63253ac8-8b78-46b1-8f7c-f13b5f88286f{isolation:isolate;}.uuid-ed69f0d4-dfa7-44e5-9880-ec3ef50baaf0{fill:#fff;}.uuid-e150f5ad-54e9-445a-86ff-1cb7b98ef213{mix-blend-mode:overlay;}.uuid-bd968230-cf95-4dfe-9f40-650321582518{fill:url(#uuid-f60c1ba3-0674-41f2-a5ab-a715769d0c95);}.uuid-c9d73b55-f5e9-4aaf-8172-0316d3ec8fbd{clip-path:url(#uuid-9a029675-da97-44e8-9c4a-ba4f5dfa0db8);}</style><clipPath id="uuid-9a029675-da97-44e8-9c4a-ba4f5dfa0db8"><rect class="uuid-2ef9c846-2ff5-4366-9577-0c813db35536" width="1279.58" height="329.24"/></clipPath><clipPath id="uuid-a1ed0867-1a1b-470b-90e9-a3f8e0a5ab4e"><polygon class="uuid-2ef9c846-2ff5-4366-9577-0c813db35536" points="1430.69 494.37 -15.55 189 67.31 -203.45 1513.44 98.98 1430.69 494.37"/></clipPath><linearGradient id="uuid-a122199d-49e6-46a7-89f3-36c3bc4e3187" x1="-1496.73" y1="-2637.78" x2="-1134.74" y2="-3154.77" gradientTransform="translate(3484.9 4690.99) rotate(-17.54) scale(1.06 1.81)" gradientUnits="userSpaceOnUse"><stop offset="0" stop-color="#ffe608"/><stop offset=".3" stop-color="#fcd204"/><stop offset=".68" stop-color="#fabf01"/><stop offset=".95" stop-color="#fab900"/></linearGradient><linearGradient id="uuid-0f479987-5430-4ab1-b432-0c30160fed45" x1="-1349.88" y1="-2835.44" x2="-1326.92" y2="-2933.76" gradientTransform="translate(3484.9 4690.99) rotate(-17.54) scale(1.06 1.81)" gradientUnits="userSpaceOnUse"><stop offset="0" stop-color="#fff381"/><stop offset=".17" stop-color="#fff27d"/><stop offset=".31" stop-color="#ffee73"/><stop offset=".44" stop-color="#ffe961"/><stop offset=".57" stop-color="#ffe248"/><stop offset=".69" stop-color="#ffd828"/><stop offset=".81" stop-color="#ffcd01"/><stop offset=".82" stop-color="#ffcd00"/></linearGradient><linearGradient id="uuid-f60c1ba3-0674-41f2-a5ab-a715769d0c95" x1="-2087.84" y1="-2894.02" x2="-596.32" y2="-2894.02" gradientTransform="translate(3484.9 4690.99) rotate(-17.54) scale(1.06 1.81)" gradientUnits="userSpaceOnUse"><stop offset=".63" stop-color="#cdcdcd"/><stop offset=".67" stop-color="#b7b7b7"/><stop offset=".76" stop-color="#8d8d8d"/><stop offset=".83" stop-color="#6f6f6f"/><stop offset=".9" stop-color="#5d5d5c"/><stop offset=".95" stop-color="#575756"/></linearGradient></defs><g class="uuid-63253ac8-8b78-46b1-8f7c-f13b5f88286f"><g id="uuid-26d01972-e878-4c99-bb28-44f9f338222b"><g id="uuid-7ae29f99-53ea-4a27-bdcf-db8a59d618ae"><g class="uuid-c9d73b55-f5e9-4aaf-8172-0316d3ec8fbd"><g class="uuid-8804088b-f73d-4e63-986f-e593f17cfe65"><path class="uuid-daaba917-1c5e-44fb-9c5f-c0b8053239bb" d="M1442.63,227.76l-116.3-158.24S557.08,210.09-202.44,118.1c-44.94-5.44-87.8-18.99-87.8-18.99,0,0,70.71,39.86,192.1,64.28,643.38,129.42,1540.77,64.37,1540.77,64.37Z"/><path class="uuid-9b2489ae-1220-4046-8bde-2dfd0c8d224f" d="M1337.41,87.25s-152.32,23.74-554.74,58.66c-402.42,34.92-967.97,1.36-1072.91-46.8l10.81,14.56S44.63,235.62,889.99,219.94c259.71-4.82,524.86-25.53,524.86-25.53l-77.43-107.17Z"/><path class="uuid-bd968230-cf95-4dfe-9f40-650321582518" d="M-283.17,108.52c215.37,61.16,690.91,66.32,1038.03,56.43,187.97-5.36,600.34-50.06,600.34-50.06l36.27,48.23s-256.06,22.01-684.69,31.95C-23.83,212-281.99,110.27-281.99,110.27l-1.18-1.76Z"/></g><g class="uuid-e150f5ad-54e9-445a-86ff-1cb7b98ef213"><path class="uuid-daaba917-1c5e-44fb-9c5f-c0b8053239bb" d="M1442.63,227.76l-116.3-158.24S557.08,210.09-202.44,118.1c-44.94-5.44-87.8-18.99-87.8-18.99,0,0,70.71,39.86,192.1,64.28,643.38,129.42,1540.77,64.37,1540.77,64.37Z"/><path class="uuid-9b2489ae-1220-4046-8bde-2dfd0c8d224f" d="M1337.41,87.25s-152.32,23.74-554.74,58.66c-402.42,34.92-967.97,1.36-1072.91-46.8l10.81,14.56S44.63,235.62,889.99,219.94c259.71-4.82,524.86-25.53,524.86-25.53l-77.43-107.17Z"/><path class="uuid-bd968230-cf95-4dfe-9f40-650321582518" d="M-283.17,108.52c215.37,61.16,690.91,66.32,1038.03,56.43,187.97-5.36,600.34-50.06,600.34-50.06l36.27,48.23s-256.06,22.01-684.69,31.95C-23.83,212-281.99,110.27-281.99,110.27l-1.18-1.76Z"/></g><g class="uuid-e150f5ad-54e9-445a-86ff-1cb7b98ef213"><path class="uuid-daaba917-1c5e-44fb-9c5f-c0b8053239bb" d="M1442.63,227.76l-116.3-158.24S557.08,210.09-202.44,118.1c-44.94-5.44-87.8-18.99-87.8-18.99,0,0,70.71,39.86,192.1,64.28,643.38,129.42,1540.77,64.37,1540.77,64.37Z"/><path class="uuid-9b2489ae-1220-4046-8bde-2dfd0c8d224f" d="M1337.41,87.25s-152.32,23.74-554.74,58.66c-402.42,34.92-967.97,1.36-1072.91-46.8l10.81,14.56S44.63,235.62,889.99,219.94c259.71-4.82,524.86-25.53,524.86-25.53l-77.43-107.17Z"/><path class="uuid-bd968230-cf95-4dfe-9f40-650321582518" d="M-283.17,108.52c215.37,61.16,690.91,66.32,1038.03,56.43,187.97-5.36,600.34-50.06,600.34-50.06l36.27,48.23s-256.06,22.01-684.69,31.95C-23.83,212-281.99,110.27-281.99,110.27l-1.18-1.76Z"/></g><polygon class="uuid-ed69f0d4-dfa7-44e5-9880-ec3ef50baaf0" points="-59.76 145.18 313.07 194.3 1436.05 156.34 1384.7 500.16 -15.11 350.57 -59.76 145.18"/></g></g></g></g></svg>