<?xml version="1.0" encoding="UTF-8"?><svg xmlns="http://www.w3.org/2000/svg" xmlns:xlink="http://www.w3.org/1999/xlink" viewBox="0 0 1279.25 430.59"><defs><style>.uuid-5fc2d4d5-3022-40be-a9c4-82f3d3d81159{fill:none;}.uuid-0dec00ac-d701-47e3-899c-a54c36139b6d{clip-path:url(#uuid-1c6860cb-fa45-4b9a-9548-d18ce53a5f56);}.uuid-1d82d67b-b0ef-45d7-99b1-5400d207bdec{fill:url(#uuid-a3cacef5-d5d0-465f-b350-06fffbd08fc6);}.uuid-5d5bc238-5292-4c8b-95bc-d0a56edb0bc7{isolation:isolate;}.uuid-63cd2a26-af00-49da-99ba-b5e6a5090b4a{fill:#fff;}.uuid-a112aaf7-5b49-4ed2-8215-f5585d08e597{fill:url(#uuid-e4816bd1-697a-41ef-8bf7-5a8a6234f98e);}.uuid-918d4fb9-032a-4747-8047-504a4d16e35a{mix-blend-mode:overlay;}.uuid-e3df4d1e-6b6b-4815-8f11-e4930941c1e9{fill:url(#uuid-db1f8946-3420-4ba8-97b7-5ecceaa37b47);}</style><clipPath id="uuid-1c6860cb-fa45-4b9a-9548-d18ce53a5f56"><rect class="uuid-5fc2d4d5-3022-40be-a9c4-82f3d3d81159" x="0" width="1279.25" height="430.59"/></clipPath><linearGradient id="uuid-a3cacef5-d5d0-465f-b350-06fffbd08fc6" x1="9550.88" y1="-1904.53" x2="7647.84" y2="-1744.76" gradientTransform="translate(9566.14 -678.93) rotate(166.19) scale(1 -.7)" gradientUnits="userSpaceOnUse"><stop offset="0" stop-color="#575756"/><stop offset=".72" stop-color="#cdcdcd"/><stop offset=".83" stop-color="#dfdfdf"/><stop offset=".98" stop-color="#fff"/></linearGradient><linearGradient id="uuid-e4816bd1-697a-41ef-8bf7-5a8a6234f98e" x1="8471.06" y1="146.89" x2="9294.57" y2="-676.62" gradientTransform="translate(9749.89 -412.64) rotate(174.37) scale(1 -1)" gradientUnits="userSpaceOnUse"><stop offset="0" stop-color="#fff381"/><stop offset=".17" stop-color="#fff27d"/><stop offset=".31" stop-color="#ffee73"/><stop offset=".44" stop-color="#ffe961"/><stop offset=".57" stop-color="#ffe248"/><stop offset=".69" stop-color="#ffd828"/><stop offset=".81" stop-color="#ffcd01"/><stop offset=".82" stop-color="#ffcd00"/></linearGradient><linearGradient id="uuid-db1f8946-3420-4ba8-97b7-5ecceaa37b47" x1="9608.6" y1="-644.63" x2="8284.62" y2="-644.63" gradientTransform="translate(9540.28 -1059.52) rotate(167.93) scale(1 -1)" gradientUnits="userSpaceOnUse"><stop offset="0" stop-color="#ffe608"/><stop offset=".3" stop-color="#fcd204"/><stop offset=".68" stop-color="#fabf01"/><stop offset=".95" stop-color="#fab900"/></linearGradient></defs><g class="uuid-5d5bc238-5292-4c8b-95bc-d0a56edb0bc7"><g id="uuid-31e5c43a-bfd3-4250-927e-63f86a253796"><g id="uuid-9a21e179-a65f-4776-a612-eb24900cc146"><g class="uuid-0dec00ac-d701-47e3-899c-a54c36139b6d"><polygon points="-50.76 268.73 391.29 282.13 1221.8 103.52 1344.92 101.91 1311.1 715.24 -59.69 576.82 -50.76 268.73"/><g class="uuid-918d4fb9-032a-4747-8047-504a4d16e35a"><path class="uuid-1d82d67b-b0ef-45d7-99b1-5400d207bdec" d="M1881.46,53.88s-219.61-30.45-619.53,17.29c-189.58,22.63-406.82,101.94-804.27,146.43C210.76,245.25,1.73,202.3,1.73,202.3v111.49s185.34,20.73,509.96-22.98c478.23-64.39,382.66-109.27,833.23-188.91,253.37-44.78,536.54-48.02,536.54-48.02Z"/><path class="uuid-63cd2a26-af00-49da-99ba-b5e6a5090b4a" d="M1881.46,53.88s-275.14-31.46-696.91,29.63c-353.6,51.22-484.69,132-779.46,149.53C132.62,249.25-23.08,202.35,1.73,214.79v86.39s543.93-9.45,716.99-54.5C1641.79,6.4,1881.46,53.88,1881.46,53.88Z"/><path class="uuid-a112aaf7-5b49-4ed2-8215-f5585d08e597" d="M1738.8,70.87s-327.98-32.15-742.42,50.91c-166.77,33.42-332.36,90.17-575.63,115.92C153.34,265.99,1.73,222.21,1.73,222.21v73.75c-10.11-.56,454.25,55.31,934.11-103.23,429.56-141.92,802.96-121.87,802.96-121.87Z"/><path class="uuid-e3df4d1e-6b6b-4815-8f11-e4930941c1e9" d="M1319.03,112.82s-123.55-3.42-313.42,35.45c-296.11,60.62-328.4,87.47-572.24,111.09-151.47,14.67-301.12,2.73-349.76-2.6-48.64-5.33-81.9-10.51-81.9-10.51v37.79s141.09,18.81,346.09,13.82c270.4-6.58,343.96-66.21,532.13-112.24,281.51-68.87,439.09-72.8,439.09-72.8Z"/></g><g class="uuid-918d4fb9-032a-4747-8047-504a4d16e35a"><path class="uuid-1d82d67b-b0ef-45d7-99b1-5400d207bdec" d="M1881.46,53.88s-219.61-30.45-619.53,17.29c-189.58,22.63-406.82,101.94-804.27,146.43C210.76,245.25,1.73,202.3,1.73,202.3v111.49s185.34,20.73,509.96-22.98c478.23-64.39,382.66-109.27,833.23-188.91,253.37-44.78,536.54-48.02,536.54-48.02Z"/><path class="uuid-63cd2a26-af00-49da-99ba-b5e6a5090b4a" d="M1881.46,53.88s-275.14-31.46-696.91,29.63c-353.6,51.22-484.69,132-779.46,149.53C132.62,249.25-23.08,202.35,1.73,214.79v86.39s543.93-9.45,716.99-54.5C1641.79,6.4,1881.46,53.88,1881.46,53.88Z"/><path class="uuid-a112aaf7-5b49-4ed2-8215-f5585d08e597" d="M1738.8,70.87s-327.98-32.15-742.42,50.91c-166.77,33.42-332.36,90.17-575.63,115.92C153.34,265.99,1.73,222.21,1.73,222.21v73.75c-10.11-.56,454.25,55.31,934.11-103.23,429.56-141.92,802.96-121.87,802.96-121.87Z"/><path class="uuid-e3df4d1e-6b6b-4815-8f11-e4930941c1e9" d="M1319.03,112.82s-123.55-3.42-313.42,35.45c-296.11,60.62-328.4,87.47-572.24,111.09-151.47,14.67-301.12,2.73-349.76-2.6-48.64-5.33-81.9-10.51-81.9-10.51v37.79s141.09,18.81,346.09,13.82c270.4-6.58,343.96-66.21,532.13-112.24,281.51-68.87,439.09-72.8,439.09-72.8Z"/></g><g class="uuid-918d4fb9-032a-4747-8047-504a4d16e35a"><path class="uuid-1d82d67b-b0ef-45d7-99b1-5400d207bdec" d="M1881.46,53.88s-219.61-30.45-619.53,17.29c-189.58,22.63-406.82,101.94-804.27,146.43C210.76,245.25,1.73,202.3,1.73,202.3v111.49s185.34,20.73,509.96-22.98c478.23-64.39,382.66-109.27,833.23-188.91,253.37-44.78,536.54-48.02,536.54-48.02Z"/><path class="uuid-63cd2a26-af00-49da-99ba-b5e6a5090b4a" d="M1881.46,53.88s-275.14-31.46-696.91,29.63c-353.6,51.22-484.69,132-779.46,149.53C132.62,249.25-23.08,202.35,1.73,214.79v86.39s543.93-9.45,716.99-54.5C1641.79,6.4,1881.46,53.88,1881.46,53.88Z"/><path class="uuid-a112aaf7-5b49-4ed2-8215-f5585d08e597" d="M1738.8,70.87s-327.98-32.15-742.42,50.91c-166.77,33.42-332.36,90.17-575.63,115.92C153.34,265.99,1.73,222.21,1.73,222.21v73.75c-10.11-.56,454.25,55.31,934.11-103.23,429.56-141.92,802.96-121.87,802.96-121.87Z"/><path class="uuid-e3df4d1e-6b6b-4815-8f11-e4930941c1e9" d="M1319.03,112.82s-123.55-3.42-313.42,35.45c-296.11,60.62-328.4,87.47-572.24,111.09-151.47,14.67-301.12,2.73-349.76-2.6-48.64-5.33-81.9-10.51-81.9-10.51v37.79s141.09,18.81,346.09,13.82c270.4-6.58,343.96-66.21,532.13-112.24,281.51-68.87,439.09-72.8,439.09-72.8Z"/></g><g class="uuid-918d4fb9-032a-4747-8047-504a4d16e35a"><path class="uuid-1d82d67b-b0ef-45d7-99b1-5400d207bdec" d="M1881.46,53.88s-219.61-30.45-619.53,17.29c-189.58,22.63-406.82,101.94-804.27,146.43C210.76,245.25,1.73,202.3,1.73,202.3v111.49s185.34,20.73,509.96-22.98c478.23-64.39,382.66-109.27,833.23-188.91,253.37-44.78,536.54-48.02,536.54-48.02Z"/><path class="uuid-63cd2a26-af00-49da-99ba-b5e6a5090b4a" d="M1881.46,53.88s-275.14-31.46-696.91,29.63c-353.6,51.22-484.69,132-779.46,149.53C132.62,249.25-23.08,202.35,1.73,214.79v86.39s543.93-9.45,716.99-54.5C1641.79,6.4,1881.46,53.88,1881.46,53.88Z"/><path class="uuid-a112aaf7-5b49-4ed2-8215-f5585d08e597" d="M1738.8,70.87s-327.98-32.15-742.42,50.91c-166.77,33.42-332.36,90.17-575.63,115.92C153.34,265.99,1.73,222.21,1.73,222.21v73.75c-10.11-.56,454.25,55.31,934.11-103.23,429.56-141.92,802.96-121.87,802.96-121.87Z"/><path class="uuid-e3df4d1e-6b6b-4815-8f11-e4930941c1e9" d="M1319.03,112.82s-123.55-3.42-313.42,35.45c-296.11,60.62-328.4,87.47-572.24,111.09-151.47,14.67-301.12,2.73-349.76-2.6-48.64-5.33-81.9-10.51-81.9-10.51v37.79s141.09,18.81,346.09,13.82c270.4-6.58,343.96-66.21,532.13-112.24,281.51-68.87,439.09-72.8,439.09-72.8Z"/></g><path class="uuid-1d82d67b-b0ef-45d7-99b1-5400d207bdec" d="M1881.46,53.88s-219.61-30.45-619.53,17.29c-189.58,22.63-406.82,101.94-804.27,146.43C210.76,245.25,1.73,202.3,1.73,202.3v111.49s185.34,20.73,509.96-22.98c478.23-64.39,382.66-109.27,833.23-188.91,253.37-44.78,536.54-48.02,536.54-48.02Z"/><path class="uuid-63cd2a26-af00-49da-99ba-b5e6a5090b4a" d="M1881.46,53.88s-275.14-31.46-696.91,29.63c-353.6,51.22-484.69,132-779.46,149.53C132.62,249.25-23.08,202.35,1.73,214.79v86.39s543.93-9.45,716.99-54.5C1641.79,6.4,1881.46,53.88,1881.46,53.88Z"/><path class="uuid-a112aaf7-5b49-4ed2-8215-f5585d08e597" d="M1738.8,70.87s-327.98-32.15-742.42,50.91c-166.77,33.42-332.36,90.17-575.63,115.92C153.34,265.99,1.73,222.21,1.73,222.21v73.75c-10.11-.56,454.25,55.31,934.11-103.23,429.56-141.92,802.96-121.87,802.96-121.87Z"/><path class="uuid-e3df4d1e-6b6b-4815-8f11-e4930941c1e9" d="M1319.03,112.82s-123.55-3.42-313.42,35.45c-296.11,60.62-328.4,87.47-572.24,111.09-151.47,14.67-301.12,2.73-349.76-2.6-48.64-5.33-81.9-10.51-81.9-10.51v37.79s141.09,18.81,346.09,13.82c270.4-6.58,343.96-66.21,532.13-112.24,281.51-68.87,439.09-72.8,439.09-72.8Z"/><g class="uuid-918d4fb9-032a-4747-8047-504a4d16e35a"><path class="uuid-1d82d67b-b0ef-45d7-99b1-5400d207bdec" d="M1881.46,53.88s-219.61-30.45-619.53,17.29c-189.58,22.63-406.82,101.94-804.27,146.43C210.76,245.25,1.73,202.3,1.73,202.3v111.49s185.34,20.73,509.96-22.98c478.23-64.39,382.66-109.27,833.23-188.91,253.37-44.78,536.54-48.02,536.54-48.02Z"/><path class="uuid-63cd2a26-af00-49da-99ba-b5e6a5090b4a" d="M1881.46,53.88s-275.14-31.46-696.91,29.63c-353.6,51.22-484.69,132-779.46,149.53C132.62,249.25-23.08,202.35,1.73,214.79v86.39s543.93-9.45,716.99-54.5C1641.79,6.4,1881.46,53.88,1881.46,53.88Z"/><path class="uuid-a112aaf7-5b49-4ed2-8215-f5585d08e597" d="M1738.8,70.87s-327.98-32.15-742.42,50.91c-166.77,33.42-332.36,90.17-575.63,115.92C153.34,265.99,1.73,222.21,1.73,222.21v73.75c-10.11-.56,454.25,55.31,934.11-103.23,429.56-141.92,802.96-121.87,802.96-121.87Z"/><path class="uuid-e3df4d1e-6b6b-4815-8f11-e4930941c1e9" d="M1319.03,112.82s-123.55-3.42-313.42,35.45c-296.11,60.62-328.4,87.47-572.24,111.09-151.47,14.67-301.12,2.73-349.76-2.6-48.64-5.33-81.9-10.51-81.9-10.51v37.79s141.09,18.81,346.09,13.82c270.4-6.58,343.96-66.21,532.13-112.24,281.51-68.87,439.09-72.8,439.09-72.8Z"/></g><g class="uuid-918d4fb9-032a-4747-8047-504a4d16e35a"><path class="uuid-1d82d67b-b0ef-45d7-99b1-5400d207bdec" d="M1881.46,53.88s-219.61-30.45-619.53,17.29c-189.58,22.63-406.82,101.94-804.27,146.43C210.76,245.25,1.73,202.3,1.73,202.3v111.49s185.34,20.73,509.96-22.98c478.23-64.39,382.66-109.27,833.23-188.91,253.37-44.78,536.54-48.02,536.54-48.02Z"/><path class="uuid-63cd2a26-af00-49da-99ba-b5e6a5090b4a" d="M1881.46,53.88s-275.14-31.46-696.91,29.63c-353.6,51.22-484.69,132-779.46,149.53C132.62,249.25-23.08,202.35,1.73,214.79v86.39s543.93-9.45,716.99-54.5C1641.79,6.4,1881.46,53.88,1881.46,53.88Z"/><path class="uuid-a112aaf7-5b49-4ed2-8215-f5585d08e597" d="M1738.8,70.87s-327.98-32.15-742.42,50.91c-166.77,33.42-332.36,90.17-575.63,115.92C153.34,265.99,1.73,222.21,1.73,222.21v73.75c-10.11-.56,454.25,55.31,934.11-103.23,429.56-141.92,802.96-121.87,802.96-121.87Z"/><path class="uuid-e3df4d1e-6b6b-4815-8f11-e4930941c1e9" d="M1319.03,112.82s-123.55-3.42-313.42,35.45c-296.11,60.62-328.4,87.47-572.24,111.09-151.47,14.67-301.12,2.73-349.76-2.6-48.64-5.33-81.9-10.51-81.9-10.51v37.79s141.09,18.81,346.09,13.82c270.4-6.58,343.96-66.21,532.13-112.24,281.51-68.87,439.09-72.8,439.09-72.8Z"/></g><g class="uuid-918d4fb9-032a-4747-8047-504a4d16e35a"><path class="uuid-1d82d67b-b0ef-45d7-99b1-5400d207bdec" d="M1881.46,53.88s-219.61-30.45-619.53,17.29c-189.58,22.63-406.82,101.94-804.27,146.43C210.76,245.25,1.73,202.3,1.73,202.3v111.49s185.34,20.73,509.96-22.98c478.23-64.39,382.66-109.27,833.23-188.91,253.37-44.78,536.54-48.02,536.54-48.02Z"/><path class="uuid-63cd2a26-af00-49da-99ba-b5e6a5090b4a" d="M1881.46,53.88s-275.14-31.46-696.91,29.63c-353.6,51.22-484.69,132-779.46,149.53C132.62,249.25-23.08,202.35,1.73,214.79v86.39s543.93-9.45,716.99-54.5C1641.79,6.4,1881.46,53.88,1881.46,53.88Z"/><path class="uuid-a112aaf7-5b49-4ed2-8215-f5585d08e597" d="M1738.8,70.87s-327.98-32.15-742.42,50.91c-166.77,33.42-332.36,90.17-575.63,115.92C153.34,265.99,1.73,222.21,1.73,222.21v73.75c-10.11-.56,454.25,55.31,934.11-103.23,429.56-141.92,802.96-121.87,802.96-121.87Z"/><path class="uuid-e3df4d1e-6b6b-4815-8f11-e4930941c1e9" d="M1319.03,112.82s-123.55-3.42-313.42,35.45c-296.11,60.62-328.4,87.47-572.24,111.09-151.47,14.67-301.12,2.73-349.76-2.6-48.64-5.33-81.9-10.51-81.9-10.51v37.79s141.09,18.81,346.09,13.82c270.4-6.58,343.96-66.21,532.13-112.24,281.51-68.87,439.09-72.8,439.09-72.8Z"/></g></g></g></g></g></svg>