<?xml version="1.0" encoding="UTF-8"?><svg id="uuid-5e51aab2-7c4f-4156-8077-af3c49b83f63" xmlns="http://www.w3.org/2000/svg" xmlns:xlink="http://www.w3.org/1999/xlink" viewBox="0 0 1279.25 430.59"><defs><style>.uuid-e2ec2346-1b42-4907-9a19-a38eff337203{clip-path:url(#uuid-3ddc3bcb-0fff-4391-91b1-defde575b597);}.uuid-e1bbd374-1b54-4ebb-8cf2-235c66b91862{fill:none;}.uuid-7a568659-4dbe-49d7-ba40-c6eac9207a46{fill:url(#uuid-175a6744-5ded-4f53-92c3-6217f45cd686);}.uuid-3331e710-3517-4f28-8489-564092af7334{fill:#fff;}.uuid-c321e1f5-9d78-4e77-a600-eb0c949e96ae{fill:url(#uuid-b8aac16c-8e9b-4387-a19b-92850bd2f1d2);}.uuid-9df0d253-c390-4dfc-b6ae-c713d5543602{fill:url(#uuid-9c099a71-de43-4fb7-9770-2f8806fdef3e);}</style><clipPath id="uuid-3ddc3bcb-0fff-4391-91b1-defde575b597"><rect class="uuid-e1bbd374-1b54-4ebb-8cf2-235c66b91862" x="0" width="1279.25" height="430.59"/></clipPath><linearGradient id="uuid-b8aac16c-8e9b-4387-a19b-92850bd2f1d2" x1="6897.98" y1="-1445.6" x2="4994.94" y2="-1285.83" gradientTransform="translate(6920.76 -359) rotate(166.19) scale(1 -.7)" gradientUnits="userSpaceOnUse"><stop offset="0" stop-color="#575756"/><stop offset=".72" stop-color="#cdcdcd"/><stop offset=".83" stop-color="#dfdfdf"/><stop offset=".98" stop-color="#fff"/></linearGradient><linearGradient id="uuid-175a6744-5ded-4f53-92c3-6217f45cd686" x1="5789.54" y1="278.66" x2="6613.05" y2="-544.85" gradientTransform="translate(7068.37 -280.87) rotate(174.37) scale(1 -1)" gradientUnits="userSpaceOnUse"><stop offset="0" stop-color="#fff381"/><stop offset=".17" stop-color="#fff27d"/><stop offset=".31" stop-color="#ffee73"/><stop offset=".44" stop-color="#ffe961"/><stop offset=".57" stop-color="#ffe248"/><stop offset=".69" stop-color="#ffd828"/><stop offset=".81" stop-color="#ffcd01"/><stop offset=".82" stop-color="#ffcd00"/></linearGradient><linearGradient id="uuid-9c099a71-de43-4fb7-9770-2f8806fdef3e" x1="6950.33" y1="-363.54" x2="5626.35" y2="-363.54" gradientTransform="translate(6882.01 -778.42) rotate(167.93) scale(1 -1)" gradientUnits="userSpaceOnUse"><stop offset="0" stop-color="#ffe608"/><stop offset=".3" stop-color="#fcd204"/><stop offset=".68" stop-color="#fabf01"/><stop offset=".95" stop-color="#fab900"/></linearGradient></defs><g id="uuid-7021c6de-1a63-4d77-8aaa-e86ff4181712"><g class="uuid-e2ec2346-1b42-4907-9a19-a38eff337203"><polygon points="-50.76 268.73 391.29 282.13 1221.8 103.52 1344.92 101.91 1311.1 715.24 -59.69 576.82 -50.76 268.73"/><path class="uuid-c321e1f5-9d78-4e77-a600-eb0c949e96ae" d="M1881.46,53.88s-219.61-30.45-619.53,17.29c-189.58,22.63-406.82,101.94-804.27,146.43C210.76,245.25,1.73,202.3,1.73,202.3v111.49s185.34,20.73,509.96-22.98c478.23-64.39,382.66-109.27,833.23-188.91,253.37-44.78,536.54-48.02,536.54-48.02Z"/><path class="uuid-3331e710-3517-4f28-8489-564092af7334" d="M1881.46,53.88s-275.14-31.46-696.91,29.63c-353.6,51.22-484.69,132-779.46,149.53C132.62,249.25-23.08,202.35,1.73,214.79v86.39s543.93-9.45,716.99-54.5C1641.79,6.4,1881.46,53.88,1881.46,53.88Z"/><path class="uuid-7a568659-4dbe-49d7-ba40-c6eac9207a46" d="M1738.8,70.87s-327.98-32.15-742.42,50.91c-166.77,33.42-332.36,90.17-575.63,115.92C153.34,265.99,1.73,222.21,1.73,222.21v73.75c-10.11-.56,454.25,55.31,934.11-103.23,429.56-141.92,802.96-121.87,802.96-121.87Z"/><path class="uuid-9df0d253-c390-4dfc-b6ae-c713d5543602" d="M1319.03,112.82s-123.55-3.42-313.42,35.45c-296.11,60.62-328.4,87.47-572.24,111.09-151.47,14.67-301.12,2.73-349.76-2.6-48.64-5.33-81.9-10.51-81.9-10.51v37.79s141.09,18.81,346.09,13.82c270.4-6.58,343.96-66.21,532.13-112.24,281.51-68.87,439.09-72.8,439.09-72.8Z"/></g></g></svg>