<?xml version="1.0" encoding="UTF-8"?><svg id="uuid-7b265cf8-b6a4-491c-af54-905315583de3" xmlns="http://www.w3.org/2000/svg" xmlns:xlink="http://www.w3.org/1999/xlink" viewBox="0 0 1280 315.57"><defs><style>.uuid-f92aae15-4506-4919-afb5-b783743193b0{fill:none;}.uuid-002f2fa0-8064-487d-9b96-dc0298cbf6b4{fill:#ffe900;}.uuid-a7615459-3be4-4ed4-b44c-63024b0c21e3{clip-path:url(#uuid-94f1ae76-8d95-41de-aef2-91b92072a294);}.uuid-9b543d83-a001-4570-9a04-e665e99f8736{fill:url(#uuid-b0daa679-87a6-4708-8b81-e7bfe206c923);}.uuid-688393bd-d8bc-4c5c-88f1-de700343351f{fill:url(#uuid-d3768258-c362-47b3-ad73-972e34f150e8);}.uuid-764d4196-67f8-4ae0-88b9-a35d38922ba1{fill:url(#uuid-982d45a0-5506-45e5-9f2d-815ba7b40803);}.uuid-2221a1e5-0e46-486f-a1c6-dbe7b2ab389e{fill:#fff;}</style><clipPath id="uuid-94f1ae76-8d95-41de-aef2-91b92072a294"><rect class="uuid-f92aae15-4506-4919-afb5-b783743193b0" x="0" width="1280" height="315.57"/></clipPath><linearGradient id="uuid-b0daa679-87a6-4708-8b81-e7bfe206c923" x1="1435.99" y1="-2936.93" x2="1499.22" y2="-3207.68" gradientTransform="translate(-397.92 2465.06) rotate(-19.92) scale(1.2 .59)" gradientUnits="userSpaceOnUse"><stop offset="0" stop-color="#fff381"/><stop offset=".17" stop-color="#fff27d"/><stop offset=".31" stop-color="#ffee73"/><stop offset=".44" stop-color="#ffe961"/><stop offset=".57" stop-color="#ffe248"/><stop offset=".69" stop-color="#ffd828"/><stop offset=".81" stop-color="#ffcd01"/><stop offset=".82" stop-color="#ffcd00"/></linearGradient><linearGradient id="uuid-982d45a0-5506-45e5-9f2d-815ba7b40803" x1="1789.7" y1="-2664.62" x2="1184.37" y2="-3529.12" gradientTransform="translate(-397.92 2465.06) rotate(-19.92) scale(1.2 .59)" gradientUnits="userSpaceOnUse"><stop offset="0" stop-color="#ffe608"/><stop offset=".3" stop-color="#fcd204"/><stop offset=".68" stop-color="#fabf01"/><stop offset=".95" stop-color="#fab900"/></linearGradient><linearGradient id="uuid-d3768258-c362-47b3-ad73-972e34f150e8" x1="949.91" y1="-3106.81" x2="2009.33" y2="-3106.81" gradientTransform="translate(-397.92 2465.06) rotate(-19.92) scale(1.2 .59)" gradientUnits="userSpaceOnUse"><stop offset="0" stop-color="#fff59f"/><stop offset=".05" stop-color="#feef8f"/><stop offset=".24" stop-color="#fcdb5c"/><stop offset=".41" stop-color="#fbcc34"/><stop offset=".57" stop-color="#fac117"/><stop offset=".71" stop-color="#fabb06"/><stop offset=".81" stop-color="#fab900"/></linearGradient></defs><g id="uuid-e556793a-7793-4221-856f-ff264ba75e46"><g class="uuid-a7615459-3be4-4ed4-b44c-63024b0c21e3"><rect class="uuid-2221a1e5-0e46-486f-a1c6-dbe7b2ab389e" x="-22.2" y="-25.64" width="1320.14" height="299.3"/><polygon points="1295.12 331.57 -8.69 336.04 -13.68 197.62 620.36 202.08 1294.6 56.97 1295.12 331.57"/><path class="uuid-002f2fa0-8064-487d-9b96-dc0298cbf6b4" d="M1284.98,50.3l.02,40.19s-100.17,43.43-359.48,89.99C389.91,276.64-4.67,207.09-4.67,207.09l-.35-13.13s400.67,72.92,916.98-37.19c171.48-36.57,373.02-106.48,373.02-106.48Z"/><path class="uuid-9b543d83-a001-4570-9a04-e665e99f8736" d="M1285.61-.17s18.27,28.95-331.41,112.62C593.26,198.82,185.35,205.95-4.85,179.95l.18,27.15s384.03,52.96,1008.44-73.79c200.49-40.7,281.2-81.97,281.2-81.97l.65-51.5Z"/><path class="uuid-764d4196-67f8-4ae0-88b9-a35d38922ba1" d="M1273.59,88.95l-7.39-45.01s-193.15,55.34-469.36,101.19C337.31,221.41-5.02,193.97-5.02,193.97c0,0,389.38,44.45,771.14-17.51,273.53-44.4,507.47-87.51,507.47-87.51Z"/><path class="uuid-688393bd-d8bc-4c5c-88f1-de700343351f" d="M-5.78,198.35s213.48,45.52,523.39,23.65c398.46-28.12,767.38-163.6,767.38-163.6l.46-32.32C425.43,316.29-4.68,189.91-4.68,189.91l-1.09,8.44Z"/></g></g></svg>