<?xml version="1.0" encoding="UTF-8"?><svg xmlns="http://www.w3.org/2000/svg" xmlns:xlink="http://www.w3.org/1999/xlink" viewBox="0 0 1280 315.57"><defs><style>.uuid-06a0ce3b-8a75-4ccc-a297-d6d1dda52741{fill:none;}.uuid-d5644acd-36aa-4a7c-ad6b-16dba04c0b0f{fill:#ffe900;}.uuid-17723265-c5e4-4eeb-a6b0-1e9812c4da41{fill:url(#uuid-02aa5b35-145d-4a20-a09d-5da85e9cf21d);}.uuid-4d4ac53e-a964-4d00-9a78-63dec456ad78{fill:url(#uuid-ab915f3a-f29f-4231-a09d-47538982f2fd);}.uuid-e2ba1dcf-d686-4d99-ac50-ae8f1ce51b6c{isolation:isolate;}.uuid-2a663eb0-3015-4f16-8451-4428c4b7e68c{fill:#fff;}.uuid-8d037461-b21a-436f-a8f1-88b8ebd34bca{fill:url(#uuid-33778da2-d422-455f-8f74-9ec60ab01baf);}.uuid-b4f2cc78-60f4-4b4d-acac-4a2fa96486c6{mix-blend-mode:overlay;}.uuid-9eed8b7c-48fd-4c7f-8186-8dafab021d47{clip-path:url(#uuid-11e2b2d1-f213-4b46-8f6c-d2b9176cdf83);}</style><clipPath id="uuid-11e2b2d1-f213-4b46-8f6c-d2b9176cdf83"><rect class="uuid-06a0ce3b-8a75-4ccc-a297-d6d1dda52741" x="0" width="1280" height="315.57"/></clipPath><linearGradient id="uuid-02aa5b35-145d-4a20-a09d-5da85e9cf21d" x1="1144.81" y1="-2169.13" x2="1208.04" y2="-2439.87" gradientTransform="translate(-224.63 1916.72) rotate(-19.92) scale(1.2 .59)" gradientUnits="userSpaceOnUse"><stop offset="0" stop-color="#fff381"/><stop offset=".17" stop-color="#fff27d"/><stop offset=".31" stop-color="#ffee73"/><stop offset=".44" stop-color="#ffe961"/><stop offset=".57" stop-color="#ffe248"/><stop offset=".69" stop-color="#ffd828"/><stop offset=".81" stop-color="#ffcd01"/><stop offset=".82" stop-color="#ffcd00"/></linearGradient><linearGradient id="uuid-33778da2-d422-455f-8f74-9ec60ab01baf" x1="1498.52" y1="-1896.82" x2="893.2" y2="-2761.31" gradientTransform="translate(-224.63 1916.72) rotate(-19.92) scale(1.2 .59)" gradientUnits="userSpaceOnUse"><stop offset="0" stop-color="#ffe608"/><stop offset=".3" stop-color="#fcd204"/><stop offset=".68" stop-color="#fabf01"/><stop offset=".95" stop-color="#fab900"/></linearGradient><linearGradient id="uuid-ab915f3a-f29f-4231-a09d-47538982f2fd" x1="658.73" y1="-2339.01" x2="1718.15" y2="-2339.01" gradientTransform="translate(-224.63 1916.72) rotate(-19.92) scale(1.2 .59)" gradientUnits="userSpaceOnUse"><stop offset="0" stop-color="#fff59f"/><stop offset=".05" stop-color="#feef8f"/><stop offset=".24" stop-color="#fcdb5c"/><stop offset=".41" stop-color="#fbcc34"/><stop offset=".57" stop-color="#fac117"/><stop offset=".71" stop-color="#fabb06"/><stop offset=".81" stop-color="#fab900"/></linearGradient></defs><g class="uuid-e2ba1dcf-d686-4d99-ac50-ae8f1ce51b6c"><g id="uuid-d037e74c-eb0d-4fdf-b6b4-536a6930006e"><g id="uuid-37ca47f2-dda8-41ee-bbb5-af0401c9e244"><g class="uuid-9eed8b7c-48fd-4c7f-8186-8dafab021d47"><rect class="uuid-2a663eb0-3015-4f16-8451-4428c4b7e68c" x="-22.2" y="-25.64" width="1320.14" height="299.3"/><polygon points="1295.12 331.57 -8.69 336.04 -13.68 197.62 620.36 202.08 1294.6 56.97 1295.12 331.57"/><path class="uuid-d5644acd-36aa-4a7c-ad6b-16dba04c0b0f" d="M1284.98,50.3l.02,40.19s-100.17,43.43-359.48,89.99C389.91,276.64-4.67,207.09-4.67,207.09l-.35-13.13s400.67,72.92,916.98-37.19c171.48-36.57,373.02-106.48,373.02-106.48Z"/><path class="uuid-17723265-c5e4-4eeb-a6b0-1e9812c4da41" d="M1285.61-.17s18.27,28.95-331.41,112.62C593.26,198.82,185.35,205.95-4.85,179.95l.18,27.15s384.03,52.96,1008.44-73.79c200.49-40.7,281.2-81.97,281.2-81.97l.65-51.5Z"/><path class="uuid-8d037461-b21a-436f-a8f1-88b8ebd34bca" d="M1273.59,88.95l-7.39-45.01s-193.15,55.34-469.36,101.19C337.31,221.41-5.02,193.97-5.02,193.97c0,0,389.38,44.45,771.14-17.51,273.53-44.4,507.47-87.51,507.47-87.51Z"/><path class="uuid-4d4ac53e-a964-4d00-9a78-63dec456ad78" d="M-5.78,198.35s213.48,45.52,523.39,23.65c398.46-28.12,767.38-163.6,767.38-163.6l.46-32.32C425.43,316.29-4.68,189.91-4.68,189.91l-1.09,8.44Z"/><g class="uuid-b4f2cc78-60f4-4b4d-acac-4a2fa96486c6"><path class="uuid-d5644acd-36aa-4a7c-ad6b-16dba04c0b0f" d="M1284.98,50.3l.02,40.19s-100.17,43.43-359.48,89.99C389.91,276.64-4.67,207.09-4.67,207.09l-.35-13.13s400.67,72.92,916.98-37.19c171.48-36.57,373.02-106.48,373.02-106.48Z"/><path class="uuid-17723265-c5e4-4eeb-a6b0-1e9812c4da41" d="M1285.61-.17s18.27,28.95-331.41,112.62C593.26,198.82,185.35,205.95-4.85,179.95l.18,27.15s384.03,52.96,1008.44-73.79c200.49-40.7,281.2-81.97,281.2-81.97l.65-51.5Z"/><path class="uuid-8d037461-b21a-436f-a8f1-88b8ebd34bca" d="M1273.59,88.95l-7.39-45.01s-193.15,55.34-469.36,101.19C337.31,221.41-5.02,193.97-5.02,193.97c0,0,389.38,44.45,771.14-17.51,273.53-44.4,507.47-87.51,507.47-87.51Z"/><path class="uuid-4d4ac53e-a964-4d00-9a78-63dec456ad78" d="M-5.78,198.35s213.48,45.52,523.39,23.65c398.46-28.12,767.38-163.6,767.38-163.6l.46-32.32C425.43,316.29-4.68,189.91-4.68,189.91l-1.09,8.44Z"/></g><g class="uuid-b4f2cc78-60f4-4b4d-acac-4a2fa96486c6"><path class="uuid-d5644acd-36aa-4a7c-ad6b-16dba04c0b0f" d="M1284.98,50.3l.02,40.19s-100.17,43.43-359.48,89.99C389.91,276.64-4.67,207.09-4.67,207.09l-.35-13.13s400.67,72.92,916.98-37.19c171.48-36.57,373.02-106.48,373.02-106.48Z"/><path class="uuid-17723265-c5e4-4eeb-a6b0-1e9812c4da41" d="M1285.61-.17s18.27,28.95-331.41,112.62C593.26,198.82,185.35,205.95-4.85,179.95l.18,27.15s384.03,52.96,1008.44-73.79c200.49-40.7,281.2-81.97,281.2-81.97l.65-51.5Z"/><path class="uuid-8d037461-b21a-436f-a8f1-88b8ebd34bca" d="M1273.59,88.95l-7.39-45.01s-193.15,55.34-469.36,101.19C337.31,221.41-5.02,193.97-5.02,193.97c0,0,389.38,44.45,771.14-17.51,273.53-44.4,507.47-87.51,507.47-87.51Z"/><path class="uuid-4d4ac53e-a964-4d00-9a78-63dec456ad78" d="M-5.78,198.35s213.48,45.52,523.39,23.65c398.46-28.12,767.38-163.6,767.38-163.6l.46-32.32C425.43,316.29-4.68,189.91-4.68,189.91l-1.09,8.44Z"/></g><g class="uuid-b4f2cc78-60f4-4b4d-acac-4a2fa96486c6"><path class="uuid-d5644acd-36aa-4a7c-ad6b-16dba04c0b0f" d="M1284.98,50.3l.02,40.19s-100.17,43.43-359.48,89.99C389.91,276.64-4.67,207.09-4.67,207.09l-.35-13.13s400.67,72.92,916.98-37.19c171.48-36.57,373.02-106.48,373.02-106.48Z"/><path class="uuid-17723265-c5e4-4eeb-a6b0-1e9812c4da41" d="M1285.61-.17s18.27,28.95-331.41,112.62C593.26,198.82,185.35,205.95-4.85,179.95l.18,27.15s384.03,52.96,1008.44-73.79c200.49-40.7,281.2-81.97,281.2-81.97l.65-51.5Z"/><path class="uuid-8d037461-b21a-436f-a8f1-88b8ebd34bca" d="M1273.59,88.95l-7.39-45.01s-193.15,55.34-469.36,101.19C337.31,221.41-5.02,193.97-5.02,193.97c0,0,389.38,44.45,771.14-17.51,273.53-44.4,507.47-87.51,507.47-87.51Z"/><path class="uuid-4d4ac53e-a964-4d00-9a78-63dec456ad78" d="M-5.78,198.35s213.48,45.52,523.39,23.65c398.46-28.12,767.38-163.6,767.38-163.6l.46-32.32C425.43,316.29-4.68,189.91-4.68,189.91l-1.09,8.44Z"/></g></g></g></g></g></svg>