<?xml version="1.0" encoding="UTF-8"?><svg id="uuid-e730e633-5f37-4339-be98-1247e425b5a5" xmlns="http://www.w3.org/2000/svg" xmlns:xlink="http://www.w3.org/1999/xlink" viewBox="0 0 1281.22 298.52"><defs><style>.uuid-42b2acd0-9234-49ae-85df-58b413ce22b9{fill:none;}.uuid-95c8c0e7-d791-4f72-a8e8-ddbecad3f039{fill:url(#uuid-0b560b9a-cd91-489e-9fbf-ae9b427e06cf);}.uuid-f0a775df-b8af-440a-af92-e0206207b520{clip-path:url(#uuid-9316f183-96af-42e7-af4d-8e3a4a3cead6);}.uuid-2a70f6eb-4f0b-4d5d-bf0e-19f802829a98{fill:url(#uuid-a0573ee4-80e6-493a-942e-d848530b1e04);}.uuid-fc9e452d-cfeb-427b-9d60-6d6eb6df19d0{fill:#fff;}.uuid-7ac72a28-b918-4bf5-a5b4-99b9290daabc{fill:url(#uuid-9835f97f-00ce-476b-bff4-0861c3c4344c);}.uuid-2013ba8c-6e28-41c2-a21b-9f48c7fdfee8{clip-path:url(#uuid-70705a0a-9a9c-4484-b46d-1d89e0e9c6be);}</style><clipPath id="uuid-9316f183-96af-42e7-af4d-8e3a4a3cead6"><rect class="uuid-42b2acd0-9234-49ae-85df-58b413ce22b9" width="1281.22" height="298.52"/></clipPath><clipPath id="uuid-70705a0a-9a9c-4484-b46d-1d89e0e9c6be"><polygon class="uuid-42b2acd0-9234-49ae-85df-58b413ce22b9" points="1289.22 228.68 -1.07 205.77 -2.88 98.72 1290.53 113.83 1289.22 228.68"/></clipPath><linearGradient id="uuid-0b560b9a-cd91-489e-9fbf-ae9b427e06cf" x1="6926.49" y1="-96.24" x2="7251.12" y2="-559.87" gradientTransform="translate(9344.89 1476.23) rotate(-174.52) scale(1.24 -1.48)" gradientUnits="userSpaceOnUse"><stop offset="0" stop-color="#ffe608"/><stop offset=".3" stop-color="#fcd204"/><stop offset=".68" stop-color="#fabf01"/><stop offset=".95" stop-color="#fab900"/></linearGradient><linearGradient id="uuid-a0573ee4-80e6-493a-942e-d848530b1e04" x1="7000.27" y1="-236.29" x2="7039.22" y2="-403.06" gradientTransform="translate(9344.89 1476.23) rotate(-174.52) scale(1.24 -1.48)" gradientUnits="userSpaceOnUse"><stop offset="0" stop-color="#fff381"/><stop offset=".17" stop-color="#fff27d"/><stop offset=".31" stop-color="#ffee73"/><stop offset=".44" stop-color="#ffe961"/><stop offset=".57" stop-color="#ffe248"/><stop offset=".69" stop-color="#ffd828"/><stop offset=".81" stop-color="#ffcd01"/><stop offset=".82" stop-color="#ffcd00"/></linearGradient><linearGradient id="uuid-9835f97f-00ce-476b-bff4-0861c3c4344c" x1="6554.07" y1="-323.7" x2="7608.48" y2="-323.7" gradientTransform="translate(9344.89 1476.23) rotate(-174.52) scale(1.24 -1.48)" gradientUnits="userSpaceOnUse"><stop offset=".63" stop-color="#cdcdcd"/><stop offset=".67" stop-color="#b7b7b7"/><stop offset=".76" stop-color="#8d8d8d"/><stop offset=".83" stop-color="#6f6f6f"/><stop offset=".9" stop-color="#5d5d5c"/><stop offset=".95" stop-color="#575756"/></linearGradient></defs><g id="uuid-637ab01a-b92b-4824-a025-4a18b313c2ac"><g class="uuid-f0a775df-b8af-440a-af92-e0206207b520"><rect x="-246.29" y="-228.04" width="1955.72" height="398.51"/><rect class="uuid-fc9e452d-cfeb-427b-9d60-6d6eb6df19d0" x="-246.29" y="170.47" width="1955.72" height="368.05"/><g class="uuid-2013ba8c-6e28-41c2-a21b-9f48c7fdfee8"><path class="uuid-95c8c0e7-d791-4f72-a8e8-ddbecad3f039" d="M-26.03,189.48l6.99-70.12s685.79,63.61,1307.25,28.33c36.77-2.09,1.89,27.21,1.89,27.21C795.18,227.9-26.03,189.48-26.03,189.48Z"/><path class="uuid-2a70f6eb-4f0b-4d5d-bf0e-19f802829a98" d="M-14.35,125.73s150.44,11.87,530.87,30.73c380.44,18.87,706.91,4.17,777.09-4.59l150.89-1.46s-214.57,52.18-978.46,38.44c-234.68-4.22-483.94-15.62-483.94-15.62l3.55-47.5Z"/><path class="uuid-7ac72a28-b918-4bf5-a5b4-99b9290daabc" d="M1296.52,156.43c-216.26,15.44-430.57,16.62-746.35,9.43-171-3.9-566.31-27.24-566.31-27.24l-2.87,21.36s242.86,7.09,630.49,19.77c354.85,11.61,676.57-13.14,676.57-13.14l8.47-10.19Z"/></g></g></g></svg>