<?xml version="1.0" encoding="UTF-8"?><svg xmlns="http://www.w3.org/2000/svg" xmlns:xlink="http://www.w3.org/1999/xlink" viewBox="0 0 2523.02 523.35"><defs><style>.uuid-2a0f2045-64da-4092-a9dd-61016441d096{fill:none;}.uuid-27a143f4-9a71-4cd0-ab1f-92b361fda7e4{fill:url(#uuid-dc820647-0d6c-4bca-a4e5-4c9cfa1e7e3e);}.uuid-fe6a74a1-0aea-4b05-b976-420ee9010911{clip-path:url(#uuid-786ab2fd-5259-4726-a171-d82df55f86fb);}.uuid-b2c6224b-7ae0-422d-92f2-9b78128e9e01{isolation:isolate;}.uuid-eed4cf57-9ce9-40ee-a270-7b555fa27482{clip-path:url(#uuid-2865efc1-9b5c-4400-b600-df46aaa851ed);}.uuid-dddcddf2-e08f-4384-86bf-fd35395be632{fill:url(#uuid-5a9abec5-fdc8-4c81-91a6-8dc2dc9cfed3);}.uuid-b8f78511-f12f-4e5e-b2d5-513fd75f20dd{mix-blend-mode:overlay;}.uuid-d4e880d3-47cb-4058-9165-d35a6f406788{clip-path:url(#uuid-92a7b9b4-2737-40b7-a7dc-785627904a23);}.uuid-66bd788b-5ab3-401a-bb96-0915d17f8ae2{clip-path:url(#uuid-44adadd9-6320-44b2-bd86-833138164651);}.uuid-d96442fe-67ad-4ade-b85c-95cb20240c82{clip-path:url(#uuid-aa7fd55d-4d3b-4a8b-9532-1000696b452d);}.uuid-7fcf456e-54f1-455c-a3d2-aea05da7d8f3{fill:url(#uuid-57bbe727-d933-4233-b414-e475e304f7d9);}</style><clipPath id="uuid-2865efc1-9b5c-4400-b600-df46aaa851ed"><rect class="uuid-2a0f2045-64da-4092-a9dd-61016441d096" width="2523.02" height="523.35"/></clipPath><clipPath id="uuid-786ab2fd-5259-4726-a171-d82df55f86fb"><polygon class="uuid-2a0f2045-64da-4092-a9dd-61016441d096" points=".8 369.7 2533.54 324.73 2537.08 114.59 -1.76 144.26 .8 369.7"/></clipPath><linearGradient id="uuid-dc820647-0d6c-4bca-a4e5-4c9cfa1e7e3e" x1="3051.74" y1="46.67" x2="3688.97" y2="-863.39" gradientTransform="translate(-2812.99 1220.13) rotate(-5.48) scale(1.24 1.48)" gradientUnits="userSpaceOnUse"><stop offset="0" stop-color="#ffe608"/><stop offset=".3" stop-color="#fcd204"/><stop offset=".68" stop-color="#fabf01"/><stop offset=".95" stop-color="#fab900"/></linearGradient><linearGradient id="uuid-57bbe727-d933-4233-b414-e475e304f7d9" x1="3196.56" y1="-228.24" x2="3273.01" y2="-555.59" gradientTransform="translate(-2812.99 1220.13) rotate(-5.48) scale(1.24 1.48)" gradientUnits="userSpaceOnUse"><stop offset="0" stop-color="#fff381"/><stop offset=".17" stop-color="#fff27d"/><stop offset=".31" stop-color="#ffee73"/><stop offset=".44" stop-color="#ffe961"/><stop offset=".57" stop-color="#ffe248"/><stop offset=".69" stop-color="#ffd828"/><stop offset=".81" stop-color="#ffcd01"/><stop offset=".82" stop-color="#ffcd00"/></linearGradient><linearGradient id="uuid-5a9abec5-fdc8-4c81-91a6-8dc2dc9cfed3" x1="2320.72" y1="-399.81" x2="4390.43" y2="-399.81" gradientTransform="translate(-2812.99 1220.13) rotate(-5.48) scale(1.24 1.48)" gradientUnits="userSpaceOnUse"><stop offset=".63" stop-color="#cdcdcd"/><stop offset=".67" stop-color="#b7b7b7"/><stop offset=".76" stop-color="#8d8d8d"/><stop offset=".83" stop-color="#6f6f6f"/><stop offset=".9" stop-color="#5d5d5c"/><stop offset=".95" stop-color="#575756"/></linearGradient><clipPath id="uuid-44adadd9-6320-44b2-bd86-833138164651"><polygon class="uuid-2a0f2045-64da-4092-a9dd-61016441d096" points=".8 369.7 2533.54 324.73 2537.08 114.59 -1.76 144.26 .8 369.7"/></clipPath><clipPath id="uuid-aa7fd55d-4d3b-4a8b-9532-1000696b452d"><polygon class="uuid-2a0f2045-64da-4092-a9dd-61016441d096" points=".8 369.7 2533.54 324.73 2537.08 114.59 -1.76 144.26 .8 369.7"/></clipPath><clipPath id="uuid-92a7b9b4-2737-40b7-a7dc-785627904a23"><polygon class="uuid-2a0f2045-64da-4092-a9dd-61016441d096" points=".8 369.7 2533.54 324.73 2537.08 114.59 -1.76 144.26 .8 369.7"/></clipPath></defs><g class="uuid-b2c6224b-7ae0-422d-92f2-9b78128e9e01"><g id="uuid-c1ceb12e-3125-4c7f-bba6-1affd60930bd"><g id="uuid-88c4a1eb-f057-4c86-94ce-a2ccf71da5df"><g class="uuid-eed4cf57-9ce9-40ee-a270-7b555fa27482"><g class="uuid-fe6a74a1-0aea-4b05-b976-420ee9010911"><path class="uuid-27a143f4-9a71-4cd0-ab1f-92b361fda7e4" d="M2582.52,292.75l-13.73-137.64S1222.64,279.97,2.79,210.72c-72.18-4.1-3.71,53.41-3.71,53.41,971.5,104.04,2583.45,28.62,2583.45,28.62Z"/><path class="uuid-7fcf456e-54f1-455c-a3d2-aea05da7d8f3" d="M2559.6,167.62s-295.29,23.29-1042.06,60.33c-746.77,37.04-1387.6,8.19-1525.37-9.02l-296.18-2.86s421.18,102.42,1920.64,75.45c460.66-8.29,949.93-30.67,949.93-30.67l-6.96-93.23Z"/><path class="uuid-dddcddf2-e08f-4384-86bf-fd35395be632" d="M-13.53,227.89c424.51,30.31,845.16,32.62,1465.01,18.5,335.67-7.65,1111.61-53.46,1111.61-53.46l5.63,41.93s-476.71,13.92-1237.59,38.82C634.61,296.47,3.09,247.89,3.09,247.89l-16.62-20Z"/></g><g class="uuid-b8f78511-f12f-4e5e-b2d5-513fd75f20dd"><g class="uuid-66bd788b-5ab3-401a-bb96-0915d17f8ae2"><path class="uuid-27a143f4-9a71-4cd0-ab1f-92b361fda7e4" d="M2582.52,292.75l-13.73-137.64S1222.64,279.97,2.79,210.72c-72.18-4.1-3.71,53.41-3.71,53.41,971.5,104.04,2583.45,28.62,2583.45,28.62Z"/><path class="uuid-7fcf456e-54f1-455c-a3d2-aea05da7d8f3" d="M2559.6,167.62s-295.29,23.29-1042.06,60.33c-746.77,37.04-1387.6,8.19-1525.37-9.02l-296.18-2.86s421.18,102.42,1920.64,75.45c460.66-8.29,949.93-30.67,949.93-30.67l-6.96-93.23Z"/><path class="uuid-dddcddf2-e08f-4384-86bf-fd35395be632" d="M-13.53,227.89c424.51,30.31,845.16,32.62,1465.01,18.5,335.67-7.65,1111.61-53.46,1111.61-53.46l5.63,41.93s-476.71,13.92-1237.59,38.82C634.61,296.47,3.09,247.89,3.09,247.89l-16.62-20Z"/></g></g><g class="uuid-b8f78511-f12f-4e5e-b2d5-513fd75f20dd"><g class="uuid-d96442fe-67ad-4ade-b85c-95cb20240c82"><path class="uuid-27a143f4-9a71-4cd0-ab1f-92b361fda7e4" d="M2582.52,292.75l-13.73-137.64S1222.64,279.97,2.79,210.72c-72.18-4.1-3.71,53.41-3.71,53.41,971.5,104.04,2583.45,28.62,2583.45,28.62Z"/><path class="uuid-7fcf456e-54f1-455c-a3d2-aea05da7d8f3" d="M2559.6,167.62s-295.29,23.29-1042.06,60.33c-746.77,37.04-1387.6,8.19-1525.37-9.02l-296.18-2.86s421.18,102.42,1920.64,75.45c460.66-8.29,949.93-30.67,949.93-30.67l-6.96-93.23Z"/><path class="uuid-dddcddf2-e08f-4384-86bf-fd35395be632" d="M-13.53,227.89c424.51,30.31,845.16,32.62,1465.01,18.5,335.67-7.65,1111.61-53.46,1111.61-53.46l5.63,41.93s-476.71,13.92-1237.59,38.82C634.61,296.47,3.09,247.89,3.09,247.89l-16.62-20Z"/></g></g><g class="uuid-b8f78511-f12f-4e5e-b2d5-513fd75f20dd"><g class="uuid-d4e880d3-47cb-4058-9165-d35a6f406788"><path class="uuid-27a143f4-9a71-4cd0-ab1f-92b361fda7e4" d="M2582.52,292.75l-13.73-137.64S1222.64,279.97,2.79,210.72c-72.18-4.1-3.71,53.41-3.71,53.41,971.5,104.04,2583.45,28.62,2583.45,28.62Z"/><path class="uuid-7fcf456e-54f1-455c-a3d2-aea05da7d8f3" d="M2559.6,167.62s-295.29,23.29-1042.06,60.33c-746.77,37.04-1387.6,8.19-1525.37-9.02l-296.18-2.86s421.18,102.42,1920.64,75.45c460.66-8.29,949.93-30.67,949.93-30.67l-6.96-93.23Z"/><path class="uuid-dddcddf2-e08f-4384-86bf-fd35395be632" d="M-13.53,227.89c424.51,30.31,845.16,32.62,1465.01,18.5,335.67-7.65,1111.61-53.46,1111.61-53.46l5.63,41.93s-476.71,13.92-1237.59,38.82C634.61,296.47,3.09,247.89,3.09,247.89l-16.62-20Z"/></g></g></g></g></g></g></svg>