<?xml version="1.0" encoding="UTF-8"?><svg id="uuid-3c73326e-9b71-4709-9c82-25371c2e9d45" xmlns="http://www.w3.org/2000/svg" viewBox="0 0 400 154.72"><defs><style>.uuid-a83fc91c-47de-4796-ba7e-6b223517769c{fill:#ffcb00;}.uuid-a83fc91c-47de-4796-ba7e-6b223517769c,.uuid-c2981abb-8255-422f-ac8c-05a08654a8c2{fill-rule:evenodd;}.uuid-98a14cea-3b12-47d6-8032-7c7371b4dff8{fill:#fff;}.uuid-dd31495e-8d52-4047-a5be-c4db8a038a7a{fill:#cececd;}</style></defs><g id="uuid-be76b574-db89-493d-92dc-d76a83969fde"><path class="uuid-98a14cea-3b12-47d6-8032-7c7371b4dff8" d="M399.97,7.3c-.13-.83-.67-1.55-1.43-1.9-7.7-3.58-17.21-5.4-28.27-5.4-12.12,0-25.41,2.18-39.52,6.48-28.88,8.81-56.78,25.28-76.56,45.19-.63.63-.85,1.55-.63,2.4-1.08-.07-2.22-.1-3.44-.1h-13.24l11.19-18.6c.47-.78.48-1.75.03-2.55-.45-.79-1.29-1.28-2.2-1.28h-18.23c-.9,0-1.73.47-2.18,1.25l-18.23,31.03c-1.17-5.23-6.05-10.54-21.03-10.54h-36.91c-.54,0-1.04.18-1.46.49-.38-.23-.82-.37-1.29-.37h-33.16c-.33,0-.66-.01-.98-.01-8.87,0-15.08,3.92-17.96,11.35l-12.1,25.8-5.78,11.91c-.38.78-.33,1.71.13,2.45.46.74,1.27,1.19,2.14,1.19h17.57c.98,0,1.88-.57,2.29-1.46l5.72-12.25,9.91-20.75c.39-.41,1.07-.81,2.57-.81h23.63c.53,0,1.03-.18,1.45-.48.42.3.92.48,1.45.48h1.96c-3.98.54-7.13,2.69-8.98,6.18l-6.79,13.46c-.03.06-.05.11-.08.17l-.11.27c-.02.06-.04.11-.06.17-.57,1.71-.83,3.05-.83,4.21,0,4.99,3.18,10.94,18.31,10.94h23.43c10.75,0,18.23-2.85,22.3-8.45.5,2.94,2.39,5.92,7.33,7.65-21.99,8.23-46.35,14.41-70.94,17.95-14.47,2.08-28.29,3.14-41.08,3.14-26.88,0-47.72-4.8-57.57-13.04.02-.36-.02-.73-.16-1.08-1.61-4.13-1.5-8.24.32-12.21,3.44-7.53,11.88-12.8,18.63-15.21.71-.26,1.27-.82,1.53-1.53l5.5-15.37c.12-.3.19-.63.19-.97,0-.32-.07-.63-.18-.91.81-.78,1.04-2.03.47-3.05-.46-.83-1.32-1.3-2.21-1.3-.4,0-.8.09-1.17.29-16.95,8.87-30.74,18.76-39.87,28.62-.14.15-.26.32-.36.49-.75,1.35-1.38,2.68-1.89,3.97-.42,1.06-.77,2.12-1.05,3.16-.04-.02-.08-.04-.12-.07-.37-.19-.77-.28-1.16-.28-.82,0-1.62.4-2.11,1.13-2.23,3.35-3.92,6.69-5.04,9.94-2.95,8.59-1.94,16.73,2.93,23.54,10.04,14.06,35.98,22.13,71.19,22.13,12.55,0,26-1.02,40-3.03,46.48-6.69,92.38-23.31,122.78-44.44.24-.16.43-.36.6-.58,8.19-.78,14.03-3.57,17.43-8.35,1.29,4.08,5.74,7.89,17.85,7.89h23.44c7.05,0,12.7-1.22,16.9-3.64-.32.75-.28,1.61.16,2.32.46.75,1.28,1.2,2.15,1.2h18.4c.96,0,1.83-.54,2.26-1.4l32.52-65.04c.2-.36.32-.78.32-1.23,0-1.4-1.13-2.53-2.53-2.53h-18.02c-.95,0-1.83.54-2.26,1.39l-13.1,25.89c-1.42-5.01-6.5-9.88-20.86-9.88h-30.68c5.21-3.07,10.62-5.91,16.17-8.5.46.82,1.31,1.31,2.21,1.31.29,0,.57-.05.86-.15,25.45-9.17,44.85-11.05,58.91-11.66.17,0,.34-.03.5-.07l13.21-3.3c.8-.2,1.42-.77,1.72-1.5.01,0,.03,0,.04,0,.63,0,1.25-.24,1.72-.67l20.75-19.18c.62-.57.91-1.42.78-2.25Z"/><path class="uuid-98a14cea-3b12-47d6-8032-7c7371b4dff8" d="M40.5,49.18h28.38l-26.58,53.74c-.39.78-.34,1.71.12,2.45.46.74,1.27,1.19,2.15,1.19h18.6c.95,0,1.83-.54,2.26-1.39l28.29-56h104.44c.93,0,1.79-.51,2.23-1.34l6.86-12.85c.42-.78.39-1.73-.06-2.49-.46-.76-1.28-1.23-2.17-1.23H46.83c-.96,0-1.84.55-2.27,1.41l-6.33,12.85c-.39.78-.34,1.71.12,2.45.46.74,1.27,1.19,2.15,1.19Z"/><path class="uuid-98a14cea-3b12-47d6-8032-7c7371b4dff8" d="M375.13,39.6c-4.29,0-7.79,3.49-7.79,7.79s3.49,7.79,7.79,7.79,7.79-3.49,7.79-7.79-3.49-7.79-7.79-7.79ZM371.57,43.46h0c-.32.29-.61.6-.85.96-.38.57-.66,1.21-.8,1.9-.07.35-.11.7-.11,1.07h0c0-.37.04-.73.11-1.07.14-.69.42-1.34.8-1.9.24-.36.54-.67.85-.96ZM375.12,44.53c-.1,0-.2,0-.28,0-.17,0-.29.02-.38.03.09-.01.22-.02.38-.03.08,0,.18,0,.28,0h0ZM376.38,43.38c.41.1.74.25,1.01.46.23.18.41.41.53.68-.12-.27-.3-.5-.53-.68-.27-.22-.61-.37-1.01-.46ZM378.2,50.34c-.12-.44-.27-1.03-.41-1.57-.05-.18-.1-.34-.17-.49-.19-.45-.45-.77-.85-.93v-.03c.25-.09.5-.24.71-.44.15-.14.28-.29.38-.48-.1.18-.23.34-.38.48-.22.2-.47.35-.71.44v.03c.4.16.66.48.85.93.06.15.12.31.17.49.15.54.29,1.13.41,1.57h0ZM370.86,47.39c0-.86.26-1.67.71-2.34v4.68c-.44-.67-.71-1.48-.71-2.34ZM371.72,51.45h0c-.12-.1-.25-.18-.35-.29.11.11.24.19.35.29ZM375.4,50.93v-.29c.09.3.19.58.28.77.03.07.08.12.12.18-.22.04-.44.07-.67.07,0,0-.01,0-.02,0,.18-.19.29-.44.29-.72ZM378.98,49.18c-.06-.23-.12-.47-.18-.69-.06-.2-.17-.61-.41-1.03.37-.4.64-.92.73-1.53.17.46.27.94.27,1.46,0,.64-.15,1.25-.41,1.79ZM378.75,43.51s.1.07.14.11c-.04-.04-.09-.07-.14-.11ZM372.42,51.95h0c.21.12.41.25.63.34-.22-.09-.43-.22-.63-.34ZM380.45,47.39c0-.37-.04-.73-.11-1.07-.14-.69-.42-1.34-.8-1.9.38.57.66,1.21.8,1.9.07.35.11.7.11,1.07h0ZM379.41,52.58c.83-.69,1.5-1.57,1.92-2.57.34-.8.53-1.69.53-2.62s-.19-1.81-.53-2.62c-.38-.9-.96-1.7-1.67-2.35.71.65,1.29,1.45,1.67,2.35.34.8.53,1.69.53,2.62s-.19,1.81-.53,2.62c-.43,1.01-1.09,1.89-1.92,2.57Z"/><path d="M372.63,43.4c.55-.09,1.37-.16,2.3-.16,1.13,0,1.93.17,2.47.6.46.36.71.91.71,1.61,0,.96-.69,1.63-1.35,1.87v.03c.53.22.83.71,1.02,1.42.24.87.47,1.87.61,2.16h-1.77c-.11-.23-.31-.84-.52-1.78-.22-.96-.54-1.21-1.26-1.22h-.51v3h-1.71v-7.53ZM374.34,46.69h.68c.86,0,1.37-.43,1.37-1.1s-.48-1.05-1.27-1.05c-.42,0-.66.02-.78.06v2.1Z"/><path d="M375.13,54.12c-3.71,0-6.73-3.02-6.73-6.73s3.02-6.73,6.73-6.73,6.73,3.02,6.73,6.73-3.02,6.73-6.73,6.73ZM375.13,42.07c-2.94,0-5.32,2.39-5.32,5.32s2.39,5.32,5.32,5.32,5.32-2.39,5.32-5.32-2.39-5.32-5.32-5.32Z"/><path class="uuid-dd31495e-8d52-4047-a5be-c4db8a038a7a" d="M268.93,66.88c-.29-6.89-6.62-10.38-18.8-10.38h-17.71l13.49-22.43h-18.23l-18.3,31.15-13.59,27.05-.11.26c-.48,1.42-.71,2.54-.71,3.42,0,5.58,5.31,8.41,15.78,8.41h23.43c11.45,0,18.77-3.36,21.74-9.95l13.03-27.03-.02-.5Z"/><path class="uuid-a83fc91c-47de-4796-ba7e-6b223517769c" d="M215.8,94.35h21.31c1.6,0,3.06-.88,3.78-2.27l10.69-20.65c1.43-2.75-.62-6.01-3.78-6.01h-21.56c-1.61,0-1.01-.12-1.72,1.29l-11.47,21.67c-1.39,2.75-.39,5.96,2.75,5.96h0Z"/><path class="uuid-a83fc91c-47de-4796-ba7e-6b223517769c" d="M247.8,65.1h-21.56c-1.61,0-1.01-.12-1.72,1.29l-11.47,21.67c-1.39,2.75-.39,5.96,2.75,5.96h21.31c1.6,0,3.06-.88,3.78-2.27l10.69-20.65c1.43-2.75-.62-6.01-3.78-6.01Z"/><path class="uuid-dd31495e-8d52-4047-a5be-c4db8a038a7a" d="M332.63,66.69l-.02-.5c-.29-6.89-6.61-10.38-18.8-10.38h-36.91l-5.88,12.47h40.49c1.08,0,1.47.25,1.63.59l-2.34,4.33h-35.77c-4.03,0-7.07,1.71-8.8,4.97l-6.77,13.41-.11.27c-.47,1.42-.7,2.54-.7,3.41,0,5.58,5.31,8.41,15.77,8.41h23.44c11.44,0,18.77-3.36,21.74-9.95l13.02-27.03ZM304.77,85.92l-1.79,3.34c-1.05,1.11-2.14,1.75-3.33,1.94l-18.94-.12c-.36,0-1.92-.03-2.43-.46l2.44-4.71h24.05Z"/><polygon class="uuid-dd31495e-8d52-4047-a5be-c4db8a038a7a" points="350.03 38.41 317.07 103.55 335.47 103.55 368.04 38.41 350.03 38.41"/><polygon class="uuid-dd31495e-8d52-4047-a5be-c4db8a038a7a" points="198.16 46.65 205.02 33.8 46.84 33.8 40.51 46.65 72.96 46.65 44.57 104.04 63.17 104.04 92.17 46.65 198.16 46.65"/><path class="uuid-dd31495e-8d52-4047-a5be-c4db8a038a7a" d="M146.57,55.93h-33.2c-8.4-.27-13.98,3.03-16.58,9.8l-12.14,25.88-5.8,11.94h17.57l5.72-12.25,10.07-21.07c1.04-1.31,2.58-1.94,4.71-1.94h23.63l6.02-12.35Z"/><path class="uuid-dd31495e-8d52-4047-a5be-c4db8a038a7a" d="M205.04,66.19c-.3-6.89-6.62-10.38-18.8-10.38h-36.91l-5.88,12.48h40.49c1.08,0,1.47.25,1.63.59l-2.34,4.33h-35.77c-4.03,0-7.06,1.71-8.8,4.97l-6.76,13.41-.11.27c-.48,1.45-.71,2.53-.71,3.41,0,5.58,5.31,8.41,15.78,8.41h23.43c11.44,0,18.76-3.36,21.74-9.95l13.03-27.03-.02-.5ZM175.41,89.26c-1.05,1.11-2.14,1.75-3.33,1.94l-18.94-.12c-.36,0-1.93-.03-2.43-.45l2.44-4.71h24.06l-1.79,3.34Z"/><path class="uuid-c2981abb-8255-422f-ac8c-05a08654a8c2" d="M308.45,83.02l-3.5,6.52c-1.45,1.61-3.06,2.54-4.84,2.78l-19.09-.12c-2.98,0-4.51-.89-4.59-2.66l3.39-6.52h28.63ZM309.3,74.32h-33.95c-3.3,0-5.64,1.29-7,3.87l-6.77,13.41c-.4,1.21-.6,2.13-.6,2.78,0,4.27,4.58,6.4,13.77,6.4h23.44c10.63,0,17.28-2.94,19.93-8.82l12.81-26.58c-.24-5.64-5.84-8.46-16.79-8.46h-35.64l-3.98,8.46h37.33c2.26,0,3.51.96,3.75,2.9l-3.26,6.04h-3.02Z"/><polygon class="uuid-c2981abb-8255-422f-ac8c-05a08654a8c2" points="365.11 39.53 334.55 100.65 320.66 100.65 351.58 39.53 365.11 39.53"/><polygon class="uuid-c2981abb-8255-422f-ac8c-05a08654a8c2" points="94.64 43.75 197.28 43.75 201.99 34.91 48.41 34.91 44.06 43.75 76.51 43.75 48.13 101.14 62.26 101.14 91.25 43.75 94.64 43.75"/><path class="uuid-c2981abb-8255-422f-ac8c-05a08654a8c2" d="M128.3,65.38h-11.06c-2.86,0-5,.96-6.43,2.9l-10.16,21.26-5.19,11.11h-13.08l4.4-9.06,12.19-25.97c2.25-5.96,7.14-8.82,14.66-8.58h30.05l-4.06,8.34h-11.32Z"/><path class="uuid-c2981abb-8255-422f-ac8c-05a08654a8c2" d="M180.89,83.02l-3.5,6.52c-1.45,1.61-3.06,2.54-4.84,2.78l-19.08-.12c-2.98,0-4.51-.89-4.59-2.66l3.38-6.52h28.63ZM181.73,74.32h-33.95c-3.3,0-5.64,1.29-7.01,3.87l-6.76,13.41c-.4,1.21-.6,2.13-.6,2.78,0,4.27,4.59,6.4,13.77,6.4h23.43c10.63,0,17.27-2.94,19.93-8.82l12.81-26.58c-.25-5.64-5.84-8.46-16.79-8.46h-35.64l-3.98,8.46h37.33c2.26,0,3.51.96,3.74,2.9l-3.26,6.04h-3.02Z"/><path class="uuid-c2981abb-8255-422f-ac8c-05a08654a8c2" d="M242.36,66.07h-11.84c-3.06,0-5.35.96-6.89,2.9l-10.87,21.26c.08,1.77,1.61,2.66,4.59,2.66l19.08.12c1.86-.24,3.35-1.17,4.47-2.78l10.99-21.26c-.24-1.93-1.49-2.9-3.75-2.9h-5.79ZM267.24,66.07l-12.81,26.58c-2.65,5.88-9.3,8.82-19.93,8.82h-23.43c-9.18,0-13.77-2.13-13.77-6.4,0-.65.2-1.57.6-2.78l13.52-26.94,17.72-30.16h13.53l-13.49,22.43h21.26c10.96,0,16.55,2.82,16.79,8.46h0Z"/><path class="uuid-a83fc91c-47de-4796-ba7e-6b223517769c" d="M374.36,28.44l-13.21,3.3c-12.66.55-33.02,2.2-59.66,11.81,7.98-5.89,51.04-19.45,72.87-15.11h0Z"/><path class="uuid-a83fc91c-47de-4796-ba7e-6b223517769c" d="M53.82,67.06l-5.54,15.49c-12.38,4.43-26.09,16.23-20.46,30.72-10.82-14.49-.47-28.59,26-46.22h0Z"/><path class="uuid-c2981abb-8255-422f-ac8c-05a08654a8c2" d="M235.49,105.16h-12.17c-2.24,1.32-4.56,2.62-6.97,3.9-1.05-.03-2.22-.05-3.32-.16,2.58-1.22,5.07-2.47,7.49-3.74h-8.46c-1.43,0-2.8-.06-4.1-.16-22.96,9.29-50.31,16.78-78.61,20.85-68.07,9.8-115.82-3.91-106.65-30.62,3.54-10.31,15.04-21.04,31.73-30.91-16.51,8.64-30.06,18.25-39.18,28.1-.68,1.23-1.27,2.45-1.76,3.68-2.26,5.7-2.23,10.95-.2,15.65-1.32,0-3.45,1.12-5.12,2.66-1.43-4.24-1.28-8.9.64-13.9-2.08,3.13-3.68,6.26-4.75,9.37-11.04,32.15,38.81,49.75,111.36,39.31,47.49-6.84,92.93-24,121.75-44.05-.55.02-1.11.03-1.67.03h0ZM21.36,128.71c.16-2.06,1.03-3.85,2.25-5.38l-.31-.37c10.03,6.78,26.16,11.32,46.57,12.92-.17,1.54-.16,3.01.05,4.41-20.84-1.15-37.62-5.23-48.56-11.58h0ZM111.41,139.06c-8.6.89-16.84,1.39-24.66,1.53-.5-1.23-.88-2.6-1.15-4.07,9.49.05,19.66-.45,30.38-1.57,5.46-.57,10.89-1.28,16.27-2.12.95,1.01,1.92,1.97,2.86,2.87-7.8,1.39-15.72,2.53-23.7,3.35h0ZM148.7,132.98c-1.33-.61-2.54-1.38-3.31-2.46,9.77-1.92,19.31-4.26,28.44-6.93.86.65,1.77,1.28,2.65,1.9-8.87,2.83-18.18,5.35-27.78,7.49h0ZM190.24,120.71c-1.02-.38-2.02-.82-2.87-1.43,5.78-1.99,11.34-4.12,16.64-6.35.93.29,1.89.57,2.74.89-5.22,2.42-10.74,4.72-16.51,6.9h0Z"/><path class="uuid-c2981abb-8255-422f-ac8c-05a08654a8c2" d="M331.5,8.9c-29.43,8.97-56.85,25.77-75.51,44.55,2.11.23,4.11.6,5.93,1.17,1.95-1.63,3.96-3.23,6.04-4.81.55,1.03,1.25,1.91,2.1,2.62-1.6,1.19-3.15,2.41-4.68,3.63,1.53.84,2.82,1.9,3.8,3.2,15.57-11,34.66-20.56,54.82-26.71,20.58-6.27,38.9-7.96,52.73-5.69l20.75-19.18c-15.05-7-38.57-7.15-65.98,1.21h0ZM277.9,46.89c-.86-.63-1.68-1.45-2.44-2.47,2.99-2.04,6.09-4.03,9.28-5.95.54,1.07,1.24,2,2.1,2.8-3.06,1.81-6.04,3.68-8.94,5.62h0ZM296.58,35.89c-.88-.73-1.68-1.66-2.41-2.77,4.76-2.54,9.69-4.92,14.74-7.13.33,1.26.85,2.39,1.56,3.4-4.74,1.99-9.38,4.16-13.89,6.49h0ZM325.95,23.67c-1.71.55-3.41,1.12-5.1,1.72-.78-.95-1.46-2.08-2.03-3.42,3.64-1.37,7.33-2.64,11.06-3.8,3.41-1.06,6.69-1.99,9.86-2.83.22,1.46.68,2.82,1.36,4.08-4.8,1.16-9.85,2.56-15.15,4.25h0ZM370.09,14.92c-4.68.28-9.83.83-15.42,1.74-.8-1.23-1.44-2.68-1.92-4.33,8.36-1.64,15.75-2.5,22.14-2.82-1.55,1.33-3.34,3.38-4.81,5.41h0Z"/></g></svg>